<?xml version="1.0" encoding="utf-8"?>
<svg version="1.1" xmlns="http://www.w3.org/2000/svg" xmlns:xlink="http://www.w3.org/1999/xlink" width="708" height="308">
  <defs />
  <g>
    <g transform="translate(-54,2) scale(1,1)">
      <path fill="none" stroke="#000000" d="M 96 8 L 752 8 L 752 288 L 96 288 L 96 8" stroke-miterlimit="10" />
    </g>
    <g transform="translate(-54,2) scale(1,1)">
      <path fill="#ffffff" stroke="none" d="M 96 8 L 96 30 L 307.84423828125 30 L 318.84423828125 19 L 318.84423828125 8 L 96 8" />
    </g>
    <g transform="translate(-54,2) scale(1,1)">
      <path fill="none" stroke="#000000" d="M 96 8 L 96 30 L 307.84423828125 30 L 318.84423828125 19 L 318.84423828125 8 L 96 8 L 96 8" stroke-miterlimit="10" />
    </g>
    <g transform="translate(-54,2) scale(1,1)">
      <g>
        <path fill="none" stroke="none" />
        <text fill="#000000" stroke="none" font-family="Arial" font-size="13px" font-style="normal" font-weight="normal" text-decoration="none" x="166.97900390625" y="25.5">Teleport gate destroyed</text>
      </g>
    </g>
    <g transform="translate(-54,2) scale(1,1)">
      <g>
        <path fill="none" stroke="none" />
        <text fill="#000000" stroke="none" font-family="Arial" font-size="13px" font-style="normal" font-weight="bold" text-decoration="none" x="101" y="25.5">interaction</text>
      </g>
    </g>
    <g transform="translate(-54,2) scale(1,1)">
      <rect fill="#C0C0C0" stroke="none" x="167" y="47" width="140.11962890625" height="39" opacity="0.2" />
    </g>
    <g transform="translate(-54,2) scale(1,1)">
      <rect fill="#ffffff" stroke="none" x="160" y="40" width="140.11962890625" height="39" />
    </g>
    <g transform="translate(-54,2) scale(1,1)">
      <path fill="none" stroke="#000000" d="M 160 40 L 300.11962890625 40 L 300.11962890625 79 L 160 79 L 160 40 Z Z" stroke-miterlimit="10" />
    </g>
    <g transform="translate(-54,2) scale(1,1)">
      <g>
        <path fill="none" stroke="none" />
        <text fill="#000000" stroke="none" font-family="Arial" font-size="13px" font-style="normal" font-weight="bold" text-decoration="none" x="176.580810546875" y="59.5">gate: TeleportGate</text>
      </g>
    </g>
    <g transform="translate(-54,2) scale(1,1)">
      <path fill="none" stroke="#000000" d="M 231.5 80 L 231.5 296" stroke-miterlimit="10" stroke-dasharray="3" />
    </g>
    <g transform="translate(-54,2) scale(1,1)">
      <rect fill="#C0C0C0" stroke="none" x="335" y="47" width="137.94873046875" height="39" opacity="0.2" />
    </g>
    <g transform="translate(-54,2) scale(1,1)">
      <rect fill="#ffffff" stroke="none" x="328" y="40" width="137.94873046875" height="39" />
    </g>
    <g transform="translate(-54,2) scale(1,1)">
      <path fill="none" stroke="#000000" d="M 328 40 L 465.94873046875 40 L 465.94873046875 79 L 328 79 L 328 40 Z Z" stroke-miterlimit="10" />
    </g>
    <g transform="translate(-54,2) scale(1,1)">
      <g>
        <path fill="none" stroke="none" />
        <text fill="#000000" stroke="none" font-family="Arial" font-size="13px" font-style="normal" font-weight="bold" text-decoration="none" x="345.3076171875" y="59.5">pair: TeleportGate</text>
      </g>
    </g>
    <g transform="translate(-54,2) scale(1,1)">
      <path fill="none" stroke="#000000" d="M 397.5 80 L 397.5 296" stroke-miterlimit="10" stroke-dasharray="3" />
    </g>
    <g transform="translate(-54,2) scale(1,1)">
      <path fill="#000000" stroke="none" d="M 64 109.5 C 64 105.6340064 67.1340064 102.5 71 102.5 C 74.8659936 102.5 78 105.6340064 78 109.5 C 78 113.3659936 74.8659936 116.5 71 116.5 C 67.1340064 116.5 64 113.3659936 64 109.5 Z" />
    </g>
    <g transform="translate(-54,2) scale(1,1)">
      <rect fill="#C0C0C0" stroke="none" x="535" y="47" width="86.90087890625" height="39" opacity="0.2" />
    </g>
    <g transform="translate(-54,2) scale(1,1)">
      <rect fill="#ffffff" stroke="none" x="528" y="40" width="86.90087890625" height="39" />
    </g>
    <g transform="translate(-54,2) scale(1,1)">
      <path fill="none" stroke="#000000" d="M 528 40 L 614.90087890625 40 L 614.90087890625 79 L 528 79 L 528 40 Z Z" stroke-miterlimit="10" />
    </g>
    <g transform="translate(-54,2) scale(1,1)">
      <g>
        <path fill="none" stroke="none" />
        <text fill="#000000" stroke="none" font-family="Arial" font-size="13px" font-style="normal" font-weight="bold" text-decoration="none" x="540.378662109375" y="59.5">a: Asteroid</text>
      </g>
    </g>
    <g transform="translate(-54,2) scale(1,1)">
      <path fill="none" stroke="#000000" d="M 572.5 80 L 572.5 288" stroke-miterlimit="10" stroke-dasharray="3" />
    </g>
    <g transform="translate(-54,2) scale(1,1)">
      <path fill="#000000" stroke="none" d="M 64 263.5 C 64 259.6340064 67.1340064 256.5 71 256.5 C 74.8659936 256.5 78 259.6340064 78 263.5 C 78 267.3659936 74.8659936 270.5 71 270.5 C 67.1340064 270.5 64 267.3659936 64 263.5 Z" />
    </g>
    <g transform="translate(-54,2) scale(1,1)">
      <rect fill="#C0C0C0" stroke="none" x="639" y="47" width="94.130859375" height="39" opacity="0.2" />
    </g>
    <g transform="translate(-54,2) scale(1,1)">
      <rect fill="#ffffff" stroke="none" x="632" y="40" width="94.130859375" height="39" />
    </g>
    <g transform="translate(-54,2) scale(1,1)">
      <path fill="none" stroke="#000000" d="M 632 40 L 726.130859375 40 L 726.130859375 79 L 632 79 L 632 40 Z Z" stroke-miterlimit="10" />
    </g>
    <g transform="translate(-54,2) scale(1,1)">
      <g>
        <path fill="none" stroke="none" />
        <text fill="#000000" stroke="none" font-family="Arial" font-size="13px" font-style="normal" font-weight="bold" text-decoration="none" x="644.378662109375" y="59.5">a2: Asteroid</text>
      </g>
    </g>
    <g transform="translate(-54,2) scale(1,1)">
      <path fill="none" stroke="#000000" d="M 680.5 80 L 680.5 296" stroke-miterlimit="10" stroke-dasharray="3" />
    </g>
    <g transform="translate(-54,2) scale(1,1)">
      <path fill="none" stroke="#000000" d="M 78 110 L 224 110" stroke-miterlimit="10" />
    </g>
    <g transform="translate(-54,2) scale(1,1)">
      <path fill="#000000" stroke="none" d="M 213.83732514237585 114.20951775601598 L 224 110 L 213.83732514237585 105.79048224398402" />
    </g>
    <g transform="translate(-54,2) scale(1,1)">
      <path fill="none" stroke="#000000" d="M 213.83732514237585 114.20951775601598 L 224 110 L 213.83732514237585 105.79048224398402 L 213.83732514237585 114.20951775601598" stroke-miterlimit="10" />
    </g>
    <g transform="translate(-54,2) scale(1,1)">
      <g>
        <path fill="none" stroke="none" />
        <text fill="#000000" stroke="none" font-family="Arial" font-size="13px" font-style="normal" font-weight="normal" text-decoration="none" x="114.57177734375" y="106.5">1 : Explode()</text>
      </g>
    </g>
    <g transform="translate(-54,2) scale(1,1)">
      <rect fill="#ffffff" stroke="none" x="224" y="110" width="13" height="162" />
    </g>
    <g transform="translate(-54,2) scale(1,1)">
      <path fill="none" stroke="#000000" d="M 224 110 L 237 110 L 237 272 L 224 272 L 224 110 Z Z" stroke-miterlimit="10" />
    </g>
    <g transform="translate(-54,2) scale(1,1)">
      <path fill="none" stroke="#000000" d="M 237 139 L 390 139" stroke-miterlimit="10" />
    </g>
    <g transform="translate(-54,2) scale(1,1)">
      <path fill="#000000" stroke="none" d="M 379.83732514237585 143.209517756016 L 390 139 L 379.83732514237585 134.790482243984" />
    </g>
    <g transform="translate(-54,2) scale(1,1)">
      <path fill="none" stroke="#000000" d="M 379.83732514237585 143.209517756016 L 390 139 L 379.83732514237585 134.790482243984 L 379.83732514237585 143.209517756016" stroke-miterlimit="10" />
    </g>
    <g transform="translate(-54,2) scale(1,1)">
      <g>
        <path fill="none" stroke="none" />
        <text fill="#000000" stroke="none" font-family="Arial" font-size="13px" font-style="normal" font-weight="normal" text-decoration="none" x="258.5" y="135.5">2 : PairDestroyed()</text>
      </g>
    </g>
    <g transform="translate(-54,2) scale(1,1)">
      <rect fill="#ffffff" stroke="none" x="390" y="139" width="13" height="101" />
    </g>
    <g transform="translate(-54,2) scale(1,1)">
      <path fill="none" stroke="#000000" d="M 390 139 L 403 139 L 403 240 L 390 240 L 390 139 Z Z" stroke-miterlimit="10" />
    </g>
    <g transform="translate(-54,2) scale(1,1)">
      <path fill="none" stroke="#000000" d="M 390 235 L 237 235" stroke-miterlimit="10" stroke-dasharray="3" />
    </g>
    <g transform="translate(-54,2) scale(1,1)">
      <path fill="none" stroke="#000000" d="M 247.16267485762415 230.790482243984 L 237 235 L 247.16267485762415 239.209517756016" stroke-miterlimit="10" />
    </g>
    <g transform="translate(-54,2) scale(1,1)">
      <g>
        <path fill="none" stroke="none" />
        <text fill="#000000" stroke="none" font-family="Arial" font-size="13px" font-style="normal" font-weight="normal" text-decoration="none" x="302.5" y="251.5">3 : </text>
      </g>
    </g>
    <g transform="translate(-54,2) scale(1,1)">
      <path fill="none" stroke="#000000" d="M 224 264 L 78 264" stroke-miterlimit="10" stroke-dasharray="3" />
    </g>
    <g transform="translate(-54,2) scale(1,1)">
      <path fill="none" stroke="#000000" d="M 88.16267485762415 259.790482243984 L 78 264 L 88.16267485762415 268.209517756016" stroke-miterlimit="10" />
    </g>
    <g transform="translate(-54,2) scale(1,1)">
      <g>
        <path fill="none" stroke="none" />
        <text fill="#000000" stroke="none" font-family="Arial" font-size="13px" font-style="normal" font-weight="normal" text-decoration="none" x="140.5" y="280.5">4 : </text>
      </g>
    </g>
  </g>
</svg>