<?xml version="1.0" encoding="utf-8"?>
<svg version="1.1" xmlns="http://www.w3.org/2000/svg" xmlns:xlink="http://www.w3.org/1999/xlink" width="1348" height="876">
  <defs />
  <g>
    <g transform="translate(-22,-14) scale(1,1)">
      <path fill="none" stroke="#000000" d="M 80 24 L 1360 24 L 1360 880 L 80 880 L 80 24" stroke-miterlimit="10" />
    </g>
    <g transform="translate(-22,-14) scale(1,1)">
      <path fill="#ffffff" stroke="none" d="M 80 24 L 80 46 L 161.7490234375 46 L 172.7490234375 35 L 172.7490234375 24 L 80 24" />
    </g>
    <g transform="translate(-22,-14) scale(1,1)">
      <path fill="none" stroke="#000000" d="M 80 24 L 80 46 L 161.7490234375 46 L 172.7490234375 35 L 172.7490234375 24 L 80 24 L 80 24" stroke-miterlimit="10" />
    </g>
    <g transform="translate(-22,-14) scale(1,1)">
      <g>
        <path fill="none" stroke="none" />
        <text fill="#000000" stroke="none" font-family="Arial" font-size="13px" font-style="normal" font-weight="normal" text-decoration="none" x="104.72998046875" y="41.5">CanCraft</text>
      </g>
    </g>
    <g transform="translate(-22,-14) scale(1,1)">
      <g>
        <path fill="none" stroke="none" />
        <text fill="#000000" stroke="none" font-family="Arial" font-size="13px" font-style="normal" font-weight="bold" text-decoration="none" x="85" y="41.5">sd</text>
      </g>
    </g>
    <g transform="translate(-22,-14) scale(1,1)">
      <rect fill="#C0C0C0" stroke="none" x="367" y="47" width="122.30810546875" height="39" opacity="0.2" />
    </g>
    <g transform="translate(-22,-14) scale(1,1)">
      <rect fill="#ffffff" stroke="none" x="360" y="40" width="122.30810546875" height="39" />
    </g>
    <g transform="translate(-22,-14) scale(1,1)">
      <path fill="none" stroke="#000000" d="M 360 40 L 482.30810546875 40 L 482.30810546875 79 L 360 79 L 360 40 Z Z" stroke-miterlimit="10" />
    </g>
    <g transform="translate(-22,-14) scale(1,1)">
      <g>
        <path fill="none" stroke="none" />
        <text fill="#000000" stroke="none" font-family="Arial" font-size="13px" font-style="normal" font-weight="bold" text-decoration="none" x="379.60546875" y="59.5">recipe: Recipe</text>
      </g>
    </g>
    <g transform="translate(-22,-14) scale(1,1)">
      <path fill="none" stroke="#000000" d="M 422.5 80 L 422.5 878" stroke-miterlimit="10" stroke-dasharray="3" />
    </g>
    <g transform="translate(-22,-14) scale(1,1)">
      <path fill="#000000" stroke="none" d="M 32 111.5 C 32 107.6340064 35.1340064 104.5 39 104.5 C 42.8659936 104.5 46 107.6340064 46 111.5 C 46 115.3659936 42.8659936 118.5 39 118.5 C 35.1340064 118.5 32 115.3659936 32 111.5 Z" />
    </g>
    <g transform="translate(-22,-14) scale(1,1)">
      <rect fill="#C0C0C0" stroke="none" x="543" y="47" width="138.18994140625" height="39" opacity="0.2" />
    </g>
    <g transform="translate(-22,-14) scale(1,1)">
      <rect fill="#ffffff" stroke="none" x="536" y="40" width="138.18994140625" height="39" />
    </g>
    <g transform="translate(-22,-14) scale(1,1)">
      <path fill="none" stroke="#000000" d="M 536 40 L 674.18994140625 40 L 674.18994140625 79 L 536 79 L 536 40 Z Z" stroke-miterlimit="10" />
    </g>
    <g transform="translate(-22,-14) scale(1,1)">
      <g>
        <path fill="none" stroke="none" />
        <text fill="#000000" stroke="none" font-family="Arial" font-size="13px" font-style="normal" font-weight="bold" text-decoration="none" x="566.437744140625" y="59.5">inv: Inventory</text>
      </g>
    </g>
    <g transform="translate(-22,-14) scale(1,1)">
      <path fill="none" stroke="#000000" d="M 606.5 80 L 606.5 872" stroke-miterlimit="10" stroke-dasharray="3" />
    </g>
    <g transform="translate(-22,-14) scale(1,1)">
      <rect fill="#C0C0C0" stroke="none" x="871" y="47" width="132.4072265625" height="39" opacity="0.2" />
    </g>
    <g transform="translate(-22,-14) scale(1,1)">
      <rect fill="#ffffff" stroke="none" x="864" y="40" width="132.4072265625" height="39" />
    </g>
    <g transform="translate(-22,-14) scale(1,1)">
      <path fill="none" stroke="#000000" d="M 864 40 L 996.4072265625 40 L 996.4072265625 79 L 864 79 L 864 40 Z Z" stroke-miterlimit="10" />
    </g>
    <g transform="translate(-22,-14) scale(1,1)">
      <g>
        <path fill="none" stroke="none" />
        <text fill="#000000" stroke="none" font-family="Arial" font-size="13px" font-style="normal" font-weight="bold" text-decoration="none" x="899.1318359375" y="59.5">a: Asteroid</text>
      </g>
    </g>
    <g transform="translate(-22,-14) scale(1,1)">
      <path fill="none" stroke="#000000" d="M 931.5 80 L 931.5 864" stroke-miterlimit="10" stroke-dasharray="3" />
    </g>
    <g transform="translate(-22,-14) scale(1,1)">
      <rect fill="#C0C0C0" stroke="none" x="735" y="47" width="106.4072265625" height="39" opacity="0.2" />
    </g>
    <g transform="translate(-22,-14) scale(1,1)">
      <path fill="none" stroke="#000000" d="M 733 45 L 839.4072265625 45 L 839.4072265625 84 L 733 84 L 733 45 Z Z" stroke-miterlimit="10" />
    </g>
    <g transform="translate(-22,-14) scale(1,1)">
      <rect fill="#ffffff" stroke="none" x="728" y="40" width="106.4072265625" height="39" />
    </g>
    <g transform="translate(-22,-14) scale(1,1)">
      <path fill="none" stroke="#000000" d="M 728 40 L 834.4072265625 40 L 834.4072265625 79 L 728 79 L 728 40 Z Z" stroke-miterlimit="10" />
    </g>
    <g transform="translate(-22,-14) scale(1,1)">
      <g>
        <path fill="none" stroke="none" />
        <text fill="#000000" stroke="none" font-family="Arial" font-size="13px" font-style="normal" font-weight="bold" text-decoration="none" x="752.6708984375" y="59.5">item: Item</text>
      </g>
    </g>
    <g transform="translate(-22,-14) scale(1,1)">
      <path fill="none" stroke="#000000" d="M 782.5 80 L 782.5 864" stroke-miterlimit="10" stroke-dasharray="3" />
    </g>
    <g transform="translate(-22,-14) scale(1,1)">
      <rect fill="#C0C0C0" stroke="none" x="1047" y="47" width="143.96630859375" height="39" opacity="0.2" />
    </g>
    <g transform="translate(-22,-14) scale(1,1)">
      <rect fill="#ffffff" stroke="none" x="1040" y="40" width="143.96630859375" height="39" />
    </g>
    <g transform="translate(-22,-14) scale(1,1)">
      <path fill="none" stroke="#000000" d="M 1040 40 L 1183.96630859375 40 L 1183.96630859375 79 L 1040 79 L 1040 40 Z Z" stroke-miterlimit="10" />
    </g>
    <g transform="translate(-22,-14) scale(1,1)">
      <g>
        <path fill="none" stroke="none" />
        <text fill="#000000" stroke="none" font-family="Arial" font-size="13px" font-style="normal" font-weight="bold" text-decoration="none" x="1055.260498046875" y="59.5">inventory: Inventory</text>
      </g>
    </g>
    <g transform="translate(-22,-14) scale(1,1)">
      <path fill="none" stroke="#000000" d="M 1112.5 80 L 1112.5 856" stroke-miterlimit="10" stroke-dasharray="3" />
    </g>
    <g transform="translate(-22,-14) scale(1,1)">
      <rect fill="#C0C0C0" stroke="none" x="1239" y="47" width="106.4072265625" height="39" opacity="0.2" />
    </g>
    <g transform="translate(-22,-14) scale(1,1)">
      <path fill="none" stroke="#000000" d="M 1237 45 L 1343.4072265625 45 L 1343.4072265625 84 L 1237 84 L 1237 45 Z Z" stroke-miterlimit="10" />
    </g>
    <g transform="translate(-22,-14) scale(1,1)">
      <rect fill="#ffffff" stroke="none" x="1232" y="40" width="106.4072265625" height="39" />
    </g>
    <g transform="translate(-22,-14) scale(1,1)">
      <path fill="none" stroke="#000000" d="M 1232 40 L 1338.4072265625 40 L 1338.4072265625 79 L 1232 79 L 1232 40 Z Z" stroke-miterlimit="10" />
    </g>
    <g transform="translate(-22,-14) scale(1,1)">
      <g>
        <path fill="none" stroke="none" />
        <text fill="#000000" stroke="none" font-family="Arial" font-size="13px" font-style="normal" font-weight="bold" text-decoration="none" x="1252.694091796875" y="59.5">aItem: Item</text>
      </g>
    </g>
    <g transform="translate(-22,-14) scale(1,1)">
      <path fill="none" stroke="#000000" d="M 1286.5 80 L 1286.5 856" stroke-miterlimit="10" stroke-dasharray="3" />
    </g>
    <g transform="translate(-22,-14) scale(1,1)">
      <path fill="#000000" stroke="none" d="M 37 735.5 C 37 731.6340064 40.1340064 728.5 44 728.5 C 47.8659936 728.5 51 731.6340064 51 735.5 C 51 739.3659936 47.8659936 742.5 44 742.5 C 40.1340064 742.5 37 739.3659936 37 735.5 Z" />
    </g>
    <g transform="translate(-22,-14) scale(1,1)">
      <path fill="#000000" stroke="none" d="M 40 847.5 C 40 843.6340064 43.1340064 840.5 47 840.5 C 50.8659936 840.5 54 843.6340064 54 847.5 C 54 851.3659936 50.8659936 854.5 47 854.5 C 43.1340064 854.5 40 851.3659936 40 847.5 Z" />
    </g>
    <g transform="translate(-22,-14) scale(1,1)">
      <path fill="none" stroke="#000000" d="M 46 112 L 415 112" stroke-miterlimit="10" />
    </g>
    <g transform="translate(-22,-14) scale(1,1)">
      <path fill="#000000" stroke="none" d="M 404.83732514237585 116.20951775601598 L 415 112 L 404.83732514237585 107.79048224398402" />
    </g>
    <g transform="translate(-22,-14) scale(1,1)">
      <path fill="none" stroke="#000000" d="M 404.83732514237585 116.20951775601598 L 415 112 L 404.83732514237585 107.79048224398402 L 404.83732514237585 116.20951775601598" stroke-miterlimit="10" />
    </g>
    <g transform="translate(-22,-14) scale(1,1)">
      <g>
        <path fill="none" stroke="none" />
        <text fill="#000000" stroke="none" font-family="Arial" font-size="13px" font-style="normal" font-weight="normal" text-decoration="none" x="117.5" y="108.5">1 : CanCraft(inv: Inventory, a: Asteroid)</text>
      </g>
    </g>
    <g transform="translate(-22,-14) scale(1,1)">
      <rect fill="#ffffff" stroke="none" x="415" y="112" width="13" height="752" />
    </g>
    <g transform="translate(-22,-14) scale(1,1)">
      <path fill="none" stroke="#000000" d="M 415 112 L 428 112 L 428 864 L 415 864 L 415 112 Z Z" stroke-miterlimit="10" />
    </g>
    <g transform="translate(-22,-14) scale(1,1)">
      <path fill="none" stroke="#000000" d="M 428 118 L 599 118" stroke-miterlimit="10" />
    </g>
    <g transform="translate(-22,-14) scale(1,1)">
      <path fill="#000000" stroke="none" d="M 588.8373251423759 122.20951775601598 L 599 118 L 588.8373251423758 113.79048224398402" />
    </g>
    <g transform="translate(-22,-14) scale(1,1)">
      <path fill="none" stroke="#000000" d="M 588.8373251423759 122.20951775601598 L 599 118 L 588.8373251423758 113.79048224398402 L 588.8373251423759 122.20951775601598" stroke-miterlimit="10" />
    </g>
    <g transform="translate(-22,-14) scale(1,1)">
      <g>
        <path fill="none" stroke="none" />
        <text fill="#000000" stroke="none" font-family="Arial" font-size="13px" font-style="normal" font-weight="normal" text-decoration="none" x="474.233154296875" y="114.5">2 : getItems()</text>
      </g>
    </g>
    <g transform="translate(-22,-14) scale(1,1)">
      <rect fill="#ffffff" stroke="none" x="599" y="118" width="13" height="28" />
    </g>
    <g transform="translate(-22,-14) scale(1,1)">
      <path fill="none" stroke="#000000" d="M 599 118 L 612 118 L 612 146 L 599 146 L 599 118 Z Z" stroke-miterlimit="10" />
    </g>
    <g transform="translate(-22,-14) scale(1,1)">
      <path fill="none" stroke="#000000" d="M 599 138 L 428 138" stroke-miterlimit="10" stroke-dasharray="3" />
    </g>
    <g transform="translate(-22,-14) scale(1,1)">
      <path fill="none" stroke="#000000" d="M 438.16267485762415 133.790482243984 L 428 138 L 438.16267485762415 142.209517756016" stroke-miterlimit="10" />
    </g>
    <g transform="translate(-22,-14) scale(1,1)">
      <g>
        <path fill="none" stroke="none" />
        <text fill="#000000" stroke="none" font-family="Arial" font-size="13px" font-style="normal" font-weight="normal" text-decoration="none" x="464.5" y="154.5">3 : result = items</text>
      </g>
    </g>
    <g transform="translate(-22,-14) scale(1,1)">
      <path fill="none" stroke="#000000" d="M 428 160 L 924 160" stroke-miterlimit="10" />
    </g>
    <g transform="translate(-22,-14) scale(1,1)">
      <path fill="#000000" stroke="none" d="M 913.8373251423759 164.209517756016 L 924 160 L 913.8373251423758 155.790482243984" />
    </g>
    <g transform="translate(-22,-14) scale(1,1)">
      <path fill="none" stroke="#000000" d="M 913.8373251423759 164.209517756016 L 924 160 L 913.8373251423758 155.790482243984 L 913.8373251423759 164.209517756016" stroke-miterlimit="10" />
    </g>
    <g transform="translate(-22,-14) scale(1,1)">
      <g>
        <path fill="none" stroke="none" />
        <text fill="#000000" stroke="none" font-family="Arial" font-size="13px" font-style="normal" font-weight="normal" text-decoration="none" x="625.5" y="156.5">4 : GetInventory()</text>
      </g>
    </g>
    <g transform="translate(-22,-14) scale(1,1)">
      <rect fill="#ffffff" stroke="none" x="924" y="160" width="13" height="28" />
    </g>
    <g transform="translate(-22,-14) scale(1,1)">
      <path fill="none" stroke="#000000" d="M 924 160 L 937 160 L 937 188 L 924 188 L 924 160 Z Z" stroke-miterlimit="10" />
    </g>
    <g transform="translate(-22,-14) scale(1,1)">
      <path fill="none" stroke="#000000" d="M 924 180 L 428 180" stroke-miterlimit="10" stroke-dasharray="3" />
    </g>
    <g transform="translate(-22,-14) scale(1,1)">
      <path fill="none" stroke="#000000" d="M 438.16267485762415 175.790482243984 L 428 180 L 438.16267485762415 184.209517756016" stroke-miterlimit="10" />
    </g>
    <g transform="translate(-22,-14) scale(1,1)">
      <g>
        <path fill="none" stroke="none" />
        <text fill="#000000" stroke="none" font-family="Arial" font-size="13px" font-style="normal" font-weight="normal" text-decoration="none" x="616.5" y="196.5">5 : result = inventory</text>
      </g>
    </g>
    <g transform="translate(-22,-14) scale(1,1)">
      <path fill="none" stroke="#000000" d="M 428 216 L 1105 216" stroke-miterlimit="10" />
    </g>
    <g transform="translate(-22,-14) scale(1,1)">
      <path fill="#000000" stroke="none" d="M 1094.837325142376 220.209517756016 L 1105 216 L 1094.837325142376 211.790482243984" />
    </g>
    <g transform="translate(-22,-14) scale(1,1)">
      <path fill="none" stroke="#000000" d="M 1094.837325142376 220.209517756016 L 1105 216 L 1094.837325142376 211.790482243984 L 1094.837325142376 220.209517756016" stroke-miterlimit="10" />
    </g>
    <g transform="translate(-22,-14) scale(1,1)">
      <g>
        <path fill="none" stroke="none" />
        <text fill="#000000" stroke="none" font-family="Arial" font-size="13px" font-style="normal" font-weight="normal" text-decoration="none" x="833.233154296875" y="212.5">6 : getItems()</text>
      </g>
    </g>
    <g transform="translate(-22,-14) scale(1,1)">
      <rect fill="#ffffff" stroke="none" x="1105" y="216" width="13" height="28" />
    </g>
    <g transform="translate(-22,-14) scale(1,1)">
      <path fill="none" stroke="#000000" d="M 1105 216 L 1118 216 L 1118 244 L 1105 244 L 1105 216 Z Z" stroke-miterlimit="10" />
    </g>
    <g transform="translate(-22,-14) scale(1,1)">
      <path fill="none" stroke="#000000" d="M 1105 240 L 428 240" stroke-miterlimit="10" stroke-dasharray="3" />
    </g>
    <g transform="translate(-22,-14) scale(1,1)">
      <path fill="none" stroke="#000000" d="M 438.16267485762415 235.790482243984 L 428 240 L 438.16267485762415 244.209517756016" stroke-miterlimit="10" />
    </g>
    <g transform="translate(-22,-14) scale(1,1)">
      <g>
        <path fill="none" stroke="none" />
        <text fill="#000000" stroke="none" font-family="Arial" font-size="13px" font-style="normal" font-weight="normal" text-decoration="none" x="636.5" y="260.5">7 : result = aItems</text>
      </g>
    </g>
    <g transform="translate(-22,-14) scale(1,1)">
      <path fill="none" stroke="#000000" d="M 428 416 L 775 416" stroke-miterlimit="10" />
    </g>
    <g transform="translate(-22,-14) scale(1,1)">
      <path fill="#000000" stroke="none" d="M 764.8373251423759 420.209517756016 L 775 416 L 764.8373251423758 411.790482243984" />
    </g>
    <g transform="translate(-22,-14) scale(1,1)">
      <path fill="none" stroke="#000000" d="M 764.8373251423759 420.209517756016 L 775 416 L 764.8373251423758 411.790482243984 L 764.8373251423759 420.209517756016" stroke-miterlimit="10" />
    </g>
    <g transform="translate(-22,-14) scale(1,1)">
      <g>
        <path fill="none" stroke="none" />
        <text fill="#000000" stroke="none" font-family="Arial" font-size="13px" font-style="normal" font-weight="normal" text-decoration="none" x="612.5" y="412.5">8 : Satisfies(i: Item)</text>
      </g>
    </g>
    <g transform="translate(-22,-14) scale(1,1)">
      <rect fill="#ffffff" stroke="none" x="775" y="416" width="13" height="28" />
    </g>
    <g transform="translate(-22,-14) scale(1,1)">
      <path fill="none" stroke="#000000" d="M 775 416 L 788 416 L 788 444 L 775 444 L 775 416 Z Z" stroke-miterlimit="10" />
    </g>
    <g transform="translate(-22,-14) scale(1,1)">
      <path fill="none" stroke="#000000" d="M 775 440 L 428 440" stroke-miterlimit="10" stroke-dasharray="3" />
    </g>
    <g transform="translate(-22,-14) scale(1,1)">
      <path fill="none" stroke="#000000" d="M 438.16267485762415 435.790482243984 L 428 440 L 438.16267485762415 444.209517756016" stroke-miterlimit="10" />
    </g>
    <g transform="translate(-22,-14) scale(1,1)">
      <g>
        <path fill="none" stroke="none" />
        <text fill="#000000" stroke="none" font-family="Arial" font-size="13px" font-style="normal" font-weight="normal" text-decoration="none" x="467.5" y="456.5">9 : result = true/false</text>
      </g>
    </g>
    <g transform="translate(-22,-14) scale(1,1)">
      <path fill="none" stroke="#000000" d="M 428 560 L 1279 560" stroke-miterlimit="10" />
    </g>
    <g transform="translate(-22,-14) scale(1,1)">
      <path fill="#000000" stroke="none" d="M 1268.837325142376 564.209517756016 L 1279 560 L 1268.837325142376 555.790482243984" />
    </g>
    <g transform="translate(-22,-14) scale(1,1)">
      <path fill="none" stroke="#000000" d="M 1268.837325142376 564.209517756016 L 1279 560 L 1268.837325142376 555.790482243984 L 1268.837325142376 564.209517756016" stroke-miterlimit="10" />
    </g>
    <g transform="translate(-22,-14) scale(1,1)">
      <g>
        <path fill="none" stroke="none" />
        <text fill="#000000" stroke="none" font-family="Arial" font-size="13px" font-style="normal" font-weight="normal" text-decoration="none" x="805.5" y="556.5">10 : Satisfies(i: Item)</text>
      </g>
    </g>
    <g transform="translate(-22,-14) scale(1,1)">
      <rect fill="#ffffff" stroke="none" x="1279" y="560" width="13" height="28" />
    </g>
    <g transform="translate(-22,-14) scale(1,1)">
      <path fill="none" stroke="#000000" d="M 1279 560 L 1292 560 L 1292 588 L 1279 588 L 1279 560 Z Z" stroke-miterlimit="10" />
    </g>
    <g transform="translate(-22,-14) scale(1,1)">
      <path fill="none" stroke="#000000" d="M 1279 580 L 428 580" stroke-miterlimit="10" stroke-dasharray="3" />
    </g>
    <g transform="translate(-22,-14) scale(1,1)">
      <path fill="none" stroke="#000000" d="M 438.16267485762415 575.790482243984 L 428 580 L 438.16267485762415 584.209517756016" stroke-miterlimit="10" />
    </g>
    <g transform="translate(-22,-14) scale(1,1)">
      <g>
        <path fill="none" stroke="none" />
        <text fill="#000000" stroke="none" font-family="Arial" font-size="13px" font-style="normal" font-weight="normal" text-decoration="none" x="805.5" y="595.5">11 : result = true/false</text>
      </g>
    </g>
    <g transform="translate(-22,-14) scale(1,1)">
      <path fill="none" stroke="#000000" d="M 415 736 L 51 736" stroke-miterlimit="10" stroke-dasharray="3" />
    </g>
    <g transform="translate(-22,-14) scale(1,1)">
      <path fill="none" stroke="#000000" d="M 61.162674857624154 731.790482243984 L 51 736 L 61.162674857624154 740.209517756016" stroke-miterlimit="10" />
    </g>
    <g transform="translate(-22,-14) scale(1,1)">
      <g>
        <path fill="none" stroke="none" />
        <text fill="#000000" stroke="none" font-family="Arial" font-size="13px" font-style="normal" font-weight="normal" text-decoration="none" x="182.5" y="752.5">12 : result = false</text>
      </g>
    </g>
    <g transform="translate(-22,-14) scale(1,1)">
      <path fill="none" stroke="#000000" d="M 415 848 L 54 848" stroke-miterlimit="10" stroke-dasharray="3" />
    </g>
    <g transform="translate(-22,-14) scale(1,1)">
      <path fill="none" stroke="#000000" d="M 64.16267485762415 843.790482243984 L 54 848 L 64.16267485762415 852.209517756016" stroke-miterlimit="10" />
    </g>
    <g transform="translate(-22,-14) scale(1,1)">
      <g>
        <path fill="none" stroke="none" />
        <text fill="#000000" stroke="none" font-family="Arial" font-size="13px" font-style="normal" font-weight="normal" text-decoration="none" x="185.5" y="864.5">13 : result = true</text>
      </g>
    </g>
    <g transform="translate(-22,-14) scale(1,1)">
      <path fill="none" stroke="#000000" d="M 184 384 L 880 384 L 880 504 L 184 504 L 184 384" stroke-miterlimit="10" />
    </g>
    <g transform="translate(-22,-14) scale(1,1)">
      <path fill="#ffffff" stroke="none" d="M 184 384 L 184 406 L 249.15625 406 L 260.15625 395 L 260.15625 384 L 184 384" />
    </g>
    <g transform="translate(-22,-14) scale(1,1)">
      <path fill="none" stroke="#000000" d="M 184 384 L 184 406 L 249.15625 406 L 260.15625 395 L 260.15625 384 L 184 384 L 184 384" stroke-miterlimit="10" />
    </g>
    <g transform="translate(-22,-14) scale(1,1)">
      <g>
        <path fill="none" stroke="none" />
        <text fill="#000000" stroke="none" font-family="Arial" font-size="13px" font-style="normal" font-weight="normal" text-decoration="none" x="219.578125" y="401.5">loop</text>
      </g>
    </g>
    <g transform="translate(-22,-14) scale(1,1)">
      <g>
        <path fill="none" stroke="none" />
        <text fill="#000000" stroke="none" font-family="Arial" font-size="13px" font-style="normal" font-weight="bold" text-decoration="none" x="189" y="401.5">loop</text>
      </g>
    </g>
    <g transform="translate(-22,-14) scale(1,1)">
      <g>
        <path fill="none" stroke="none" />
        <text fill="#000000" stroke="none" font-family="Arial" font-size="13px" font-style="normal" font-weight="normal" text-decoration="none" x="203.5" y="434.5">[for each item in items]</text>
      </g>
    </g>
    <g transform="translate(-22,-14) scale(1,1)">
      <path fill="none" stroke="#000000" d="M 128 312 L 1344 312 L 1344 816 L 128 816 L 128 312" stroke-miterlimit="10" />
    </g>
    <g transform="translate(-22,-14) scale(1,1)">
      <path fill="#ffffff" stroke="none" d="M 128 312 L 128 334 L 235.0634765625 334 L 246.0634765625 323 L 246.0634765625 312 L 128 312" />
    </g>
    <g transform="translate(-22,-14) scale(1,1)">
      <path fill="none" stroke="#000000" d="M 128 312 L 128 334 L 235.0634765625 334 L 246.0634765625 323 L 246.0634765625 312 L 128 312 L 128 312" stroke-miterlimit="10" />
    </g>
    <g transform="translate(-22,-14) scale(1,1)">
      <g>
        <path fill="none" stroke="none" />
        <text fill="#000000" stroke="none" font-family="Arial" font-size="13px" font-style="normal" font-weight="normal" text-decoration="none" x="163.578125" y="329.5">Input check</text>
      </g>
    </g>
    <g transform="translate(-22,-14) scale(1,1)">
      <g>
        <path fill="none" stroke="none" />
        <text fill="#000000" stroke="none" font-family="Arial" font-size="13px" font-style="normal" font-weight="bold" text-decoration="none" x="133" y="329.5">loop</text>
      </g>
    </g>
    <g transform="translate(-22,-14) scale(1,1)">
      <g>
        <path fill="none" stroke="none" />
        <text fill="#000000" stroke="none" font-family="Arial" font-size="13px" font-style="normal" font-weight="normal" text-decoration="none" x="147.5" y="362.5">[for each i in input]</text>
      </g>
    </g>
    <g transform="translate(-22,-14) scale(1,1)">
      <path fill="none" stroke="#000000" d="M 184 512 L 1327 512 L 1327 655 L 184 655 L 184 512" stroke-miterlimit="10" />
    </g>
    <g transform="translate(-22,-14) scale(1,1)">
      <path fill="#ffffff" stroke="none" d="M 184 512 L 184 534 L 249.15625 534 L 260.15625 523 L 260.15625 512 L 184 512" />
    </g>
    <g transform="translate(-22,-14) scale(1,1)">
      <path fill="none" stroke="#000000" d="M 184 512 L 184 534 L 249.15625 534 L 260.15625 523 L 260.15625 512 L 184 512 L 184 512" stroke-miterlimit="10" />
    </g>
    <g transform="translate(-22,-14) scale(1,1)">
      <g>
        <path fill="none" stroke="none" />
        <text fill="#000000" stroke="none" font-family="Arial" font-size="13px" font-style="normal" font-weight="normal" text-decoration="none" x="219.578125" y="529.5">loop</text>
      </g>
    </g>
    <g transform="translate(-22,-14) scale(1,1)">
      <g>
        <path fill="none" stroke="none" />
        <text fill="#000000" stroke="none" font-family="Arial" font-size="13px" font-style="normal" font-weight="bold" text-decoration="none" x="189" y="529.5">loop</text>
      </g>
    </g>
    <g transform="translate(-22,-14) scale(1,1)">
      <g>
        <path fill="none" stroke="none" />
        <text fill="#000000" stroke="none" font-family="Arial" font-size="13px" font-style="normal" font-weight="normal" text-decoration="none" x="203.5" y="562.5">[for each aItem in aItems]</text>
      </g>
    </g>
    <g transform="translate(-22,-14) scale(1,1)">
      <path fill="none" stroke="#000000" d="M 168 656 L 543 656 L 543 791 L 168 791 L 168 656" stroke-miterlimit="10" />
    </g>
    <g transform="translate(-22,-14) scale(1,1)">
      <path fill="#ffffff" stroke="none" d="M 168 656 L 168 678 L 249.76171875 678 L 260.76171875 667 L 260.76171875 656 L 168 656" />
    </g>
    <g transform="translate(-22,-14) scale(1,1)">
      <path fill="none" stroke="#000000" d="M 168 656 L 168 678 L 249.76171875 678 L 260.76171875 667 L 260.76171875 656 L 168 656 L 168 656" stroke-miterlimit="10" />
    </g>
    <g transform="translate(-22,-14) scale(1,1)">
      <g>
        <path fill="none" stroke="none" />
        <text fill="#000000" stroke="none" font-family="Arial" font-size="13px" font-style="normal" font-weight="normal" text-decoration="none" x="197.07177734375" y="673.5">interrupt</text>
      </g>
    </g>
    <g transform="translate(-22,-14) scale(1,1)">
      <g>
        <path fill="none" stroke="none" />
        <text fill="#000000" stroke="none" font-family="Arial" font-size="13px" font-style="normal" font-weight="bold" text-decoration="none" x="173" y="673.5">opt</text>
      </g>
    </g>
    <g transform="translate(-22,-14) scale(1,1)">
      <g>
        <path fill="none" stroke="none" />
        <text fill="#000000" stroke="none" font-family="Arial" font-size="13px" font-style="normal" font-weight="normal" text-decoration="none" x="187.5" y="706.5">[if cant find item that Satisfies recipe]</text>
      </g>
    </g>
  </g>
</svg>