<?xml version="1.0" encoding="utf-8"?>
<svg version="1.1" xmlns="http://www.w3.org/2000/svg" xmlns:xlink="http://www.w3.org/1999/xlink" width="724" height="404">
  <defs />
  <g>
    <g transform="translate(-14,2) scale(1,1)">
      <path fill="none" stroke="#000000" d="M 56 8 L 728 8 L 728 392 L 56 392 L 56 8" stroke-miterlimit="10" />
    </g>
    <g transform="translate(-14,2) scale(1,1)">
      <path fill="#ffffff" stroke="none" d="M 56 8 L 56 30 L 189.787109375 30 L 200.787109375 19 L 200.787109375 8 L 56 8" />
    </g>
    <g transform="translate(-14,2) scale(1,1)">
      <path fill="none" stroke="#000000" d="M 56 8 L 56 30 L 189.787109375 30 L 200.787109375 19 L 200.787109375 8 L 56 8 L 56 8" stroke-miterlimit="10" />
    </g>
    <g transform="translate(-14,2) scale(1,1)">
      <g>
        <path fill="none" stroke="none" />
        <text fill="#000000" stroke="none" font-family="Arial" font-size="13px" font-style="normal" font-weight="normal" text-decoration="none" x="80.72998046875" y="25.5">Craft teleport gate</text>
      </g>
    </g>
    <g transform="translate(-14,2) scale(1,1)">
      <g>
        <path fill="none" stroke="none" />
        <text fill="#000000" stroke="none" font-family="Arial" font-size="13px" font-style="normal" font-weight="bold" text-decoration="none" x="61" y="25.5">sd</text>
      </g>
    </g>
    <g transform="translate(-14,2) scale(1,1)">
      <rect fill="#C0C0C0" stroke="none" x="151" y="47" width="187.09228515625" height="39" opacity="0.2" />
    </g>
    <g transform="translate(-14,2) scale(1,1)">
      <rect fill="#ffffff" stroke="none" x="144" y="40" width="187.09228515625" height="39" />
    </g>
    <g transform="translate(-14,2) scale(1,1)">
      <path fill="none" stroke="#000000" d="M 144 40 L 331.09228515625 40 L 331.09228515625 79 L 144 79 L 144 40 Z Z" stroke-miterlimit="10" />
    </g>
    <g transform="translate(-14,2) scale(1,1)">
      <g>
        <path fill="none" stroke="none" />
        <text fill="#000000" stroke="none" font-family="Arial" font-size="13px" font-style="normal" font-weight="bold" text-decoration="none" x="158.78125" y="59.5">recipe: TeleportGateRecipe</text>
      </g>
    </g>
    <g transform="translate(-14,2) scale(1,1)">
      <path fill="none" stroke="#000000" d="M 238.5 80 L 238.5 376" stroke-miterlimit="10" stroke-dasharray="3" />
    </g>
    <g transform="translate(-14,2) scale(1,1)">
      <path fill="#000000" stroke="none" d="M 24 103.5 C 24 99.6340064 27.1340064 96.5 31 96.5 C 34.8659936 96.5 38 99.6340064 38 103.5 C 38 107.3659936 34.8659936 110.5 31 110.5 C 27.1340064 110.5 24 107.3659936 24 103.5 Z" />
    </g>
    <g transform="translate(-14,2) scale(1,1)">
      <rect fill="#C0C0C0" stroke="none" x="575" y="47" width="138.18994140625" height="39" opacity="0.2" />
    </g>
    <g transform="translate(-14,2) scale(1,1)">
      <rect fill="#ffffff" stroke="none" x="568" y="40" width="138.18994140625" height="39" />
    </g>
    <g transform="translate(-14,2) scale(1,1)">
      <path fill="none" stroke="#000000" d="M 568 40 L 706.18994140625 40 L 706.18994140625 79 L 568 79 L 568 40 Z Z" stroke-miterlimit="10" />
    </g>
    <g transform="translate(-14,2) scale(1,1)">
      <g>
        <path fill="none" stroke="none" />
        <text fill="#000000" stroke="none" font-family="Arial" font-size="13px" font-style="normal" font-weight="bold" text-decoration="none" x="598.437744140625" y="59.5">inv: Inventory</text>
      </g>
    </g>
    <g transform="translate(-14,2) scale(1,1)">
      <path fill="none" stroke="#000000" d="M 638.5 80 L 638.5 374" stroke-miterlimit="10" stroke-dasharray="3" />
    </g>
    <g transform="translate(-14,2) scale(1,1)">
      <path fill="#000000" stroke="none" d="M 26 335.5 C 26 331.6340064 29.1340064 328.5 33 328.5 C 36.8659936 328.5 40 331.6340064 40 335.5 C 40 339.3659936 36.8659936 342.5 33 342.5 C 29.1340064 342.5 26 339.3659936 26 335.5 Z" />
    </g>
    <g transform="translate(-14,2) scale(1,1)">
      <rect fill="#C0C0C0" stroke="none" x="375" y="115" width="185.6259765625" height="39" opacity="0.2" />
    </g>
    <g transform="translate(-14,2) scale(1,1)">
      <rect fill="#ffffff" stroke="none" x="368" y="108" width="185.6259765625" height="39" />
    </g>
    <g transform="translate(-14,2) scale(1,1)">
      <path fill="none" stroke="#000000" d="M 368 108 L 553.6259765625 108 L 553.6259765625 147 L 368 147 L 368 108 Z Z" stroke-miterlimit="10" />
    </g>
    <g transform="translate(-14,2) scale(1,1)">
      <g>
        <path fill="none" stroke="none" />
        <text fill="#000000" stroke="none" font-family="Arial" font-size="13px" font-style="normal" font-weight="bold" text-decoration="none" x="395.06396484375" y="127.5">item: TeleportGateItem</text>
      </g>
    </g>
    <g transform="translate(-14,2) scale(1,1)">
      <path fill="none" stroke="#000000" d="M 461.5 148 L 461.5 219" stroke-miterlimit="10" stroke-dasharray="3" />
    </g>
    <g transform="translate(-14,2) scale(1,1)">
      <path fill="none" stroke="#000000" d="M 38 104 L 231 104" stroke-miterlimit="10" />
    </g>
    <g transform="translate(-14,2) scale(1,1)">
      <path fill="#000000" stroke="none" d="M 220.83732514237585 108.20951775601598 L 231 104 L 220.83732514237585 99.79048224398402" />
    </g>
    <g transform="translate(-14,2) scale(1,1)">
      <path fill="none" stroke="#000000" d="M 220.83732514237585 108.20951775601598 L 231 104 L 220.83732514237585 99.79048224398402 L 220.83732514237585 108.20951775601598" stroke-miterlimit="10" />
    </g>
    <g transform="translate(-14,2) scale(1,1)">
      <g>
        <path fill="none" stroke="none" />
        <text fill="#000000" stroke="none" font-family="Arial" font-size="13px" font-style="normal" font-weight="normal" text-decoration="none" x="77.816162109375" y="100.5">1 : MakeResult(inv)</text>
      </g>
    </g>
    <g transform="translate(-14,2) scale(1,1)">
      <rect fill="#ffffff" stroke="none" x="231" y="104" width="13" height="248" />
    </g>
    <g transform="translate(-14,2) scale(1,1)">
      <path fill="none" stroke="#000000" d="M 231 104 L 244 104 L 244 352 L 231 352 L 231 104 Z Z" stroke-miterlimit="10" />
    </g>
    <g transform="translate(-14,2) scale(1,1)">
      <path fill="none" stroke="#000000" d="M 244 128 L 368 128" stroke-miterlimit="10" stroke-dasharray="3" />
    </g>
    <g transform="translate(-14,2) scale(1,1)">
      <path fill="none" stroke="#000000" d="M 357.83732514237585 132.209517756016 L 368 128 L 357.83732514237585 123.79048224398402" stroke-miterlimit="10" />
    </g>
    <g transform="translate(-14,2) scale(1,1)">
      <g>
        <path fill="none" stroke="none" />
        <text fill="#000000" stroke="none" font-family="Arial" font-size="13px" font-style="normal" font-weight="normal" text-decoration="none" x="296.5" y="124.5">2 : </text>
      </g>
    </g>
    <g transform="translate(-14,2) scale(1,1)">
      <g>
        <path fill="none" stroke="none" />
        <text fill="#000000" stroke="none" font-family="Arial" font-size="13px" font-style="normal" font-weight="normal" text-decoration="none" x="280.5" y="109.5">«create»</text>
      </g>
    </g>
    <g transform="translate(-14,2) scale(1,1)">
      <path fill="none" stroke="#000000" d="M 244 248 L 631 248" stroke-miterlimit="10" />
    </g>
    <g transform="translate(-14,2) scale(1,1)">
      <path fill="#000000" stroke="none" d="M 620.8373251423759 252.209517756016 L 631 248 L 620.8373251423758 243.790482243984" />
    </g>
    <g transform="translate(-14,2) scale(1,1)">
      <path fill="none" stroke="#000000" d="M 620.8373251423759 252.209517756016 L 631 248 L 620.8373251423758 243.790482243984 L 620.8373251423759 252.209517756016" stroke-miterlimit="10" />
    </g>
    <g transform="translate(-14,2) scale(1,1)">
      <g>
        <path fill="none" stroke="none" />
        <text fill="#000000" stroke="none" font-family="Arial" font-size="13px" font-style="normal" font-weight="normal" text-decoration="none" x="382.753173828125" y="244.5">3 : InsertItem(item)</text>
      </g>
    </g>
    <g transform="translate(-14,2) scale(1,1)">
      <rect fill="#ffffff" stroke="none" x="631" y="248" width="13" height="28" />
    </g>
    <g transform="translate(-14,2) scale(1,1)">
      <path fill="none" stroke="#000000" d="M 631 248 L 644 248 L 644 276 L 631 276 L 631 248 Z Z" stroke-miterlimit="10" />
    </g>
    <g transform="translate(-14,2) scale(1,1)">
      <path fill="none" stroke="#000000" d="M 631 272 L 244 272" stroke-miterlimit="10" stroke-dasharray="3" />
    </g>
    <g transform="translate(-14,2) scale(1,1)">
      <path fill="none" stroke="#000000" d="M 254.16267485762415 267.790482243984 L 244 272 L 254.16267485762415 276.209517756016" stroke-miterlimit="10" />
    </g>
    <g transform="translate(-14,2) scale(1,1)">
      <g>
        <path fill="none" stroke="none" />
        <text fill="#000000" stroke="none" font-family="Arial" font-size="13px" font-style="normal" font-weight="normal" text-decoration="none" x="426.489501953125" y="288.5">4 : </text>
      </g>
    </g>
    <g transform="translate(-14,2) scale(1,1)">
      <path fill="none" stroke="#000000" d="M 231 336 L 40 336" stroke-miterlimit="10" stroke-dasharray="3" />
    </g>
    <g transform="translate(-14,2) scale(1,1)">
      <path fill="none" stroke="#000000" d="M 50.162674857624154 331.790482243984 L 40 336 L 50.162674857624154 340.209517756016" stroke-miterlimit="10" />
    </g>
    <g transform="translate(-14,2) scale(1,1)">
      <g>
        <path fill="none" stroke="none" />
        <text fill="#000000" stroke="none" font-family="Arial" font-size="13px" font-style="normal" font-weight="normal" text-decoration="none" x="124.489501953125" y="352.5">5 : </text>
      </g>
    </g>
  </g>
</svg>