<svg version="1.1" xmlns="http://www.w3.org/2000/svg" xmlns:xlink="http://www.w3.org/1999/xlink" width="428" height="356"><defs/><g><text fill="#eeeeee" stroke="none" font-family="Arial" font-size="24px" font-style="normal" font-weight="normal" text-decoration="none" x="0" y="0">UNREGISTERED</text><text fill="#eeeeee" stroke="none" font-family="Arial" font-size="24px" font-style="normal" font-weight="normal" text-decoration="none" x="0" y="30">UNREGISTERED</text><text fill="#eeeeee" stroke="none" font-family="Arial" font-size="24px" font-style="normal" font-weight="normal" text-decoration="none" x="0" y="60">UNREGISTERED</text><text fill="#eeeeee" stroke="none" font-family="Arial" font-size="24px" font-style="normal" font-weight="normal" text-decoration="none" x="0" y="90">UNREGISTERED</text><text fill="#eeeeee" stroke="none" font-family="Arial" font-size="24px" font-style="normal" font-weight="normal" text-decoration="none" x="0" y="120">UNREGISTERED</text><text fill="#eeeeee" stroke="none" font-family="Arial" font-size="24px" font-style="normal" font-weight="normal" text-decoration="none" x="0" y="150">UNREGISTERED</text><text fill="#eeeeee" stroke="none" font-family="Arial" font-size="24px" font-style="normal" font-weight="normal" text-decoration="none" x="0" y="180">UNREGISTERED</text><text fill="#eeeeee" stroke="none" font-family="Arial" font-size="24px" font-style="normal" font-weight="normal" text-decoration="none" x="0" y="210">UNREGISTERED</text><text fill="#eeeeee" stroke="none" font-family="Arial" font-size="24px" font-style="normal" font-weight="normal" text-decoration="none" x="0" y="240">UNREGISTERED</text><text fill="#eeeeee" stroke="none" font-family="Arial" font-size="24px" font-style="normal" font-weight="normal" text-decoration="none" x="0" y="270">UNREGISTERED</text><text fill="#eeeeee" stroke="none" font-family="Arial" font-size="24px" font-style="normal" font-weight="normal" text-decoration="none" x="0" y="300">UNREGISTERED</text><text fill="#eeeeee" stroke="none" font-family="Arial" font-size="24px" font-style="normal" font-weight="normal" text-decoration="none" x="0" y="330">UNREGISTERED</text><text fill="#eeeeee" stroke="none" font-family="Arial" font-size="24px" font-style="normal" font-weight="normal" text-decoration="none" x="200" y="0">UNREGISTERED</text><text fill="#eeeeee" stroke="none" font-family="Arial" font-size="24px" font-style="normal" font-weight="normal" text-decoration="none" x="200" y="30">UNREGISTERED</text><text fill="#eeeeee" stroke="none" font-family="Arial" font-size="24px" font-style="normal" font-weight="normal" text-decoration="none" x="200" y="60">UNREGISTERED</text><text fill="#eeeeee" stroke="none" font-family="Arial" font-size="24px" font-style="normal" font-weight="normal" text-decoration="none" x="200" y="90">UNREGISTERED</text><text fill="#eeeeee" stroke="none" font-family="Arial" font-size="24px" font-style="normal" font-weight="normal" text-decoration="none" x="200" y="120">UNREGISTERED</text><text fill="#eeeeee" stroke="none" font-family="Arial" font-size="24px" font-style="normal" font-weight="normal" text-decoration="none" x="200" y="150">UNREGISTERED</text><text fill="#eeeeee" stroke="none" font-family="Arial" font-size="24px" font-style="normal" font-weight="normal" text-decoration="none" x="200" y="180">UNREGISTERED</text><text fill="#eeeeee" stroke="none" font-family="Arial" font-size="24px" font-style="normal" font-weight="normal" text-decoration="none" x="200" y="210">UNREGISTERED</text><text fill="#eeeeee" stroke="none" font-family="Arial" font-size="24px" font-style="normal" font-weight="normal" text-decoration="none" x="200" y="240">UNREGISTERED</text><text fill="#eeeeee" stroke="none" font-family="Arial" font-size="24px" font-style="normal" font-weight="normal" text-decoration="none" x="200" y="270">UNREGISTERED</text><text fill="#eeeeee" stroke="none" font-family="Arial" font-size="24px" font-style="normal" font-weight="normal" text-decoration="none" x="200" y="300">UNREGISTERED</text><text fill="#eeeeee" stroke="none" font-family="Arial" font-size="24px" font-style="normal" font-weight="normal" text-decoration="none" x="200" y="330">UNREGISTERED</text><text fill="#eeeeee" stroke="none" font-family="Arial" font-size="24px" font-style="normal" font-weight="normal" text-decoration="none" x="400" y="0">UNREGISTERED</text><text fill="#eeeeee" stroke="none" font-family="Arial" font-size="24px" font-style="normal" font-weight="normal" text-decoration="none" x="400" y="30">UNREGISTERED</text><text fill="#eeeeee" stroke="none" font-family="Arial" font-size="24px" font-style="normal" font-weight="normal" text-decoration="none" x="400" y="60">UNREGISTERED</text><text fill="#eeeeee" stroke="none" font-family="Arial" font-size="24px" font-style="normal" font-weight="normal" text-decoration="none" x="400" y="90">UNREGISTERED</text><text fill="#eeeeee" stroke="none" font-family="Arial" font-size="24px" font-style="normal" font-weight="normal" text-decoration="none" x="400" y="120">UNREGISTERED</text><text fill="#eeeeee" stroke="none" font-family="Arial" font-size="24px" font-style="normal" font-weight="normal" text-decoration="none" x="400" y="150">UNREGISTERED</text><text fill="#eeeeee" stroke="none" font-family="Arial" font-size="24px" font-style="normal" font-weight="normal" text-decoration="none" x="400" y="180">UNREGISTERED</text><text fill="#eeeeee" stroke="none" font-family="Arial" font-size="24px" font-style="normal" font-weight="normal" text-decoration="none" x="400" y="210">UNREGISTERED</text><text fill="#eeeeee" stroke="none" font-family="Arial" font-size="24px" font-style="normal" font-weight="normal" text-decoration="none" x="400" y="240">UNREGISTERED</text><text fill="#eeeeee" stroke="none" font-family="Arial" font-size="24px" font-style="normal" font-weight="normal" text-decoration="none" x="400" y="270">UNREGISTERED</text><text fill="#eeeeee" stroke="none" font-family="Arial" font-size="24px" font-style="normal" font-weight="normal" text-decoration="none" x="400" y="300">UNREGISTERED</text><text fill="#eeeeee" stroke="none" font-family="Arial" font-size="24px" font-style="normal" font-weight="normal" text-decoration="none" x="400" y="330">UNREGISTERED</text><g transform="translate(-410,-382) scale(1,1)"><path fill="none" stroke="#000000" d="M 420 392 L 828 392 L 828 728 L 420 728 L 420 392" stroke-miterlimit="10"/></g><g transform="translate(-410,-382) scale(1,1)"><path fill="#ffffff" stroke="none" d="M 420 392 L 420 414 L 607.98974609375 414 L 618.98974609375 403 L 618.98974609375 392 L 420 392"/></g><g transform="translate(-410,-382) scale(1,1)"><path fill="none" stroke="#000000" d="M 420 392 L 420 414 L 607.98974609375 414 L 618.98974609375 403 L 618.98974609375 392 L 420 392 L 420 392" stroke-miterlimit="10"/></g><g transform="translate(-410,-382) scale(1,1)"><g><path fill="none" stroke="none"/><text fill="#000000" stroke="none" font-family="Arial" font-size="13px" font-style="normal" font-weight="normal" text-decoration="none" x="511.9326171875" y="409.5">Spaceship Hide</text></g></g><g transform="translate(-410,-382) scale(1,1)"><g><path fill="none" stroke="none"/><text fill="#000000" stroke="none" font-family="Arial" font-size="13px" font-style="normal" font-weight="bold" text-decoration="none" x="425" y="409.5">state machine</text></g></g><g transform="translate(-410,-382) scale(1,1)"><path fill="#C0C0C0" stroke="none" d="M 439 560.5 C 439 555.2532944 443.2532944 551 448.5 551 C 453.7467056 551 458 555.2532944 458 560.5 C 458 565.7467056 453.7467056 570 448.5 570 C 443.2532944 570 439 565.7467056 439 560.5 Z" opacity="0.2"/></g><g transform="translate(-410,-382) scale(1,1)"><path fill="#000000" stroke="none" d="M 432 553.5 C 432 548.2532944 436.2532944 544 441.5 544 C 446.7467056 544 451 548.2532944 451 553.5 C 451 558.7467056 446.7467056 563 441.5 563 C 436.2532944 563 432 558.7467056 432 553.5 Z"/></g><g transform="translate(-410,-382) scale(1,1)"><path fill="#C0C0C0" stroke="none" d="M 505 535 L 561.87548828125 535 Q 571.87548828125 535 571.87548828125 545 L 571.87548828125 564 Q 571.87548828125 574 561.87548828125 574 L 505 574 Q 495 574 495 564 L 495 545 Q 495 535 505 535 Z" opacity="0.2"/></g><g transform="translate(-410,-382) scale(1,1)"><path fill="#ffffff" stroke="none" d="M 498 528 L 554.87548828125 528 Q 564.87548828125 528 564.87548828125 538 L 564.87548828125 557 Q 564.87548828125 567 554.87548828125 567 L 498 567 Q 488 567 488 557 L 488 538 Q 488 528 498 528 Z"/></g><g transform="translate(-410,-382) scale(1,1)"><path fill="none" stroke="#000000" d="M 498 528 L 554.87548828125 528 Q 564.87548828125 528 564.87548828125 538 L 564.87548828125 557 Q 564.87548828125 567 554.87548828125 567 L 498 567 Q 488 567 488 557 L 488 538 Q 488 528 498 528 Z" stroke-miterlimit="10"/></g><g transform="translate(-410,-382) scale(1,1)"><g><path fill="none" stroke="none"/><text fill="#000000" stroke="none" font-family="Arial" font-size="13px" font-style="normal" font-weight="bold" text-decoration="none" x="494.997802734375" y="547.5">Not hidden</text></g></g><g transform="translate(-410,-382) scale(1,1)"><path fill="none" stroke="#000000" d="M 452 552 L 487 550" stroke-miterlimit="10"/></g><g transform="translate(-410,-382) scale(1,1)"><path fill="none" stroke="#000000" d="M 477.09402884732566 554.7824403312936 L 487 550 L 476.6137246348279 546.3771166125833" stroke-miterlimit="10"/></g><g transform="translate(-410,-382) scale(1,1)"><path fill="#C0C0C0" stroke="none" d="M 761 527 L 800 527 Q 810 527 810 537 L 810 556 Q 810 566 800 566 L 761 566 Q 751 566 751 556 L 751 537 Q 751 527 761 527 Z" opacity="0.2"/></g><g transform="translate(-410,-382) scale(1,1)"><path fill="#ffffff" stroke="none" d="M 754 520 L 793 520 Q 803 520 803 530 L 803 549 Q 803 559 793 559 L 754 559 Q 744 559 744 549 L 744 530 Q 744 520 754 520 Z"/></g><g transform="translate(-410,-382) scale(1,1)"><path fill="none" stroke="#000000" d="M 754 520 L 793 520 Q 803 520 803 530 L 803 549 Q 803 559 793 559 L 754 559 Q 744 559 744 549 L 744 530 Q 744 520 754 520 Z" stroke-miterlimit="10"/></g><g transform="translate(-410,-382) scale(1,1)"><g><path fill="none" stroke="none"/><text fill="#000000" stroke="none" font-family="Arial" font-size="13px" font-style="normal" font-weight="bold" text-decoration="none" x="752.90185546875" y="539.5">Hidden</text></g></g><g transform="translate(-410,-382) scale(1,1)"><path fill="#C0C0C0" stroke="none" d="M 631 667.5 C 631 660.59644 636.59644 655 643.5 655 C 650.40356 655 656 660.59644 656 667.5 C 656 674.40356 650.40356 680 643.5 680 C 636.59644 680 631 674.40356 631 667.5 Z" opacity="0.2"/></g><g transform="translate(-410,-382) scale(1,1)"><path fill="none" stroke="#000000" d="M 624 660.5 C 624 653.59644 629.59644 648 636.5 648 C 643.40356 648 649 653.59644 649 660.5 C 649 667.40356 643.40356 673 636.5 673 C 629.59644 673 624 667.40356 624 660.5 Z" stroke-miterlimit="10"/></g><g transform="translate(-410,-382) scale(1,1)"><path fill="#000000" stroke="none" d="M 629 660.5 C 629 656.357864 632.357864 653 636.5 653 C 640.642136 653 644 656.357864 644 660.5 C 644 664.642136 640.642136 668 636.5 668 C 632.357864 668 629 664.642136 629 660.5 Z"/></g><g transform="translate(-410,-382) scale(1,1)"><path fill="none" stroke="#000000" d="M 546 568 L 623 647" stroke-miterlimit="10"/></g><g transform="translate(-410,-382) scale(1,1)"><path fill="none" stroke="#000000" d="M 612.8921239778992 642.6605481542205 L 623 647 L 618.9211081481628 636.7841964945964" stroke-miterlimit="10"/></g><g transform="translate(-410,-382) scale(1,1)"><g><path fill="none" stroke="none"/><text fill="#000000" stroke="none" font-family="Arial" font-size="13px" font-style="normal" font-weight="normal" text-decoration="none" x="526.5" y="619.5">explode</text></g></g><g transform="translate(-410,-382) scale(1,1)"><path fill="none" stroke="#000000" d="M 566 554 L 648 568 L 743 546" stroke-miterlimit="10"/></g><g transform="translate(-410,-382) scale(1,1)"><path fill="none" stroke="#000000" d="M 734.0490410410534 552.393773042207 L 743 546 L 732.1496359464941 544.1917964975188" stroke-miterlimit="10"/></g><g transform="translate(-410,-382) scale(1,1)"><g><path fill="none" stroke="none"/><text fill="#000000" stroke="none" font-family="Arial" font-size="13px" font-style="normal" font-weight="normal" text-decoration="none" x="661.512451171875" y="579.5">hide</text></g></g><g transform="translate(-410,-382) scale(1,1)"><path fill="none" stroke="#000000" d="M 743 533 L 648 512 L 566 536" stroke-miterlimit="10"/></g><g transform="translate(-410,-382) scale(1,1)"><path fill="none" stroke="#000000" d="M 574.5710509265886 529.1052856466837 L 566 536 L 576.9359475056601 537.1853489585118" stroke-miterlimit="10"/></g><g transform="translate(-410,-382) scale(1,1)"><g><path fill="none" stroke="none"/><text fill="#000000" stroke="none" font-family="Arial" font-size="13px" font-style="normal" font-weight="normal" text-decoration="none" x="623.5" y="508.5">exitHiding</text></g></g></g></svg>