<?xml version="1.0" encoding="utf-8"?>
<svg version="1.1" xmlns="http://www.w3.org/2000/svg" xmlns:xlink="http://www.w3.org/1999/xlink" width="748" height="380">
  <defs />
  <g>
    <g transform="translate(-158,10) scale(1,1)">
      <path fill="none" stroke="#000000" d="M 208 0 L 896 0 L 896 360 L 208 360 L 208 0" stroke-miterlimit="10" />
    </g>
    <g transform="translate(-158,10) scale(1,1)">
      <path fill="#ffffff" stroke="none" d="M 208 0 L 208 22 L 299.1435546875 22 L 310.1435546875 11 L 310.1435546875 0 L 208 0" />
    </g>
    <g transform="translate(-158,10) scale(1,1)">
      <path fill="none" stroke="#000000" d="M 208 0 L 208 22 L 299.1435546875 22 L 310.1435546875 11 L 310.1435546875 0 L 208 0 L 208 0" stroke-miterlimit="10" />
    </g>
    <g transform="translate(-158,10) scale(1,1)">
      <g>
        <path fill="none" stroke="none" />
        <text fill="#000000" stroke="none" font-family="Arial" font-size="13px" font-style="normal" font-weight="normal" text-decoration="none" x="232.72998046875" y="17.5">Craft robot</text>
      </g>
    </g>
    <g transform="translate(-158,10) scale(1,1)">
      <g>
        <path fill="none" stroke="none" />
        <text fill="#000000" stroke="none" font-family="Arial" font-size="13px" font-style="normal" font-weight="bold" text-decoration="none" x="213" y="17.5">sd</text>
      </g>
    </g>
    <g transform="translate(-158,10) scale(1,1)">
      <rect fill="#C0C0C0" stroke="none" x="319" y="47" width="126.630859375" height="39" opacity="0.2" />
    </g>
    <g transform="translate(-158,10) scale(1,1)">
      <rect fill="#ffffff" stroke="none" x="312" y="40" width="126.630859375" height="39" />
    </g>
    <g transform="translate(-158,10) scale(1,1)">
      <path fill="none" stroke="#000000" d="M 312 40 L 438.630859375 40 L 438.630859375 79 L 312 79 L 312 40 Z Z" stroke-miterlimit="10" />
    </g>
    <g transform="translate(-158,10) scale(1,1)">
      <g>
        <path fill="none" stroke="none" />
        <text fill="#000000" stroke="none" font-family="Arial" font-size="13px" font-style="normal" font-weight="bold" text-decoration="none" x="325.095947265625" y="59.5">rec: RobotRecipe</text>
      </g>
    </g>
    <g transform="translate(-158,10) scale(1,1)">
      <path fill="none" stroke="#000000" d="M 376.5 80 L 376.5 320" stroke-miterlimit="10" stroke-dasharray="3" />
    </g>
    <g transform="translate(-158,10) scale(1,1)">
      <path fill="#000000" stroke="none" d="M 168 119.5 C 168 115.6340064 171.1340064 112.5 175 112.5 C 178.8659936 112.5 182 115.6340064 182 119.5 C 182 123.3659936 178.8659936 126.5 175 126.5 C 171.1340064 126.5 168 123.3659936 168 119.5 Z" />
    </g>
    <g transform="translate(-158,10) scale(1,1)">
      <rect fill="#C0C0C0" stroke="none" x="591" y="139" width="71.736328125" height="39" opacity="0.2" />
    </g>
    <g transform="translate(-158,10) scale(1,1)">
      <rect fill="#ffffff" stroke="none" x="584" y="132" width="71.736328125" height="39" />
    </g>
    <g transform="translate(-158,10) scale(1,1)">
      <path fill="none" stroke="#000000" d="M 584 132 L 655.736328125 132 L 655.736328125 171 L 584 171 L 584 132 Z Z" stroke-miterlimit="10" />
    </g>
    <g transform="translate(-158,10) scale(1,1)">
      <g>
        <path fill="none" stroke="none" />
        <text fill="#000000" stroke="none" font-family="Arial" font-size="13px" font-style="normal" font-weight="bold" text-decoration="none" x="596.746826171875" y="151.5">r: Robot</text>
      </g>
    </g>
    <g transform="translate(-158,10) scale(1,1)">
      <path fill="none" stroke="#000000" d="M 620.5 172 L 620.5 320" stroke-miterlimit="10" stroke-dasharray="3" />
    </g>
    <g transform="translate(-158,10) scale(1,1)">
      <path fill="#000000" stroke="none" d="M 168 279.5 C 168 275.6340064 171.1340064 272.5 175 272.5 C 178.8659936 272.5 182 275.6340064 182 279.5 C 182 283.3659936 178.8659936 286.5 175 286.5 C 171.1340064 286.5 168 283.3659936 168 279.5 Z" />
    </g>
    <g transform="translate(-158,10) scale(1,1)">
      <rect fill="#C0C0C0" stroke="none" x="671" y="47" width="89.0654296875" height="39" opacity="0.2" />
    </g>
    <g transform="translate(-158,10) scale(1,1)">
      <rect fill="#ffffff" stroke="none" x="664" y="40" width="89.0654296875" height="39" />
    </g>
    <g transform="translate(-158,10) scale(1,1)">
      <path fill="none" stroke="#000000" d="M 664 40 L 753.0654296875 40 L 753.0654296875 79 L 664 79 L 664 40 Z Z" stroke-miterlimit="10" />
    </g>
    <g transform="translate(-158,10) scale(1,1)">
      <g>
        <path fill="none" stroke="none" />
        <text fill="#000000" stroke="none" font-family="Arial" font-size="13px" font-style="normal" font-weight="bold" text-decoration="none" x="676.740478515625" y="59.5">i: Inventory</text>
      </g>
    </g>
    <g transform="translate(-158,10) scale(1,1)">
      <path fill="none" stroke="#000000" d="M 709.5 80 L 709.5 320" stroke-miterlimit="10" stroke-dasharray="3" />
    </g>
    <g transform="translate(-158,10) scale(1,1)">
      <rect fill="#C0C0C0" stroke="none" x="799" y="47" width="86.90087890625" height="39" opacity="0.2" />
    </g>
    <g transform="translate(-158,10) scale(1,1)">
      <rect fill="#ffffff" stroke="none" x="792" y="40" width="86.90087890625" height="39" />
    </g>
    <g transform="translate(-158,10) scale(1,1)">
      <path fill="none" stroke="#000000" d="M 792 40 L 878.90087890625 40 L 878.90087890625 79 L 792 79 L 792 40 Z Z" stroke-miterlimit="10" />
    </g>
    <g transform="translate(-158,10) scale(1,1)">
      <g>
        <path fill="none" stroke="none" />
        <text fill="#000000" stroke="none" font-family="Arial" font-size="13px" font-style="normal" font-weight="bold" text-decoration="none" x="804.378662109375" y="59.5">a: Asteroid</text>
      </g>
    </g>
    <g transform="translate(-158,10) scale(1,1)">
      <path fill="none" stroke="#000000" d="M 836.5 80 L 836.5 320" stroke-miterlimit="10" stroke-dasharray="3" />
    </g>
    <g transform="translate(-158,10) scale(1,1)">
      <path fill="none" stroke="#000000" d="M 182 120 L 369 120" stroke-miterlimit="10" />
    </g>
    <g transform="translate(-158,10) scale(1,1)">
      <path fill="#000000" stroke="none" d="M 358.83732514237585 124.20951775601598 L 369 120 L 358.83732514237585 115.79048224398402" />
    </g>
    <g transform="translate(-158,10) scale(1,1)">
      <path fill="none" stroke="#000000" d="M 358.83732514237585 124.20951775601598 L 369 120 L 358.83732514237585 115.79048224398402 L 358.83732514237585 124.20951775601598" stroke-miterlimit="10" />
    </g>
    <g transform="translate(-158,10) scale(1,1)">
      <g>
        <path fill="none" stroke="none" />
        <text fill="#000000" stroke="none" font-family="Arial" font-size="13px" font-style="normal" font-weight="normal" text-decoration="none" x="233.645263671875" y="116.5">1 : MakeResult(i,a)</text>
      </g>
    </g>
    <g transform="translate(-158,10) scale(1,1)">
      <rect fill="#ffffff" stroke="none" x="369" y="120" width="13" height="168" />
    </g>
    <g transform="translate(-158,10) scale(1,1)">
      <path fill="none" stroke="#000000" d="M 369 120 L 382 120 L 382 288 L 369 288 L 369 120 Z Z" stroke-miterlimit="10" />
    </g>
    <g transform="translate(-158,10) scale(1,1)">
      <path fill="none" stroke="#000000" d="M 382 152 L 584 152" stroke-miterlimit="10" stroke-dasharray="3" />
    </g>
    <g transform="translate(-158,10) scale(1,1)">
      <path fill="none" stroke="#000000" d="M 573.8373251423759 156.209517756016 L 584 152 L 573.8373251423758 147.790482243984" stroke-miterlimit="10" />
    </g>
    <g transform="translate(-158,10) scale(1,1)">
      <g>
        <path fill="none" stroke="none" />
        <text fill="#000000" stroke="none" font-family="Arial" font-size="13px" font-style="normal" font-weight="normal" text-decoration="none" x="429.7099609375" y="148.5">2 : Robot(player,a)</text>
      </g>
    </g>
    <g transform="translate(-158,10) scale(1,1)">
      <g>
        <path fill="none" stroke="none" />
        <text fill="#000000" stroke="none" font-family="Arial" font-size="13px" font-style="normal" font-weight="normal" text-decoration="none" x="457.5" y="133.5">«create»</text>
      </g>
    </g>
    <g transform="translate(-158,10) scale(1,1)">
      <path fill="none" stroke="#000000" d="M 382 189 L 613 189" stroke-miterlimit="10" />
    </g>
    <g transform="translate(-158,10) scale(1,1)">
      <path fill="#000000" stroke="none" d="M 602.8373251423759 193.209517756016 L 613 189 L 602.8373251423758 184.790482243984" />
    </g>
    <g transform="translate(-158,10) scale(1,1)">
      <path fill="none" stroke="#000000" d="M 602.8373251423759 193.209517756016 L 613 189 L 602.8373251423758 184.790482243984 L 602.8373251423759 193.209517756016" stroke-miterlimit="10" />
    </g>
    <g transform="translate(-158,10) scale(1,1)">
      <g>
        <path fill="none" stroke="none" />
        <text fill="#000000" stroke="none" font-family="Arial" font-size="13px" font-style="normal" font-weight="normal" text-decoration="none" x="463.956787109375" y="185.5">3 : Move(a)</text>
      </g>
    </g>
    <g transform="translate(-158,10) scale(1,1)">
      <rect fill="#ffffff" stroke="none" x="613" y="189" width="13" height="35" />
    </g>
    <g transform="translate(-158,10) scale(1,1)">
      <path fill="none" stroke="#000000" d="M 613 189 L 626 189 L 626 224 L 613 224 L 613 189 Z Z" stroke-miterlimit="10" />
    </g>
    <g transform="translate(-158,10) scale(1,1)">
      <path fill="none" stroke="#000000" d="M 620 224 L 382 224" stroke-miterlimit="10" stroke-dasharray="3" />
    </g>
    <g transform="translate(-158,10) scale(1,1)">
      <path fill="none" stroke="#000000" d="M 392.16267485762415 219.790482243984 L 382 224 L 392.16267485762415 228.209517756016" stroke-miterlimit="10" />
    </g>
    <g transform="translate(-158,10) scale(1,1)">
      <g>
        <path fill="none" stroke="none" />
        <text fill="#000000" stroke="none" font-family="Arial" font-size="13px" font-style="normal" font-weight="normal" text-decoration="none" x="490.489501953125" y="240.5">4 : </text>
      </g>
    </g>
    <g transform="translate(-158,10) scale(1,1)">
      <path fill="none" stroke="#000000" d="M 369 280 L 182 280" stroke-miterlimit="10" stroke-dasharray="3" />
    </g>
    <g transform="translate(-158,10) scale(1,1)">
      <path fill="none" stroke="#000000" d="M 192.16267485762415 275.790482243984 L 182 280 L 192.16267485762415 284.209517756016" stroke-miterlimit="10" />
    </g>
    <g transform="translate(-158,10) scale(1,1)">
      <g>
        <path fill="none" stroke="none" />
        <text fill="#000000" stroke="none" font-family="Arial" font-size="13px" font-style="normal" font-weight="normal" text-decoration="none" x="265.114990234375" y="296.5">5 : </text>
      </g>
    </g>
  </g>
</svg>