<?xml version="1.0" encoding="utf-8"?>
<svg version="1.1" xmlns="http://www.w3.org/2000/svg" xmlns:xlink="http://www.w3.org/1999/xlink" width="1044" height="468">
  <defs />
  <g>
    <g transform="translate(-6,2) scale(1,1)">
      <path fill="none" stroke="#000000" d="M 88 8 L 1040 8 L 1040 456 L 88 456 L 88 8" stroke-miterlimit="10" />
    </g>
    <g transform="translate(-6,2) scale(1,1)">
      <path fill="#ffffff" stroke="none" d="M 88 8 L 88 30 L 196.49169921875 30 L 207.49169921875 19 L 207.49169921875 8 L 88 8" />
    </g>
    <g transform="translate(-6,2) scale(1,1)">
      <path fill="none" stroke="#000000" d="M 88 8 L 88 30 L 196.49169921875 30 L 207.49169921875 19 L 207.49169921875 8 L 88 8 L 88 8" stroke-miterlimit="10" />
    </g>
    <g transform="translate(-6,2) scale(1,1)">
      <g>
        <path fill="none" stroke="none" />
        <text fill="#000000" stroke="none" font-family="Arial" font-size="13px" font-style="normal" font-weight="normal" text-decoration="none" x="112.72998046875" y="25.5">CraftAnything</text>
      </g>
    </g>
    <g transform="translate(-6,2) scale(1,1)">
      <g>
        <path fill="none" stroke="none" />
        <text fill="#000000" stroke="none" font-family="Arial" font-size="13px" font-style="normal" font-weight="bold" text-decoration="none" x="93" y="25.5">sd</text>
      </g>
    </g>
    <g transform="translate(-6,2) scale(1,1)">
      <rect fill="#C0C0C0" stroke="none" x="255" y="47" width="146.1435546875" height="39" opacity="0.2" />
    </g>
    <g transform="translate(-6,2) scale(1,1)">
      <rect fill="#ffffff" stroke="none" x="248" y="40" width="146.1435546875" height="39" />
    </g>
    <g transform="translate(-6,2) scale(1,1)">
      <path fill="none" stroke="#000000" d="M 248 40 L 394.1435546875 40 L 394.1435546875 79 L 248 79 L 248 40 Z Z" stroke-miterlimit="10" />
    </g>
    <g transform="translate(-6,2) scale(1,1)">
      <g>
        <path fill="none" stroke="none" />
        <text fill="#000000" stroke="none" font-family="Arial" font-size="13px" font-style="normal" font-weight="bold" text-decoration="none" x="282.77001953125" y="59.5">s: SpaceShip</text>
      </g>
    </g>
    <g transform="translate(-6,2) scale(1,1)">
      <path fill="none" stroke="#000000" d="M 322.5 80 L 322.5 447" stroke-miterlimit="10" stroke-dasharray="3" />
    </g>
    <g transform="translate(-6,2) scale(1,1)">
      <rect fill="#C0C0C0" stroke="none" x="543" y="47" width="137.25048828125" height="39" opacity="0.2" />
    </g>
    <g transform="translate(-6,2) scale(1,1)">
      <rect fill="#ffffff" stroke="none" x="536" y="40" width="137.25048828125" height="39" />
    </g>
    <g transform="translate(-6,2) scale(1,1)">
      <path fill="none" stroke="#000000" d="M 536 40 L 673.25048828125 40 L 673.25048828125 79 L 536 79 L 536 40 Z Z" stroke-miterlimit="10" />
    </g>
    <g transform="translate(-6,2) scale(1,1)">
      <g>
        <path fill="none" stroke="none" />
        <text fill="#000000" stroke="none" font-family="Arial" font-size="13px" font-style="normal" font-weight="bold" text-decoration="none" x="563.07666015625" y="59.5">recipe: Recipe</text>
      </g>
    </g>
    <g transform="translate(-6,2) scale(1,1)">
      <path fill="none" stroke="#000000" d="M 605.5 80 L 605.5 448" stroke-miterlimit="10" stroke-dasharray="3" />
    </g>
    <g transform="translate(-6,2) scale(1,1)">
      <path fill="#ffffff" stroke="none" d="M 144 272 L 202.578125 272 L 212.578125 282 L 212.578125 360 L 144 360 L 144 272" />
    </g>
    <g transform="translate(-6,2) scale(1,1)">
      <path fill="none" stroke="#000000" d="M 144 272 L 202.578125 272 L 212.578125 282 L 212.578125 360 L 144 360 L 144 272 L 144 272" stroke-miterlimit="10" />
    </g>
    <g transform="translate(-6,2) scale(1,1)">
      <path fill="none" stroke="#000000" d="M 202.578125 272 L 202.578125 282 L 212.578125 282 L 202.578125 272" stroke-miterlimit="10" />
    </g>
    <g transform="translate(-6,2) scale(1,1)">
      <g>
        <path fill="none" stroke="none" />
        <text fill="#000000" stroke="none" font-family="Arial" font-size="13px" font-style="normal" font-weight="normal" text-decoration="none" x="149" y="290">if enough</text>
        <text fill="#000000" stroke="none" font-family="Arial" font-size="13px" font-style="normal" font-weight="normal" text-decoration="none" x="149" y="303">resource</text>
        <text fill="#000000" stroke="none" font-family="Arial" font-size="13px" font-style="normal" font-weight="normal" text-decoration="none" x="149" y="316">fund to</text>
        <text fill="#000000" stroke="none" font-family="Arial" font-size="13px" font-style="normal" font-weight="normal" text-decoration="none" x="149" y="329">build the</text>
        <text fill="#000000" stroke="none" font-family="Arial" font-size="13px" font-style="normal" font-weight="normal" text-decoration="none" x="149" y="342">recipe</text>
      </g>
    </g>
    <g transform="translate(-6,2) scale(1,1)">
      <path fill="#ffffff" stroke="none" d="M 648 224 L 728.9853515625 224 L 738.9853515625 234 L 738.9853515625 364 L 648 364 L 648 224" />
    </g>
    <g transform="translate(-6,2) scale(1,1)">
      <path fill="none" stroke="#000000" d="M 648 224 L 728.9853515625 224 L 738.9853515625 234 L 738.9853515625 364 L 648 364 L 648 224 L 648 224" stroke-miterlimit="10" />
    </g>
    <g transform="translate(-6,2) scale(1,1)">
      <path fill="none" stroke="#000000" d="M 728.9853515625 224 L 728.9853515625 234 L 738.9853515625 234 L 728.9853515625 224" stroke-miterlimit="10" />
    </g>
    <g transform="translate(-6,2) scale(1,1)">
      <g>
        <path fill="none" stroke="none" />
        <text fill="#000000" stroke="none" font-family="Arial" font-size="13px" font-style="normal" font-weight="normal" text-decoration="none" x="653" y="242">depending on</text>
        <text fill="#000000" stroke="none" font-family="Arial" font-size="13px" font-style="normal" font-weight="normal" text-decoration="none" x="653" y="255">RecipeType</text>
        <text fill="#000000" stroke="none" font-family="Arial" font-size="13px" font-style="normal" font-weight="normal" text-decoration="none" x="653" y="268">the</text>
        <text fill="#000000" stroke="none" font-family="Arial" font-size="13px" font-style="normal" font-weight="normal" text-decoration="none" x="653" y="281">building/item</text>
        <text fill="#000000" stroke="none" font-family="Arial" font-size="13px" font-style="normal" font-weight="normal" text-decoration="none" x="653" y="294">is inside the</text>
        <text fill="#000000" stroke="none" font-family="Arial" font-size="13px" font-style="normal" font-weight="normal" text-decoration="none" x="653" y="307">inventory or</text>
        <text fill="#000000" stroke="none" font-family="Arial" font-size="13px" font-style="normal" font-weight="normal" text-decoration="none" x="653" y="320">the asteroid</text>
      </g>
    </g>
    <g transform="translate(-6,2) scale(1,1)">
      <path fill="#000000" stroke="none" d="M 16 114.5 C 16 110.6340064 19.1340064 107.5 23 107.5 C 26.8659936 107.5 30 110.6340064 30 114.5 C 30 118.3659936 26.8659936 121.5 23 121.5 C 19.1340064 121.5 16 118.3659936 16 114.5 Z" />
    </g>
    <g transform="translate(-6,2) scale(1,1)">
      <rect fill="#C0C0C0" stroke="none" x="751" y="47" width="143.96630859375" height="39" opacity="0.2" />
    </g>
    <g transform="translate(-6,2) scale(1,1)">
      <rect fill="#ffffff" stroke="none" x="744" y="40" width="143.96630859375" height="39" />
    </g>
    <g transform="translate(-6,2) scale(1,1)">
      <path fill="none" stroke="#000000" d="M 744 40 L 887.96630859375 40 L 887.96630859375 79 L 744 79 L 744 40 Z Z" stroke-miterlimit="10" />
    </g>
    <g transform="translate(-6,2) scale(1,1)">
      <g>
        <path fill="none" stroke="none" />
        <text fill="#000000" stroke="none" font-family="Arial" font-size="13px" font-style="normal" font-weight="bold" text-decoration="none" x="759.260498046875" y="59.5">inventory: Inventory</text>
      </g>
    </g>
    <g transform="translate(-6,2) scale(1,1)">
      <path fill="none" stroke="#000000" d="M 816.5 80 L 816.5 448" stroke-miterlimit="10" stroke-dasharray="3" />
    </g>
    <g transform="translate(-6,2) scale(1,1)">
      <rect fill="#C0C0C0" stroke="none" x="911" y="47" width="132.4072265625" height="39" opacity="0.2" />
    </g>
    <g transform="translate(-6,2) scale(1,1)">
      <rect fill="#ffffff" stroke="none" x="904" y="40" width="132.4072265625" height="39" />
    </g>
    <g transform="translate(-6,2) scale(1,1)">
      <path fill="none" stroke="#000000" d="M 904 40 L 1036.4072265625 40 L 1036.4072265625 79 L 904 79 L 904 40 Z Z" stroke-miterlimit="10" />
    </g>
    <g transform="translate(-6,2) scale(1,1)">
      <g>
        <path fill="none" stroke="none" />
        <text fill="#000000" stroke="none" font-family="Arial" font-size="13px" font-style="normal" font-weight="bold" text-decoration="none" x="919.622314453125" y="59.5">asteroid: Asteroid</text>
      </g>
    </g>
    <g transform="translate(-6,2) scale(1,1)">
      <path fill="none" stroke="#000000" d="M 971.5 80 L 971.5 448" stroke-miterlimit="10" stroke-dasharray="3" />
    </g>
    <g transform="translate(-6,2) scale(1,1)">
      <path fill="#000000" stroke="none" d="M 24 408.5 C 24 404.6340064 27.1340064 401.5 31 401.5 C 34.8659936 401.5 38 404.6340064 38 408.5 C 38 412.3659936 34.8659936 415.5 31 415.5 C 27.1340064 415.5 24 412.3659936 24 408.5 Z" />
    </g>
    <g transform="translate(-6,2) scale(1,1)">
      <path fill="none" stroke="#000000" d="M 30 115 L 315 115" stroke-miterlimit="10" />
    </g>
    <g transform="translate(-6,2) scale(1,1)">
      <path fill="#000000" stroke="none" d="M 304.83732514237585 119.20951775601598 L 315 115 L 304.83732514237585 110.79048224398402" />
    </g>
    <g transform="translate(-6,2) scale(1,1)">
      <path fill="none" stroke="#000000" d="M 304.83732514237585 119.20951775601598 L 315 115 L 304.83732514237585 110.79048224398402 L 304.83732514237585 119.20951775601598" stroke-miterlimit="10" />
    </g>
    <g transform="translate(-6,2) scale(1,1)">
      <g>
        <path fill="none" stroke="none" />
        <text fill="#000000" stroke="none" font-family="Arial" font-size="13px" font-style="normal" font-weight="normal" text-decoration="none" x="127.344970703125" y="111.5">1 : Craft(recipe)</text>
      </g>
    </g>
    <g transform="translate(-6,2) scale(1,1)">
      <rect fill="#ffffff" stroke="none" x="315" y="115" width="13" height="301" />
    </g>
    <g transform="translate(-6,2) scale(1,1)">
      <path fill="none" stroke="#000000" d="M 315 115 L 328 115 L 328 416 L 315 416 L 315 115 Z Z" stroke-miterlimit="10" />
    </g>
    <g transform="translate(-6,2) scale(1,1)">
      <path fill="none" stroke="#000000" d="M 328 136 L 598 136" stroke-miterlimit="10" />
    </g>
    <g transform="translate(-6,2) scale(1,1)">
      <path fill="#000000" stroke="none" d="M 587.8373251423759 140.209517756016 L 598 136 L 587.8373251423758 131.790482243984" />
    </g>
    <g transform="translate(-6,2) scale(1,1)">
      <path fill="none" stroke="#000000" d="M 587.8373251423759 140.209517756016 L 598 136 L 587.8373251423758 131.790482243984 L 587.8373251423759 140.209517756016" stroke-miterlimit="10" />
    </g>
    <g transform="translate(-6,2) scale(1,1)">
      <g>
        <path fill="none" stroke="none" />
        <text fill="#000000" stroke="none" font-family="Arial" font-size="13px" font-style="normal" font-weight="normal" text-decoration="none" x="370.72998046875" y="132.5">2 : CanCraft(inventory, asteroid)</text>
      </g>
    </g>
    <g transform="translate(-6,2) scale(1,1)">
      <rect fill="#ffffff" stroke="none" x="598" y="136" width="13" height="48" />
    </g>
    <g transform="translate(-6,2) scale(1,1)">
      <path fill="none" stroke="#000000" d="M 598 136 L 611 136 L 611 184 L 598 184 L 598 136 Z Z" stroke-miterlimit="10" />
    </g>
    <g transform="translate(-6,2) scale(1,1)">
      <path fill="none" stroke="#000000" d="M 598 176 L 328 176" stroke-miterlimit="10" stroke-dasharray="3" />
    </g>
    <g transform="translate(-6,2) scale(1,1)">
      <path fill="none" stroke="#000000" d="M 338.16267485762415 171.790482243984 L 328 176 L 338.16267485762415 180.209517756016" stroke-miterlimit="10" />
    </g>
    <g transform="translate(-6,2) scale(1,1)">
      <g>
        <path fill="none" stroke="none" />
        <text fill="#000000" stroke="none" font-family="Arial" font-size="13px" font-style="normal" font-weight="normal" text-decoration="none" x="405.5" y="192.5">3 : possible = result</text>
      </g>
    </g>
    <g transform="translate(-6,2) scale(1,1)">
      <path fill="none" stroke="#000000" d="M 328 272 L 598 272" stroke-miterlimit="10" />
    </g>
    <g transform="translate(-6,2) scale(1,1)">
      <path fill="#000000" stroke="none" d="M 587.8373251423759 276.209517756016 L 598 272 L 587.8373251423758 267.790482243984" />
    </g>
    <g transform="translate(-6,2) scale(1,1)">
      <path fill="none" stroke="#000000" d="M 587.8373251423759 276.209517756016 L 598 272 L 587.8373251423758 267.790482243984 L 587.8373251423759 276.209517756016" stroke-miterlimit="10" />
    </g>
    <g transform="translate(-6,2) scale(1,1)">
      <g>
        <path fill="none" stroke="none" />
        <text fill="#000000" stroke="none" font-family="Arial" font-size="13px" font-style="normal" font-weight="normal" text-decoration="none" x="382.72998046875" y="268.5">4 : Craft(inventory, asteroid)</text>
      </g>
    </g>
    <g transform="translate(-6,2) scale(1,1)">
      <rect fill="#ffffff" stroke="none" x="598" y="272" width="13" height="28" />
    </g>
    <g transform="translate(-6,2) scale(1,1)">
      <path fill="none" stroke="#000000" d="M 598 272 L 611 272 L 611 300 L 598 300 L 598 272 Z Z" stroke-miterlimit="10" />
    </g>
    <g transform="translate(-6,2) scale(1,1)">
      <path fill="none" stroke="#000000" d="M 598 292 L 328 292" stroke-miterlimit="10" stroke-dasharray="3" />
    </g>
    <g transform="translate(-6,2) scale(1,1)">
      <path fill="none" stroke="#000000" d="M 338.16267485762415 287.790482243984 L 328 292 L 338.16267485762415 296.209517756016" stroke-miterlimit="10" />
    </g>
    <g transform="translate(-6,2) scale(1,1)">
      <g>
        <path fill="none" stroke="none" />
        <text fill="#000000" stroke="none" font-family="Arial" font-size="13px" font-style="normal" font-weight="normal" text-decoration="none" x="452.489501953125" y="308.5">5 : </text>
      </g>
    </g>
    <g transform="translate(-6,2) scale(1,1)">
      <path fill="none" stroke="#000000" d="M 315 409 L 38 409" stroke-miterlimit="10" stroke-dasharray="3" />
    </g>
    <g transform="translate(-6,2) scale(1,1)">
      <path fill="none" stroke="#000000" d="M 48.162674857624154 404.790482243984 L 38 409 L 48.162674857624154 413.209517756016" stroke-miterlimit="10" />
    </g>
    <g transform="translate(-6,2) scale(1,1)">
      <g>
        <path fill="none" stroke="none" />
        <text fill="#000000" stroke="none" font-family="Arial" font-size="13px" font-style="normal" font-weight="normal" text-decoration="none" x="165.489501953125" y="425.5">6 : </text>
      </g>
    </g>
    <g transform="translate(-6,2) scale(1,1)">
      <path fill="none" stroke="#000000" d="M 112 208 L 839 208 L 839 383 L 112 383 L 112 208" stroke-miterlimit="10" />
    </g>
    <g transform="translate(-6,2) scale(1,1)">
      <path fill="#ffffff" stroke="none" d="M 112 208 L 112 230 L 203.8798828125 230 L 214.8798828125 219 L 214.8798828125 208 L 112 208" />
    </g>
    <g transform="translate(-6,2) scale(1,1)">
      <path fill="none" stroke="#000000" d="M 112 208 L 112 230 L 203.8798828125 230 L 214.8798828125 219 L 214.8798828125 208 L 112 208 L 112 208" stroke-miterlimit="10" />
    </g>
    <g transform="translate(-6,2) scale(1,1)">
      <g>
        <path fill="none" stroke="none" />
        <text fill="#000000" stroke="none" font-family="Arial" font-size="13px" font-style="normal" font-weight="normal" text-decoration="none" x="141.07177734375" y="225.5">if possible</text>
      </g>
    </g>
    <g transform="translate(-6,2) scale(1,1)">
      <g>
        <path fill="none" stroke="none" />
        <text fill="#000000" stroke="none" font-family="Arial" font-size="13px" font-style="normal" font-weight="bold" text-decoration="none" x="117" y="225.5">opt</text>
      </g>
    </g>
    <g transform="translate(-6,2) scale(1,1)">
      <g>
        <path fill="none" stroke="none" />
        <text fill="#000000" stroke="none" font-family="Arial" font-size="13px" font-style="normal" font-weight="normal" text-decoration="none" x="131.5" y="258.5">[if possible]</text>
      </g>
    </g>
  </g>
</svg>