<?xml version="1.0" encoding="utf-8"?>
<svg version="1.1" xmlns="http://www.w3.org/2000/svg" xmlns:xlink="http://www.w3.org/1999/xlink" width="644" height="396">
  <defs />
  <g>
    <g transform="translate(-70,2) scale(1,1)">
      <path fill="none" stroke="#000000" d="M 128 8 L 704 8 L 704 384 L 128 384 L 128 8" stroke-miterlimit="10" />
    </g>
    <g transform="translate(-70,2) scale(1,1)">
      <path fill="#ffffff" stroke="none" d="M 128 8 L 128 30 L 215.53173828125 30 L 226.53173828125 19 L 226.53173828125 8 L 128 8" />
    </g>
    <g transform="translate(-70,2) scale(1,1)">
      <path fill="none" stroke="#000000" d="M 128 8 L 128 30 L 215.53173828125 30 L 226.53173828125 19 L 226.53173828125 8 L 128 8 L 128 8" stroke-miterlimit="10" />
    </g>
    <g transform="translate(-70,2) scale(1,1)">
      <g>
        <path fill="none" stroke="none" />
        <text fill="#000000" stroke="none" font-family="Arial" font-size="13px" font-style="normal" font-weight="normal" text-decoration="none" x="152.72998046875" y="25.5">SunStorm</text>
      </g>
    </g>
    <g transform="translate(-70,2) scale(1,1)">
      <g>
        <path fill="none" stroke="none" />
        <text fill="#000000" stroke="none" font-family="Arial" font-size="13px" font-style="normal" font-weight="bold" text-decoration="none" x="133" y="25.5">sd</text>
      </g>
    </g>
    <g transform="translate(-70,2) scale(1,1)">
      <path fill="#000000" stroke="none" d="M 80 119.5 C 80 115.6340064 83.1340064 112.5 87 112.5 C 90.8659936 112.5 94 115.6340064 94 119.5 C 94 123.3659936 90.8659936 126.5 87 126.5 C 83.1340064 126.5 80 123.3659936 80 119.5 Z" />
    </g>
    <g transform="translate(-70,2) scale(1,1)">
      <rect fill="#C0C0C0" stroke="none" x="343" y="47" width="117.97900390625" height="39" opacity="0.2" />
    </g>
    <g transform="translate(-70,2) scale(1,1)">
      <rect fill="#ffffff" stroke="none" x="336" y="40" width="117.97900390625" height="39" />
    </g>
    <g transform="translate(-70,2) scale(1,1)">
      <path fill="none" stroke="#000000" d="M 336 40 L 453.97900390625 40 L 453.97900390625 79 L 336 79 L 336 40 Z Z" stroke-miterlimit="10" />
    </g>
    <g transform="translate(-70,2) scale(1,1)">
      <g>
        <path fill="none" stroke="none" />
        <text fill="#000000" stroke="none" font-family="Arial" font-size="13px" font-style="normal" font-weight="bold" text-decoration="none" x="355.602294921875" y="59.5">scene: Scene</text>
      </g>
    </g>
    <g transform="translate(-70,2) scale(1,1)">
      <path fill="none" stroke="#000000" d="M 395.5 80 L 395.5 362" stroke-miterlimit="10" stroke-dasharray="3" />
    </g>
    <g transform="translate(-70,2) scale(1,1)">
      <path fill="#000000" stroke="none" d="M 80 329.5 C 80 325.6340064 83.1340064 322.5 87 322.5 C 90.8659936 322.5 94 325.6340064 94 329.5 C 94 333.3659936 90.8659936 336.5 87 336.5 C 83.1340064 336.5 80 333.3659936 80 329.5 Z" />
    </g>
    <g transform="translate(-70,2) scale(1,1)">
      <rect fill="#C0C0C0" stroke="none" x="527" y="47" width="115.7890625" height="39" opacity="0.2" />
    </g>
    <g transform="translate(-70,2) scale(1,1)">
      <path fill="none" stroke="#000000" d="M 525 45 L 640.7890625 45 L 640.7890625 84 L 525 84 L 525 45 Z Z" stroke-miterlimit="10" />
    </g>
    <g transform="translate(-70,2) scale(1,1)">
      <rect fill="#ffffff" stroke="none" x="520" y="40" width="115.7890625" height="39" />
    </g>
    <g transform="translate(-70,2) scale(1,1)">
      <path fill="none" stroke="#000000" d="M 520 40 L 635.7890625 40 L 635.7890625 79 L 520 79 L 520 40 Z Z" stroke-miterlimit="10" />
    </g>
    <g transform="translate(-70,2) scale(1,1)">
      <g>
        <path fill="none" stroke="none" />
        <text fill="#000000" stroke="none" font-family="Arial" font-size="13px" font-style="normal" font-weight="bold" text-decoration="none" x="542.490478515625" y="59.5">entity: Entity</text>
      </g>
    </g>
    <g transform="translate(-70,2) scale(1,1)">
      <path fill="none" stroke="#000000" d="M 578.5 80 L 578.5 266" stroke-miterlimit="10" stroke-dasharray="3" />
    </g>
    <g transform="translate(-70,2) scale(1,1)">
      <path fill="none" stroke="#000000" d="M 94 120 L 388 120" stroke-miterlimit="10" />
    </g>
    <g transform="translate(-70,2) scale(1,1)">
      <path fill="#000000" stroke="none" d="M 377.83732514237585 124.20951775601598 L 388 120 L 377.83732514237585 115.79048224398402" />
    </g>
    <g transform="translate(-70,2) scale(1,1)">
      <path fill="none" stroke="#000000" d="M 377.83732514237585 124.20951775601598 L 388 120 L 377.83732514237585 115.79048224398402 L 377.83732514237585 124.20951775601598" stroke-miterlimit="10" />
    </g>
    <g transform="translate(-70,2) scale(1,1)">
      <g>
        <path fill="none" stroke="none" />
        <text fill="#000000" stroke="none" font-family="Arial" font-size="13px" font-style="normal" font-weight="normal" text-decoration="none" x="197.5" y="116.5">1 : SolarFlare()</text>
      </g>
    </g>
    <g transform="translate(-70,2) scale(1,1)">
      <rect fill="#ffffff" stroke="none" x="388" y="120" width="13" height="216" />
    </g>
    <g transform="translate(-70,2) scale(1,1)">
      <path fill="none" stroke="#000000" d="M 388 120 L 401 120 L 401 336 L 388 336 L 388 120 Z Z" stroke-miterlimit="10" />
    </g>
    <g transform="translate(-70,2) scale(1,1)">
      <path fill="none" stroke="#000000" d="M 401 216 L 571 216" stroke-miterlimit="10" />
    </g>
    <g transform="translate(-70,2) scale(1,1)">
      <path fill="#000000" stroke="none" d="M 560.8373251423759 220.209517756016 L 571 216 L 560.8373251423758 211.790482243984" />
    </g>
    <g transform="translate(-70,2) scale(1,1)">
      <path fill="none" stroke="#000000" d="M 560.8373251423759 220.209517756016 L 571 216 L 560.8373251423758 211.790482243984 L 560.8373251423759 220.209517756016" stroke-miterlimit="10" />
    </g>
    <g transform="translate(-70,2) scale(1,1)">
      <g>
        <path fill="none" stroke="none" />
        <text fill="#000000" stroke="none" font-family="Arial" font-size="13px" font-style="normal" font-weight="normal" text-decoration="none" x="442.5" y="212.5">2 : SolarFlare()</text>
      </g>
    </g>
    <g transform="translate(-70,2) scale(1,1)">
      <rect fill="#ffffff" stroke="none" x="571" y="216" width="13" height="28" />
    </g>
    <g transform="translate(-70,2) scale(1,1)">
      <path fill="none" stroke="#000000" d="M 571 216 L 584 216 L 584 244 L 571 244 L 571 216 Z Z" stroke-miterlimit="10" />
    </g>
    <g transform="translate(-70,2) scale(1,1)">
      <path fill="none" stroke="#000000" d="M 571 236 L 401 236" stroke-miterlimit="10" stroke-dasharray="3" />
    </g>
    <g transform="translate(-70,2) scale(1,1)">
      <path fill="none" stroke="#000000" d="M 411.16267485762415 231.790482243984 L 401 236 L 411.16267485762415 240.209517756016" stroke-miterlimit="10" />
    </g>
    <g transform="translate(-70,2) scale(1,1)">
      <g>
        <path fill="none" stroke="none" />
        <text fill="#000000" stroke="none" font-family="Arial" font-size="13px" font-style="normal" font-weight="normal" text-decoration="none" x="475.489501953125" y="252.5">3 : </text>
      </g>
    </g>
    <g transform="translate(-70,2) scale(1,1)">
      <path fill="none" stroke="#000000" d="M 388 330 L 94 330" stroke-miterlimit="10" stroke-dasharray="3" />
    </g>
    <g transform="translate(-70,2) scale(1,1)">
      <path fill="none" stroke="#000000" d="M 104.16267485762415 325.790482243984 L 94 330 L 104.16267485762415 334.209517756016" stroke-miterlimit="10" />
    </g>
    <g transform="translate(-70,2) scale(1,1)">
      <g>
        <path fill="none" stroke="none" />
        <text fill="#000000" stroke="none" font-family="Arial" font-size="13px" font-style="normal" font-weight="normal" text-decoration="none" x="228.489501953125" y="348.5">4 : </text>
      </g>
    </g>
    <g transform="translate(-70,2) scale(1,1)">
      <path fill="none" stroke="#000000" d="M 152 152 L 687 152 L 687 304 L 152 304 L 152 152" stroke-miterlimit="10" />
    </g>
    <g transform="translate(-70,2) scale(1,1)">
      <path fill="#ffffff" stroke="none" d="M 152 152 L 152 174 L 281.4580078125 174 L 292.4580078125 163 L 292.4580078125 152 L 152 152" />
    </g>
    <g transform="translate(-70,2) scale(1,1)">
      <path fill="none" stroke="#000000" d="M 152 152 L 152 174 L 281.4580078125 174 L 292.4580078125 163 L 292.4580078125 152 L 152 152 L 152 152" stroke-miterlimit="10" />
    </g>
    <g transform="translate(-70,2) scale(1,1)">
      <g>
        <path fill="none" stroke="none" />
        <text fill="#000000" stroke="none" font-family="Arial" font-size="13px" font-style="normal" font-weight="normal" text-decoration="none" x="187.578125" y="169.5">Call each entity</text>
      </g>
    </g>
    <g transform="translate(-70,2) scale(1,1)">
      <g>
        <path fill="none" stroke="none" />
        <text fill="#000000" stroke="none" font-family="Arial" font-size="13px" font-style="normal" font-weight="bold" text-decoration="none" x="157" y="169.5">loop</text>
      </g>
    </g>
    <g transform="translate(-70,2) scale(1,1)">
      <g>
        <path fill="none" stroke="none" />
        <text fill="#000000" stroke="none" font-family="Arial" font-size="13px" font-style="normal" font-weight="normal" text-decoration="none" x="171.5" y="202.5">[for each entity in entities]</text>
      </g>
    </g>
  </g>
</svg>