<?xml version="1.0" encoding="utf-8"?>
<svg version="1.1" xmlns="http://www.w3.org/2000/svg" xmlns:xlink="http://www.w3.org/1999/xlink" width="762" height="623">
  <defs />
  <g>
    <g transform="translate(-30,2) scale(1,1)">
      <path fill="none" stroke="#000000" d="M 88 8 L 782 8 L 782 602 L 88 602 L 88 8" stroke-miterlimit="10" />
    </g>
    <g transform="translate(-30,2) scale(1,1)">
      <path fill="#ffffff" stroke="none" d="M 88 8 L 88 30 L 270.1943359375 30 L 281.1943359375 19 L 281.1943359375 8 L 88 8" />
    </g>
    <g transform="translate(-30,2) scale(1,1)">
      <path fill="none" stroke="#000000" d="M 88 8 L 88 30 L 270.1943359375 30 L 281.1943359375 19 L 281.1943359375 8 L 88 8 L 88 8" stroke-miterlimit="10" />
    </g>
    <g transform="translate(-30,2) scale(1,1)">
      <g>
        <path fill="none" stroke="none" />
        <text fill="#000000" stroke="none" font-family="Arial" font-size="13px" font-style="normal" font-weight="normal" text-decoration="none" x="158.97900390625" y="25.5">Game initialization</text>
      </g>
    </g>
    <g transform="translate(-30,2) scale(1,1)">
      <g>
        <path fill="none" stroke="none" />
        <text fill="#000000" stroke="none" font-family="Arial" font-size="13px" font-style="normal" font-weight="bold" text-decoration="none" x="93" y="25.5">interaction</text>
      </g>
    </g>
    <g transform="translate(-30,2) scale(1,1)">
      <rect fill="#C0C0C0" stroke="none" x="231" y="47" width="123.0126953125" height="39" opacity="0.2" />
    </g>
    <g transform="translate(-30,2) scale(1,1)">
      <rect fill="#ffffff" stroke="none" x="224" y="40" width="123.0126953125" height="39" />
    </g>
    <g transform="translate(-30,2) scale(1,1)">
      <path fill="none" stroke="#000000" d="M 224 40 L 347.0126953125 40 L 347.0126953125 79 L 224 79 L 224 40 Z Z" stroke-miterlimit="10" />
    </g>
    <g transform="translate(-30,2) scale(1,1)">
      <g>
        <path fill="none" stroke="none" />
        <text fill="#000000" stroke="none" font-family="Arial" font-size="13px" font-style="normal" font-weight="bold" text-decoration="none" x="242.135986328125" y="59.5">engine: Engine</text>
      </g>
    </g>
    <g transform="translate(-30,2) scale(1,1)">
      <path fill="none" stroke="#000000" d="M 286.5 80 L 286.5 611" stroke-miterlimit="10" stroke-dasharray="3" />
    </g>
    <g transform="translate(-30,2) scale(1,1)">
      <rect fill="#C0C0C0" stroke="none" x="399" y="139" width="169.99169921875" height="39" opacity="0.2" />
    </g>
    <g transform="translate(-30,2) scale(1,1)">
      <rect fill="#ffffff" stroke="none" x="392" y="132" width="169.99169921875" height="39" />
    </g>
    <g transform="translate(-30,2) scale(1,1)">
      <path fill="none" stroke="#000000" d="M 392 132 L 561.99169921875 132 L 561.99169921875 171 L 392 171 L 392 132 Z Z" stroke-miterlimit="10" />
    </g>
    <g transform="translate(-30,2) scale(1,1)">
      <g>
        <path fill="none" stroke="none" />
        <text fill="#000000" stroke="none" font-family="Arial" font-size="13px" font-style="normal" font-weight="bold" text-decoration="none" x="404.740478515625" y="151.5">gamemg: GameManager</text>
      </g>
    </g>
    <g transform="translate(-30,2) scale(1,1)">
      <path fill="none" stroke="#000000" d="M 477.5 172 L 477.5 534" stroke-miterlimit="10" stroke-dasharray="3" />
    </g>
    <g transform="translate(-30,2) scale(1,1)">
      <path fill="#000000" stroke="none" d="M 40 103.5 C 40 99.6340064 43.1340064 96.5 47 96.5 C 50.8659936 96.5 54 99.6340064 54 103.5 C 54 107.3659936 50.8659936 110.5 47 110.5 C 43.1340064 110.5 40 107.3659936 40 103.5 Z" />
    </g>
    <g transform="translate(-30,2) scale(1,1)">
      <path fill="#000000" stroke="none" d="M 40 535.5 C 40 531.6340064 43.1340064 528.5 47 528.5 C 50.8659936 528.5 54 531.6340064 54 535.5 C 54 539.3659936 50.8659936 542.5 47 542.5 C 43.1340064 542.5 40 539.3659936 40 535.5 Z" />
    </g>
    <g transform="translate(-30,2) scale(1,1)">
      <rect fill="#C0C0C0" stroke="none" x="580" y="219" width="118.708984375" height="39" opacity="0.2" />
    </g>
    <g transform="translate(-30,2) scale(1,1)">
      <rect fill="#ffffff" stroke="none" x="573" y="212" width="118.708984375" height="39" />
    </g>
    <g transform="translate(-30,2) scale(1,1)">
      <path fill="none" stroke="#000000" d="M 573 212 L 691.708984375 212 L 691.708984375 251 L 573 251 L 573 212 Z Z" stroke-miterlimit="10" />
    </g>
    <g transform="translate(-30,2) scale(1,1)">
      <g>
        <path fill="none" stroke="none" />
        <text fill="#000000" stroke="none" font-family="Arial" font-size="13px" font-style="normal" font-weight="bold" text-decoration="none" x="606.70361328125" y="231.5">p: Player</text>
      </g>
    </g>
    <g transform="translate(-30,2) scale(1,1)">
      <path fill="none" stroke="#000000" d="M 633.5 252 L 633.5 301" stroke-miterlimit="10" stroke-dasharray="3" />
    </g>
    <g transform="translate(-30,2) scale(1,1)">
      <path fill="none" stroke="#000000" d="M 54 104 L 279 104" stroke-miterlimit="10" />
    </g>
    <g transform="translate(-30,2) scale(1,1)">
      <path fill="#000000" stroke="none" d="M 268.83732514237585 108.20951775601598 L 279 104 L 268.83732514237585 99.79048224398402" />
    </g>
    <g transform="translate(-30,2) scale(1,1)">
      <path fill="none" stroke="#000000" d="M 268.83732514237585 108.20951775601598 L 279 104 L 268.83732514237585 99.79048224398402 L 268.83732514237585 108.20951775601598" stroke-miterlimit="10" />
    </g>
    <g transform="translate(-30,2) scale(1,1)">
      <g>
        <path fill="none" stroke="none" />
        <text fill="#000000" stroke="none" font-family="Arial" font-size="13px" font-style="normal" font-weight="normal" text-decoration="none" x="121.5" y="100.5">1 : StartGame()</text>
      </g>
    </g>
    <g transform="translate(-30,2) scale(1,1)">
      <rect fill="#ffffff" stroke="none" x="279" y="104" width="13" height="440" />
    </g>
    <g transform="translate(-30,2) scale(1,1)">
      <path fill="none" stroke="#000000" d="M 279 104 L 292 104 L 292 544 L 279 544 L 279 104 Z Z" stroke-miterlimit="10" />
    </g>
    <g transform="translate(-30,2) scale(1,1)">
      <path fill="none" stroke="#000000" d="M 292 152 L 392 152" stroke-miterlimit="10" stroke-dasharray="3" />
    </g>
    <g transform="translate(-30,2) scale(1,1)">
      <path fill="none" stroke="#000000" d="M 381.83732514237585 156.209517756016 L 392 152 L 381.83732514237585 147.790482243984" stroke-miterlimit="10" />
    </g>
    <g transform="translate(-30,2) scale(1,1)">
      <g>
        <path fill="none" stroke="none" />
        <text fill="#000000" stroke="none" font-family="Arial" font-size="13px" font-style="normal" font-weight="normal" text-decoration="none" x="332.5" y="148.5">2 : </text>
      </g>
    </g>
    <g transform="translate(-30,2) scale(1,1)">
      <g>
        <path fill="none" stroke="none" />
        <text fill="#000000" stroke="none" font-family="Arial" font-size="13px" font-style="normal" font-weight="normal" text-decoration="none" x="316.5" y="133.5">«create»</text>
      </g>
    </g>
    <g transform="translate(-30,2) scale(1,1)">
      <path fill="none" stroke="#000000" d="M 292 232 L 573 232" stroke-miterlimit="10" stroke-dasharray="3" />
    </g>
    <g transform="translate(-30,2) scale(1,1)">
      <path fill="none" stroke="#000000" d="M 562.8373251423759 236.209517756016 L 573 232 L 562.8373251423758 227.790482243984" stroke-miterlimit="10" />
    </g>
    <g transform="translate(-30,2) scale(1,1)">
      <g>
        <path fill="none" stroke="none" />
        <text fill="#000000" stroke="none" font-family="Arial" font-size="13px" font-style="normal" font-weight="normal" text-decoration="none" x="422.5" y="228.5">3 : </text>
      </g>
    </g>
    <g transform="translate(-30,2) scale(1,1)">
      <g>
        <path fill="none" stroke="none" />
        <text fill="#000000" stroke="none" font-family="Arial" font-size="13px" font-style="normal" font-weight="normal" text-decoration="none" x="406.5" y="213.5">«create»</text>
      </g>
    </g>
    <g transform="translate(-30,2) scale(1,1)">
      <path fill="none" stroke="#000000" d="M 292 272 L 470 272" stroke-miterlimit="10" />
    </g>
    <g transform="translate(-30,2) scale(1,1)">
      <path fill="#000000" stroke="none" d="M 459.83732514237585 276.209517756016 L 470 272 L 459.83732514237585 267.790482243984" />
    </g>
    <g transform="translate(-30,2) scale(1,1)">
      <path fill="none" stroke="#000000" d="M 459.83732514237585 276.209517756016 L 470 272 L 459.83732514237585 267.790482243984 L 459.83732514237585 276.209517756016" stroke-miterlimit="10" />
    </g>
    <g transform="translate(-30,2) scale(1,1)">
      <g>
        <path fill="none" stroke="none" />
        <text fill="#000000" stroke="none" font-family="Arial" font-size="13px" font-style="normal" font-weight="normal" text-decoration="none" x="333.535888671875" y="268.5">4 : AddPlayer(p)</text>
      </g>
    </g>
    <g transform="translate(-30,2) scale(1,1)">
      <rect fill="#ffffff" stroke="none" x="470" y="272" width="13" height="28" />
    </g>
    <g transform="translate(-30,2) scale(1,1)">
      <path fill="none" stroke="#000000" d="M 470 272 L 483 272 L 483 300 L 470 300 L 470 272 Z Z" stroke-miterlimit="10" />
    </g>
    <g transform="translate(-30,2) scale(1,1)">
      <path fill="none" stroke="#000000" d="M 470 292 L 292 292" stroke-miterlimit="10" stroke-dasharray="3" />
    </g>
    <g transform="translate(-30,2) scale(1,1)">
      <path fill="none" stroke="#000000" d="M 302.16267485762415 287.790482243984 L 292 292 L 302.16267485762415 296.209517756016" stroke-miterlimit="10" />
    </g>
    <g transform="translate(-30,2) scale(1,1)">
      <g>
        <path fill="none" stroke="none" />
        <text fill="#000000" stroke="none" font-family="Arial" font-size="13px" font-style="normal" font-weight="normal" text-decoration="none" x="370.489501953125" y="308.5">5 : </text>
      </g>
    </g>
    <g transform="translate(-30,2) scale(1,1)">
      <path fill="none" stroke="#000000" d="M 292 392 L 470 392" stroke-miterlimit="10" />
    </g>
    <g transform="translate(-30,2) scale(1,1)">
      <path fill="#000000" stroke="none" d="M 459.83732514237585 396.209517756016 L 470 392 L 459.83732514237585 387.790482243984" />
    </g>
    <g transform="translate(-30,2) scale(1,1)">
      <path fill="none" stroke="#000000" d="M 459.83732514237585 396.209517756016 L 470 392 L 459.83732514237585 387.790482243984 L 459.83732514237585 396.209517756016" stroke-miterlimit="10" />
    </g>
    <g transform="translate(-30,2) scale(1,1)">
      <g>
        <path fill="none" stroke="none" />
        <text fill="#000000" stroke="none" font-family="Arial" font-size="13px" font-style="normal" font-weight="normal" text-decoration="none" x="340.555908203125" y="387.5">6 : InitGame()</text>
      </g>
    </g>
    <g transform="translate(-30,2) scale(1,1)">
      <rect fill="#ffffff" stroke="none" x="470" y="392" width="13" height="96" />
    </g>
    <g transform="translate(-30,2) scale(1,1)">
      <path fill="none" stroke="#000000" d="M 470 392 L 483 392 L 483 488 L 470 488 L 470 392 Z Z" stroke-miterlimit="10" />
    </g>
    <g transform="translate(-30,2) scale(1,1)">
      <path fill="none" stroke="#000000" d="M 483 416 L 513 416 L 513 436 L 490 436" stroke-miterlimit="10" />
    </g>
    <g transform="translate(-30,2) scale(1,1)">
      <path fill="#000000" stroke="none" d="M 500.16267485762415 431.790482243984 L 490 436 L 500.16267485762415 440.209517756016" />
    </g>
    <g transform="translate(-30,2) scale(1,1)">
      <path fill="none" stroke="#000000" d="M 500.16267485762415 431.790482243984 L 490 436 L 500.16267485762415 440.209517756016 L 500.16267485762415 431.790482243984" stroke-miterlimit="10" />
    </g>
    <g transform="translate(-30,2) scale(1,1)">
      <g>
        <path fill="none" stroke="none" />
        <text fill="#000000" stroke="none" font-family="Arial" font-size="13px" font-style="normal" font-weight="normal" text-decoration="none" x="527.5" y="431.5">7 : GenerateScene()</text>
      </g>
    </g>
    <g transform="translate(-30,2) scale(1,1)">
      <rect fill="#ffffff" stroke="none" x="477" y="436" width="13" height="28" />
    </g>
    <g transform="translate(-30,2) scale(1,1)">
      <path fill="none" stroke="#000000" d="M 477 436 L 490 436 L 490 464 L 477 464 L 477 436 Z Z" stroke-miterlimit="10" />
    </g>
    <g transform="translate(-30,2) scale(1,1)">
      <path fill="none" stroke="#000000" d="M 470 480 L 292 480" stroke-miterlimit="10" stroke-dasharray="3" />
    </g>
    <g transform="translate(-30,2) scale(1,1)">
      <path fill="none" stroke="#000000" d="M 302.16267485762415 475.790482243984 L 292 480 L 302.16267485762415 484.209517756016" stroke-miterlimit="10" />
    </g>
    <g transform="translate(-30,2) scale(1,1)">
      <g>
        <path fill="none" stroke="none" />
        <text fill="#000000" stroke="none" font-family="Arial" font-size="13px" font-style="normal" font-weight="normal" text-decoration="none" x="370.489501953125" y="496.5">8 : </text>
      </g>
    </g>
    <g transform="translate(-30,2) scale(1,1)">
      <path fill="none" stroke="#000000" d="M 279 536 L 54 536" stroke-miterlimit="10" stroke-dasharray="3" />
    </g>
    <g transform="translate(-30,2) scale(1,1)">
      <path fill="none" stroke="#000000" d="M 64.16267485762415 531.790482243984 L 54 536 L 64.16267485762415 540.209517756016" stroke-miterlimit="10" />
    </g>
    <g transform="translate(-30,2) scale(1,1)">
      <g>
        <path fill="none" stroke="none" />
        <text fill="#000000" stroke="none" font-family="Arial" font-size="13px" font-style="normal" font-weight="normal" text-decoration="none" x="155.489501953125" y="552.5">9 : </text>
      </g>
    </g>
    <g transform="translate(-30,2) scale(1,1)">
      <path fill="none" stroke="#000000" d="M 96 192 L 752 192 L 752 359 L 96 359 L 96 192" stroke-miterlimit="10" />
    </g>
    <g transform="translate(-30,2) scale(1,1)">
      <path fill="#ffffff" stroke="none" d="M 96 192 L 96 214 L 203.787109375 214 L 214.787109375 203 L 214.787109375 192 L 96 192" />
    </g>
    <g transform="translate(-30,2) scale(1,1)">
      <path fill="none" stroke="#000000" d="M 96 192 L 96 214 L 203.787109375 214 L 214.787109375 203 L 214.787109375 192 L 96 192 L 96 192" stroke-miterlimit="10" />
    </g>
    <g transform="translate(-30,2) scale(1,1)">
      <g>
        <path fill="none" stroke="none" />
        <text fill="#000000" stroke="none" font-family="Arial" font-size="13px" font-style="normal" font-weight="normal" text-decoration="none" x="131.578125" y="209.5">add players</text>
      </g>
    </g>
    <g transform="translate(-30,2) scale(1,1)">
      <g>
        <path fill="none" stroke="none" />
        <text fill="#000000" stroke="none" font-family="Arial" font-size="13px" font-style="normal" font-weight="bold" text-decoration="none" x="101" y="209.5">loop</text>
      </g>
    </g>
    <g transform="translate(-30,2) scale(1,1)">
      <g>
        <path fill="none" stroke="none" />
        <text fill="#000000" stroke="none" font-family="Arial" font-size="13px" font-style="normal" font-weight="normal" text-decoration="none" x="115.5" y="242.5">[for each player]</text>
      </g>
    </g>
  </g>
</svg>