<svg version="1.1" xmlns="http://www.w3.org/2000/svg" xmlns:xlink="http://www.w3.org/1999/xlink" width="380" height="292"><defs/><g><text fill="#eeeeee" stroke="none" font-family="Arial" font-size="24px" font-style="normal" font-weight="normal" text-decoration="none" x="0" y="0">UNREGISTERED</text><text fill="#eeeeee" stroke="none" font-family="Arial" font-size="24px" font-style="normal" font-weight="normal" text-decoration="none" x="0" y="30">UNREGISTERED</text><text fill="#eeeeee" stroke="none" font-family="Arial" font-size="24px" font-style="normal" font-weight="normal" text-decoration="none" x="0" y="60">UNREGISTERED</text><text fill="#eeeeee" stroke="none" font-family="Arial" font-size="24px" font-style="normal" font-weight="normal" text-decoration="none" x="0" y="90">UNREGISTERED</text><text fill="#eeeeee" stroke="none" font-family="Arial" font-size="24px" font-style="normal" font-weight="normal" text-decoration="none" x="0" y="120">UNREGISTERED</text><text fill="#eeeeee" stroke="none" font-family="Arial" font-size="24px" font-style="normal" font-weight="normal" text-decoration="none" x="0" y="150">UNREGISTERED</text><text fill="#eeeeee" stroke="none" font-family="Arial" font-size="24px" font-style="normal" font-weight="normal" text-decoration="none" x="0" y="180">UNREGISTERED</text><text fill="#eeeeee" stroke="none" font-family="Arial" font-size="24px" font-style="normal" font-weight="normal" text-decoration="none" x="0" y="210">UNREGISTERED</text><text fill="#eeeeee" stroke="none" font-family="Arial" font-size="24px" font-style="normal" font-weight="normal" text-decoration="none" x="0" y="240">UNREGISTERED</text><text fill="#eeeeee" stroke="none" font-family="Arial" font-size="24px" font-style="normal" font-weight="normal" text-decoration="none" x="0" y="270">UNREGISTERED</text><text fill="#eeeeee" stroke="none" font-family="Arial" font-size="24px" font-style="normal" font-weight="normal" text-decoration="none" x="200" y="0">UNREGISTERED</text><text fill="#eeeeee" stroke="none" font-family="Arial" font-size="24px" font-style="normal" font-weight="normal" text-decoration="none" x="200" y="30">UNREGISTERED</text><text fill="#eeeeee" stroke="none" font-family="Arial" font-size="24px" font-style="normal" font-weight="normal" text-decoration="none" x="200" y="60">UNREGISTERED</text><text fill="#eeeeee" stroke="none" font-family="Arial" font-size="24px" font-style="normal" font-weight="normal" text-decoration="none" x="200" y="90">UNREGISTERED</text><text fill="#eeeeee" stroke="none" font-family="Arial" font-size="24px" font-style="normal" font-weight="normal" text-decoration="none" x="200" y="120">UNREGISTERED</text><text fill="#eeeeee" stroke="none" font-family="Arial" font-size="24px" font-style="normal" font-weight="normal" text-decoration="none" x="200" y="150">UNREGISTERED</text><text fill="#eeeeee" stroke="none" font-family="Arial" font-size="24px" font-style="normal" font-weight="normal" text-decoration="none" x="200" y="180">UNREGISTERED</text><text fill="#eeeeee" stroke="none" font-family="Arial" font-size="24px" font-style="normal" font-weight="normal" text-decoration="none" x="200" y="210">UNREGISTERED</text><text fill="#eeeeee" stroke="none" font-family="Arial" font-size="24px" font-style="normal" font-weight="normal" text-decoration="none" x="200" y="240">UNREGISTERED</text><text fill="#eeeeee" stroke="none" font-family="Arial" font-size="24px" font-style="normal" font-weight="normal" text-decoration="none" x="200" y="270">UNREGISTERED</text><g transform="translate(-382,-382) scale(1,1)"><path fill="none" stroke="#000000" d="M 392 392 L 752 392 L 752 664 L 392 664 L 392 392" stroke-miterlimit="10"/></g><g transform="translate(-382,-382) scale(1,1)"><path fill="#ffffff" stroke="none" d="M 392 392 L 392 414 L 519.998046875 414 L 530.998046875 403 L 530.998046875 392 L 392 392"/></g><g transform="translate(-382,-382) scale(1,1)"><path fill="none" stroke="#000000" d="M 392 392 L 392 414 L 519.998046875 414 L 530.998046875 403 L 530.998046875 392 L 392 392 L 392 392" stroke-miterlimit="10"/></g><g transform="translate(-382,-382) scale(1,1)"><g><path fill="none" stroke="none"/><text fill="#000000" stroke="none" font-family="Arial" font-size="13px" font-style="normal" font-weight="normal" text-decoration="none" x="423.94091796875" y="409.5">Spaceship Hide</text></g></g><g transform="translate(-382,-382) scale(1,1)"><g><path fill="none" stroke="none"/><text fill="#000000" stroke="none" font-family="Arial" font-size="13px" font-style="normal" font-weight="bold" text-decoration="none" x="397" y="409.5">stm</text></g></g><g transform="translate(-382,-382) scale(1,1)"><path fill="#C0C0C0" stroke="none" d="M 407 480.5 C 407 475.2532944 411.2532944 471 416.5 471 C 421.7467056 471 426 475.2532944 426 480.5 C 426 485.7467056 421.7467056 490 416.5 490 C 411.2532944 490 407 485.7467056 407 480.5 Z" opacity="0.2"/></g><g transform="translate(-382,-382) scale(1,1)"><path fill="#000000" stroke="none" d="M 400 473.5 C 400 468.2532944 404.2532944 464 409.5 464 C 414.7467056 464 419 468.2532944 419 473.5 C 419 478.7467056 414.7467056 483 409.5 483 C 404.2532944 483 400 478.7467056 400 473.5 Z"/></g><g transform="translate(-382,-382) scale(1,1)"><path fill="#C0C0C0" stroke="none" d="M 529 463 L 585.87548828125 463 Q 595.87548828125 463 595.87548828125 473 L 595.87548828125 492 Q 595.87548828125 502 585.87548828125 502 L 529 502 Q 519 502 519 492 L 519 473 Q 519 463 529 463 Z" opacity="0.2"/></g><g transform="translate(-382,-382) scale(1,1)"><path fill="#ffffff" stroke="none" d="M 522 456 L 578.87548828125 456 Q 588.87548828125 456 588.87548828125 466 L 588.87548828125 485 Q 588.87548828125 495 578.87548828125 495 L 522 495 Q 512 495 512 485 L 512 466 Q 512 456 522 456 Z"/></g><g transform="translate(-382,-382) scale(1,1)"><path fill="none" stroke="#000000" d="M 522 456 L 578.87548828125 456 Q 588.87548828125 456 588.87548828125 466 L 588.87548828125 485 Q 588.87548828125 495 578.87548828125 495 L 522 495 Q 512 495 512 485 L 512 466 Q 512 456 522 456 Z" stroke-miterlimit="10"/></g><g transform="translate(-382,-382) scale(1,1)"><g><path fill="none" stroke="none"/><text fill="#000000" stroke="none" font-family="Arial" font-size="13px" font-style="normal" font-weight="bold" text-decoration="none" x="518.997802734375" y="475.5">Not hidden</text></g></g><g transform="translate(-382,-382) scale(1,1)"><path fill="none" stroke="#000000" d="M 420 473 L 511 474" stroke-miterlimit="10"/></g><g transform="translate(-382,-382) scale(1,1)"><path fill="none" stroke="#000000" d="M 500.7916830567088 478.09759260850973 L 511 474 L 500.88419434488014 469.67906538491434" stroke-miterlimit="10"/></g><g transform="translate(-382,-382) scale(1,1)"><path fill="#C0C0C0" stroke="none" d="M 689 551 L 728 551 Q 738 551 738 561 L 738 580 Q 738 590 728 590 L 689 590 Q 679 590 679 580 L 679 561 Q 679 551 689 551 Z" opacity="0.2"/></g><g transform="translate(-382,-382) scale(1,1)"><path fill="#ffffff" stroke="none" d="M 682 544 L 721 544 Q 731 544 731 554 L 731 573 Q 731 583 721 583 L 682 583 Q 672 583 672 573 L 672 554 Q 672 544 682 544 Z"/></g><g transform="translate(-382,-382) scale(1,1)"><path fill="none" stroke="#000000" d="M 682 544 L 721 544 Q 731 544 731 554 L 731 573 Q 731 583 721 583 L 682 583 Q 672 583 672 573 L 672 554 Q 672 544 682 544 Z" stroke-miterlimit="10"/></g><g transform="translate(-382,-382) scale(1,1)"><g><path fill="none" stroke="none"/><text fill="#000000" stroke="none" font-family="Arial" font-size="13px" font-style="normal" font-weight="bold" text-decoration="none" x="680.90185546875" y="563.5">Hidden</text></g></g><g transform="translate(-382,-382) scale(1,1)"><path fill="#C0C0C0" stroke="none" d="M 415 627.5 C 415 620.59644 420.59644 615 427.5 615 C 434.40356 615 440 620.59644 440 627.5 C 440 634.40356 434.40356 640 427.5 640 C 420.59644 640 415 634.40356 415 627.5 Z" opacity="0.2"/></g><g transform="translate(-382,-382) scale(1,1)"><path fill="none" stroke="#000000" d="M 408 620.5 C 408 613.59644 413.59644 608 420.5 608 C 427.40356 608 433 613.59644 433 620.5 C 433 627.40356 427.40356 633 420.5 633 C 413.59644 633 408 627.40356 408 620.5 Z" stroke-miterlimit="10"/></g><g transform="translate(-382,-382) scale(1,1)"><path fill="#000000" stroke="none" d="M 413 620.5 C 413 616.357864 416.357864 613 420.5 613 C 424.642136 613 428 616.357864 428 620.5 C 428 624.642136 424.642136 628 420.5 628 C 416.357864 628 413 624.642136 413 620.5 Z"/></g><g transform="translate(-382,-382) scale(1,1)"><path fill="none" stroke="#000000" d="M 550 495 L 550 620 L 433 620" stroke-miterlimit="10"/></g><g transform="translate(-382,-382) scale(1,1)"><path fill="none" stroke="#000000" d="M 443.16267485762415 615.790482243984 L 433 620 L 443.16267485762415 624.209517756016" stroke-miterlimit="10"/></g><g transform="translate(-382,-382) scale(1,1)"><g><path fill="none" stroke="none"/><text fill="#000000" stroke="none" font-family="Arial" font-size="13px" font-style="normal" font-weight="normal" text-decoration="none" x="455.5" y="610.5">Explode()</text></g></g><g transform="translate(-382,-382) scale(1,1)"><path fill="none" stroke="#000000" d="M 568 495 L 568 579 L 672 579" stroke-miterlimit="10"/></g><g transform="translate(-382,-382) scale(1,1)"><path fill="none" stroke="#000000" d="M 661.8373251423759 583.209517756016 L 672 579 L 661.8373251423758 574.790482243984" stroke-miterlimit="10"/></g><g transform="translate(-382,-382) scale(1,1)"><g><path fill="none" stroke="none"/><text fill="#000000" stroke="none" font-family="Arial" font-size="13px" font-style="normal" font-weight="normal" text-decoration="none" x="599.302734375" y="598.5">Hide()</text></g></g><g transform="translate(-382,-382) scale(1,1)"><path fill="none" stroke="#000000" d="M 680 544 L 680 480 L 589 480" stroke-miterlimit="10"/></g><g transform="translate(-382,-382) scale(1,1)"><path fill="none" stroke="#000000" d="M 599.1626748576241 475.790482243984 L 589 480 L 599.1626748576241 484.209517756016" stroke-miterlimit="10"/></g><g transform="translate(-382,-382) scale(1,1)"><g><path fill="none" stroke="none"/><text fill="#000000" stroke="none" font-family="Arial" font-size="13px" font-style="normal" font-weight="normal" text-decoration="none" x="607.5" y="475.5">ExitHiding()</text></g></g></g></svg>