<?xml version="1.0" encoding="utf-8"?>
<svg version="1.1" xmlns="http://www.w3.org/2000/svg" xmlns:xlink="http://www.w3.org/1999/xlink" width="1140" height="611">
  <defs />
  <g>
    <g transform="translate(-62,2) scale(1,1)">
      <path fill="none" stroke="#000000" d="M 120 8 L 1192 8 L 1192 599 L 120 599 L 120 8" stroke-miterlimit="10" />
    </g>
    <g transform="translate(-62,2) scale(1,1)">
      <path fill="#ffffff" stroke="none" d="M 120 8 L 120 30 L 256.6689453125 30 L 267.6689453125 19 L 267.6689453125 8 L 120 8" />
    </g>
    <g transform="translate(-62,2) scale(1,1)">
      <path fill="none" stroke="#000000" d="M 120 8 L 120 30 L 256.6689453125 30 L 267.6689453125 19 L 267.6689453125 8 L 120 8 L 120 8" stroke-miterlimit="10" />
    </g>
    <g transform="translate(-62,2) scale(1,1)">
      <g>
        <path fill="none" stroke="none" />
        <text fill="#000000" stroke="none" font-family="Arial" font-size="13px" font-style="normal" font-weight="normal" text-decoration="none" x="190.97900390625" y="25.5">Place item</text>
      </g>
    </g>
    <g transform="translate(-62,2) scale(1,1)">
      <g>
        <path fill="none" stroke="none" />
        <text fill="#000000" stroke="none" font-family="Arial" font-size="13px" font-style="normal" font-weight="bold" text-decoration="none" x="125" y="25.5">interaction</text>
      </g>
    </g>
    <g transform="translate(-62,2) scale(1,1)">
      <rect fill="#C0C0C0" stroke="none" x="599" y="47" width="194.5380859375" height="39" opacity="0.2" />
    </g>
    <g transform="translate(-62,2) scale(1,1)">
      <rect fill="#ffffff" stroke="none" x="592" y="40" width="194.5380859375" height="39" />
    </g>
    <g transform="translate(-62,2) scale(1,1)">
      <path fill="none" stroke="#000000" d="M 592 40 L 786.5380859375 40 L 786.5380859375 79 L 592 79 L 592 40 Z Z" stroke-miterlimit="10" />
    </g>
    <g transform="translate(-62,2) scale(1,1)">
      <g>
        <path fill="none" stroke="none" />
        <text fill="#000000" stroke="none" font-family="Arial" font-size="13px" font-style="normal" font-weight="bold" text-decoration="none" x="609.421875" y="59.5">asteroidinventory: Inventory</text>
      </g>
    </g>
    <g transform="translate(-62,2) scale(1,1)">
      <path fill="none" stroke="#000000" d="M 690.5 80 L 690.5 544" stroke-miterlimit="10" stroke-dasharray="3" />
    </g>
    <g transform="translate(-62,2) scale(1,1)">
      <path fill="#000000" stroke="none" d="M 72 135.5 C 72 131.6340064 75.1340064 128.5 79 128.5 C 82.8659936 128.5 86 131.6340064 86 135.5 C 86 139.3659936 82.8659936 142.5 79 142.5 C 75.1340064 142.5 72 139.3659936 72 135.5 Z" />
    </g>
    <g transform="translate(-62,2) scale(1,1)">
      <rect fill="#C0C0C0" stroke="none" x="1063" y="47" width="80.40087890625" height="39" opacity="0.2" />
    </g>
    <g transform="translate(-62,2) scale(1,1)">
      <rect fill="#ffffff" stroke="none" x="1056" y="40" width="80.40087890625" height="39" />
    </g>
    <g transform="translate(-62,2) scale(1,1)">
      <path fill="none" stroke="#000000" d="M 1056 40 L 1136.40087890625 40 L 1136.40087890625 79 L 1056 79 L 1056 40 Z Z" stroke-miterlimit="10" />
    </g>
    <g transform="translate(-62,2) scale(1,1)">
      <g>
        <path fill="none" stroke="none" />
        <text fill="#000000" stroke="none" font-family="Arial" font-size="13px" font-style="normal" font-weight="bold" text-decoration="none" x="1067.667724609375" y="59.5">item: Item</text>
      </g>
    </g>
    <g transform="translate(-62,2) scale(1,1)">
      <path fill="none" stroke="#000000" d="M 1097.5 80 L 1097.5 432" stroke-miterlimit="10" stroke-dasharray="3" />
    </g>
    <g transform="translate(-62,2) scale(1,1)">
      <rect fill="#C0C0C0" stroke="none" x="487" y="47" width="86.90087890625" height="39" opacity="0.2" />
    </g>
    <g transform="translate(-62,2) scale(1,1)">
      <rect fill="#ffffff" stroke="none" x="480" y="40" width="86.90087890625" height="39" />
    </g>
    <g transform="translate(-62,2) scale(1,1)">
      <path fill="none" stroke="#000000" d="M 480 40 L 566.90087890625 40 L 566.90087890625 79 L 480 79 L 480 40 Z Z" stroke-miterlimit="10" />
    </g>
    <g transform="translate(-62,2) scale(1,1)">
      <g>
        <path fill="none" stroke="none" />
        <text fill="#000000" stroke="none" font-family="Arial" font-size="13px" font-style="normal" font-weight="bold" text-decoration="none" x="492.378662109375" y="59.5">a: Asteroid</text>
      </g>
    </g>
    <g transform="translate(-62,2) scale(1,1)">
      <path fill="none" stroke="#000000" d="M 524.5 80 L 524.5 544" stroke-miterlimit="10" stroke-dasharray="3" />
    </g>
    <g transform="translate(-62,2) scale(1,1)">
      <rect fill="#C0C0C0" stroke="none" x="271" y="47" width="100.63720703125" height="39" opacity="0.2" />
    </g>
    <g transform="translate(-62,2) scale(1,1)">
      <rect fill="#ffffff" stroke="none" x="264" y="40" width="100.63720703125" height="39" />
    </g>
    <g transform="translate(-62,2) scale(1,1)">
      <path fill="none" stroke="#000000" d="M 264 40 L 364.63720703125 40 L 364.63720703125 79 L 264 79 L 264 40 Z Z" stroke-miterlimit="10" />
    </g>
    <g transform="translate(-62,2) scale(1,1)">
      <g>
        <path fill="none" stroke="none" />
        <text fill="#000000" stroke="none" font-family="Arial" font-size="13px" font-style="normal" font-weight="bold" text-decoration="none" x="276.016845703125" y="59.5">s: SpaceShip</text>
      </g>
    </g>
    <g transform="translate(-62,2) scale(1,1)">
      <path fill="none" stroke="#000000" d="M 315.5 80 L 315.5 574" stroke-miterlimit="10" stroke-dasharray="3" />
    </g>
    <g transform="translate(-62,2) scale(1,1)">
      <rect fill="#C0C0C0" stroke="none" x="815" y="47" width="207.55078125" height="39" opacity="0.2" />
    </g>
    <g transform="translate(-62,2) scale(1,1)">
      <rect fill="#ffffff" stroke="none" x="808" y="40" width="207.55078125" height="39" />
    </g>
    <g transform="translate(-62,2) scale(1,1)">
      <path fill="none" stroke="#000000" d="M 808 40 L 1015.55078125 40 L 1015.55078125 79 L 808 79 L 808 40 Z Z" stroke-miterlimit="10" />
    </g>
    <g transform="translate(-62,2) scale(1,1)">
      <g>
        <path fill="none" stroke="none" />
        <text fill="#000000" stroke="none" font-family="Arial" font-size="13px" font-style="normal" font-weight="bold" text-decoration="none" x="825.78369140625" y="59.5">spaceshipinventory: Inventory</text>
      </g>
    </g>
    <g transform="translate(-62,2) scale(1,1)">
      <path fill="none" stroke="#000000" d="M 912.5 80 L 912.5 547" stroke-miterlimit="10" stroke-dasharray="3" />
    </g>
    <g transform="translate(-62,2) scale(1,1)">
      <path fill="#000000" stroke="none" d="M 80 543.5 C 80 539.6340064 83.1340064 536.5 87 536.5 C 90.8659936 536.5 94 539.6340064 94 543.5 C 94 547.3659936 90.8659936 550.5 87 550.5 C 83.1340064 550.5 80 547.3659936 80 543.5 Z" />
    </g>
    <g transform="translate(-62,2) scale(1,1)">
      <path fill="none" stroke="#000000" d="M 86 136 L 308 136" stroke-miterlimit="10" />
    </g>
    <g transform="translate(-62,2) scale(1,1)">
      <path fill="#000000" stroke="none" d="M 297.83732514237585 140.209517756016 L 308 136 L 297.83732514237585 131.790482243984" />
    </g>
    <g transform="translate(-62,2) scale(1,1)">
      <path fill="none" stroke="#000000" d="M 297.83732514237585 140.209517756016 L 308 136 L 297.83732514237585 131.790482243984 L 297.83732514237585 140.209517756016" stroke-miterlimit="10" />
    </g>
    <g transform="translate(-62,2) scale(1,1)">
      <g>
        <path fill="none" stroke="none" />
        <text fill="#000000" stroke="none" font-family="Arial" font-size="13px" font-style="normal" font-weight="normal" text-decoration="none" x="140.917724609375" y="123.5">1 : PlaceItem(item)</text>
      </g>
    </g>
    <g transform="translate(-62,2) scale(1,1)">
      <rect fill="#ffffff" stroke="none" x="308" y="136" width="13" height="416" />
    </g>
    <g transform="translate(-62,2) scale(1,1)">
      <path fill="none" stroke="#000000" d="M 308 136 L 321 136 L 321 552 L 308 552 L 308 136 Z Z" stroke-miterlimit="10" />
    </g>
    <g transform="translate(-62,2) scale(1,1)">
      <path fill="none" stroke="#000000" d="M 321 152 L 517 152" stroke-miterlimit="10" />
    </g>
    <g transform="translate(-62,2) scale(1,1)">
      <path fill="#000000" stroke="none" d="M 506.83732514237585 156.209517756016 L 517 152 L 506.83732514237585 147.790482243984" />
    </g>
    <g transform="translate(-62,2) scale(1,1)">
      <path fill="none" stroke="#000000" d="M 506.83732514237585 156.209517756016 L 517 152 L 506.83732514237585 147.790482243984 L 506.83732514237585 156.209517756016" stroke-miterlimit="10" />
    </g>
    <g transform="translate(-62,2) scale(1,1)">
      <g>
        <path fill="none" stroke="none" />
        <text fill="#000000" stroke="none" font-family="Arial" font-size="13px" font-style="normal" font-weight="normal" text-decoration="none" x="364.5" y="148.5">2 : PlaceItem(item)</text>
      </g>
    </g>
    <g transform="translate(-62,2) scale(1,1)">
      <rect fill="#ffffff" stroke="none" x="517" y="152" width="13" height="208" />
    </g>
    <g transform="translate(-62,2) scale(1,1)">
      <path fill="none" stroke="#000000" d="M 517 152 L 530 152 L 530 360 L 517 360 L 517 152 Z Z" stroke-miterlimit="10" />
    </g>
    <g transform="translate(-62,2) scale(1,1)">
      <path fill="none" stroke="#000000" d="M 530 240 L 683 240" stroke-miterlimit="10" />
    </g>
    <g transform="translate(-62,2) scale(1,1)">
      <path fill="#000000" stroke="none" d="M 672.8373251423759 244.209517756016 L 683 240 L 672.8373251423758 235.790482243984" />
    </g>
    <g transform="translate(-62,2) scale(1,1)">
      <path fill="none" stroke="#000000" d="M 672.8373251423759 244.209517756016 L 683 240 L 672.8373251423758 235.790482243984 L 672.8373251423759 244.209517756016" stroke-miterlimit="10" />
    </g>
    <g transform="translate(-62,2) scale(1,1)">
      <g>
        <path fill="none" stroke="none" />
        <text fill="#000000" stroke="none" font-family="Arial" font-size="13px" font-style="normal" font-weight="normal" text-decoration="none" x="551.5" y="236.5">3 : InsertItem(item)</text>
      </g>
    </g>
    <g transform="translate(-62,2) scale(1,1)">
      <rect fill="#ffffff" stroke="none" x="683" y="240" width="13" height="64" />
    </g>
    <g transform="translate(-62,2) scale(1,1)">
      <path fill="none" stroke="#000000" d="M 683 240 L 696 240 L 696 304 L 683 304 L 683 240 Z Z" stroke-miterlimit="10" />
    </g>
    <g transform="translate(-62,2) scale(1,1)">
      <path fill="none" stroke="#000000" d="M 683 296 L 530 296" stroke-miterlimit="10" stroke-dasharray="3" />
    </g>
    <g transform="translate(-62,2) scale(1,1)">
      <path fill="none" stroke="#000000" d="M 540.1626748576241 291.790482243984 L 530 296 L 540.1626748576241 300.209517756016" stroke-miterlimit="10" />
    </g>
    <g transform="translate(-62,2) scale(1,1)">
      <g>
        <path fill="none" stroke="none" />
        <text fill="#000000" stroke="none" font-family="Arial" font-size="13px" font-style="normal" font-weight="normal" text-decoration="none" x="580.5" y="312.5">4 : result</text>
      </g>
    </g>
    <g transform="translate(-62,2) scale(1,1)">
      <path fill="none" stroke="#000000" d="M 517 352 L 321 352" stroke-miterlimit="10" stroke-dasharray="3" />
    </g>
    <g transform="translate(-62,2) scale(1,1)">
      <path fill="none" stroke="#000000" d="M 331.16267485762415 347.790482243984 L 321 352 L 331.16267485762415 356.209517756016" stroke-miterlimit="10" />
    </g>
    <g transform="translate(-62,2) scale(1,1)">
      <g>
        <path fill="none" stroke="none" />
        <text fill="#000000" stroke="none" font-family="Arial" font-size="13px" font-style="normal" font-weight="normal" text-decoration="none" x="362.5" y="368.5">5 : success = result</text>
      </g>
    </g>
    <g transform="translate(-62,2) scale(1,1)">
      <path fill="none" stroke="#000000" d="M 321 424 L 905 424" stroke-miterlimit="10" />
    </g>
    <g transform="translate(-62,2) scale(1,1)">
      <path fill="#000000" stroke="none" d="M 894.8373251423759 428.209517756016 L 905 424 L 894.8373251423758 419.790482243984" />
    </g>
    <g transform="translate(-62,2) scale(1,1)">
      <path fill="none" stroke="#000000" d="M 894.8373251423759 428.209517756016 L 905 424 L 894.8373251423758 419.790482243984 L 894.8373251423759 428.209517756016" stroke-miterlimit="10" />
    </g>
    <g transform="translate(-62,2) scale(1,1)">
      <g>
        <path fill="none" stroke="none" />
        <text fill="#000000" stroke="none" font-family="Arial" font-size="13px" font-style="normal" font-weight="normal" text-decoration="none" x="550.5" y="420.5">6 : RemoveItem(item)</text>
      </g>
    </g>
    <g transform="translate(-62,2) scale(1,1)">
      <rect fill="#ffffff" stroke="none" x="905" y="424" width="13" height="56" />
    </g>
    <g transform="translate(-62,2) scale(1,1)">
      <path fill="none" stroke="#000000" d="M 905 424 L 918 424 L 918 480 L 905 480 L 905 424 Z Z" stroke-miterlimit="10" />
    </g>
    <g transform="translate(-62,2) scale(1,1)">
      <path fill="none" stroke="#000000" d="M 905 472 L 321 472" stroke-miterlimit="10" stroke-dasharray="3" />
    </g>
    <g transform="translate(-62,2) scale(1,1)">
      <path fill="none" stroke="#000000" d="M 331.16267485762415 467.790482243984 L 321 472 L 331.16267485762415 476.209517756016" stroke-miterlimit="10" />
    </g>
    <g transform="translate(-62,2) scale(1,1)">
      <g>
        <path fill="none" stroke="none" />
        <text fill="#000000" stroke="none" font-family="Arial" font-size="13px" font-style="normal" font-weight="normal" text-decoration="none" x="602.5" y="488.5">7 : </text>
      </g>
    </g>
    <g transform="translate(-62,2) scale(1,1)">
      <path fill="none" stroke="#000000" d="M 308 544 L 94 544" stroke-miterlimit="10" stroke-dasharray="3" />
    </g>
    <g transform="translate(-62,2) scale(1,1)">
      <path fill="none" stroke="#000000" d="M 104.16267485762415 539.790482243984 L 94 544 L 104.16267485762415 548.209517756016" stroke-miterlimit="10" />
    </g>
    <g transform="translate(-62,2) scale(1,1)">
      <g>
        <path fill="none" stroke="none" />
        <text fill="#000000" stroke="none" font-family="Arial" font-size="13px" font-style="normal" font-weight="normal" text-decoration="none" x="167.5" y="560.5">8 : success</text>
      </g>
    </g>
    <g transform="translate(-62,2) scale(1,1)">
      <path fill="none" stroke="#000000" d="M 336 168 L 847 168 L 847 336 L 336 336 L 336 168" stroke-miterlimit="10" />
    </g>
    <g transform="translate(-62,2) scale(1,1)">
      <path fill="#ffffff" stroke="none" d="M 336 168 L 336 190 L 429.32080078125 190 L 440.32080078125 179 L 440.32080078125 168 L 336 168" />
    </g>
    <g transform="translate(-62,2) scale(1,1)">
      <path fill="none" stroke="#000000" d="M 336 168 L 336 190 L 429.32080078125 190 L 440.32080078125 179 L 440.32080078125 168 L 336 168 L 336 168" stroke-miterlimit="10" />
    </g>
    <g transform="translate(-62,2) scale(1,1)">
      <g>
        <path fill="none" stroke="none" />
        <text fill="#000000" stroke="none" font-family="Arial" font-size="13px" font-style="normal" font-weight="normal" text-decoration="none" x="365.07177734375" y="185.5">Can insert</text>
      </g>
    </g>
    <g transform="translate(-62,2) scale(1,1)">
      <g>
        <path fill="none" stroke="none" />
        <text fill="#000000" stroke="none" font-family="Arial" font-size="13px" font-style="normal" font-weight="bold" text-decoration="none" x="341" y="185.5">opt</text>
      </g>
    </g>
    <g transform="translate(-62,2) scale(1,1)">
      <g>
        <path fill="none" stroke="none" />
        <text fill="#000000" stroke="none" font-family="Arial" font-size="13px" font-style="normal" font-weight="normal" text-decoration="none" x="355.5" y="218.5">[crustSize == 0 &amp;&amp; empty]</text>
      </g>
    </g>
    <g transform="translate(-62,2) scale(1,1)">
      <path fill="none" stroke="#000000" d="M 128 384 L 975 384 L 975 519 L 128 519 L 128 384" stroke-miterlimit="10" />
    </g>
    <g transform="translate(-62,2) scale(1,1)">
      <path fill="#ffffff" stroke="none" d="M 128 384 L 128 406 L 271.16259765625 406 L 282.16259765625 395 L 282.16259765625 384 L 128 384" />
    </g>
    <g transform="translate(-62,2) scale(1,1)">
      <path fill="none" stroke="#000000" d="M 128 384 L 128 406 L 271.16259765625 406 L 282.16259765625 395 L 282.16259765625 384 L 128 384 L 128 384" stroke-miterlimit="10" />
    </g>
    <g transform="translate(-62,2) scale(1,1)">
      <g>
        <path fill="none" stroke="none" />
        <text fill="#000000" stroke="none" font-family="Arial" font-size="13px" font-style="normal" font-weight="normal" text-decoration="none" x="157.07177734375" y="401.5">Remove if success</text>
      </g>
    </g>
    <g transform="translate(-62,2) scale(1,1)">
      <g>
        <path fill="none" stroke="none" />
        <text fill="#000000" stroke="none" font-family="Arial" font-size="13px" font-style="normal" font-weight="bold" text-decoration="none" x="133" y="401.5">opt</text>
      </g>
    </g>
    <g transform="translate(-62,2) scale(1,1)">
      <g>
        <path fill="none" stroke="none" />
        <text fill="#000000" stroke="none" font-family="Arial" font-size="13px" font-style="normal" font-weight="normal" text-decoration="none" x="147.5" y="434.5">[success == true]</text>
      </g>
    </g>
  </g>
</svg>