<?xml version="1.0" encoding="utf-8"?>
<svg version="1.1" xmlns="http://www.w3.org/2000/svg" xmlns:xlink="http://www.w3.org/1999/xlink" width="1177" height="620">
  <defs />
  <g>
    <g transform="translate(-33,2) scale(1,1)">
      <path fill="none" stroke="#000000" d="M 128 8 L 1200 8 L 1200 608 L 128 608 L 128 8" stroke-miterlimit="10" />
    </g>
    <g transform="translate(-33,2) scale(1,1)">
      <path fill="#ffffff" stroke="none" d="M 128 8 L 128 30 L 350.6796875 30 L 361.6796875 19 L 361.6796875 8 L 128 8" />
    </g>
    <g transform="translate(-33,2) scale(1,1)">
      <path fill="none" stroke="#000000" d="M 128 8 L 128 30 L 350.6796875 30 L 361.6796875 19 L 361.6796875 8 L 128 8 L 128 8" stroke-miterlimit="10" />
    </g>
    <g transform="translate(-33,2) scale(1,1)">
      <g>
        <path fill="none" stroke="none" />
        <text fill="#000000" stroke="none" font-family="Arial" font-size="13px" font-style="normal" font-weight="normal" text-decoration="none" x="198.97900390625" y="25.5">SpaceShip mine succeed</text>
      </g>
    </g>
    <g transform="translate(-33,2) scale(1,1)">
      <g>
        <path fill="none" stroke="none" />
        <text fill="#000000" stroke="none" font-family="Arial" font-size="13px" font-style="normal" font-weight="bold" text-decoration="none" x="133" y="25.5">interaction</text>
      </g>
    </g>
    <g transform="translate(-33,2) scale(1,1)">
      <rect fill="#C0C0C0" stroke="none" x="303" y="47" width="146.1435546875" height="39" opacity="0.2" />
    </g>
    <g transform="translate(-33,2) scale(1,1)">
      <rect fill="#ffffff" stroke="none" x="296" y="40" width="146.1435546875" height="39" />
    </g>
    <g transform="translate(-33,2) scale(1,1)">
      <path fill="none" stroke="#000000" d="M 296 40 L 442.1435546875 40 L 442.1435546875 79 L 296 79 L 296 40 Z Z" stroke-miterlimit="10" />
    </g>
    <g transform="translate(-33,2) scale(1,1)">
      <g>
        <path fill="none" stroke="none" />
        <text fill="#000000" stroke="none" font-family="Arial" font-size="13px" font-style="normal" font-weight="bold" text-decoration="none" x="330.77001953125" y="59.5">s: SpaceShip</text>
      </g>
    </g>
    <g transform="translate(-33,2) scale(1,1)">
      <path fill="none" stroke="#000000" d="M 370.5 80 L 370.5 598" stroke-miterlimit="10" stroke-dasharray="3" />
    </g>
    <g transform="translate(-33,2) scale(1,1)">
      <rect fill="#C0C0C0" stroke="none" x="623" y="47" width="183" height="39" opacity="0.2" />
    </g>
    <g transform="translate(-33,2) scale(1,1)">
      <rect fill="#ffffff" stroke="none" x="616" y="40" width="183" height="39" />
    </g>
    <g transform="translate(-33,2) scale(1,1)">
      <path fill="none" stroke="#000000" d="M 616 40 L 799 40 L 799 79 L 616 79 L 616 40 Z Z" stroke-miterlimit="10" />
    </g>
    <g transform="translate(-33,2) scale(1,1)">
      <g>
        <path fill="none" stroke="none" />
        <text fill="#000000" stroke="none" font-family="Arial" font-size="13px" font-style="normal" font-weight="bold" text-decoration="none" x="635.96826171875" y="59.5">currentAsteroid: Asteroid</text>
      </g>
    </g>
    <g transform="translate(-33,2) scale(1,1)">
      <path fill="none" stroke="#000000" d="M 708.5 80 L 708.5 518" stroke-miterlimit="10" stroke-dasharray="3" />
    </g>
    <g transform="translate(-33,2) scale(1,1)">
      <rect fill="#C0C0C0" stroke="none" x="823" y="47" width="184" height="39" opacity="0.2" />
    </g>
    <g transform="translate(-33,2) scale(1,1)">
      <rect fill="#ffffff" stroke="none" x="816" y="40" width="184" height="39" />
    </g>
    <g transform="translate(-33,2) scale(1,1)">
      <path fill="none" stroke="#000000" d="M 816 40 L 1000 40 L 1000 79 L 816 79 L 816 40 Z Z" stroke-miterlimit="10" />
    </g>
    <g transform="translate(-33,2) scale(1,1)">
      <g>
        <path fill="none" stroke="none" />
        <text fill="#000000" stroke="none" font-family="Arial" font-size="13px" font-style="normal" font-weight="bold" text-decoration="none" x="851.280517578125" y="59.5">resource: Resource</text>
      </g>
    </g>
    <g transform="translate(-33,2) scale(1,1)">
      <path fill="none" stroke="#000000" d="M 909.5 80 L 909.5 366" stroke-miterlimit="10" stroke-dasharray="3" />
    </g>
    <g transform="translate(-33,2) scale(1,1)">
      <rect fill="#C0C0C0" stroke="none" x="1031" y="47" width="152.427734375" height="39" opacity="0.2" />
    </g>
    <g transform="translate(-33,2) scale(1,1)">
      <rect fill="#ffffff" stroke="none" x="1024" y="40" width="152.427734375" height="39" />
    </g>
    <g transform="translate(-33,2) scale(1,1)">
      <path fill="none" stroke="#000000" d="M 1024 40 L 1176.427734375 40 L 1176.427734375 79 L 1024 79 L 1024 40 Z Z" stroke-miterlimit="10" />
    </g>
    <g transform="translate(-33,2) scale(1,1)">
      <g>
        <path fill="none" stroke="none" />
        <text fill="#000000" stroke="none" font-family="Arial" font-size="13px" font-style="normal" font-weight="bold" text-decoration="none" x="1043.4912109375" y="59.5">inventory: Inventory</text>
      </g>
    </g>
    <g transform="translate(-33,2) scale(1,1)">
      <path fill="none" stroke="#000000" d="M 1101.5 80 L 1101.5 600" stroke-miterlimit="10" stroke-dasharray="3" />
    </g>
    <g transform="translate(-33,2) scale(1,1)">
      <path fill="#000000" stroke="none" d="M 48 103.5 C 48 99.6340064 51.1340064 96.5 55 96.5 C 58.8659936 96.5 62 99.6340064 62 103.5 C 62 107.3659936 58.8659936 110.5 55 110.5 C 51.1340064 110.5 48 107.3659936 48 103.5 Z" />
    </g>
    <g transform="translate(-33,2) scale(1,1)">
      <path fill="#000000" stroke="none" d="M 43 567.5 C 43 563.6340064 46.1340064 560.5 50 560.5 C 53.8659936 560.5 57 563.6340064 57 567.5 C 57 571.3659936 53.8659936 574.5 50 574.5 C 46.1340064 574.5 43 571.3659936 43 567.5 Z" />
    </g>
    <g transform="translate(-33,2) scale(1,1)">
      <path fill="none" stroke="#000000" d="M 62 104 L 363 104" stroke-miterlimit="10" />
    </g>
    <g transform="translate(-33,2) scale(1,1)">
      <path fill="#000000" stroke="none" d="M 352.83732514237585 108.20951775601598 L 363 104 L 352.83732514237585 99.79048224398402" />
    </g>
    <g transform="translate(-33,2) scale(1,1)">
      <path fill="none" stroke="#000000" d="M 352.83732514237585 108.20951775601598 L 363 104 L 352.83732514237585 99.79048224398402 L 352.83732514237585 108.20951775601598" stroke-miterlimit="10" />
    </g>
    <g transform="translate(-33,2) scale(1,1)">
      <g>
        <path fill="none" stroke="none" />
        <text fill="#000000" stroke="none" font-family="Arial" font-size="13px" font-style="normal" font-weight="normal" text-decoration="none" x="184.07177734375" y="100.5">1 : Mine()</text>
      </g>
    </g>
    <g transform="translate(-33,2) scale(1,1)">
      <rect fill="#ffffff" stroke="none" x="363" y="104" width="13" height="472" />
    </g>
    <g transform="translate(-33,2) scale(1,1)">
      <path fill="none" stroke="#000000" d="M 363 104 L 376 104 L 376 576 L 363 576 L 363 104 Z Z" stroke-miterlimit="10" />
    </g>
    <g transform="translate(-33,2) scale(1,1)">
      <path fill="none" stroke="#000000" d="M 376 200 L 701 200" stroke-miterlimit="10" />
    </g>
    <g transform="translate(-33,2) scale(1,1)">
      <path fill="#000000" stroke="none" d="M 690.8373251423759 204.209517756016 L 701 200 L 690.8373251423758 195.790482243984" />
    </g>
    <g transform="translate(-33,2) scale(1,1)">
      <path fill="none" stroke="#000000" d="M 690.8373251423759 204.209517756016 L 701 200 L 690.8373251423758 195.790482243984 L 690.8373251423759 204.209517756016" stroke-miterlimit="10" />
    </g>
    <g transform="translate(-33,2) scale(1,1)">
      <g>
        <path fill="none" stroke="none" />
        <text fill="#000000" stroke="none" font-family="Arial" font-size="13px" font-style="normal" font-weight="normal" text-decoration="none" x="510.07177734375" y="196.5">2 : Mine()</text>
      </g>
    </g>
    <g transform="translate(-33,2) scale(1,1)">
      <rect fill="#ffffff" stroke="none" x="701" y="200" width="13" height="216" />
    </g>
    <g transform="translate(-33,2) scale(1,1)">
      <path fill="none" stroke="#000000" d="M 701 200 L 714 200 L 714 416 L 701 416 L 701 200 Z Z" stroke-miterlimit="10" />
    </g>
    <g transform="translate(-33,2) scale(1,1)">
      <path fill="none" stroke="#000000" d="M 714 264 L 902 264" stroke-miterlimit="10" />
    </g>
    <g transform="translate(-33,2) scale(1,1)">
      <path fill="#000000" stroke="none" d="M 891.8373251423759 268.209517756016 L 902 264 L 891.8373251423758 259.790482243984" />
    </g>
    <g transform="translate(-33,2) scale(1,1)">
      <path fill="none" stroke="#000000" d="M 891.8373251423759 268.209517756016 L 902 264 L 891.8373251423758 259.790482243984 L 891.8373251423759 268.209517756016" stroke-miterlimit="10" />
    </g>
    <g transform="translate(-33,2) scale(1,1)">
      <g>
        <path fill="none" stroke="none" />
        <text fill="#000000" stroke="none" font-family="Arial" font-size="13px" font-style="normal" font-weight="normal" text-decoration="none" x="780.07177734375" y="260.5">3 : Mine()</text>
      </g>
    </g>
    <g transform="translate(-33,2) scale(1,1)">
      <rect fill="#ffffff" stroke="none" x="902" y="264" width="13" height="64" />
    </g>
    <g transform="translate(-33,2) scale(1,1)">
      <path fill="none" stroke="#000000" d="M 902 264 L 915 264 L 915 328 L 902 328 L 902 264 Z Z" stroke-miterlimit="10" />
    </g>
    <g transform="translate(-33,2) scale(1,1)">
      <path fill="none" stroke="#000000" d="M 902 320 L 714 320" stroke-miterlimit="10" stroke-dasharray="3" />
    </g>
    <g transform="translate(-33,2) scale(1,1)">
      <path fill="none" stroke="#000000" d="M 724.1626748576241 315.790482243984 L 714 320 L 724.1626748576241 324.209517756016" stroke-miterlimit="10" />
    </g>
    <g transform="translate(-33,2) scale(1,1)">
      <g>
        <path fill="none" stroke="none" />
        <text fill="#000000" stroke="none" font-family="Arial" font-size="13px" font-style="normal" font-weight="normal" text-decoration="none" x="754.80224609375" y="336.5">4 : ri = result_item</text>
      </g>
    </g>
    <g transform="translate(-33,2) scale(1,1)">
      <path fill="none" stroke="#000000" d="M 701 408 L 376 408" stroke-miterlimit="10" stroke-dasharray="3" />
    </g>
    <g transform="translate(-33,2) scale(1,1)">
      <path fill="none" stroke="#000000" d="M 386.16267485762415 403.790482243984 L 376 408 L 386.16267485762415 412.209517756016" stroke-miterlimit="10" />
    </g>
    <g transform="translate(-33,2) scale(1,1)">
      <g>
        <path fill="none" stroke="none" />
        <text fill="#000000" stroke="none" font-family="Arial" font-size="13px" font-style="normal" font-weight="normal" text-decoration="none" x="515.92041015625" y="424.5">5 : i = ri</text>
      </g>
    </g>
    <g transform="translate(-33,2) scale(1,1)">
      <path fill="none" stroke="#000000" d="M 376 464 L 1094 464" stroke-miterlimit="10" />
    </g>
    <g transform="translate(-33,2) scale(1,1)">
      <path fill="none" stroke="#000000" d="M 1083.837325142376 468.209517756016 L 1094 464 L 1083.837325142376 459.790482243984" stroke-miterlimit="10" />
    </g>
    <g transform="translate(-33,2) scale(1,1)">
      <g>
        <path fill="none" stroke="none" />
        <text fill="#000000" stroke="none" font-family="Arial" font-size="13px" font-style="normal" font-weight="normal" text-decoration="none" x="738.588623046875" y="460.5">6 : InsertItem(i)</text>
      </g>
    </g>
    <g transform="translate(-33,2) scale(1,1)">
      <rect fill="#ffffff" stroke="none" x="1094" y="464" width="13" height="28" />
    </g>
    <g transform="translate(-33,2) scale(1,1)">
      <path fill="none" stroke="#000000" d="M 1094 464 L 1107 464 L 1107 492 L 1094 492 L 1094 464 Z Z" stroke-miterlimit="10" />
    </g>
    <g transform="translate(-33,2) scale(1,1)">
      <path fill="none" stroke="#000000" d="M 1094 488 L 376 488" stroke-miterlimit="10" stroke-dasharray="3" />
    </g>
    <g transform="translate(-33,2) scale(1,1)">
      <path fill="none" stroke="#000000" d="M 386.16267485762415 483.790482243984 L 376 488 L 386.16267485762415 492.209517756016" stroke-miterlimit="10" />
    </g>
    <g transform="translate(-33,2) scale(1,1)">
      <g>
        <path fill="none" stroke="none" />
        <text fill="#000000" stroke="none" font-family="Arial" font-size="13px" font-style="normal" font-weight="normal" text-decoration="none" x="761.2890625" y="503.5">7 : true</text>
      </g>
    </g>
    <g transform="translate(-33,2) scale(1,1)">
      <path fill="none" stroke="#000000" d="M 363 568 L 57 568" stroke-miterlimit="10" stroke-dasharray="3" />
    </g>
    <g transform="translate(-33,2) scale(1,1)">
      <path fill="none" stroke="#000000" d="M 67.16267485762415 563.790482243984 L 57 568 L 67.16267485762415 572.209517756016" stroke-miterlimit="10" />
    </g>
    <g transform="translate(-33,2) scale(1,1)">
      <g>
        <path fill="none" stroke="none" />
        <text fill="#000000" stroke="none" font-family="Arial" font-size="13px" font-style="normal" font-weight="normal" text-decoration="none" x="199.6220703125" y="584.5">8 : </text>
      </g>
    </g>
    <g transform="translate(-33,2) scale(1,1)">
      <path fill="none" stroke="#000000" d="M 152 120 L 1168 120 L 1168 536 L 152 536 L 152 120" stroke-miterlimit="10" />
    </g>
    <g transform="translate(-33,2) scale(1,1)">
      <path fill="#ffffff" stroke="none" d="M 152 120 L 152 142 L 277.1162109375 142 L 288.1162109375 131 L 288.1162109375 120 L 152 120" />
    </g>
    <g transform="translate(-33,2) scale(1,1)">
      <path fill="none" stroke="#000000" d="M 152 120 L 152 142 L 277.1162109375 142 L 288.1162109375 131 L 288.1162109375 120 L 152 120 L 152 120" stroke-miterlimit="10" />
    </g>
    <g transform="translate(-33,2) scale(1,1)">
      <g>
        <path fill="none" stroke="none" />
        <text fill="#000000" stroke="none" font-family="Arial" font-size="13px" font-style="normal" font-weight="normal" text-decoration="none" x="181.07177734375" y="137.5">Inventory check</text>
      </g>
    </g>
    <g transform="translate(-33,2) scale(1,1)">
      <g>
        <path fill="none" stroke="none" />
        <text fill="#000000" stroke="none" font-family="Arial" font-size="13px" font-style="normal" font-weight="bold" text-decoration="none" x="157" y="137.5">opt</text>
      </g>
    </g>
    <g transform="translate(-33,2) scale(1,1)">
      <g>
        <path fill="none" stroke="none" />
        <text fill="#000000" stroke="none" font-family="Arial" font-size="13px" font-style="normal" font-weight="normal" text-decoration="none" x="171.5" y="170.5">[inventory is not full]</text>
      </g>
    </g>
    <g transform="translate(-33,2) scale(1,1)">
      <path fill="none" stroke="#000000" d="M 400 216 L 952 216 L 952 376 L 400 376 L 400 216" stroke-miterlimit="10" />
    </g>
    <g transform="translate(-33,2) scale(1,1)">
      <path fill="#ffffff" stroke="none" d="M 400 216 L 400 238 L 528.0107421875 238 L 539.0107421875 227 L 539.0107421875 216 L 400 216" />
    </g>
    <g transform="translate(-33,2) scale(1,1)">
      <path fill="none" stroke="#000000" d="M 400 216 L 400 238 L 528.0107421875 238 L 539.0107421875 227 L 539.0107421875 216 L 400 216 L 400 216" stroke-miterlimit="10" />
    </g>
    <g transform="translate(-33,2) scale(1,1)">
      <g>
        <path fill="none" stroke="none" />
        <text fill="#000000" stroke="none" font-family="Arial" font-size="13px" font-style="normal" font-weight="normal" text-decoration="none" x="429.07177734375" y="233.5">Explosion check</text>
      </g>
    </g>
    <g transform="translate(-33,2) scale(1,1)">
      <g>
        <path fill="none" stroke="none" />
        <text fill="#000000" stroke="none" font-family="Arial" font-size="13px" font-style="normal" font-weight="bold" text-decoration="none" x="405" y="233.5">opt</text>
      </g>
    </g>
    <g transform="translate(-33,2) scale(1,1)">
      <g>
        <path fill="none" stroke="none" />
        <text fill="#000000" stroke="none" font-family="Arial" font-size="13px" font-style="normal" font-weight="normal" text-decoration="none" x="419.5" y="266.5">[not exploded &amp;&amp; not empty &amp;&amp; crustSize == 0]</text>
      </g>
    </g>
  </g>
</svg>