<svg version="1.1" xmlns="http://www.w3.org/2000/svg" xmlns:xlink="http://www.w3.org/1999/xlink" width="788" height="228">
    <defs />
    <g>
        <g transform="translate(-182,-286) scale(1,1)">
            <path fill="none" stroke="#000000" d="M 192 296 L 960 296 L 960 504 L 192 504 L 192 296" stroke-miterlimit="10" />
        </g>
        <g transform="translate(-182,-286) scale(1,1)">
            <path fill="#ffffff" stroke="none" d="M 192 296 L 192 318 L 383.34130859375 318 L 394.34130859375 307 L 394.34130859375 296 L 192 296" />
        </g>
        <g transform="translate(-182,-286) scale(1,1)">
            <path fill="none" stroke="#000000" d="M 192 296 L 192 318 L 383.34130859375 318 L 394.34130859375 307 L 394.34130859375 296 L 192 296 L 192 296" stroke-miterlimit="10" />
        </g>
        <g transform="translate(-182,-286) scale(1,1)">
            <g>
                <path fill="none" stroke="none" />
                <text fill="#000000" stroke="none" font-family="Arial" font-size="13px" font-style="normal" font-weight="normal" text-decoration="none" x="283.9326171875" y="313.5">AsteroidVisibility</text>
            </g>
        </g>
        <g transform="translate(-182,-286) scale(1,1)">
            <g>
                <path fill="none" stroke="none" />
                <text fill="#000000" stroke="none" font-family="Arial" font-size="13px" font-style="normal" font-weight="bold" text-decoration="none" x="197" y="313.5">state machine</text>
            </g>
        </g>
        <g transform="translate(-182,-286) scale(1,1)">
            <path fill="#C0C0C0" stroke="none" d="M 239 360.5 C 239 355.2532944 243.2532944 351 248.5 351 C 253.7467056 351 258 355.2532944 258 360.5 C 258 365.7467056 253.7467056 370 248.5 370 C 243.2532944 370 239 365.7467056 239 360.5 Z" opacity="0.2" />
        </g>
        <g transform="translate(-182,-286) scale(1,1)">
            <path fill="#000000" stroke="none" d="M 232 353.5 C 232 348.2532944 236.2532944 344 241.5 344 C 246.7467056 344 251 348.2532944 251 353.5 C 251 358.7467056 246.7467056 363 241.5 363 C 236.2532944 363 232 358.7467056 232 353.5 Z" />
        </g>
        <g transform="translate(-182,-286) scale(1,1)">
            <path fill="#C0C0C0" stroke="none" d="M 361 335 L 445 335 Q 455 335 455 345 L 455 373 Q 455 383 445 383 L 361 383 Q 351 383 351 373 L 351 345 Q 351 335 361 335 Z" opacity="0.2" />
        </g>
        <g transform="translate(-182,-286) scale(1,1)">
            <path fill="#ffffff" stroke="none" d="M 354 328 L 438 328 Q 448 328 448 338 L 448 366 Q 448 376 438 376 L 354 376 Q 344 376 344 366 L 344 338 Q 344 328 354 328 Z" />
        </g>
        <g transform="translate(-182,-286) scale(1,1)">
            <path fill="none" stroke="#000000" d="M 354 328 L 438 328 Q 448 328 448 338 L 448 366 Q 448 376 438 376 L 354 376 Q 344 376 344 366 L 344 338 Q 344 328 354 328 Z" stroke-miterlimit="10" />
        </g>
        <g transform="translate(-182,-286) scale(1,1)">
            <g>
                <path fill="none" stroke="none" />
                <text fill="#000000" stroke="none" font-family="Arial" font-size="13px" font-style="normal" font-weight="bold" text-decoration="none" x="359.1455078125" y="347.5">Not revealed</text>
            </g>
        </g>
        <g transform="translate(-182,-286) scale(1,1)">
            <path fill="none" stroke="#000000" d="M 252 353 L 343 352" stroke-miterlimit="10" />
        </g>
        <g transform="translate(-182,-286) scale(1,1)">
            <path fill="none" stroke="#000000" d="M 332.88419434488014 356.32093461508566 L 343 352 L 332.7916830567088 347.90240739149027" stroke-miterlimit="10" />
        </g>
        <g transform="translate(-182,-286) scale(1,1)">
            <path fill="#C0C0C0" stroke="none" d="M 577 335 L 677 335 Q 687 335 687 345 L 687 364 Q 687 374 677 374 L 577 374 Q 567 374 567 364 L 567 345 Q 567 335 577 335 Z" opacity="0.2" />
        </g>
        <g transform="translate(-182,-286) scale(1,1)">
            <path fill="#ffffff" stroke="none" d="M 570 328 L 670 328 Q 680 328 680 338 L 680 357 Q 680 367 670 367 L 570 367 Q 560 367 560 357 L 560 338 Q 560 328 570 328 Z" />
        </g>
        <g transform="translate(-182,-286) scale(1,1)">
            <path fill="none" stroke="#000000" d="M 570 328 L 670 328 Q 680 328 680 338 L 680 357 Q 680 367 670 367 L 570 367 Q 560 367 560 357 L 560 338 Q 560 328 570 328 Z" stroke-miterlimit="10" />
        </g>
        <g transform="translate(-182,-286) scale(1,1)">
            <g>
                <path fill="none" stroke="none" />
                <text fill="#000000" stroke="none" font-family="Arial" font-size="13px" font-style="normal" font-weight="bold" text-decoration="none" x="592.536865234375" y="347.5">Revealed</text>
            </g>
        </g>
        <g transform="translate(-182,-286) scale(1,1)">
            <path fill="#C0C0C0" stroke="none" d="M 801 335 L 901 335 Q 911 335 911 345 L 911 364 Q 911 374 901 374 L 801 374 Q 791 374 791 364 L 791 345 Q 791 335 801 335 Z" opacity="0.2" />
        </g>
        <g transform="translate(-182,-286) scale(1,1)">
            <path fill="#ffffff" stroke="none" d="M 794 328 L 894 328 Q 904 328 904 338 L 904 357 Q 904 367 894 367 L 794 367 Q 784 367 784 357 L 784 338 Q 784 328 794 328 Z" />
        </g>
        <g transform="translate(-182,-286) scale(1,1)">
            <path fill="none" stroke="#000000" d="M 794 328 L 894 328 Q 904 328 904 338 L 904 357 Q 904 367 894 367 L 794 367 Q 784 367 784 357 L 784 338 Q 784 328 794 328 Z" stroke-miterlimit="10" />
        </g>
        <g transform="translate(-182,-286) scale(1,1)">
            <g>
                <path fill="none" stroke="none" />
                <text fill="#000000" stroke="none" font-family="Arial" font-size="13px" font-style="normal" font-weight="bold" text-decoration="none" x="824.60791015625" y="347.5">Visited</text>
            </g>
        </g>
        <g transform="translate(-182,-286) scale(1,1)">
            <path fill="none" stroke="#000000" d="M 449 351 L 559 348" stroke-miterlimit="10" />
        </g>
        <g transform="translate(-182,-286) scale(1,1)">
            <path fill="none" stroke="#000000" d="M 548.955864899885 352.4850139454228 L 559 348 L 548.7263401850302 344.0691077340795" stroke-miterlimit="10" />
        </g>
        <g transform="translate(-182,-286) scale(1,1)">
            <g>
                <path fill="none" stroke="none" />
                <text fill="#000000" stroke="none" font-family="Arial" font-size="13px" font-style="normal" font-weight="normal" text-decoration="none" x="478.5" y="340.5">Reveal()</text>
            </g>
        </g>
        <g transform="translate(-182,-286) scale(1,1)">
            <path fill="none" stroke="#000000" d="M 681 347 L 783 347" stroke-miterlimit="10" />
        </g>
        <g transform="translate(-182,-286) scale(1,1)">
            <path fill="none" stroke="#000000" d="M 772.8373251423759 351.209517756016 L 783 347 L 772.8373251423758 342.790482243984" stroke-miterlimit="10" />
        </g>
        <g transform="translate(-182,-286) scale(1,1)">
            <g>
                <path fill="none" stroke="none" />
                <text fill="#000000" stroke="none" font-family="Arial" font-size="13px" font-style="normal" font-weight="normal" text-decoration="none" x="710.5" y="339.5">Arrive</text>
            </g>
        </g>
        <g transform="translate(-182,-286) scale(1,1)">
            <path fill="none" stroke="#000000" d="M 844 368 L 843 439" stroke-miterlimit="10" />
        </g>
        <g transform="translate(-182,-286) scale(1,1)">
            <path fill="none" stroke="#000000" d="M 838.9340217804229 428.77904989162334 L 843 439 L 847.3522223605827 428.89761609697774" stroke-miterlimit="10" />
        </g>
        <g transform="translate(-182,-286) scale(1,1)">
            <g>
                <path fill="none" stroke="none" />
                <text fill="#000000" stroke="none" font-family="Arial" font-size="13px" font-style="normal" font-weight="normal" text-decoration="none" x="861.5" y="407.5">Explode</text>
            </g>
        </g>
        <g transform="translate(-182,-286) scale(1,1)">
            <path fill="#C0C0C0" stroke="none" d="M 825 447 L 876.14990234375 447 Q 886.14990234375 447 886.14990234375 457 L 886.14990234375 476 Q 886.14990234375 486 876.14990234375 486 L 825 486 Q 815 486 815 476 L 815 457 Q 815 447 825 447 Z" opacity="0.2" />
        </g>
        <g transform="translate(-182,-286) scale(1,1)">
            <path fill="#ffffff" stroke="none" d="M 818 440 L 869.14990234375 440 Q 879.14990234375 440 879.14990234375 450 L 879.14990234375 469 Q 879.14990234375 479 869.14990234375 479 L 818 479 Q 808 479 808 469 L 808 450 Q 808 440 818 440 Z" />
        </g>
        <g transform="translate(-182,-286) scale(1,1)">
            <path fill="none" stroke="#000000" d="M 818 440 L 869.14990234375 440 Q 879.14990234375 440 879.14990234375 450 L 879.14990234375 469 Q 879.14990234375 479 869.14990234375 479 L 818 479 Q 808 479 808 469 L 808 450 Q 808 440 818 440 Z" stroke-miterlimit="10" />
        </g>
        <g transform="translate(-182,-286) scale(1,1)">
            <g>
                <path fill="none" stroke="none" />
                <text fill="#000000" stroke="none" font-family="Arial" font-size="13px" font-style="normal" font-weight="bold" text-decoration="none" x="816.470458984375" y="459.5">Exploded</text>
            </g>
        </g>
        <g transform="translate(-182,-286) scale(1,1)">
            <path fill="#C0C0C0" stroke="none" d="M 639 467.5 C 639 460.59644 644.59644 455 651.5 455 C 658.40356 455 664 460.59644 664 467.5 C 664 474.40356 658.40356 480 651.5 480 C 644.59644 480 639 474.40356 639 467.5 Z" opacity="0.2" />
        </g>
        <g transform="translate(-182,-286) scale(1,1)">
            <path fill="none" stroke="#000000" d="M 632 460.5 C 632 453.59644 637.59644 448 644.5 448 C 651.40356 448 657 453.59644 657 460.5 C 657 467.40356 651.40356 473 644.5 473 C 637.59644 473 632 467.40356 632 460.5 Z" stroke-miterlimit="10" />
        </g>
        <g transform="translate(-182,-286) scale(1,1)">
            <path fill="#000000" stroke="none" d="M 637 460.5 C 637 456.357864 640.357864 453 644.5 453 C 648.642136 453 652 456.357864 652 460.5 C 652 464.642136 648.642136 468 644.5 468 C 640.357864 468 637 464.642136 637 460.5 Z" />
        </g>
        <g transform="translate(-182,-286) scale(1,1)">
            <path fill="none" stroke="#000000" d="M 807 459 L 658 460" stroke-miterlimit="10" />
        </g>
        <g transform="translate(-182,-286) scale(1,1)">
            <path fill="none" stroke="#000000" d="M 668.1341948258238 455.7223727099889 L 658 460 L 668.1906971473611 464.1412186190501" stroke-miterlimit="10" />
        </g>
        <g transform="translate(-182,-286) scale(1,1)">
            <g>
                <path fill="none" stroke="none" />
                <text fill="#000000" stroke="none" font-family="Arial" font-size="13px" font-style="normal" font-weight="normal" text-decoration="none" x="695.5" y="479.5">game ended</text>
            </g>
        </g>
    </g>
</svg>