<svg version="1.1" xmlns="http://www.w3.org/2000/svg" xmlns:xlink="http://www.w3.org/1999/xlink" width="890" height="284"><defs/><g><text fill="#eeeeee" stroke="none" font-family="Arial" font-size="24px" font-style="normal" font-weight="normal" text-decoration="none" x="0" y="0">UNREGISTERED</text><text fill="#eeeeee" stroke="none" font-family="Arial" font-size="24px" font-style="normal" font-weight="normal" text-decoration="none" x="0" y="30">UNREGISTERED</text><text fill="#eeeeee" stroke="none" font-family="Arial" font-size="24px" font-style="normal" font-weight="normal" text-decoration="none" x="0" y="60">UNREGISTERED</text><text fill="#eeeeee" stroke="none" font-family="Arial" font-size="24px" font-style="normal" font-weight="normal" text-decoration="none" x="0" y="90">UNREGISTERED</text><text fill="#eeeeee" stroke="none" font-family="Arial" font-size="24px" font-style="normal" font-weight="normal" text-decoration="none" x="0" y="120">UNREGISTERED</text><text fill="#eeeeee" stroke="none" font-family="Arial" font-size="24px" font-style="normal" font-weight="normal" text-decoration="none" x="0" y="150">UNREGISTERED</text><text fill="#eeeeee" stroke="none" font-family="Arial" font-size="24px" font-style="normal" font-weight="normal" text-decoration="none" x="0" y="180">UNREGISTERED</text><text fill="#eeeeee" stroke="none" font-family="Arial" font-size="24px" font-style="normal" font-weight="normal" text-decoration="none" x="0" y="210">UNREGISTERED</text><text fill="#eeeeee" stroke="none" font-family="Arial" font-size="24px" font-style="normal" font-weight="normal" text-decoration="none" x="0" y="240">UNREGISTERED</text><text fill="#eeeeee" stroke="none" font-family="Arial" font-size="24px" font-style="normal" font-weight="normal" text-decoration="none" x="0" y="270">UNREGISTERED</text><text fill="#eeeeee" stroke="none" font-family="Arial" font-size="24px" font-style="normal" font-weight="normal" text-decoration="none" x="200" y="0">UNREGISTERED</text><text fill="#eeeeee" stroke="none" font-family="Arial" font-size="24px" font-style="normal" font-weight="normal" text-decoration="none" x="200" y="30">UNREGISTERED</text><text fill="#eeeeee" stroke="none" font-family="Arial" font-size="24px" font-style="normal" font-weight="normal" text-decoration="none" x="200" y="60">UNREGISTERED</text><text fill="#eeeeee" stroke="none" font-family="Arial" font-size="24px" font-style="normal" font-weight="normal" text-decoration="none" x="200" y="90">UNREGISTERED</text><text fill="#eeeeee" stroke="none" font-family="Arial" font-size="24px" font-style="normal" font-weight="normal" text-decoration="none" x="200" y="120">UNREGISTERED</text><text fill="#eeeeee" stroke="none" font-family="Arial" font-size="24px" font-style="normal" font-weight="normal" text-decoration="none" x="200" y="150">UNREGISTERED</text><text fill="#eeeeee" stroke="none" font-family="Arial" font-size="24px" font-style="normal" font-weight="normal" text-decoration="none" x="200" y="180">UNREGISTERED</text><text fill="#eeeeee" stroke="none" font-family="Arial" font-size="24px" font-style="normal" font-weight="normal" text-decoration="none" x="200" y="210">UNREGISTERED</text><text fill="#eeeeee" stroke="none" font-family="Arial" font-size="24px" font-style="normal" font-weight="normal" text-decoration="none" x="200" y="240">UNREGISTERED</text><text fill="#eeeeee" stroke="none" font-family="Arial" font-size="24px" font-style="normal" font-weight="normal" text-decoration="none" x="200" y="270">UNREGISTERED</text><text fill="#eeeeee" stroke="none" font-family="Arial" font-size="24px" font-style="normal" font-weight="normal" text-decoration="none" x="400" y="0">UNREGISTERED</text><text fill="#eeeeee" stroke="none" font-family="Arial" font-size="24px" font-style="normal" font-weight="normal" text-decoration="none" x="400" y="30">UNREGISTERED</text><text fill="#eeeeee" stroke="none" font-family="Arial" font-size="24px" font-style="normal" font-weight="normal" text-decoration="none" x="400" y="60">UNREGISTERED</text><text fill="#eeeeee" stroke="none" font-family="Arial" font-size="24px" font-style="normal" font-weight="normal" text-decoration="none" x="400" y="90">UNREGISTERED</text><text fill="#eeeeee" stroke="none" font-family="Arial" font-size="24px" font-style="normal" font-weight="normal" text-decoration="none" x="400" y="120">UNREGISTERED</text><text fill="#eeeeee" stroke="none" font-family="Arial" font-size="24px" font-style="normal" font-weight="normal" text-decoration="none" x="400" y="150">UNREGISTERED</text><text fill="#eeeeee" stroke="none" font-family="Arial" font-size="24px" font-style="normal" font-weight="normal" text-decoration="none" x="400" y="180">UNREGISTERED</text><text fill="#eeeeee" stroke="none" font-family="Arial" font-size="24px" font-style="normal" font-weight="normal" text-decoration="none" x="400" y="210">UNREGISTERED</text><text fill="#eeeeee" stroke="none" font-family="Arial" font-size="24px" font-style="normal" font-weight="normal" text-decoration="none" x="400" y="240">UNREGISTERED</text><text fill="#eeeeee" stroke="none" font-family="Arial" font-size="24px" font-style="normal" font-weight="normal" text-decoration="none" x="400" y="270">UNREGISTERED</text><text fill="#eeeeee" stroke="none" font-family="Arial" font-size="24px" font-style="normal" font-weight="normal" text-decoration="none" x="600" y="0">UNREGISTERED</text><text fill="#eeeeee" stroke="none" font-family="Arial" font-size="24px" font-style="normal" font-weight="normal" text-decoration="none" x="600" y="30">UNREGISTERED</text><text fill="#eeeeee" stroke="none" font-family="Arial" font-size="24px" font-style="normal" font-weight="normal" text-decoration="none" x="600" y="60">UNREGISTERED</text><text fill="#eeeeee" stroke="none" font-family="Arial" font-size="24px" font-style="normal" font-weight="normal" text-decoration="none" x="600" y="90">UNREGISTERED</text><text fill="#eeeeee" stroke="none" font-family="Arial" font-size="24px" font-style="normal" font-weight="normal" text-decoration="none" x="600" y="120">UNREGISTERED</text><text fill="#eeeeee" stroke="none" font-family="Arial" font-size="24px" font-style="normal" font-weight="normal" text-decoration="none" x="600" y="150">UNREGISTERED</text><text fill="#eeeeee" stroke="none" font-family="Arial" font-size="24px" font-style="normal" font-weight="normal" text-decoration="none" x="600" y="180">UNREGISTERED</text><text fill="#eeeeee" stroke="none" font-family="Arial" font-size="24px" font-style="normal" font-weight="normal" text-decoration="none" x="600" y="210">UNREGISTERED</text><text fill="#eeeeee" stroke="none" font-family="Arial" font-size="24px" font-style="normal" font-weight="normal" text-decoration="none" x="600" y="240">UNREGISTERED</text><text fill="#eeeeee" stroke="none" font-family="Arial" font-size="24px" font-style="normal" font-weight="normal" text-decoration="none" x="600" y="270">UNREGISTERED</text><text fill="#eeeeee" stroke="none" font-family="Arial" font-size="24px" font-style="normal" font-weight="normal" text-decoration="none" x="800" y="0">UNREGISTERED</text><text fill="#eeeeee" stroke="none" font-family="Arial" font-size="24px" font-style="normal" font-weight="normal" text-decoration="none" x="800" y="30">UNREGISTERED</text><text fill="#eeeeee" stroke="none" font-family="Arial" font-size="24px" font-style="normal" font-weight="normal" text-decoration="none" x="800" y="60">UNREGISTERED</text><text fill="#eeeeee" stroke="none" font-family="Arial" font-size="24px" font-style="normal" font-weight="normal" text-decoration="none" x="800" y="90">UNREGISTERED</text><text fill="#eeeeee" stroke="none" font-family="Arial" font-size="24px" font-style="normal" font-weight="normal" text-decoration="none" x="800" y="120">UNREGISTERED</text><text fill="#eeeeee" stroke="none" font-family="Arial" font-size="24px" font-style="normal" font-weight="normal" text-decoration="none" x="800" y="150">UNREGISTERED</text><text fill="#eeeeee" stroke="none" font-family="Arial" font-size="24px" font-style="normal" font-weight="normal" text-decoration="none" x="800" y="180">UNREGISTERED</text><text fill="#eeeeee" stroke="none" font-family="Arial" font-size="24px" font-style="normal" font-weight="normal" text-decoration="none" x="800" y="210">UNREGISTERED</text><text fill="#eeeeee" stroke="none" font-family="Arial" font-size="24px" font-style="normal" font-weight="normal" text-decoration="none" x="800" y="240">UNREGISTERED</text><text fill="#eeeeee" stroke="none" font-family="Arial" font-size="24px" font-style="normal" font-weight="normal" text-decoration="none" x="800" y="270">UNREGISTERED</text><g transform="translate(-334,-414) scale(1,1)"><path fill="none" stroke="#000000" d="M 344 424 L 1214 424 L 1214 688 L 344 688 L 344 424" stroke-miterlimit="10"/></g><g transform="translate(-334,-414) scale(1,1)"><path fill="#ffffff" stroke="none" d="M 344 424 L 344 446 L 547.154296875 446 L 558.154296875 435 L 558.154296875 424 L 344 424"/></g><g transform="translate(-334,-414) scale(1,1)"><path fill="none" stroke="#000000" d="M 344 424 L 344 446 L 547.154296875 446 L 558.154296875 435 L 558.154296875 424 L 344 424 L 344 424" stroke-miterlimit="10"/></g><g transform="translate(-334,-414) scale(1,1)"><g><path fill="none" stroke="none"/><text fill="#000000" stroke="none" font-family="Arial" font-size="13px" font-style="normal" font-weight="normal" text-decoration="none" x="435.9326171875" y="441.5">Asteroid Near Sun</text></g></g><g transform="translate(-334,-414) scale(1,1)"><g><path fill="none" stroke="none"/><text fill="#000000" stroke="none" font-family="Arial" font-size="13px" font-style="normal" font-weight="bold" text-decoration="none" x="349" y="441.5">state machine</text></g></g><g transform="translate(-334,-414) scale(1,1)"><path fill="#C0C0C0" stroke="none" d="M 463 544.5 C 463 539.2532944 467.2532944 535 472.5 535 C 477.7467056 535 482 539.2532944 482 544.5 C 482 549.7467056 477.7467056 554 472.5 554 C 467.2532944 554 463 549.7467056 463 544.5 Z" opacity="0.2"/></g><g transform="translate(-334,-414) scale(1,1)"><path fill="#000000" stroke="none" d="M 456 537.5 C 456 532.2532944 460.2532944 528 465.5 528 C 470.7467056 528 475 532.2532944 475 537.5 C 475 542.7467056 470.7467056 547 465.5 547 C 460.2532944 547 456 542.7467056 456 537.5 Z"/></g><g transform="translate(-334,-414) scale(1,1)"><path fill="#C0C0C0" stroke="none" d="M 513 519 L 621 519 Q 631 519 631 529 L 631 557 Q 631 567 621 567 L 513 567 Q 503 567 503 557 L 503 529 Q 503 519 513 519 Z" opacity="0.2"/></g><g transform="translate(-334,-414) scale(1,1)"><path fill="#ffffff" stroke="none" d="M 506 512 L 614 512 Q 624 512 624 522 L 624 550 Q 624 560 614 560 L 506 560 Q 496 560 496 550 L 496 522 Q 496 512 506 512 Z"/></g><g transform="translate(-334,-414) scale(1,1)"><path fill="none" stroke="#000000" d="M 506 512 L 614 512 Q 624 512 624 522 L 624 550 Q 624 560 614 560 L 506 560 Q 496 560 496 550 L 496 522 Q 496 512 506 512 Z" stroke-miterlimit="10"/></g><g transform="translate(-334,-414) scale(1,1)"><g><path fill="none" stroke="none"/><text fill="#000000" stroke="none" font-family="Arial" font-size="13px" font-style="normal" font-weight="bold" text-decoration="none" x="520.619140625" y="531.5">Not Near Sun</text></g></g><g transform="translate(-334,-414) scale(1,1)"><path fill="none" stroke="#000000" d="M 476 537 L 495 537" stroke-miterlimit="10"/></g><g transform="translate(-334,-414) scale(1,1)"><path fill="none" stroke="#000000" d="M 484.83732514237585 541.209517756016 L 495 537 L 484.83732514237585 532.790482243984" stroke-miterlimit="10"/></g><g transform="translate(-334,-414) scale(1,1)"><path fill="#C0C0C0" stroke="none" d="M 969 511 L 1093 511 Q 1103 511 1103 521 L 1103 549 Q 1103 559 1093 559 L 969 559 Q 959 559 959 549 L 959 521 Q 959 511 969 511 Z" opacity="0.2"/></g><g transform="translate(-334,-414) scale(1,1)"><path fill="#ffffff" stroke="none" d="M 962 504 L 1086 504 Q 1096 504 1096 514 L 1096 542 Q 1096 552 1086 552 L 962 552 Q 952 552 952 542 L 952 514 Q 952 504 962 504 Z"/></g><g transform="translate(-334,-414) scale(1,1)"><path fill="none" stroke="#000000" d="M 962 504 L 1086 504 Q 1096 504 1096 514 L 1096 542 Q 1096 552 1086 552 L 962 552 Q 952 552 952 542 L 952 514 Q 952 504 962 504 Z" stroke-miterlimit="10"/></g><g transform="translate(-334,-414) scale(1,1)"><path fill="none" stroke="#000000" d="M 952 529 L 1096 529" stroke-miterlimit="10"/></g><g transform="translate(-334,-414) scale(1,1)"><g><path fill="none" stroke="none"/><text fill="#000000" stroke="none" font-family="Arial" font-size="13px" font-style="normal" font-weight="bold" text-decoration="none" x="996.5400390625" y="523.5">Near Sun</text></g></g><g transform="translate(-334,-414) scale(1,1)"><g><path fill="none" stroke="none"/><text fill="#000000" stroke="none" font-family="Arial" font-size="13px" font-style="normal" font-weight="normal" text-decoration="none" x="957" y="546.5">entry/Update</text></g></g><g transform="translate(-334,-414) scale(1,1)"><path fill="#C0C0C0" stroke="none" d="M 743 675.5 C 743 668.59644 748.59644 663 755.5 663 C 762.40356 663 768 668.59644 768 675.5 C 768 682.40356 762.40356 688 755.5 688 C 748.59644 688 743 682.40356 743 675.5 Z" opacity="0.2"/></g><g transform="translate(-334,-414) scale(1,1)"><path fill="none" stroke="#000000" d="M 736 668.5 C 736 661.59644 741.59644 656 748.5 656 C 755.40356 656 761 661.59644 761 668.5 C 761 675.40356 755.40356 681 748.5 681 C 741.59644 681 736 675.40356 736 668.5 Z" stroke-miterlimit="10"/></g><g transform="translate(-334,-414) scale(1,1)"><path fill="#000000" stroke="none" d="M 741 668.5 C 741 664.357864 744.357864 661 748.5 661 C 752.642136 661 756 664.357864 756 668.5 C 756 672.642136 752.642136 676 748.5 676 C 744.357864 676 741 672.642136 741 668.5 Z"/></g><g transform="translate(-334,-414) scale(1,1)"><path fill="none" stroke="#000000" d="M 975 553 L 762 661" stroke-miterlimit="10"/></g><g transform="translate(-334,-414) scale(1,1)"><path fill="none" stroke="#000000" d="M 769.160420801659 652.649648274284 L 762 661 L 772.9677724355489 660.1585917744557" stroke-miterlimit="10"/></g><g transform="translate(-334,-414) scale(1,1)"><g><path fill="none" stroke="none"/><text fill="#000000" stroke="none" font-family="Arial" font-size="13px" font-style="normal" font-weight="normal" text-decoration="none" x="829.8798828125" y="644.5">explode</text></g></g><g transform="translate(-334,-414) scale(1,1)"><path fill="none" stroke="#000000" d="M 625 550 L 740 576 L 951 540" stroke-miterlimit="10"/></g><g transform="translate(-334,-414) scale(1,1)"><path fill="none" stroke="#000000" d="M 941.6900700351985 545.8587715479007 L 951 540 L 940.2741082985737 537.5596624804605" stroke-miterlimit="10"/></g><g transform="translate(-334,-414) scale(1,1)"><g><path fill="none" stroke="none"/><text fill="#000000" stroke="none" font-family="Arial" font-size="13px" font-style="normal" font-weight="normal" text-decoration="none" x="715.5" y="556.5">TakeTurn [sunDistance&lt;x]</text></g></g><g transform="translate(-334,-414) scale(1,1)"><path fill="none" stroke="#000000" d="M 951 520 L 728 496 L 625 521" stroke-miterlimit="10"/></g><g transform="translate(-334,-414) scale(1,1)"><path fill="none" stroke="#000000" d="M 633.8830318146352 514.5121848222858 L 625 521 L 635.8688301408711 522.6936739263776" stroke-miterlimit="10"/></g><g transform="translate(-334,-414) scale(1,1)"><g><path fill="none" stroke="none"/><text fill="#000000" stroke="none" font-family="Arial" font-size="13px" font-style="normal" font-weight="normal" text-decoration="none" x="723.7236328125" y="484.5">TakeTurn [sunDistance&gt;x]</text></g></g><g transform="translate(-334,-414) scale(1,1)"><path fill="none" stroke="#000000" d="M 1024 504 L 1024 484 L 1126 484 L 1126 528 L 1096 528" stroke-miterlimit="10"/></g><g transform="translate(-334,-414) scale(1,1)"><path fill="none" stroke="#000000" d="M 1106.162674857624 523.790482243984 L 1096 528 L 1106.162674857624 532.209517756016" stroke-miterlimit="10"/></g><g transform="translate(-334,-414) scale(1,1)"><g><path fill="none" stroke="none"/><text fill="#000000" stroke="none" font-family="Arial" font-size="13px" font-style="normal" font-weight="normal" text-decoration="none" x="1022.5" y="475.5">TakeTurn [sunDistance&lt;x]</text></g></g></g></svg>