<svg version="1.1" xmlns="http://www.w3.org/2000/svg" xmlns:xlink="http://www.w3.org/1999/xlink" width="764" height="378"><defs/><g><text fill="#eeeeee" stroke="none" font-family="Arial" font-size="24px" font-style="normal" font-weight="normal" text-decoration="none" x="0" y="0">UNREGISTERED</text><text fill="#eeeeee" stroke="none" font-family="Arial" font-size="24px" font-style="normal" font-weight="normal" text-decoration="none" x="0" y="30">UNREGISTERED</text><text fill="#eeeeee" stroke="none" font-family="Arial" font-size="24px" font-style="normal" font-weight="normal" text-decoration="none" x="0" y="60">UNREGISTERED</text><text fill="#eeeeee" stroke="none" font-family="Arial" font-size="24px" font-style="normal" font-weight="normal" text-decoration="none" x="0" y="90">UNREGISTERED</text><text fill="#eeeeee" stroke="none" font-family="Arial" font-size="24px" font-style="normal" font-weight="normal" text-decoration="none" x="0" y="120">UNREGISTERED</text><text fill="#eeeeee" stroke="none" font-family="Arial" font-size="24px" font-style="normal" font-weight="normal" text-decoration="none" x="0" y="150">UNREGISTERED</text><text fill="#eeeeee" stroke="none" font-family="Arial" font-size="24px" font-style="normal" font-weight="normal" text-decoration="none" x="0" y="180">UNREGISTERED</text><text fill="#eeeeee" stroke="none" font-family="Arial" font-size="24px" font-style="normal" font-weight="normal" text-decoration="none" x="0" y="210">UNREGISTERED</text><text fill="#eeeeee" stroke="none" font-family="Arial" font-size="24px" font-style="normal" font-weight="normal" text-decoration="none" x="0" y="240">UNREGISTERED</text><text fill="#eeeeee" stroke="none" font-family="Arial" font-size="24px" font-style="normal" font-weight="normal" text-decoration="none" x="0" y="270">UNREGISTERED</text><text fill="#eeeeee" stroke="none" font-family="Arial" font-size="24px" font-style="normal" font-weight="normal" text-decoration="none" x="0" y="300">UNREGISTERED</text><text fill="#eeeeee" stroke="none" font-family="Arial" font-size="24px" font-style="normal" font-weight="normal" text-decoration="none" x="0" y="330">UNREGISTERED</text><text fill="#eeeeee" stroke="none" font-family="Arial" font-size="24px" font-style="normal" font-weight="normal" text-decoration="none" x="0" y="360">UNREGISTERED</text><text fill="#eeeeee" stroke="none" font-family="Arial" font-size="24px" font-style="normal" font-weight="normal" text-decoration="none" x="200" y="0">UNREGISTERED</text><text fill="#eeeeee" stroke="none" font-family="Arial" font-size="24px" font-style="normal" font-weight="normal" text-decoration="none" x="200" y="30">UNREGISTERED</text><text fill="#eeeeee" stroke="none" font-family="Arial" font-size="24px" font-style="normal" font-weight="normal" text-decoration="none" x="200" y="60">UNREGISTERED</text><text fill="#eeeeee" stroke="none" font-family="Arial" font-size="24px" font-style="normal" font-weight="normal" text-decoration="none" x="200" y="90">UNREGISTERED</text><text fill="#eeeeee" stroke="none" font-family="Arial" font-size="24px" font-style="normal" font-weight="normal" text-decoration="none" x="200" y="120">UNREGISTERED</text><text fill="#eeeeee" stroke="none" font-family="Arial" font-size="24px" font-style="normal" font-weight="normal" text-decoration="none" x="200" y="150">UNREGISTERED</text><text fill="#eeeeee" stroke="none" font-family="Arial" font-size="24px" font-style="normal" font-weight="normal" text-decoration="none" x="200" y="180">UNREGISTERED</text><text fill="#eeeeee" stroke="none" font-family="Arial" font-size="24px" font-style="normal" font-weight="normal" text-decoration="none" x="200" y="210">UNREGISTERED</text><text fill="#eeeeee" stroke="none" font-family="Arial" font-size="24px" font-style="normal" font-weight="normal" text-decoration="none" x="200" y="240">UNREGISTERED</text><text fill="#eeeeee" stroke="none" font-family="Arial" font-size="24px" font-style="normal" font-weight="normal" text-decoration="none" x="200" y="270">UNREGISTERED</text><text fill="#eeeeee" stroke="none" font-family="Arial" font-size="24px" font-style="normal" font-weight="normal" text-decoration="none" x="200" y="300">UNREGISTERED</text><text fill="#eeeeee" stroke="none" font-family="Arial" font-size="24px" font-style="normal" font-weight="normal" text-decoration="none" x="200" y="330">UNREGISTERED</text><text fill="#eeeeee" stroke="none" font-family="Arial" font-size="24px" font-style="normal" font-weight="normal" text-decoration="none" x="200" y="360">UNREGISTERED</text><text fill="#eeeeee" stroke="none" font-family="Arial" font-size="24px" font-style="normal" font-weight="normal" text-decoration="none" x="400" y="0">UNREGISTERED</text><text fill="#eeeeee" stroke="none" font-family="Arial" font-size="24px" font-style="normal" font-weight="normal" text-decoration="none" x="400" y="30">UNREGISTERED</text><text fill="#eeeeee" stroke="none" font-family="Arial" font-size="24px" font-style="normal" font-weight="normal" text-decoration="none" x="400" y="60">UNREGISTERED</text><text fill="#eeeeee" stroke="none" font-family="Arial" font-size="24px" font-style="normal" font-weight="normal" text-decoration="none" x="400" y="90">UNREGISTERED</text><text fill="#eeeeee" stroke="none" font-family="Arial" font-size="24px" font-style="normal" font-weight="normal" text-decoration="none" x="400" y="120">UNREGISTERED</text><text fill="#eeeeee" stroke="none" font-family="Arial" font-size="24px" font-style="normal" font-weight="normal" text-decoration="none" x="400" y="150">UNREGISTERED</text><text fill="#eeeeee" stroke="none" font-family="Arial" font-size="24px" font-style="normal" font-weight="normal" text-decoration="none" x="400" y="180">UNREGISTERED</text><text fill="#eeeeee" stroke="none" font-family="Arial" font-size="24px" font-style="normal" font-weight="normal" text-decoration="none" x="400" y="210">UNREGISTERED</text><text fill="#eeeeee" stroke="none" font-family="Arial" font-size="24px" font-style="normal" font-weight="normal" text-decoration="none" x="400" y="240">UNREGISTERED</text><text fill="#eeeeee" stroke="none" font-family="Arial" font-size="24px" font-style="normal" font-weight="normal" text-decoration="none" x="400" y="270">UNREGISTERED</text><text fill="#eeeeee" stroke="none" font-family="Arial" font-size="24px" font-style="normal" font-weight="normal" text-decoration="none" x="400" y="300">UNREGISTERED</text><text fill="#eeeeee" stroke="none" font-family="Arial" font-size="24px" font-style="normal" font-weight="normal" text-decoration="none" x="400" y="330">UNREGISTERED</text><text fill="#eeeeee" stroke="none" font-family="Arial" font-size="24px" font-style="normal" font-weight="normal" text-decoration="none" x="400" y="360">UNREGISTERED</text><text fill="#eeeeee" stroke="none" font-family="Arial" font-size="24px" font-style="normal" font-weight="normal" text-decoration="none" x="600" y="0">UNREGISTERED</text><text fill="#eeeeee" stroke="none" font-family="Arial" font-size="24px" font-style="normal" font-weight="normal" text-decoration="none" x="600" y="30">UNREGISTERED</text><text fill="#eeeeee" stroke="none" font-family="Arial" font-size="24px" font-style="normal" font-weight="normal" text-decoration="none" x="600" y="60">UNREGISTERED</text><text fill="#eeeeee" stroke="none" font-family="Arial" font-size="24px" font-style="normal" font-weight="normal" text-decoration="none" x="600" y="90">UNREGISTERED</text><text fill="#eeeeee" stroke="none" font-family="Arial" font-size="24px" font-style="normal" font-weight="normal" text-decoration="none" x="600" y="120">UNREGISTERED</text><text fill="#eeeeee" stroke="none" font-family="Arial" font-size="24px" font-style="normal" font-weight="normal" text-decoration="none" x="600" y="150">UNREGISTERED</text><text fill="#eeeeee" stroke="none" font-family="Arial" font-size="24px" font-style="normal" font-weight="normal" text-decoration="none" x="600" y="180">UNREGISTERED</text><text fill="#eeeeee" stroke="none" font-family="Arial" font-size="24px" font-style="normal" font-weight="normal" text-decoration="none" x="600" y="210">UNREGISTERED</text><text fill="#eeeeee" stroke="none" font-family="Arial" font-size="24px" font-style="normal" font-weight="normal" text-decoration="none" x="600" y="240">UNREGISTERED</text><text fill="#eeeeee" stroke="none" font-family="Arial" font-size="24px" font-style="normal" font-weight="normal" text-decoration="none" x="600" y="270">UNREGISTERED</text><text fill="#eeeeee" stroke="none" font-family="Arial" font-size="24px" font-style="normal" font-weight="normal" text-decoration="none" x="600" y="300">UNREGISTERED</text><text fill="#eeeeee" stroke="none" font-family="Arial" font-size="24px" font-style="normal" font-weight="normal" text-decoration="none" x="600" y="330">UNREGISTERED</text><text fill="#eeeeee" stroke="none" font-family="Arial" font-size="24px" font-style="normal" font-weight="normal" text-decoration="none" x="600" y="360">UNREGISTERED</text><g transform="translate(-54,2) scale(1,1)"><path fill="none" stroke="#000000" d="M 168 8 L 808 8 L 808 320 L 168 320 L 168 8" stroke-miterlimit="10"/></g><g transform="translate(-54,2) scale(1,1)"><path fill="#ffffff" stroke="none" d="M 168 8 L 168 30 L 312.62890625 30 L 323.62890625 19 L 323.62890625 8 L 168 8"/></g><g transform="translate(-54,2) scale(1,1)"><path fill="none" stroke="#000000" d="M 168 8 L 168 30 L 312.62890625 30 L 323.62890625 19 L 323.62890625 8 L 168 8 L 168 8" stroke-miterlimit="10"/></g><g transform="translate(-54,2) scale(1,1)"><g><path fill="none" stroke="none"/><text fill="#000000" stroke="none" font-family="Arial" font-size="13px" font-style="normal" font-weight="normal" text-decoration="none" x="192.72998046875" y="25.5">SpaceShip mine fail</text></g></g><g transform="translate(-54,2) scale(1,1)"><g><path fill="none" stroke="none"/><text fill="#000000" stroke="none" font-family="Arial" font-size="13px" font-style="normal" font-weight="bold" text-decoration="none" x="173" y="25.5">sd</text></g></g><g transform="translate(-54,2) scale(1,1)"><rect fill="#C0C0C0" stroke="none" x="303" y="47" width="146.1435546875" height="39" opacity="0.2"/></g><g transform="translate(-54,2) scale(1,1)"><rect fill="#ffffff" stroke="none" x="296" y="40" width="146.1435546875" height="39"/></g><g transform="translate(-54,2) scale(1,1)"><path fill="none" stroke="#000000" d="M 296 40 L 442.1435546875 40 L 442.1435546875 79 L 296 79 L 296 40 Z Z" stroke-miterlimit="10"/></g><g transform="translate(-54,2) scale(1,1)"><g><path fill="none" stroke="none"/><text fill="#000000" stroke="none" font-family="Arial" font-size="13px" font-style="normal" font-weight="bold" text-decoration="none" x="330.77001953125" y="59.5">s: SpaceShip</text></g></g><g transform="translate(-54,2) scale(1,1)"><path fill="none" stroke="#000000" d="M 370.5 80 L 370.5 366" stroke-miterlimit="10" stroke-dasharray="3"/></g><g transform="translate(-54,2) scale(1,1)"><rect fill="#C0C0C0" stroke="none" x="536" y="47" width="249.5849609375" height="39" opacity="0.2"/></g><g transform="translate(-54,2) scale(1,1)"><rect fill="#ffffff" stroke="none" x="529" y="40" width="249.5849609375" height="39"/></g><g transform="translate(-54,2) scale(1,1)"><path fill="none" stroke="#000000" d="M 529 40 L 778.5849609375 40 L 778.5849609375 79 L 529 79 L 529 40 Z Z" stroke-miterlimit="10"/></g><g transform="translate(-54,2) scale(1,1)"><g><path fill="none" stroke="none"/><text fill="#000000" stroke="none" font-family="Arial" font-size="13px" font-style="normal" font-weight="bold" text-decoration="none" x="582.2607421875" y="59.5">currentAsteroid: Asteroid</text></g></g><g transform="translate(-54,2) scale(1,1)"><path fill="none" stroke="#000000" d="M 654.5 80 L 654.5 366" stroke-miterlimit="10" stroke-dasharray="3"/></g><g transform="translate(-54,2) scale(1,1)"><path fill="#000000" stroke="none" d="M 64 104.5 C 64 100.6340064 67.1340064 97.5 71 97.5 C 74.8659936 97.5 78 100.6340064 78 104.5 C 78 108.3659936 74.8659936 111.5 71 111.5 C 67.1340064 111.5 64 108.3659936 64 104.5 Z"/></g><g transform="translate(-54,2) scale(1,1)"><path fill="#000000" stroke="none" d="M 75 287.5 C 75 283.6340064 78.1340064 280.5 82 280.5 C 85.8659936 280.5 89 283.6340064 89 287.5 C 89 291.3659936 85.8659936 294.5 82 294.5 C 78.1340064 294.5 75 291.3659936 75 287.5 Z"/></g><g transform="translate(-54,2) scale(1,1)"><path fill="none" stroke="#000000" d="M 78 105 L 363 105" stroke-miterlimit="10"/></g><g transform="translate(-54,2) scale(1,1)"><path fill="#000000" stroke="none" d="M 352.83732514237585 109.20951775601598 L 363 105 L 352.83732514237585 100.79048224398402"/></g><g transform="translate(-54,2) scale(1,1)"><path fill="none" stroke="#000000" d="M 352.83732514237585 109.20951775601598 L 363 105 L 352.83732514237585 100.79048224398402 L 352.83732514237585 109.20951775601598" stroke-miterlimit="10"/></g><g transform="translate(-54,2) scale(1,1)"><g><path fill="none" stroke="none"/><text fill="#000000" stroke="none" font-family="Arial" font-size="13px" font-style="normal" font-weight="normal" text-decoration="none" x="192.07177734375" y="101.5">1 : Mine()</text></g></g><g transform="translate(-54,2) scale(1,1)"><rect fill="#ffffff" stroke="none" x="363" y="105" width="13" height="191"/></g><g transform="translate(-54,2) scale(1,1)"><path fill="none" stroke="#000000" d="M 363 105 L 376 105 L 376 296 L 363 296 L 363 105 Z Z" stroke-miterlimit="10"/></g><g transform="translate(-54,2) scale(1,1)"><path fill="none" stroke="#000000" d="M 376 152 L 647 152" stroke-miterlimit="10"/></g><g transform="translate(-54,2) scale(1,1)"><path fill="#000000" stroke="none" d="M 636.8373251423759 156.209517756016 L 647 152 L 636.8373251423758 147.790482243984"/></g><g transform="translate(-54,2) scale(1,1)"><path fill="none" stroke="#000000" d="M 636.8373251423759 156.209517756016 L 647 152 L 636.8373251423758 147.790482243984 L 636.8373251423759 156.209517756016" stroke-miterlimit="10"/></g><g transform="translate(-54,2) scale(1,1)"><g><path fill="none" stroke="none"/><text fill="#000000" stroke="none" font-family="Arial" font-size="13px" font-style="normal" font-weight="normal" text-decoration="none" x="483.07177734375" y="148.5">2 : Mine()</text></g></g><g transform="translate(-54,2) scale(1,1)"><rect fill="#ffffff" stroke="none" x="647" y="152" width="13" height="112"/></g><g transform="translate(-54,2) scale(1,1)"><path fill="none" stroke="#000000" d="M 647 152 L 660 152 L 660 264 L 647 264 L 647 152 Z Z" stroke-miterlimit="10"/></g><g transform="translate(-54,2) scale(1,1)"><path fill="none" stroke="#000000" d="M 647 256 L 376 256" stroke-miterlimit="10" stroke-dasharray="3"/></g><g transform="translate(-54,2) scale(1,1)"><path fill="none" stroke="#000000" d="M 386.16267485762415 251.790482243984 L 376 256 L 386.16267485762415 260.209517756016" stroke-miterlimit="10"/></g><g transform="translate(-54,2) scale(1,1)"><g><path fill="none" stroke="none"/><text fill="#000000" stroke="none" font-family="Arial" font-size="13px" font-style="normal" font-weight="normal" text-decoration="none" x="491.2626953125" y="272.5">3 : null</text></g></g><g transform="translate(-54,2) scale(1,1)"><path fill="none" stroke="#000000" d="M 363 288 L 89 288" stroke-miterlimit="10" stroke-dasharray="3"/></g><g transform="translate(-54,2) scale(1,1)"><path fill="none" stroke="#000000" d="M 99.16267485762415 283.790482243984 L 89 288 L 99.16267485762415 292.209517756016" stroke-miterlimit="10"/></g><g transform="translate(-54,2) scale(1,1)"><g><path fill="none" stroke="none"/><text fill="#000000" stroke="none" font-family="Arial" font-size="13px" font-style="normal" font-weight="normal" text-decoration="none" x="215.489501953125" y="304.5">4 : </text></g></g><g transform="translate(-54,2) scale(1,1)"><path fill="none" stroke="#000000" d="M 424 160 L 792 160 L 792 240 L 424 240 L 424 160" stroke-miterlimit="10"/></g><g transform="translate(-54,2) scale(1,1)"><path fill="#ffffff" stroke="none" d="M 424 160 L 424 182 L 496.3671875 182 L 507.3671875 171 L 507.3671875 160 L 424 160"/></g><g transform="translate(-54,2) scale(1,1)"><path fill="none" stroke="#000000" d="M 424 160 L 424 182 L 496.3671875 182 L 507.3671875 171 L 507.3671875 160 L 424 160 L 424 160" stroke-miterlimit="10"/></g><g transform="translate(-54,2) scale(1,1)"><g><path fill="none" stroke="none"/><text fill="#000000" stroke="none" font-family="Arial" font-size="13px" font-style="normal" font-weight="normal" text-decoration="none" x="453.07177734375" y="177.5">Mining</text></g></g><g transform="translate(-54,2) scale(1,1)"><g><path fill="none" stroke="none"/><text fill="#000000" stroke="none" font-family="Arial" font-size="13px" font-style="normal" font-weight="bold" text-decoration="none" x="429" y="177.5">opt</text></g></g><g transform="translate(-54,2) scale(1,1)"><g><path fill="none" stroke="none"/><text fill="#000000" stroke="none" font-family="Arial" font-size="13px" font-style="normal" font-weight="normal" text-decoration="none" x="443.5" y="210.5">[is empty]</text></g></g></g></svg>