<svg version="1.1" xmlns="http://www.w3.org/2000/svg" xmlns:xlink="http://www.w3.org/1999/xlink" width="812" height="484"><defs/><g><text fill="#eeeeee" stroke="none" font-family="Arial" font-size="24px" font-style="normal" font-weight="normal" text-decoration="none" x="0" y="0">UNREGISTERED</text><text fill="#eeeeee" stroke="none" font-family="Arial" font-size="24px" font-style="normal" font-weight="normal" text-decoration="none" x="0" y="30">UNREGISTERED</text><text fill="#eeeeee" stroke="none" font-family="Arial" font-size="24px" font-style="normal" font-weight="normal" text-decoration="none" x="0" y="60">UNREGISTERED</text><text fill="#eeeeee" stroke="none" font-family="Arial" font-size="24px" font-style="normal" font-weight="normal" text-decoration="none" x="0" y="90">UNREGISTERED</text><text fill="#eeeeee" stroke="none" font-family="Arial" font-size="24px" font-style="normal" font-weight="normal" text-decoration="none" x="0" y="120">UNREGISTERED</text><text fill="#eeeeee" stroke="none" font-family="Arial" font-size="24px" font-style="normal" font-weight="normal" text-decoration="none" x="0" y="150">UNREGISTERED</text><text fill="#eeeeee" stroke="none" font-family="Arial" font-size="24px" font-style="normal" font-weight="normal" text-decoration="none" x="0" y="180">UNREGISTERED</text><text fill="#eeeeee" stroke="none" font-family="Arial" font-size="24px" font-style="normal" font-weight="normal" text-decoration="none" x="0" y="210">UNREGISTERED</text><text fill="#eeeeee" stroke="none" font-family="Arial" font-size="24px" font-style="normal" font-weight="normal" text-decoration="none" x="0" y="240">UNREGISTERED</text><text fill="#eeeeee" stroke="none" font-family="Arial" font-size="24px" font-style="normal" font-weight="normal" text-decoration="none" x="0" y="270">UNREGISTERED</text><text fill="#eeeeee" stroke="none" font-family="Arial" font-size="24px" font-style="normal" font-weight="normal" text-decoration="none" x="0" y="300">UNREGISTERED</text><text fill="#eeeeee" stroke="none" font-family="Arial" font-size="24px" font-style="normal" font-weight="normal" text-decoration="none" x="0" y="330">UNREGISTERED</text><text fill="#eeeeee" stroke="none" font-family="Arial" font-size="24px" font-style="normal" font-weight="normal" text-decoration="none" x="0" y="360">UNREGISTERED</text><text fill="#eeeeee" stroke="none" font-family="Arial" font-size="24px" font-style="normal" font-weight="normal" text-decoration="none" x="0" y="390">UNREGISTERED</text><text fill="#eeeeee" stroke="none" font-family="Arial" font-size="24px" font-style="normal" font-weight="normal" text-decoration="none" x="0" y="420">UNREGISTERED</text><text fill="#eeeeee" stroke="none" font-family="Arial" font-size="24px" font-style="normal" font-weight="normal" text-decoration="none" x="0" y="450">UNREGISTERED</text><text fill="#eeeeee" stroke="none" font-family="Arial" font-size="24px" font-style="normal" font-weight="normal" text-decoration="none" x="0" y="480">UNREGISTERED</text><text fill="#eeeeee" stroke="none" font-family="Arial" font-size="24px" font-style="normal" font-weight="normal" text-decoration="none" x="200" y="0">UNREGISTERED</text><text fill="#eeeeee" stroke="none" font-family="Arial" font-size="24px" font-style="normal" font-weight="normal" text-decoration="none" x="200" y="30">UNREGISTERED</text><text fill="#eeeeee" stroke="none" font-family="Arial" font-size="24px" font-style="normal" font-weight="normal" text-decoration="none" x="200" y="60">UNREGISTERED</text><text fill="#eeeeee" stroke="none" font-family="Arial" font-size="24px" font-style="normal" font-weight="normal" text-decoration="none" x="200" y="90">UNREGISTERED</text><text fill="#eeeeee" stroke="none" font-family="Arial" font-size="24px" font-style="normal" font-weight="normal" text-decoration="none" x="200" y="120">UNREGISTERED</text><text fill="#eeeeee" stroke="none" font-family="Arial" font-size="24px" font-style="normal" font-weight="normal" text-decoration="none" x="200" y="150">UNREGISTERED</text><text fill="#eeeeee" stroke="none" font-family="Arial" font-size="24px" font-style="normal" font-weight="normal" text-decoration="none" x="200" y="180">UNREGISTERED</text><text fill="#eeeeee" stroke="none" font-family="Arial" font-size="24px" font-style="normal" font-weight="normal" text-decoration="none" x="200" y="210">UNREGISTERED</text><text fill="#eeeeee" stroke="none" font-family="Arial" font-size="24px" font-style="normal" font-weight="normal" text-decoration="none" x="200" y="240">UNREGISTERED</text><text fill="#eeeeee" stroke="none" font-family="Arial" font-size="24px" font-style="normal" font-weight="normal" text-decoration="none" x="200" y="270">UNREGISTERED</text><text fill="#eeeeee" stroke="none" font-family="Arial" font-size="24px" font-style="normal" font-weight="normal" text-decoration="none" x="200" y="300">UNREGISTERED</text><text fill="#eeeeee" stroke="none" font-family="Arial" font-size="24px" font-style="normal" font-weight="normal" text-decoration="none" x="200" y="330">UNREGISTERED</text><text fill="#eeeeee" stroke="none" font-family="Arial" font-size="24px" font-style="normal" font-weight="normal" text-decoration="none" x="200" y="360">UNREGISTERED</text><text fill="#eeeeee" stroke="none" font-family="Arial" font-size="24px" font-style="normal" font-weight="normal" text-decoration="none" x="200" y="390">UNREGISTERED</text><text fill="#eeeeee" stroke="none" font-family="Arial" font-size="24px" font-style="normal" font-weight="normal" text-decoration="none" x="200" y="420">UNREGISTERED</text><text fill="#eeeeee" stroke="none" font-family="Arial" font-size="24px" font-style="normal" font-weight="normal" text-decoration="none" x="200" y="450">UNREGISTERED</text><text fill="#eeeeee" stroke="none" font-family="Arial" font-size="24px" font-style="normal" font-weight="normal" text-decoration="none" x="200" y="480">UNREGISTERED</text><text fill="#eeeeee" stroke="none" font-family="Arial" font-size="24px" font-style="normal" font-weight="normal" text-decoration="none" x="400" y="0">UNREGISTERED</text><text fill="#eeeeee" stroke="none" font-family="Arial" font-size="24px" font-style="normal" font-weight="normal" text-decoration="none" x="400" y="30">UNREGISTERED</text><text fill="#eeeeee" stroke="none" font-family="Arial" font-size="24px" font-style="normal" font-weight="normal" text-decoration="none" x="400" y="60">UNREGISTERED</text><text fill="#eeeeee" stroke="none" font-family="Arial" font-size="24px" font-style="normal" font-weight="normal" text-decoration="none" x="400" y="90">UNREGISTERED</text><text fill="#eeeeee" stroke="none" font-family="Arial" font-size="24px" font-style="normal" font-weight="normal" text-decoration="none" x="400" y="120">UNREGISTERED</text><text fill="#eeeeee" stroke="none" font-family="Arial" font-size="24px" font-style="normal" font-weight="normal" text-decoration="none" x="400" y="150">UNREGISTERED</text><text fill="#eeeeee" stroke="none" font-family="Arial" font-size="24px" font-style="normal" font-weight="normal" text-decoration="none" x="400" y="180">UNREGISTERED</text><text fill="#eeeeee" stroke="none" font-family="Arial" font-size="24px" font-style="normal" font-weight="normal" text-decoration="none" x="400" y="210">UNREGISTERED</text><text fill="#eeeeee" stroke="none" font-family="Arial" font-size="24px" font-style="normal" font-weight="normal" text-decoration="none" x="400" y="240">UNREGISTERED</text><text fill="#eeeeee" stroke="none" font-family="Arial" font-size="24px" font-style="normal" font-weight="normal" text-decoration="none" x="400" y="270">UNREGISTERED</text><text fill="#eeeeee" stroke="none" font-family="Arial" font-size="24px" font-style="normal" font-weight="normal" text-decoration="none" x="400" y="300">UNREGISTERED</text><text fill="#eeeeee" stroke="none" font-family="Arial" font-size="24px" font-style="normal" font-weight="normal" text-decoration="none" x="400" y="330">UNREGISTERED</text><text fill="#eeeeee" stroke="none" font-family="Arial" font-size="24px" font-style="normal" font-weight="normal" text-decoration="none" x="400" y="360">UNREGISTERED</text><text fill="#eeeeee" stroke="none" font-family="Arial" font-size="24px" font-style="normal" font-weight="normal" text-decoration="none" x="400" y="390">UNREGISTERED</text><text fill="#eeeeee" stroke="none" font-family="Arial" font-size="24px" font-style="normal" font-weight="normal" text-decoration="none" x="400" y="420">UNREGISTERED</text><text fill="#eeeeee" stroke="none" font-family="Arial" font-size="24px" font-style="normal" font-weight="normal" text-decoration="none" x="400" y="450">UNREGISTERED</text><text fill="#eeeeee" stroke="none" font-family="Arial" font-size="24px" font-style="normal" font-weight="normal" text-decoration="none" x="400" y="480">UNREGISTERED</text><text fill="#eeeeee" stroke="none" font-family="Arial" font-size="24px" font-style="normal" font-weight="normal" text-decoration="none" x="600" y="0">UNREGISTERED</text><text fill="#eeeeee" stroke="none" font-family="Arial" font-size="24px" font-style="normal" font-weight="normal" text-decoration="none" x="600" y="30">UNREGISTERED</text><text fill="#eeeeee" stroke="none" font-family="Arial" font-size="24px" font-style="normal" font-weight="normal" text-decoration="none" x="600" y="60">UNREGISTERED</text><text fill="#eeeeee" stroke="none" font-family="Arial" font-size="24px" font-style="normal" font-weight="normal" text-decoration="none" x="600" y="90">UNREGISTERED</text><text fill="#eeeeee" stroke="none" font-family="Arial" font-size="24px" font-style="normal" font-weight="normal" text-decoration="none" x="600" y="120">UNREGISTERED</text><text fill="#eeeeee" stroke="none" font-family="Arial" font-size="24px" font-style="normal" font-weight="normal" text-decoration="none" x="600" y="150">UNREGISTERED</text><text fill="#eeeeee" stroke="none" font-family="Arial" font-size="24px" font-style="normal" font-weight="normal" text-decoration="none" x="600" y="180">UNREGISTERED</text><text fill="#eeeeee" stroke="none" font-family="Arial" font-size="24px" font-style="normal" font-weight="normal" text-decoration="none" x="600" y="210">UNREGISTERED</text><text fill="#eeeeee" stroke="none" font-family="Arial" font-size="24px" font-style="normal" font-weight="normal" text-decoration="none" x="600" y="240">UNREGISTERED</text><text fill="#eeeeee" stroke="none" font-family="Arial" font-size="24px" font-style="normal" font-weight="normal" text-decoration="none" x="600" y="270">UNREGISTERED</text><text fill="#eeeeee" stroke="none" font-family="Arial" font-size="24px" font-style="normal" font-weight="normal" text-decoration="none" x="600" y="300">UNREGISTERED</text><text fill="#eeeeee" stroke="none" font-family="Arial" font-size="24px" font-style="normal" font-weight="normal" text-decoration="none" x="600" y="330">UNREGISTERED</text><text fill="#eeeeee" stroke="none" font-family="Arial" font-size="24px" font-style="normal" font-weight="normal" text-decoration="none" x="600" y="360">UNREGISTERED</text><text fill="#eeeeee" stroke="none" font-family="Arial" font-size="24px" font-style="normal" font-weight="normal" text-decoration="none" x="600" y="390">UNREGISTERED</text><text fill="#eeeeee" stroke="none" font-family="Arial" font-size="24px" font-style="normal" font-weight="normal" text-decoration="none" x="600" y="420">UNREGISTERED</text><text fill="#eeeeee" stroke="none" font-family="Arial" font-size="24px" font-style="normal" font-weight="normal" text-decoration="none" x="600" y="450">UNREGISTERED</text><text fill="#eeeeee" stroke="none" font-family="Arial" font-size="24px" font-style="normal" font-weight="normal" text-decoration="none" x="600" y="480">UNREGISTERED</text><text fill="#eeeeee" stroke="none" font-family="Arial" font-size="24px" font-style="normal" font-weight="normal" text-decoration="none" x="800" y="0">UNREGISTERED</text><text fill="#eeeeee" stroke="none" font-family="Arial" font-size="24px" font-style="normal" font-weight="normal" text-decoration="none" x="800" y="30">UNREGISTERED</text><text fill="#eeeeee" stroke="none" font-family="Arial" font-size="24px" font-style="normal" font-weight="normal" text-decoration="none" x="800" y="60">UNREGISTERED</text><text fill="#eeeeee" stroke="none" font-family="Arial" font-size="24px" font-style="normal" font-weight="normal" text-decoration="none" x="800" y="90">UNREGISTERED</text><text fill="#eeeeee" stroke="none" font-family="Arial" font-size="24px" font-style="normal" font-weight="normal" text-decoration="none" x="800" y="120">UNREGISTERED</text><text fill="#eeeeee" stroke="none" font-family="Arial" font-size="24px" font-style="normal" font-weight="normal" text-decoration="none" x="800" y="150">UNREGISTERED</text><text fill="#eeeeee" stroke="none" font-family="Arial" font-size="24px" font-style="normal" font-weight="normal" text-decoration="none" x="800" y="180">UNREGISTERED</text><text fill="#eeeeee" stroke="none" font-family="Arial" font-size="24px" font-style="normal" font-weight="normal" text-decoration="none" x="800" y="210">UNREGISTERED</text><text fill="#eeeeee" stroke="none" font-family="Arial" font-size="24px" font-style="normal" font-weight="normal" text-decoration="none" x="800" y="240">UNREGISTERED</text><text fill="#eeeeee" stroke="none" font-family="Arial" font-size="24px" font-style="normal" font-weight="normal" text-decoration="none" x="800" y="270">UNREGISTERED</text><text fill="#eeeeee" stroke="none" font-family="Arial" font-size="24px" font-style="normal" font-weight="normal" text-decoration="none" x="800" y="300">UNREGISTERED</text><text fill="#eeeeee" stroke="none" font-family="Arial" font-size="24px" font-style="normal" font-weight="normal" text-decoration="none" x="800" y="330">UNREGISTERED</text><text fill="#eeeeee" stroke="none" font-family="Arial" font-size="24px" font-style="normal" font-weight="normal" text-decoration="none" x="800" y="360">UNREGISTERED</text><text fill="#eeeeee" stroke="none" font-family="Arial" font-size="24px" font-style="normal" font-weight="normal" text-decoration="none" x="800" y="390">UNREGISTERED</text><text fill="#eeeeee" stroke="none" font-family="Arial" font-size="24px" font-style="normal" font-weight="normal" text-decoration="none" x="800" y="420">UNREGISTERED</text><text fill="#eeeeee" stroke="none" font-family="Arial" font-size="24px" font-style="normal" font-weight="normal" text-decoration="none" x="800" y="450">UNREGISTERED</text><text fill="#eeeeee" stroke="none" font-family="Arial" font-size="24px" font-style="normal" font-weight="normal" text-decoration="none" x="800" y="480">UNREGISTERED</text><g transform="translate(-62,2) scale(1,1)"><path fill="none" stroke="#000000" d="M 136 8 L 864 8 L 864 472 L 136 472 L 136 8" stroke-miterlimit="10"/></g><g transform="translate(-62,2) scale(1,1)"><path fill="#ffffff" stroke="none" d="M 136 8 L 136 30 L 227.8671875 30 L 238.8671875 19 L 238.8671875 8 L 136 8"/></g><g transform="translate(-62,2) scale(1,1)"><path fill="none" stroke="#000000" d="M 136 8 L 136 30 L 227.8671875 30 L 238.8671875 19 L 238.8671875 8 L 136 8 L 136 8" stroke-miterlimit="10"/></g><g transform="translate(-62,2) scale(1,1)"><g><path fill="none" stroke="none"/><text fill="#000000" stroke="none" font-family="Arial" font-size="13px" font-style="normal" font-weight="normal" text-decoration="none" x="160.72998046875" y="25.5">Vessel drill</text></g></g><g transform="translate(-62,2) scale(1,1)"><g><path fill="none" stroke="none"/><text fill="#000000" stroke="none" font-family="Arial" font-size="13px" font-style="normal" font-weight="bold" text-decoration="none" x="141" y="25.5">sd</text></g></g><g transform="translate(-62,2) scale(1,1)"><rect fill="#C0C0C0" stroke="none" x="231" y="47" width="120.16259765625" height="39" opacity="0.2"/></g><g transform="translate(-62,2) scale(1,1)"><rect fill="#ffffff" stroke="none" x="224" y="40" width="120.16259765625" height="39"/></g><g transform="translate(-62,2) scale(1,1)"><path fill="none" stroke="#000000" d="M 224 40 L 344.16259765625 40 L 344.16259765625 79 L 224 79 L 224 40 Z Z" stroke-miterlimit="10"/></g><g transform="translate(-62,2) scale(1,1)"><g><path fill="none" stroke="none"/><text fill="#000000" stroke="none" font-family="Arial" font-size="13px" font-style="normal" font-weight="bold" text-decoration="none" x="258.068603515625" y="59.5">v: Vessel</text></g></g><g transform="translate(-62,2) scale(1,1)"><path fill="none" stroke="#000000" d="M 285.5 80 L 285.5 472" stroke-miterlimit="10" stroke-dasharray="3"/></g><g transform="translate(-62,2) scale(1,1)"><rect fill="#C0C0C0" stroke="none" x="511" y="47" width="185.47998046875" height="39" opacity="0.2"/></g><g transform="translate(-62,2) scale(1,1)"><rect fill="#ffffff" stroke="none" x="504" y="40" width="185.47998046875" height="39"/></g><g transform="translate(-62,2) scale(1,1)"><path fill="none" stroke="#000000" d="M 504 40 L 689.47998046875 40 L 689.47998046875 79 L 504 79 L 504 40 Z Z" stroke-miterlimit="10"/></g><g transform="translate(-62,2) scale(1,1)"><g><path fill="none" stroke="none"/><text fill="#000000" stroke="none" font-family="Arial" font-size="13px" font-style="normal" font-weight="bold" text-decoration="none" x="525.208251953125" y="59.5">currentAsteroid: Asteroid</text></g></g><g transform="translate(-62,2) scale(1,1)"><path fill="none" stroke="#000000" d="M 597.5 80 L 597.5 430" stroke-miterlimit="10" stroke-dasharray="3"/></g><g transform="translate(-62,2) scale(1,1)"><path fill="#000000" stroke="none" d="M 72 104.5 C 72 100.6340064 75.1340064 97.5 79 97.5 C 82.8659936 97.5 86 100.6340064 86 104.5 C 86 108.3659936 82.8659936 111.5 79 111.5 C 75.1340064 111.5 72 108.3659936 72 104.5 Z"/></g><g transform="translate(-62,2) scale(1,1)"><path fill="#000000" stroke="none" d="M 76 441.5 C 76 437.6340064 79.1340064 434.5 83 434.5 C 86.8659936 434.5 90 437.6340064 90 441.5 C 90 445.3659936 86.8659936 448.5 83 448.5 C 79.1340064 448.5 76 445.3659936 76 441.5 Z"/></g><g transform="translate(-62,2) scale(1,1)"><path fill="none" stroke="#000000" d="M 86 105 L 278 105" stroke-miterlimit="10"/></g><g transform="translate(-62,2) scale(1,1)"><path fill="#000000" stroke="none" d="M 267.83732514237585 109.20951775601598 L 278 105 L 267.83732514237585 100.79048224398402"/></g><g transform="translate(-62,2) scale(1,1)"><path fill="none" stroke="#000000" d="M 267.83732514237585 109.20951775601598 L 278 105 L 267.83732514237585 100.79048224398402 L 267.83732514237585 109.20951775601598" stroke-miterlimit="10"/></g><g transform="translate(-62,2) scale(1,1)"><g><path fill="none" stroke="none"/><text fill="#000000" stroke="none" font-family="Arial" font-size="13px" font-style="normal" font-weight="normal" text-decoration="none" x="156.969482421875" y="101.5">1 : Drill()</text></g></g><g transform="translate(-62,2) scale(1,1)"><rect fill="#ffffff" stroke="none" x="278" y="105" width="13" height="343"/></g><g transform="translate(-62,2) scale(1,1)"><path fill="none" stroke="#000000" d="M 278 105 L 291 105 L 291 448 L 278 448 L 278 105 Z Z" stroke-miterlimit="10"/></g><g transform="translate(-62,2) scale(1,1)"><path fill="none" stroke="#000000" d="M 291 120 L 590 120" stroke-miterlimit="10"/></g><g transform="translate(-62,2) scale(1,1)"><path fill="#000000" stroke="none" d="M 579.8373251423759 124.20951775601598 L 590 120 L 579.8373251423758 115.79048224398402"/></g><g transform="translate(-62,2) scale(1,1)"><path fill="none" stroke="#000000" d="M 579.8373251423759 124.20951775601598 L 590 120 L 579.8373251423758 115.79048224398402 L 579.8373251423759 124.20951775601598" stroke-miterlimit="10"/></g><g transform="translate(-62,2) scale(1,1)"><g><path fill="none" stroke="none"/><text fill="#000000" stroke="none" font-family="Arial" font-size="13px" font-style="normal" font-weight="normal" text-decoration="none" x="414.969482421875" y="116.5">2 : Drill()</text></g></g><g transform="translate(-62,2) scale(1,1)"><rect fill="#ffffff" stroke="none" x="590" y="120" width="13" height="296"/></g><g transform="translate(-62,2) scale(1,1)"><path fill="none" stroke="#000000" d="M 590 120 L 603 120 L 603 416 L 590 416 L 590 120 Z Z" stroke-miterlimit="10"/></g><g transform="translate(-62,2) scale(1,1)"><path fill="none" stroke="#000000" d="M 603 232 L 633 232 L 633 252 L 610 252" stroke-miterlimit="10"/></g><g transform="translate(-62,2) scale(1,1)"><path fill="#000000" stroke="none" d="M 620.1626748576241 247.790482243984 L 610 252 L 620.1626748576241 256.209517756016"/></g><g transform="translate(-62,2) scale(1,1)"><path fill="none" stroke="#000000" d="M 620.1626748576241 247.790482243984 L 610 252 L 620.1626748576241 256.209517756016 L 620.1626748576241 247.790482243984" stroke-miterlimit="10"/></g><g transform="translate(-62,2) scale(1,1)"><g><path fill="none" stroke="none"/><text fill="#000000" stroke="none" font-family="Arial" font-size="13px" font-style="normal" font-weight="normal" text-decoration="none" x="635.5" y="244.5">3 : crustSize - = 1</text></g></g><g transform="translate(-62,2) scale(1,1)"><rect fill="#ffffff" stroke="none" x="597" y="252" width="13" height="28"/></g><g transform="translate(-62,2) scale(1,1)"><path fill="none" stroke="#000000" d="M 597 252 L 610 252 L 610 280 L 597 280 L 597 252 Z Z" stroke-miterlimit="10"/></g><g transform="translate(-62,2) scale(1,1)"><path fill="none" stroke="#000000" d="M 590 400 L 291 400" stroke-miterlimit="10" stroke-dasharray="3"/></g><g transform="translate(-62,2) scale(1,1)"><path fill="none" stroke="#000000" d="M 301.16267485762415 395.790482243984 L 291 400 L 301.16267485762415 404.209517756016" stroke-miterlimit="10"/></g><g transform="translate(-62,2) scale(1,1)"><g><path fill="none" stroke="none"/><text fill="#000000" stroke="none" font-family="Arial" font-size="13px" font-style="normal" font-weight="normal" text-decoration="none" x="429.489501953125" y="416.5">4 : </text></g></g><g transform="translate(-62,2) scale(1,1)"><path fill="none" stroke="#000000" d="M 278 442 L 90 442" stroke-miterlimit="10" stroke-dasharray="3"/></g><g transform="translate(-62,2) scale(1,1)"><path fill="none" stroke="#000000" d="M 100.16267485762415 437.790482243984 L 90 442 L 100.16267485762415 446.209517756016" stroke-miterlimit="10"/></g><g transform="translate(-62,2) scale(1,1)"><g><path fill="none" stroke="none"/><text fill="#000000" stroke="none" font-family="Arial" font-size="13px" font-style="normal" font-weight="normal" text-decoration="none" x="173.489501953125" y="458.5">5 : </text></g></g><g transform="translate(-62,2) scale(1,1)"><path fill="none" stroke="#000000" d="M 448 208 L 824 208 L 824 320 L 448 320 L 448 208" stroke-miterlimit="10"/></g><g transform="translate(-62,2) scale(1,1)"><path fill="#ffffff" stroke="none" d="M 448 208 L 448 230 L 521.8017578125 230 L 532.8017578125 219 L 532.8017578125 208 L 448 208"/></g><g transform="translate(-62,2) scale(1,1)"><path fill="none" stroke="#000000" d="M 448 208 L 448 230 L 521.8017578125 230 L 532.8017578125 219 L 532.8017578125 208 L 448 208 L 448 208" stroke-miterlimit="10"/></g><g transform="translate(-62,2) scale(1,1)"><g><path fill="none" stroke="none"/><text fill="#000000" stroke="none" font-family="Arial" font-size="13px" font-style="normal" font-weight="normal" text-decoration="none" x="477.07177734375" y="225.5">Drilling</text></g></g><g transform="translate(-62,2) scale(1,1)"><g><path fill="none" stroke="none"/><text fill="#000000" stroke="none" font-family="Arial" font-size="13px" font-style="normal" font-weight="bold" text-decoration="none" x="453" y="225.5">opt</text></g></g><g transform="translate(-62,2) scale(1,1)"><g><path fill="none" stroke="none"/><text fill="#000000" stroke="none" font-family="Arial" font-size="13px" font-style="normal" font-weight="normal" text-decoration="none" x="467.5" y="258.5">[crustSize is not 0]</text></g></g><g transform="translate(-62,2) scale(1,1)"><path fill="none" stroke="#000000" d="M 392 136 L 848 136 L 848 368 L 392 368 L 392 136" stroke-miterlimit="10"/></g><g transform="translate(-62,2) scale(1,1)"><path fill="#ffffff" stroke="none" d="M 392 136 L 392 158 L 473.05078125 158 L 484.05078125 147 L 484.05078125 136 L 392 136"/></g><g transform="translate(-62,2) scale(1,1)"><path fill="none" stroke="#000000" d="M 392 136 L 392 158 L 473.05078125 158 L 484.05078125 147 L 484.05078125 136 L 392 136 L 392 136" stroke-miterlimit="10"/></g><g transform="translate(-62,2) scale(1,1)"><g><path fill="none" stroke="none"/><text fill="#000000" stroke="none" font-family="Arial" font-size="13px" font-style="normal" font-weight="normal" text-decoration="none" x="421.07177734375" y="153.5">Explode</text></g></g><g transform="translate(-62,2) scale(1,1)"><g><path fill="none" stroke="none"/><text fill="#000000" stroke="none" font-family="Arial" font-size="13px" font-style="normal" font-weight="bold" text-decoration="none" x="397" y="153.5">opt</text></g></g><g transform="translate(-62,2) scale(1,1)"><g><path fill="none" stroke="none"/><text fill="#000000" stroke="none" font-family="Arial" font-size="13px" font-style="normal" font-weight="normal" text-decoration="none" x="411.5" y="186.5">[is not exploded]</text></g></g></g></svg>