<svg version="1.1" xmlns="http://www.w3.org/2000/svg" xmlns:xlink="http://www.w3.org/1999/xlink" width="775" height="620"><defs/><g><text fill="#eeeeee" stroke="none" font-family="Arial" font-size="24px" font-style="normal" font-weight="normal" text-decoration="none" x="0" y="0">UNREGISTERED</text><text fill="#eeeeee" stroke="none" font-family="Arial" font-size="24px" font-style="normal" font-weight="normal" text-decoration="none" x="0" y="30">UNREGISTERED</text><text fill="#eeeeee" stroke="none" font-family="Arial" font-size="24px" font-style="normal" font-weight="normal" text-decoration="none" x="0" y="60">UNREGISTERED</text><text fill="#eeeeee" stroke="none" font-family="Arial" font-size="24px" font-style="normal" font-weight="normal" text-decoration="none" x="0" y="90">UNREGISTERED</text><text fill="#eeeeee" stroke="none" font-family="Arial" font-size="24px" font-style="normal" font-weight="normal" text-decoration="none" x="0" y="120">UNREGISTERED</text><text fill="#eeeeee" stroke="none" font-family="Arial" font-size="24px" font-style="normal" font-weight="normal" text-decoration="none" x="0" y="150">UNREGISTERED</text><text fill="#eeeeee" stroke="none" font-family="Arial" font-size="24px" font-style="normal" font-weight="normal" text-decoration="none" x="0" y="180">UNREGISTERED</text><text fill="#eeeeee" stroke="none" font-family="Arial" font-size="24px" font-style="normal" font-weight="normal" text-decoration="none" x="0" y="210">UNREGISTERED</text><text fill="#eeeeee" stroke="none" font-family="Arial" font-size="24px" font-style="normal" font-weight="normal" text-decoration="none" x="0" y="240">UNREGISTERED</text><text fill="#eeeeee" stroke="none" font-family="Arial" font-size="24px" font-style="normal" font-weight="normal" text-decoration="none" x="0" y="270">UNREGISTERED</text><text fill="#eeeeee" stroke="none" font-family="Arial" font-size="24px" font-style="normal" font-weight="normal" text-decoration="none" x="0" y="300">UNREGISTERED</text><text fill="#eeeeee" stroke="none" font-family="Arial" font-size="24px" font-style="normal" font-weight="normal" text-decoration="none" x="0" y="330">UNREGISTERED</text><text fill="#eeeeee" stroke="none" font-family="Arial" font-size="24px" font-style="normal" font-weight="normal" text-decoration="none" x="0" y="360">UNREGISTERED</text><text fill="#eeeeee" stroke="none" font-family="Arial" font-size="24px" font-style="normal" font-weight="normal" text-decoration="none" x="0" y="390">UNREGISTERED</text><text fill="#eeeeee" stroke="none" font-family="Arial" font-size="24px" font-style="normal" font-weight="normal" text-decoration="none" x="0" y="420">UNREGISTERED</text><text fill="#eeeeee" stroke="none" font-family="Arial" font-size="24px" font-style="normal" font-weight="normal" text-decoration="none" x="0" y="450">UNREGISTERED</text><text fill="#eeeeee" stroke="none" font-family="Arial" font-size="24px" font-style="normal" font-weight="normal" text-decoration="none" x="0" y="480">UNREGISTERED</text><text fill="#eeeeee" stroke="none" font-family="Arial" font-size="24px" font-style="normal" font-weight="normal" text-decoration="none" x="0" y="510">UNREGISTERED</text><text fill="#eeeeee" stroke="none" font-family="Arial" font-size="24px" font-style="normal" font-weight="normal" text-decoration="none" x="0" y="540">UNREGISTERED</text><text fill="#eeeeee" stroke="none" font-family="Arial" font-size="24px" font-style="normal" font-weight="normal" text-decoration="none" x="0" y="570">UNREGISTERED</text><text fill="#eeeeee" stroke="none" font-family="Arial" font-size="24px" font-style="normal" font-weight="normal" text-decoration="none" x="0" y="600">UNREGISTERED</text><text fill="#eeeeee" stroke="none" font-family="Arial" font-size="24px" font-style="normal" font-weight="normal" text-decoration="none" x="200" y="0">UNREGISTERED</text><text fill="#eeeeee" stroke="none" font-family="Arial" font-size="24px" font-style="normal" font-weight="normal" text-decoration="none" x="200" y="30">UNREGISTERED</text><text fill="#eeeeee" stroke="none" font-family="Arial" font-size="24px" font-style="normal" font-weight="normal" text-decoration="none" x="200" y="60">UNREGISTERED</text><text fill="#eeeeee" stroke="none" font-family="Arial" font-size="24px" font-style="normal" font-weight="normal" text-decoration="none" x="200" y="90">UNREGISTERED</text><text fill="#eeeeee" stroke="none" font-family="Arial" font-size="24px" font-style="normal" font-weight="normal" text-decoration="none" x="200" y="120">UNREGISTERED</text><text fill="#eeeeee" stroke="none" font-family="Arial" font-size="24px" font-style="normal" font-weight="normal" text-decoration="none" x="200" y="150">UNREGISTERED</text><text fill="#eeeeee" stroke="none" font-family="Arial" font-size="24px" font-style="normal" font-weight="normal" text-decoration="none" x="200" y="180">UNREGISTERED</text><text fill="#eeeeee" stroke="none" font-family="Arial" font-size="24px" font-style="normal" font-weight="normal" text-decoration="none" x="200" y="210">UNREGISTERED</text><text fill="#eeeeee" stroke="none" font-family="Arial" font-size="24px" font-style="normal" font-weight="normal" text-decoration="none" x="200" y="240">UNREGISTERED</text><text fill="#eeeeee" stroke="none" font-family="Arial" font-size="24px" font-style="normal" font-weight="normal" text-decoration="none" x="200" y="270">UNREGISTERED</text><text fill="#eeeeee" stroke="none" font-family="Arial" font-size="24px" font-style="normal" font-weight="normal" text-decoration="none" x="200" y="300">UNREGISTERED</text><text fill="#eeeeee" stroke="none" font-family="Arial" font-size="24px" font-style="normal" font-weight="normal" text-decoration="none" x="200" y="330">UNREGISTERED</text><text fill="#eeeeee" stroke="none" font-family="Arial" font-size="24px" font-style="normal" font-weight="normal" text-decoration="none" x="200" y="360">UNREGISTERED</text><text fill="#eeeeee" stroke="none" font-family="Arial" font-size="24px" font-style="normal" font-weight="normal" text-decoration="none" x="200" y="390">UNREGISTERED</text><text fill="#eeeeee" stroke="none" font-family="Arial" font-size="24px" font-style="normal" font-weight="normal" text-decoration="none" x="200" y="420">UNREGISTERED</text><text fill="#eeeeee" stroke="none" font-family="Arial" font-size="24px" font-style="normal" font-weight="normal" text-decoration="none" x="200" y="450">UNREGISTERED</text><text fill="#eeeeee" stroke="none" font-family="Arial" font-size="24px" font-style="normal" font-weight="normal" text-decoration="none" x="200" y="480">UNREGISTERED</text><text fill="#eeeeee" stroke="none" font-family="Arial" font-size="24px" font-style="normal" font-weight="normal" text-decoration="none" x="200" y="510">UNREGISTERED</text><text fill="#eeeeee" stroke="none" font-family="Arial" font-size="24px" font-style="normal" font-weight="normal" text-decoration="none" x="200" y="540">UNREGISTERED</text><text fill="#eeeeee" stroke="none" font-family="Arial" font-size="24px" font-style="normal" font-weight="normal" text-decoration="none" x="200" y="570">UNREGISTERED</text><text fill="#eeeeee" stroke="none" font-family="Arial" font-size="24px" font-style="normal" font-weight="normal" text-decoration="none" x="200" y="600">UNREGISTERED</text><text fill="#eeeeee" stroke="none" font-family="Arial" font-size="24px" font-style="normal" font-weight="normal" text-decoration="none" x="400" y="0">UNREGISTERED</text><text fill="#eeeeee" stroke="none" font-family="Arial" font-size="24px" font-style="normal" font-weight="normal" text-decoration="none" x="400" y="30">UNREGISTERED</text><text fill="#eeeeee" stroke="none" font-family="Arial" font-size="24px" font-style="normal" font-weight="normal" text-decoration="none" x="400" y="60">UNREGISTERED</text><text fill="#eeeeee" stroke="none" font-family="Arial" font-size="24px" font-style="normal" font-weight="normal" text-decoration="none" x="400" y="90">UNREGISTERED</text><text fill="#eeeeee" stroke="none" font-family="Arial" font-size="24px" font-style="normal" font-weight="normal" text-decoration="none" x="400" y="120">UNREGISTERED</text><text fill="#eeeeee" stroke="none" font-family="Arial" font-size="24px" font-style="normal" font-weight="normal" text-decoration="none" x="400" y="150">UNREGISTERED</text><text fill="#eeeeee" stroke="none" font-family="Arial" font-size="24px" font-style="normal" font-weight="normal" text-decoration="none" x="400" y="180">UNREGISTERED</text><text fill="#eeeeee" stroke="none" font-family="Arial" font-size="24px" font-style="normal" font-weight="normal" text-decoration="none" x="400" y="210">UNREGISTERED</text><text fill="#eeeeee" stroke="none" font-family="Arial" font-size="24px" font-style="normal" font-weight="normal" text-decoration="none" x="400" y="240">UNREGISTERED</text><text fill="#eeeeee" stroke="none" font-family="Arial" font-size="24px" font-style="normal" font-weight="normal" text-decoration="none" x="400" y="270">UNREGISTERED</text><text fill="#eeeeee" stroke="none" font-family="Arial" font-size="24px" font-style="normal" font-weight="normal" text-decoration="none" x="400" y="300">UNREGISTERED</text><text fill="#eeeeee" stroke="none" font-family="Arial" font-size="24px" font-style="normal" font-weight="normal" text-decoration="none" x="400" y="330">UNREGISTERED</text><text fill="#eeeeee" stroke="none" font-family="Arial" font-size="24px" font-style="normal" font-weight="normal" text-decoration="none" x="400" y="360">UNREGISTERED</text><text fill="#eeeeee" stroke="none" font-family="Arial" font-size="24px" font-style="normal" font-weight="normal" text-decoration="none" x="400" y="390">UNREGISTERED</text><text fill="#eeeeee" stroke="none" font-family="Arial" font-size="24px" font-style="normal" font-weight="normal" text-decoration="none" x="400" y="420">UNREGISTERED</text><text fill="#eeeeee" stroke="none" font-family="Arial" font-size="24px" font-style="normal" font-weight="normal" text-decoration="none" x="400" y="450">UNREGISTERED</text><text fill="#eeeeee" stroke="none" font-family="Arial" font-size="24px" font-style="normal" font-weight="normal" text-decoration="none" x="400" y="480">UNREGISTERED</text><text fill="#eeeeee" stroke="none" font-family="Arial" font-size="24px" font-style="normal" font-weight="normal" text-decoration="none" x="400" y="510">UNREGISTERED</text><text fill="#eeeeee" stroke="none" font-family="Arial" font-size="24px" font-style="normal" font-weight="normal" text-decoration="none" x="400" y="540">UNREGISTERED</text><text fill="#eeeeee" stroke="none" font-family="Arial" font-size="24px" font-style="normal" font-weight="normal" text-decoration="none" x="400" y="570">UNREGISTERED</text><text fill="#eeeeee" stroke="none" font-family="Arial" font-size="24px" font-style="normal" font-weight="normal" text-decoration="none" x="400" y="600">UNREGISTERED</text><text fill="#eeeeee" stroke="none" font-family="Arial" font-size="24px" font-style="normal" font-weight="normal" text-decoration="none" x="600" y="0">UNREGISTERED</text><text fill="#eeeeee" stroke="none" font-family="Arial" font-size="24px" font-style="normal" font-weight="normal" text-decoration="none" x="600" y="30">UNREGISTERED</text><text fill="#eeeeee" stroke="none" font-family="Arial" font-size="24px" font-style="normal" font-weight="normal" text-decoration="none" x="600" y="60">UNREGISTERED</text><text fill="#eeeeee" stroke="none" font-family="Arial" font-size="24px" font-style="normal" font-weight="normal" text-decoration="none" x="600" y="90">UNREGISTERED</text><text fill="#eeeeee" stroke="none" font-family="Arial" font-size="24px" font-style="normal" font-weight="normal" text-decoration="none" x="600" y="120">UNREGISTERED</text><text fill="#eeeeee" stroke="none" font-family="Arial" font-size="24px" font-style="normal" font-weight="normal" text-decoration="none" x="600" y="150">UNREGISTERED</text><text fill="#eeeeee" stroke="none" font-family="Arial" font-size="24px" font-style="normal" font-weight="normal" text-decoration="none" x="600" y="180">UNREGISTERED</text><text fill="#eeeeee" stroke="none" font-family="Arial" font-size="24px" font-style="normal" font-weight="normal" text-decoration="none" x="600" y="210">UNREGISTERED</text><text fill="#eeeeee" stroke="none" font-family="Arial" font-size="24px" font-style="normal" font-weight="normal" text-decoration="none" x="600" y="240">UNREGISTERED</text><text fill="#eeeeee" stroke="none" font-family="Arial" font-size="24px" font-style="normal" font-weight="normal" text-decoration="none" x="600" y="270">UNREGISTERED</text><text fill="#eeeeee" stroke="none" font-family="Arial" font-size="24px" font-style="normal" font-weight="normal" text-decoration="none" x="600" y="300">UNREGISTERED</text><text fill="#eeeeee" stroke="none" font-family="Arial" font-size="24px" font-style="normal" font-weight="normal" text-decoration="none" x="600" y="330">UNREGISTERED</text><text fill="#eeeeee" stroke="none" font-family="Arial" font-size="24px" font-style="normal" font-weight="normal" text-decoration="none" x="600" y="360">UNREGISTERED</text><text fill="#eeeeee" stroke="none" font-family="Arial" font-size="24px" font-style="normal" font-weight="normal" text-decoration="none" x="600" y="390">UNREGISTERED</text><text fill="#eeeeee" stroke="none" font-family="Arial" font-size="24px" font-style="normal" font-weight="normal" text-decoration="none" x="600" y="420">UNREGISTERED</text><text fill="#eeeeee" stroke="none" font-family="Arial" font-size="24px" font-style="normal" font-weight="normal" text-decoration="none" x="600" y="450">UNREGISTERED</text><text fill="#eeeeee" stroke="none" font-family="Arial" font-size="24px" font-style="normal" font-weight="normal" text-decoration="none" x="600" y="480">UNREGISTERED</text><text fill="#eeeeee" stroke="none" font-family="Arial" font-size="24px" font-style="normal" font-weight="normal" text-decoration="none" x="600" y="510">UNREGISTERED</text><text fill="#eeeeee" stroke="none" font-family="Arial" font-size="24px" font-style="normal" font-weight="normal" text-decoration="none" x="600" y="540">UNREGISTERED</text><text fill="#eeeeee" stroke="none" font-family="Arial" font-size="24px" font-style="normal" font-weight="normal" text-decoration="none" x="600" y="570">UNREGISTERED</text><text fill="#eeeeee" stroke="none" font-family="Arial" font-size="24px" font-style="normal" font-weight="normal" text-decoration="none" x="600" y="600">UNREGISTERED</text><g transform="translate(-46,2) scale(1,1)"><path fill="none" stroke="#000000" d="M 112 8 L 811 8 L 811 608 L 112 608 L 112 8" stroke-miterlimit="10"/></g><g transform="translate(-46,2) scale(1,1)"><path fill="#ffffff" stroke="none" d="M 112 8 L 112 30 L 216.14990234375 30 L 227.14990234375 19 L 227.14990234375 8 L 112 8"/></g><g transform="translate(-46,2) scale(1,1)"><path fill="none" stroke="#000000" d="M 112 8 L 112 30 L 216.14990234375 30 L 227.14990234375 19 L 227.14990234375 8 L 112 8 L 112 8" stroke-miterlimit="10"/></g><g transform="translate(-46,2) scale(1,1)"><g><path fill="none" stroke="none"/><text fill="#000000" stroke="none" font-family="Arial" font-size="13px" font-style="normal" font-weight="normal" text-decoration="none" x="136.72998046875" y="25.5">Vessel arrive</text></g></g><g transform="translate(-46,2) scale(1,1)"><g><path fill="none" stroke="none"/><text fill="#000000" stroke="none" font-family="Arial" font-size="13px" font-style="normal" font-weight="bold" text-decoration="none" x="117" y="25.5">sd</text></g></g><g transform="translate(-46,2) scale(1,1)"><rect fill="#C0C0C0" stroke="none" x="287" y="47" width="132.4072265625" height="39" opacity="0.2"/></g><g transform="translate(-46,2) scale(1,1)"><rect fill="#ffffff" stroke="none" x="280" y="40" width="132.4072265625" height="39"/></g><g transform="translate(-46,2) scale(1,1)"><path fill="none" stroke="#000000" d="M 280 40 L 412.4072265625 40 L 412.4072265625 79 L 280 79 L 280 40 Z Z" stroke-miterlimit="10"/></g><g transform="translate(-46,2) scale(1,1)"><g><path fill="none" stroke="none"/><text fill="#000000" stroke="none" font-family="Arial" font-size="13px" font-style="normal" font-weight="bold" text-decoration="none" x="315.1318359375" y="59.5">a: Asteroid</text></g></g><g transform="translate(-46,2) scale(1,1)"><path fill="none" stroke="#000000" d="M 347.5 80 L 347.5 590" stroke-miterlimit="10" stroke-dasharray="3"/></g><g transform="translate(-46,2) scale(1,1)"><rect fill="#C0C0C0" stroke="none" x="503" y="47" width="142.50634765625" height="39" opacity="0.2"/></g><g transform="translate(-46,2) scale(1,1)"><path fill="none" stroke="#000000" d="M 501 45 L 643.50634765625 45 L 643.50634765625 84 L 501 84 L 501 45 Z Z" stroke-miterlimit="10"/></g><g transform="translate(-46,2) scale(1,1)"><rect fill="#ffffff" stroke="none" x="496" y="40" width="142.50634765625" height="39"/></g><g transform="translate(-46,2) scale(1,1)"><path fill="none" stroke="#000000" d="M 496 40 L 638.50634765625 40 L 638.50634765625 79 L 496 79 L 496 40 Z Z" stroke-miterlimit="10"/></g><g transform="translate(-46,2) scale(1,1)"><g><path fill="none" stroke="none"/><text fill="#000000" stroke="none" font-family="Arial" font-size="13px" font-style="normal" font-weight="bold" text-decoration="none" x="536.181396484375" y="59.5">n: Asteroid</text></g></g><g transform="translate(-46,2) scale(1,1)"><path fill="none" stroke="#000000" d="M 568.5 80 L 568.5 584" stroke-miterlimit="10" stroke-dasharray="3"/></g><g transform="translate(-46,2) scale(1,1)"><rect fill="#C0C0C0" stroke="none" x="719" y="47" width="74.65625" height="39" opacity="0.2"/></g><g transform="translate(-46,2) scale(1,1)"><rect fill="#ffffff" stroke="none" x="712" y="40" width="74.65625" height="39"/></g><g transform="translate(-46,2) scale(1,1)"><path fill="none" stroke="#000000" d="M 712 40 L 786.65625 40 L 786.65625 79 L 712 79 L 712 40 Z Z" stroke-miterlimit="10"/></g><g transform="translate(-46,2) scale(1,1)"><g><path fill="none" stroke="none"/><text fill="#000000" stroke="none" font-family="Arial" font-size="13px" font-style="normal" font-weight="bold" text-decoration="none" x="723.3154296875" y="59.5">v: Vessel</text></g></g><g transform="translate(-46,2) scale(1,1)"><path fill="none" stroke="#000000" d="M 750.5 80 L 750.5 576" stroke-miterlimit="10" stroke-dasharray="3"/></g><g transform="translate(-46,2) scale(1,1)"><path fill="#000000" stroke="none" d="M 56 95.5 C 56 91.6340064 59.1340064 88.5 63 88.5 C 66.8659936 88.5 70 91.6340064 70 95.5 C 70 99.3659936 66.8659936 102.5 63 102.5 C 59.1340064 102.5 56 99.3659936 56 95.5 Z"/></g><g transform="translate(-46,2) scale(1,1)"><path fill="#000000" stroke="none" d="M 56 559.5 C 56 555.6340064 59.1340064 552.5 63 552.5 C 66.8659936 552.5 70 555.6340064 70 559.5 C 70 563.3659936 66.8659936 566.5 63 566.5 C 59.1340064 566.5 56 563.3659936 56 559.5 Z"/></g><g transform="translate(-46,2) scale(1,1)"><path fill="none" stroke="#000000" d="M 70 96 L 340 96" stroke-miterlimit="10"/></g><g transform="translate(-46,2) scale(1,1)"><path fill="#000000" stroke="none" d="M 329.83732514237585 100.20951775601598 L 340 96 L 329.83732514237585 91.79048224398402"/></g><g transform="translate(-46,2) scale(1,1)"><path fill="none" stroke="#000000" d="M 329.83732514237585 100.20951775601598 L 340 96 L 329.83732514237585 91.79048224398402 L 329.83732514237585 100.20951775601598" stroke-miterlimit="10"/></g><g transform="translate(-46,2) scale(1,1)"><g><path fill="none" stroke="none"/><text fill="#000000" stroke="none" font-family="Arial" font-size="13px" font-style="normal" font-weight="normal" text-decoration="none" x="171.2626953125" y="92.5">1 : Arrive(v)</text></g></g><g transform="translate(-46,2) scale(1,1)"><rect fill="#ffffff" stroke="none" x="340" y="96" width="13" height="472"/></g><g transform="translate(-46,2) scale(1,1)"><path fill="none" stroke="#000000" d="M 340 96 L 353 96 L 353 568 L 340 568 L 340 96 Z Z" stroke-miterlimit="10"/></g><g transform="translate(-46,2) scale(1,1)"><path fill="none" stroke="#000000" d="M 353 216 L 383 216 L 383 236 L 360 236" stroke-miterlimit="10"/></g><g transform="translate(-46,2) scale(1,1)"><path fill="#000000" stroke="none" d="M 370.16267485762415 231.790482243984 L 360 236 L 370.16267485762415 240.209517756016"/></g><g transform="translate(-46,2) scale(1,1)"><path fill="none" stroke="#000000" d="M 370.16267485762415 231.790482243984 L 360 236 L 370.16267485762415 240.209517756016 L 370.16267485762415 231.790482243984" stroke-miterlimit="10"/></g><g transform="translate(-46,2) scale(1,1)"><g><path fill="none" stroke="none"/><text fill="#000000" stroke="none" font-family="Arial" font-size="13px" font-style="normal" font-weight="normal" text-decoration="none" x="383.0703125" y="212.5">2 : visited = true</text></g></g><g transform="translate(-46,2) scale(1,1)"><rect fill="#ffffff" stroke="none" x="347" y="236" width="13" height="28"/></g><g transform="translate(-46,2) scale(1,1)"><path fill="none" stroke="#000000" d="M 347 236 L 360 236 L 360 264 L 347 264 L 347 236 Z Z" stroke-miterlimit="10"/></g><g transform="translate(-46,2) scale(1,1)"><path fill="none" stroke="#000000" d="M 353 280 L 383 280 L 383 300 L 360 300" stroke-miterlimit="10"/></g><g transform="translate(-46,2) scale(1,1)"><path fill="#000000" stroke="none" d="M 370.16267485762415 295.790482243984 L 360 300 L 370.16267485762415 304.209517756016"/></g><g transform="translate(-46,2) scale(1,1)"><path fill="none" stroke="#000000" d="M 370.16267485762415 295.790482243984 L 360 300 L 370.16267485762415 304.209517756016 L 370.16267485762415 295.790482243984" stroke-miterlimit="10"/></g><g transform="translate(-46,2) scale(1,1)"><g><path fill="none" stroke="none"/><text fill="#000000" stroke="none" font-family="Arial" font-size="13px" font-style="normal" font-weight="normal" text-decoration="none" x="391.5" y="295.5">3 : revealed = true</text></g></g><g transform="translate(-46,2) scale(1,1)"><rect fill="#ffffff" stroke="none" x="347" y="300" width="13" height="28"/></g><g transform="translate(-46,2) scale(1,1)"><path fill="none" stroke="#000000" d="M 347 300 L 360 300 L 360 328 L 347 328 L 347 300 Z Z" stroke-miterlimit="10"/></g><g transform="translate(-46,2) scale(1,1)"><path fill="none" stroke="#000000" d="M 353 384 L 561 384" stroke-miterlimit="10"/></g><g transform="translate(-46,2) scale(1,1)"><path fill="#000000" stroke="none" d="M 550.8373251423759 388.209517756016 L 561 384 L 550.8373251423758 379.790482243984"/></g><g transform="translate(-46,2) scale(1,1)"><path fill="none" stroke="#000000" d="M 550.8373251423759 388.209517756016 L 561 384 L 550.8373251423758 379.790482243984 L 550.8373251423759 388.209517756016" stroke-miterlimit="10"/></g><g transform="translate(-46,2) scale(1,1)"><g><path fill="none" stroke="none"/><text fill="#000000" stroke="none" font-family="Arial" font-size="13px" font-style="normal" font-weight="normal" text-decoration="none" x="422.92724609375" y="380.5">4 : Reveal()</text></g></g><g transform="translate(-46,2) scale(1,1)"><rect fill="#ffffff" stroke="none" x="561" y="384" width="13" height="96"/></g><g transform="translate(-46,2) scale(1,1)"><path fill="none" stroke="#000000" d="M 561 384 L 574 384 L 574 480 L 561 480 L 561 384 Z Z" stroke-miterlimit="10"/></g><g transform="translate(-46,2) scale(1,1)"><path fill="none" stroke="#000000" d="M 574 400 L 604 400 L 604 420 L 581 420" stroke-miterlimit="10"/></g><g transform="translate(-46,2) scale(1,1)"><path fill="#000000" stroke="none" d="M 591.1626748576241 415.790482243984 L 581 420 L 591.1626748576241 424.209517756016"/></g><g transform="translate(-46,2) scale(1,1)"><path fill="none" stroke="#000000" d="M 591.1626748576241 415.790482243984 L 581 420 L 591.1626748576241 424.209517756016 L 591.1626748576241 415.790482243984" stroke-miterlimit="10"/></g><g transform="translate(-46,2) scale(1,1)"><g><path fill="none" stroke="none"/><text fill="#000000" stroke="none" font-family="Arial" font-size="13px" font-style="normal" font-weight="normal" text-decoration="none" x="587.851318359375" y="396.5">5 : revealed = true</text></g></g><g transform="translate(-46,2) scale(1,1)"><rect fill="#ffffff" stroke="none" x="568" y="420" width="13" height="28"/></g><g transform="translate(-46,2) scale(1,1)"><path fill="none" stroke="#000000" d="M 568 420 L 581 420 L 581 448 L 568 448 L 568 420 Z Z" stroke-miterlimit="10"/></g><g transform="translate(-46,2) scale(1,1)"><path fill="none" stroke="#000000" d="M 568 428 L 353 428" stroke-miterlimit="10" stroke-dasharray="3"/></g><g transform="translate(-46,2) scale(1,1)"><path fill="none" stroke="#000000" d="M 363.16267485762415 423.790482243984 L 353 428 L 363.16267485762415 432.209517756016" stroke-miterlimit="10"/></g><g transform="translate(-46,2) scale(1,1)"><g><path fill="none" stroke="none"/><text fill="#000000" stroke="none" font-family="Arial" font-size="13px" font-style="normal" font-weight="normal" text-decoration="none" x="449.489501953125" y="444.5">6 : </text></g></g><g transform="translate(-46,2) scale(1,1)"><path fill="none" stroke="#000000" d="M 340 560 L 70 560" stroke-miterlimit="10" stroke-dasharray="3"/></g><g transform="translate(-46,2) scale(1,1)"><path fill="none" stroke="#000000" d="M 80.16267485762415 555.790482243984 L 70 560 L 80.16267485762415 564.209517756016" stroke-miterlimit="10"/></g><g transform="translate(-46,2) scale(1,1)"><g><path fill="none" stroke="none"/><text fill="#000000" stroke="none" font-family="Arial" font-size="13px" font-style="normal" font-weight="normal" text-decoration="none" x="194.489501953125" y="576.5">7 : </text></g></g><g transform="translate(-46,2) scale(1,1)"><path fill="none" stroke="#000000" d="M 120 112 L 727 112 L 727 544 L 120 544 L 120 112" stroke-miterlimit="10"/></g><g transform="translate(-46,2) scale(1,1)"><path fill="#ffffff" stroke="none" d="M 120 112 L 120 134 L 214.76171875 134 L 225.76171875 123 L 225.76171875 112 L 120 112"/></g><g transform="translate(-46,2) scale(1,1)"><path fill="none" stroke="#000000" d="M 120 112 L 120 134 L 214.76171875 134 L 225.76171875 123 L 225.76171875 112 L 120 112 L 120 112" stroke-miterlimit="10"/></g><g transform="translate(-46,2) scale(1,1)"><g><path fill="none" stroke="none"/><text fill="#000000" stroke="none" font-family="Arial" font-size="13px" font-style="normal" font-weight="normal" text-decoration="none" x="149.07177734375" y="129.5">Not visited</text></g></g><g transform="translate(-46,2) scale(1,1)"><g><path fill="none" stroke="none"/><text fill="#000000" stroke="none" font-family="Arial" font-size="13px" font-style="normal" font-weight="bold" text-decoration="none" x="125" y="129.5">opt</text></g></g><g transform="translate(-46,2) scale(1,1)"><g><path fill="none" stroke="none"/><text fill="#000000" stroke="none" font-family="Arial" font-size="13px" font-style="normal" font-weight="normal" text-decoration="none" x="139.5" y="162.5">[visited == false]</text></g></g><g transform="translate(-46,2) scale(1,1)"><path fill="none" stroke="#000000" d="M 168 352 L 703 352 L 703 527 L 168 527 L 168 352" stroke-miterlimit="10"/></g><g transform="translate(-46,2) scale(1,1)"><path fill="#ffffff" stroke="none" d="M 168 352 L 168 374 L 309.75341796875 374 L 320.75341796875 363 L 320.75341796875 352 L 168 352"/></g><g transform="translate(-46,2) scale(1,1)"><path fill="none" stroke="#000000" d="M 168 352 L 168 374 L 309.75341796875 374 L 320.75341796875 363 L 320.75341796875 352 L 168 352 L 168 352" stroke-miterlimit="10"/></g><g transform="translate(-46,2) scale(1,1)"><g><path fill="none" stroke="none"/><text fill="#000000" stroke="none" font-family="Arial" font-size="13px" font-style="normal" font-weight="normal" text-decoration="none" x="203.578125" y="369.5">Reveal neigbours</text></g></g><g transform="translate(-46,2) scale(1,1)"><g><path fill="none" stroke="none"/><text fill="#000000" stroke="none" font-family="Arial" font-size="13px" font-style="normal" font-weight="bold" text-decoration="none" x="173" y="369.5">loop</text></g></g><g transform="translate(-46,2) scale(1,1)"><g><path fill="none" stroke="none"/><text fill="#000000" stroke="none" font-family="Arial" font-size="13px" font-style="normal" font-weight="normal" text-decoration="none" x="187.5" y="402.5">[for n in neighbours]</text></g></g></g></svg>