<svg version="1.1" xmlns="http://www.w3.org/2000/svg" xmlns:xlink="http://www.w3.org/1999/xlink" width="833" height="618"><defs/><g><text fill="#eeeeee" stroke="none" font-family="Arial" font-size="24px" font-style="normal" font-weight="normal" text-decoration="none" x="0" y="0">UNREGISTERED</text><text fill="#eeeeee" stroke="none" font-family="Arial" font-size="24px" font-style="normal" font-weight="normal" text-decoration="none" x="0" y="30">UNREGISTERED</text><text fill="#eeeeee" stroke="none" font-family="Arial" font-size="24px" font-style="normal" font-weight="normal" text-decoration="none" x="0" y="60">UNREGISTERED</text><text fill="#eeeeee" stroke="none" font-family="Arial" font-size="24px" font-style="normal" font-weight="normal" text-decoration="none" x="0" y="90">UNREGISTERED</text><text fill="#eeeeee" stroke="none" font-family="Arial" font-size="24px" font-style="normal" font-weight="normal" text-decoration="none" x="0" y="120">UNREGISTERED</text><text fill="#eeeeee" stroke="none" font-family="Arial" font-size="24px" font-style="normal" font-weight="normal" text-decoration="none" x="0" y="150">UNREGISTERED</text><text fill="#eeeeee" stroke="none" font-family="Arial" font-size="24px" font-style="normal" font-weight="normal" text-decoration="none" x="0" y="180">UNREGISTERED</text><text fill="#eeeeee" stroke="none" font-family="Arial" font-size="24px" font-style="normal" font-weight="normal" text-decoration="none" x="0" y="210">UNREGISTERED</text><text fill="#eeeeee" stroke="none" font-family="Arial" font-size="24px" font-style="normal" font-weight="normal" text-decoration="none" x="0" y="240">UNREGISTERED</text><text fill="#eeeeee" stroke="none" font-family="Arial" font-size="24px" font-style="normal" font-weight="normal" text-decoration="none" x="0" y="270">UNREGISTERED</text><text fill="#eeeeee" stroke="none" font-family="Arial" font-size="24px" font-style="normal" font-weight="normal" text-decoration="none" x="0" y="300">UNREGISTERED</text><text fill="#eeeeee" stroke="none" font-family="Arial" font-size="24px" font-style="normal" font-weight="normal" text-decoration="none" x="0" y="330">UNREGISTERED</text><text fill="#eeeeee" stroke="none" font-family="Arial" font-size="24px" font-style="normal" font-weight="normal" text-decoration="none" x="0" y="360">UNREGISTERED</text><text fill="#eeeeee" stroke="none" font-family="Arial" font-size="24px" font-style="normal" font-weight="normal" text-decoration="none" x="0" y="390">UNREGISTERED</text><text fill="#eeeeee" stroke="none" font-family="Arial" font-size="24px" font-style="normal" font-weight="normal" text-decoration="none" x="0" y="420">UNREGISTERED</text><text fill="#eeeeee" stroke="none" font-family="Arial" font-size="24px" font-style="normal" font-weight="normal" text-decoration="none" x="0" y="450">UNREGISTERED</text><text fill="#eeeeee" stroke="none" font-family="Arial" font-size="24px" font-style="normal" font-weight="normal" text-decoration="none" x="0" y="480">UNREGISTERED</text><text fill="#eeeeee" stroke="none" font-family="Arial" font-size="24px" font-style="normal" font-weight="normal" text-decoration="none" x="0" y="510">UNREGISTERED</text><text fill="#eeeeee" stroke="none" font-family="Arial" font-size="24px" font-style="normal" font-weight="normal" text-decoration="none" x="0" y="540">UNREGISTERED</text><text fill="#eeeeee" stroke="none" font-family="Arial" font-size="24px" font-style="normal" font-weight="normal" text-decoration="none" x="0" y="570">UNREGISTERED</text><text fill="#eeeeee" stroke="none" font-family="Arial" font-size="24px" font-style="normal" font-weight="normal" text-decoration="none" x="0" y="600">UNREGISTERED</text><text fill="#eeeeee" stroke="none" font-family="Arial" font-size="24px" font-style="normal" font-weight="normal" text-decoration="none" x="200" y="0">UNREGISTERED</text><text fill="#eeeeee" stroke="none" font-family="Arial" font-size="24px" font-style="normal" font-weight="normal" text-decoration="none" x="200" y="30">UNREGISTERED</text><text fill="#eeeeee" stroke="none" font-family="Arial" font-size="24px" font-style="normal" font-weight="normal" text-decoration="none" x="200" y="60">UNREGISTERED</text><text fill="#eeeeee" stroke="none" font-family="Arial" font-size="24px" font-style="normal" font-weight="normal" text-decoration="none" x="200" y="90">UNREGISTERED</text><text fill="#eeeeee" stroke="none" font-family="Arial" font-size="24px" font-style="normal" font-weight="normal" text-decoration="none" x="200" y="120">UNREGISTERED</text><text fill="#eeeeee" stroke="none" font-family="Arial" font-size="24px" font-style="normal" font-weight="normal" text-decoration="none" x="200" y="150">UNREGISTERED</text><text fill="#eeeeee" stroke="none" font-family="Arial" font-size="24px" font-style="normal" font-weight="normal" text-decoration="none" x="200" y="180">UNREGISTERED</text><text fill="#eeeeee" stroke="none" font-family="Arial" font-size="24px" font-style="normal" font-weight="normal" text-decoration="none" x="200" y="210">UNREGISTERED</text><text fill="#eeeeee" stroke="none" font-family="Arial" font-size="24px" font-style="normal" font-weight="normal" text-decoration="none" x="200" y="240">UNREGISTERED</text><text fill="#eeeeee" stroke="none" font-family="Arial" font-size="24px" font-style="normal" font-weight="normal" text-decoration="none" x="200" y="270">UNREGISTERED</text><text fill="#eeeeee" stroke="none" font-family="Arial" font-size="24px" font-style="normal" font-weight="normal" text-decoration="none" x="200" y="300">UNREGISTERED</text><text fill="#eeeeee" stroke="none" font-family="Arial" font-size="24px" font-style="normal" font-weight="normal" text-decoration="none" x="200" y="330">UNREGISTERED</text><text fill="#eeeeee" stroke="none" font-family="Arial" font-size="24px" font-style="normal" font-weight="normal" text-decoration="none" x="200" y="360">UNREGISTERED</text><text fill="#eeeeee" stroke="none" font-family="Arial" font-size="24px" font-style="normal" font-weight="normal" text-decoration="none" x="200" y="390">UNREGISTERED</text><text fill="#eeeeee" stroke="none" font-family="Arial" font-size="24px" font-style="normal" font-weight="normal" text-decoration="none" x="200" y="420">UNREGISTERED</text><text fill="#eeeeee" stroke="none" font-family="Arial" font-size="24px" font-style="normal" font-weight="normal" text-decoration="none" x="200" y="450">UNREGISTERED</text><text fill="#eeeeee" stroke="none" font-family="Arial" font-size="24px" font-style="normal" font-weight="normal" text-decoration="none" x="200" y="480">UNREGISTERED</text><text fill="#eeeeee" stroke="none" font-family="Arial" font-size="24px" font-style="normal" font-weight="normal" text-decoration="none" x="200" y="510">UNREGISTERED</text><text fill="#eeeeee" stroke="none" font-family="Arial" font-size="24px" font-style="normal" font-weight="normal" text-decoration="none" x="200" y="540">UNREGISTERED</text><text fill="#eeeeee" stroke="none" font-family="Arial" font-size="24px" font-style="normal" font-weight="normal" text-decoration="none" x="200" y="570">UNREGISTERED</text><text fill="#eeeeee" stroke="none" font-family="Arial" font-size="24px" font-style="normal" font-weight="normal" text-decoration="none" x="200" y="600">UNREGISTERED</text><text fill="#eeeeee" stroke="none" font-family="Arial" font-size="24px" font-style="normal" font-weight="normal" text-decoration="none" x="400" y="0">UNREGISTERED</text><text fill="#eeeeee" stroke="none" font-family="Arial" font-size="24px" font-style="normal" font-weight="normal" text-decoration="none" x="400" y="30">UNREGISTERED</text><text fill="#eeeeee" stroke="none" font-family="Arial" font-size="24px" font-style="normal" font-weight="normal" text-decoration="none" x="400" y="60">UNREGISTERED</text><text fill="#eeeeee" stroke="none" font-family="Arial" font-size="24px" font-style="normal" font-weight="normal" text-decoration="none" x="400" y="90">UNREGISTERED</text><text fill="#eeeeee" stroke="none" font-family="Arial" font-size="24px" font-style="normal" font-weight="normal" text-decoration="none" x="400" y="120">UNREGISTERED</text><text fill="#eeeeee" stroke="none" font-family="Arial" font-size="24px" font-style="normal" font-weight="normal" text-decoration="none" x="400" y="150">UNREGISTERED</text><text fill="#eeeeee" stroke="none" font-family="Arial" font-size="24px" font-style="normal" font-weight="normal" text-decoration="none" x="400" y="180">UNREGISTERED</text><text fill="#eeeeee" stroke="none" font-family="Arial" font-size="24px" font-style="normal" font-weight="normal" text-decoration="none" x="400" y="210">UNREGISTERED</text><text fill="#eeeeee" stroke="none" font-family="Arial" font-size="24px" font-style="normal" font-weight="normal" text-decoration="none" x="400" y="240">UNREGISTERED</text><text fill="#eeeeee" stroke="none" font-family="Arial" font-size="24px" font-style="normal" font-weight="normal" text-decoration="none" x="400" y="270">UNREGISTERED</text><text fill="#eeeeee" stroke="none" font-family="Arial" font-size="24px" font-style="normal" font-weight="normal" text-decoration="none" x="400" y="300">UNREGISTERED</text><text fill="#eeeeee" stroke="none" font-family="Arial" font-size="24px" font-style="normal" font-weight="normal" text-decoration="none" x="400" y="330">UNREGISTERED</text><text fill="#eeeeee" stroke="none" font-family="Arial" font-size="24px" font-style="normal" font-weight="normal" text-decoration="none" x="400" y="360">UNREGISTERED</text><text fill="#eeeeee" stroke="none" font-family="Arial" font-size="24px" font-style="normal" font-weight="normal" text-decoration="none" x="400" y="390">UNREGISTERED</text><text fill="#eeeeee" stroke="none" font-family="Arial" font-size="24px" font-style="normal" font-weight="normal" text-decoration="none" x="400" y="420">UNREGISTERED</text><text fill="#eeeeee" stroke="none" font-family="Arial" font-size="24px" font-style="normal" font-weight="normal" text-decoration="none" x="400" y="450">UNREGISTERED</text><text fill="#eeeeee" stroke="none" font-family="Arial" font-size="24px" font-style="normal" font-weight="normal" text-decoration="none" x="400" y="480">UNREGISTERED</text><text fill="#eeeeee" stroke="none" font-family="Arial" font-size="24px" font-style="normal" font-weight="normal" text-decoration="none" x="400" y="510">UNREGISTERED</text><text fill="#eeeeee" stroke="none" font-family="Arial" font-size="24px" font-style="normal" font-weight="normal" text-decoration="none" x="400" y="540">UNREGISTERED</text><text fill="#eeeeee" stroke="none" font-family="Arial" font-size="24px" font-style="normal" font-weight="normal" text-decoration="none" x="400" y="570">UNREGISTERED</text><text fill="#eeeeee" stroke="none" font-family="Arial" font-size="24px" font-style="normal" font-weight="normal" text-decoration="none" x="400" y="600">UNREGISTERED</text><text fill="#eeeeee" stroke="none" font-family="Arial" font-size="24px" font-style="normal" font-weight="normal" text-decoration="none" x="600" y="0">UNREGISTERED</text><text fill="#eeeeee" stroke="none" font-family="Arial" font-size="24px" font-style="normal" font-weight="normal" text-decoration="none" x="600" y="30">UNREGISTERED</text><text fill="#eeeeee" stroke="none" font-family="Arial" font-size="24px" font-style="normal" font-weight="normal" text-decoration="none" x="600" y="60">UNREGISTERED</text><text fill="#eeeeee" stroke="none" font-family="Arial" font-size="24px" font-style="normal" font-weight="normal" text-decoration="none" x="600" y="90">UNREGISTERED</text><text fill="#eeeeee" stroke="none" font-family="Arial" font-size="24px" font-style="normal" font-weight="normal" text-decoration="none" x="600" y="120">UNREGISTERED</text><text fill="#eeeeee" stroke="none" font-family="Arial" font-size="24px" font-style="normal" font-weight="normal" text-decoration="none" x="600" y="150">UNREGISTERED</text><text fill="#eeeeee" stroke="none" font-family="Arial" font-size="24px" font-style="normal" font-weight="normal" text-decoration="none" x="600" y="180">UNREGISTERED</text><text fill="#eeeeee" stroke="none" font-family="Arial" font-size="24px" font-style="normal" font-weight="normal" text-decoration="none" x="600" y="210">UNREGISTERED</text><text fill="#eeeeee" stroke="none" font-family="Arial" font-size="24px" font-style="normal" font-weight="normal" text-decoration="none" x="600" y="240">UNREGISTERED</text><text fill="#eeeeee" stroke="none" font-family="Arial" font-size="24px" font-style="normal" font-weight="normal" text-decoration="none" x="600" y="270">UNREGISTERED</text><text fill="#eeeeee" stroke="none" font-family="Arial" font-size="24px" font-style="normal" font-weight="normal" text-decoration="none" x="600" y="300">UNREGISTERED</text><text fill="#eeeeee" stroke="none" font-family="Arial" font-size="24px" font-style="normal" font-weight="normal" text-decoration="none" x="600" y="330">UNREGISTERED</text><text fill="#eeeeee" stroke="none" font-family="Arial" font-size="24px" font-style="normal" font-weight="normal" text-decoration="none" x="600" y="360">UNREGISTERED</text><text fill="#eeeeee" stroke="none" font-family="Arial" font-size="24px" font-style="normal" font-weight="normal" text-decoration="none" x="600" y="390">UNREGISTERED</text><text fill="#eeeeee" stroke="none" font-family="Arial" font-size="24px" font-style="normal" font-weight="normal" text-decoration="none" x="600" y="420">UNREGISTERED</text><text fill="#eeeeee" stroke="none" font-family="Arial" font-size="24px" font-style="normal" font-weight="normal" text-decoration="none" x="600" y="450">UNREGISTERED</text><text fill="#eeeeee" stroke="none" font-family="Arial" font-size="24px" font-style="normal" font-weight="normal" text-decoration="none" x="600" y="480">UNREGISTERED</text><text fill="#eeeeee" stroke="none" font-family="Arial" font-size="24px" font-style="normal" font-weight="normal" text-decoration="none" x="600" y="510">UNREGISTERED</text><text fill="#eeeeee" stroke="none" font-family="Arial" font-size="24px" font-style="normal" font-weight="normal" text-decoration="none" x="600" y="540">UNREGISTERED</text><text fill="#eeeeee" stroke="none" font-family="Arial" font-size="24px" font-style="normal" font-weight="normal" text-decoration="none" x="600" y="570">UNREGISTERED</text><text fill="#eeeeee" stroke="none" font-family="Arial" font-size="24px" font-style="normal" font-weight="normal" text-decoration="none" x="600" y="600">UNREGISTERED</text><text fill="#eeeeee" stroke="none" font-family="Arial" font-size="24px" font-style="normal" font-weight="normal" text-decoration="none" x="800" y="0">UNREGISTERED</text><text fill="#eeeeee" stroke="none" font-family="Arial" font-size="24px" font-style="normal" font-weight="normal" text-decoration="none" x="800" y="30">UNREGISTERED</text><text fill="#eeeeee" stroke="none" font-family="Arial" font-size="24px" font-style="normal" font-weight="normal" text-decoration="none" x="800" y="60">UNREGISTERED</text><text fill="#eeeeee" stroke="none" font-family="Arial" font-size="24px" font-style="normal" font-weight="normal" text-decoration="none" x="800" y="90">UNREGISTERED</text><text fill="#eeeeee" stroke="none" font-family="Arial" font-size="24px" font-style="normal" font-weight="normal" text-decoration="none" x="800" y="120">UNREGISTERED</text><text fill="#eeeeee" stroke="none" font-family="Arial" font-size="24px" font-style="normal" font-weight="normal" text-decoration="none" x="800" y="150">UNREGISTERED</text><text fill="#eeeeee" stroke="none" font-family="Arial" font-size="24px" font-style="normal" font-weight="normal" text-decoration="none" x="800" y="180">UNREGISTERED</text><text fill="#eeeeee" stroke="none" font-family="Arial" font-size="24px" font-style="normal" font-weight="normal" text-decoration="none" x="800" y="210">UNREGISTERED</text><text fill="#eeeeee" stroke="none" font-family="Arial" font-size="24px" font-style="normal" font-weight="normal" text-decoration="none" x="800" y="240">UNREGISTERED</text><text fill="#eeeeee" stroke="none" font-family="Arial" font-size="24px" font-style="normal" font-weight="normal" text-decoration="none" x="800" y="270">UNREGISTERED</text><text fill="#eeeeee" stroke="none" font-family="Arial" font-size="24px" font-style="normal" font-weight="normal" text-decoration="none" x="800" y="300">UNREGISTERED</text><text fill="#eeeeee" stroke="none" font-family="Arial" font-size="24px" font-style="normal" font-weight="normal" text-decoration="none" x="800" y="330">UNREGISTERED</text><text fill="#eeeeee" stroke="none" font-family="Arial" font-size="24px" font-style="normal" font-weight="normal" text-decoration="none" x="800" y="360">UNREGISTERED</text><text fill="#eeeeee" stroke="none" font-family="Arial" font-size="24px" font-style="normal" font-weight="normal" text-decoration="none" x="800" y="390">UNREGISTERED</text><text fill="#eeeeee" stroke="none" font-family="Arial" font-size="24px" font-style="normal" font-weight="normal" text-decoration="none" x="800" y="420">UNREGISTERED</text><text fill="#eeeeee" stroke="none" font-family="Arial" font-size="24px" font-style="normal" font-weight="normal" text-decoration="none" x="800" y="450">UNREGISTERED</text><text fill="#eeeeee" stroke="none" font-family="Arial" font-size="24px" font-style="normal" font-weight="normal" text-decoration="none" x="800" y="480">UNREGISTERED</text><text fill="#eeeeee" stroke="none" font-family="Arial" font-size="24px" font-style="normal" font-weight="normal" text-decoration="none" x="800" y="510">UNREGISTERED</text><text fill="#eeeeee" stroke="none" font-family="Arial" font-size="24px" font-style="normal" font-weight="normal" text-decoration="none" x="800" y="540">UNREGISTERED</text><text fill="#eeeeee" stroke="none" font-family="Arial" font-size="24px" font-style="normal" font-weight="normal" text-decoration="none" x="800" y="570">UNREGISTERED</text><text fill="#eeeeee" stroke="none" font-family="Arial" font-size="24px" font-style="normal" font-weight="normal" text-decoration="none" x="800" y="600">UNREGISTERED</text><g transform="translate(-15,2) scale(1,1)"><path fill="none" stroke="#000000" d="M 56 8 L 838 8 L 838 602 L 56 602 L 56 8" stroke-miterlimit="10"/></g><g transform="translate(-15,2) scale(1,1)"><path fill="#ffffff" stroke="none" d="M 56 8 L 56 30 L 163.03173828125 30 L 174.03173828125 19 L 174.03173828125 8 L 56 8"/></g><g transform="translate(-15,2) scale(1,1)"><path fill="none" stroke="#000000" d="M 56 8 L 56 30 L 163.03173828125 30 L 174.03173828125 19 L 174.03173828125 8 L 56 8 L 56 8" stroke-miterlimit="10"/></g><g transform="translate(-15,2) scale(1,1)"><g><path fill="none" stroke="none"/><text fill="#000000" stroke="none" font-family="Arial" font-size="13px" font-style="normal" font-weight="normal" text-decoration="none" x="80.72998046875" y="25.5">Remove Item</text></g></g><g transform="translate(-15,2) scale(1,1)"><g><path fill="none" stroke="none"/><text fill="#000000" stroke="none" font-family="Arial" font-size="13px" font-style="normal" font-weight="bold" text-decoration="none" x="61" y="25.5">sd</text></g></g><g transform="translate(-15,2) scale(1,1)"><rect fill="#C0C0C0" stroke="none" x="223" y="47" width="138.18994140625" height="39" opacity="0.2"/></g><g transform="translate(-15,2) scale(1,1)"><rect fill="#ffffff" stroke="none" x="216" y="40" width="138.18994140625" height="39"/></g><g transform="translate(-15,2) scale(1,1)"><path fill="none" stroke="#000000" d="M 216 40 L 354.18994140625 40 L 354.18994140625 79 L 216 79 L 216 40 Z Z" stroke-miterlimit="10"/></g><g transform="translate(-15,2) scale(1,1)"><g><path fill="none" stroke="none"/><text fill="#000000" stroke="none" font-family="Arial" font-size="13px" font-style="normal" font-weight="bold" text-decoration="none" x="246.437744140625" y="59.5">inv: Inventory</text></g></g><g transform="translate(-15,2) scale(1,1)"><path fill="none" stroke="#000000" d="M 286.5 80 L 286.5 606" stroke-miterlimit="10" stroke-dasharray="3"/></g><g transform="translate(-15,2) scale(1,1)"><path fill="#000000" stroke="none" d="M 32 111.5 C 32 107.6340064 35.1340064 104.5 39 104.5 C 42.8659936 104.5 46 107.6340064 46 111.5 C 46 115.3659936 42.8659936 118.5 39 118.5 C 35.1340064 118.5 32 115.3659936 32 111.5 Z"/></g><g transform="translate(-15,2) scale(1,1)"><rect fill="#C0C0C0" stroke="none" x="417" y="47" width="106.4072265625" height="39" opacity="0.2"/></g><g transform="translate(-15,2) scale(1,1)"><path fill="none" stroke="#000000" d="M 415 45 L 521.4072265625 45 L 521.4072265625 84 L 415 84 L 415 45 Z Z" stroke-miterlimit="10"/></g><g transform="translate(-15,2) scale(1,1)"><rect fill="#ffffff" stroke="none" x="410" y="40" width="106.4072265625" height="39"/></g><g transform="translate(-15,2) scale(1,1)"><path fill="none" stroke="#000000" d="M 410 40 L 516.4072265625 40 L 516.4072265625 79 L 410 79 L 410 40 Z Z" stroke-miterlimit="10"/></g><g transform="translate(-15,2) scale(1,1)"><g><path fill="none" stroke="none"/><text fill="#000000" stroke="none" font-family="Arial" font-size="13px" font-style="normal" font-weight="bold" text-decoration="none" x="445.50634765625" y="59.5">i: Item</text></g></g><g transform="translate(-15,2) scale(1,1)"><path fill="none" stroke="#000000" d="M 464.5 80 L 464.5 514" stroke-miterlimit="10" stroke-dasharray="3"/></g><g transform="translate(-15,2) scale(1,1)"><rect fill="#C0C0C0" stroke="none" x="591" y="47" width="106.4072265625" height="39" opacity="0.2"/></g><g transform="translate(-15,2) scale(1,1)"><rect fill="#ffffff" stroke="none" x="584" y="40" width="106.4072265625" height="39"/></g><g transform="translate(-15,2) scale(1,1)"><path fill="none" stroke="#000000" d="M 584 40 L 690.4072265625 40 L 690.4072265625 79 L 584 79 L 584 40 Z Z" stroke-miterlimit="10"/></g><g transform="translate(-15,2) scale(1,1)"><g><path fill="none" stroke="none"/><text fill="#000000" stroke="none" font-family="Arial" font-size="13px" font-style="normal" font-weight="bold" text-decoration="none" x="608.6708984375" y="59.5">item: Item</text></g></g><g transform="translate(-15,2) scale(1,1)"><path fill="none" stroke="#000000" d="M 638.5 80 L 638.5 592" stroke-miterlimit="10" stroke-dasharray="3"/></g><g transform="translate(-15,2) scale(1,1)"><path fill="#000000" stroke="none" d="M 25 575.5 C 25 571.6340064 28.1340064 568.5 32 568.5 C 35.8659936 568.5 39 571.6340064 39 575.5 C 39 579.3659936 35.8659936 582.5 32 582.5 C 28.1340064 582.5 25 579.3659936 25 575.5 Z"/></g><g transform="translate(-15,2) scale(1,1)"><path fill="none" stroke="#000000" d="M 46 112 L 279 112" stroke-miterlimit="10"/></g><g transform="translate(-15,2) scale(1,1)"><path fill="#000000" stroke="none" d="M 268.83732514237585 116.20951775601598 L 279 112 L 268.83732514237585 107.79048224398402"/></g><g transform="translate(-15,2) scale(1,1)"><path fill="none" stroke="#000000" d="M 268.83732514237585 116.20951775601598 L 279 112 L 268.83732514237585 107.79048224398402 L 268.83732514237585 116.20951775601598" stroke-miterlimit="10"/></g><g transform="translate(-15,2) scale(1,1)"><g><path fill="none" stroke="none"/><text fill="#000000" stroke="none" font-family="Arial" font-size="13px" font-style="normal" font-weight="normal" text-decoration="none" x="99.753173828125" y="108.5">1 : RemoveItem(item)</text></g></g><g transform="translate(-15,2) scale(1,1)"><rect fill="#ffffff" stroke="none" x="279" y="112" width="13" height="472"/></g><g transform="translate(-15,2) scale(1,1)"><path fill="none" stroke="#000000" d="M 279 112 L 292 112 L 292 584 L 279 584 L 279 112 Z Z" stroke-miterlimit="10"/></g><g transform="translate(-15,2) scale(1,1)"><path fill="none" stroke="#000000" d="M 292 178 L 457 178" stroke-miterlimit="10"/></g><g transform="translate(-15,2) scale(1,1)"><path fill="#000000" stroke="none" d="M 446.83732514237585 182.209517756016 L 457 178 L 446.83732514237585 173.790482243984"/></g><g transform="translate(-15,2) scale(1,1)"><path fill="none" stroke="#000000" d="M 446.83732514237585 182.209517756016 L 457 178 L 446.83732514237585 173.790482243984 L 446.83732514237585 182.209517756016" stroke-miterlimit="10"/></g><g transform="translate(-15,2) scale(1,1)"><g><path fill="none" stroke="none"/><text fill="#000000" stroke="none" font-family="Arial" font-size="13px" font-style="normal" font-weight="normal" text-decoration="none" x="318.5" y="174.5">2 : Satisfies(i: Item)</text></g></g><g transform="translate(-15,2) scale(1,1)"><rect fill="#ffffff" stroke="none" x="457" y="178" width="13" height="62"/></g><g transform="translate(-15,2) scale(1,1)"><path fill="none" stroke="#000000" d="M 457 178 L 470 178 L 470 240 L 457 240 L 457 178 Z Z" stroke-miterlimit="10"/></g><g transform="translate(-15,2) scale(1,1)"><path fill="none" stroke="#000000" d="M 457 232 L 292 232" stroke-miterlimit="10" stroke-dasharray="3"/></g><g transform="translate(-15,2) scale(1,1)"><path fill="none" stroke="#000000" d="M 302.16267485762415 227.790482243984 L 292 232 L 302.16267485762415 236.209517756016" stroke-miterlimit="10"/></g><g transform="translate(-15,2) scale(1,1)"><g><path fill="none" stroke="none"/><text fill="#000000" stroke="none" font-family="Arial" font-size="13px" font-style="normal" font-weight="normal" text-decoration="none" x="363.489501953125" y="248.5">3 : </text></g></g><g transform="translate(-15,2) scale(1,1)"><path fill="none" stroke="#000000" d="M 292 344 L 457 344" stroke-miterlimit="10"/></g><g transform="translate(-15,2) scale(1,1)"><path fill="#000000" stroke="none" d="M 446.83732514237585 348.209517756016 L 457 344 L 446.83732514237585 339.790482243984"/></g><g transform="translate(-15,2) scale(1,1)"><path fill="none" stroke="#000000" d="M 446.83732514237585 348.209517756016 L 457 344 L 446.83732514237585 339.790482243984 L 446.83732514237585 348.209517756016" stroke-miterlimit="10"/></g><g transform="translate(-15,2) scale(1,1)"><g><path fill="none" stroke="none"/><text fill="#000000" stroke="none" font-family="Arial" font-size="13px" font-style="normal" font-weight="normal" text-decoration="none" x="324.3681640625" y="340.5">4 : Reduce(a: int)</text></g></g><g transform="translate(-15,2) scale(1,1)"><rect fill="#ffffff" stroke="none" x="457" y="344" width="13" height="28"/></g><g transform="translate(-15,2) scale(1,1)"><path fill="none" stroke="#000000" d="M 457 344 L 470 344 L 470 372 L 457 372 L 457 344 Z Z" stroke-miterlimit="10"/></g><g transform="translate(-15,2) scale(1,1)"><path fill="none" stroke="#000000" d="M 457 368 L 292 368" stroke-miterlimit="10" stroke-dasharray="3"/></g><g transform="translate(-15,2) scale(1,1)"><path fill="none" stroke="#000000" d="M 302.16267485762415 363.790482243984 L 292 368 L 302.16267485762415 372.209517756016" stroke-miterlimit="10"/></g><g transform="translate(-15,2) scale(1,1)"><g><path fill="none" stroke="none"/><text fill="#000000" stroke="none" font-family="Arial" font-size="13px" font-style="normal" font-weight="normal" text-decoration="none" x="363.489501953125" y="384.5">5 : </text></g></g><g transform="translate(-15,2) scale(1,1)"><path fill="none" stroke="#000000" d="M 292 464 L 322 464 L 322 484 L 299 484" stroke-miterlimit="10"/></g><g transform="translate(-15,2) scale(1,1)"><path fill="#000000" stroke="none" d="M 309.16267485762415 479.790482243984 L 299 484 L 309.16267485762415 488.209517756016"/></g><g transform="translate(-15,2) scale(1,1)"><path fill="none" stroke="#000000" d="M 309.16267485762415 479.790482243984 L 299 484 L 309.16267485762415 488.209517756016 L 309.16267485762415 479.790482243984" stroke-miterlimit="10"/></g><g transform="translate(-15,2) scale(1,1)"><g><path fill="none" stroke="none"/><text fill="#000000" stroke="none" font-family="Arial" font-size="13px" font-style="normal" font-weight="normal" text-decoration="none" x="326.5" y="479.5">6 : items.Remove(i)</text></g></g><g transform="translate(-15,2) scale(1,1)"><rect fill="#ffffff" stroke="none" x="286" y="484" width="13" height="28"/></g><g transform="translate(-15,2) scale(1,1)"><path fill="none" stroke="#000000" d="M 286 484 L 299 484 L 299 512 L 286 512 L 286 484 Z Z" stroke-miterlimit="10"/></g><g transform="translate(-15,2) scale(1,1)"><path fill="none" stroke="#000000" d="M 279 576 L 39 576" stroke-miterlimit="10" stroke-dasharray="3"/></g><g transform="translate(-15,2) scale(1,1)"><path fill="none" stroke="#000000" d="M 49.162674857624154 571.790482243984 L 39 576 L 49.162674857624154 580.209517756016" stroke-miterlimit="10"/></g><g transform="translate(-15,2) scale(1,1)"><g><path fill="none" stroke="none"/><text fill="#000000" stroke="none" font-family="Arial" font-size="13px" font-style="normal" font-weight="normal" text-decoration="none" x="148.489501953125" y="592.5">7 : </text></g></g><g transform="translate(-15,2) scale(1,1)"><path fill="none" stroke="#000000" d="M 88 128 L 760 128 L 760 560 L 88 560 L 88 128" stroke-miterlimit="10"/></g><g transform="translate(-15,2) scale(1,1)"><path fill="#ffffff" stroke="none" d="M 88 128 L 88 150 L 182.0380859375 150 L 193.0380859375 139 L 193.0380859375 128 L 88 128"/></g><g transform="translate(-15,2) scale(1,1)"><path fill="none" stroke="#000000" d="M 88 128 L 88 150 L 182.0380859375 150 L 193.0380859375 139 L 193.0380859375 128 L 88 128 L 88 128" stroke-miterlimit="10"/></g><g transform="translate(-15,2) scale(1,1)"><g><path fill="none" stroke="none"/><text fill="#000000" stroke="none" font-family="Arial" font-size="13px" font-style="normal" font-weight="normal" text-decoration="none" x="123.578125" y="145.5">Find item</text></g></g><g transform="translate(-15,2) scale(1,1)"><g><path fill="none" stroke="none"/><text fill="#000000" stroke="none" font-family="Arial" font-size="13px" font-style="normal" font-weight="bold" text-decoration="none" x="93" y="145.5">loop</text></g></g><g transform="translate(-15,2) scale(1,1)"><g><path fill="none" stroke="none"/><text fill="#000000" stroke="none" font-family="Arial" font-size="13px" font-style="normal" font-weight="normal" text-decoration="none" x="107.5" y="178.5">[for each i in items]</text></g></g><g transform="translate(-15,2) scale(1,1)"><path fill="none" stroke="#000000" d="M 96 272 L 743 272 L 743 543 L 96 543 L 96 272" stroke-miterlimit="10"/></g><g transform="translate(-15,2) scale(1,1)"><path fill="#ffffff" stroke="none" d="M 96 272 L 96 294 L 208.103515625 294 L 219.103515625 283 L 219.103515625 272 L 96 272"/></g><g transform="translate(-15,2) scale(1,1)"><path fill="none" stroke="#000000" d="M 96 272 L 96 294 L 208.103515625 294 L 219.103515625 283 L 219.103515625 272 L 96 272 L 96 272" stroke-miterlimit="10"/></g><g transform="translate(-15,2) scale(1,1)"><g><path fill="none" stroke="none"/><text fill="#000000" stroke="none" font-family="Arial" font-size="13px" font-style="normal" font-weight="normal" text-decoration="none" x="120.72998046875" y="289.5">Amount check</text></g></g><g transform="translate(-15,2) scale(1,1)"><g><path fill="none" stroke="none"/><text fill="#000000" stroke="none" font-family="Arial" font-size="13px" font-style="normal" font-weight="bold" text-decoration="none" x="101" y="289.5">alt</text></g></g><g transform="translate(-15,2) scale(1,1)"><g><path fill="none" stroke="none"/><text fill="#000000" stroke="none" font-family="Arial" font-size="13px" font-style="normal" font-weight="normal" text-decoration="none" x="115.5" y="322.5">[i.amount &gt; item.amount]</text></g></g><g transform="translate(-15,2) scale(1,1)"><path fill="none" stroke="#000000" d="M 96 417 L 743 417" stroke-miterlimit="10" stroke-dasharray="10,3"/></g><g transform="translate(-15,2) scale(1,1)"><g><path fill="none" stroke="none"/><text fill="#000000" stroke="none" font-family="Arial" font-size="13px" font-style="normal" font-weight="normal" text-decoration="none" x="115.5" y="444.5">[i.amount == item.amount]</text></g></g></g></svg>