<svg version="1.1" xmlns="http://www.w3.org/2000/svg" xmlns:xlink="http://www.w3.org/1999/xlink" width="557" height="742"><defs/><g><text fill="#eeeeee" stroke="none" font-family="Arial" font-size="24px" font-style="normal" font-weight="normal" text-decoration="none" x="0" y="0">UNREGISTERED</text><text fill="#eeeeee" stroke="none" font-family="Arial" font-size="24px" font-style="normal" font-weight="normal" text-decoration="none" x="0" y="30">UNREGISTERED</text><text fill="#eeeeee" stroke="none" font-family="Arial" font-size="24px" font-style="normal" font-weight="normal" text-decoration="none" x="0" y="60">UNREGISTERED</text><text fill="#eeeeee" stroke="none" font-family="Arial" font-size="24px" font-style="normal" font-weight="normal" text-decoration="none" x="0" y="90">UNREGISTERED</text><text fill="#eeeeee" stroke="none" font-family="Arial" font-size="24px" font-style="normal" font-weight="normal" text-decoration="none" x="0" y="120">UNREGISTERED</text><text fill="#eeeeee" stroke="none" font-family="Arial" font-size="24px" font-style="normal" font-weight="normal" text-decoration="none" x="0" y="150">UNREGISTERED</text><text fill="#eeeeee" stroke="none" font-family="Arial" font-size="24px" font-style="normal" font-weight="normal" text-decoration="none" x="0" y="180">UNREGISTERED</text><text fill="#eeeeee" stroke="none" font-family="Arial" font-size="24px" font-style="normal" font-weight="normal" text-decoration="none" x="0" y="210">UNREGISTERED</text><text fill="#eeeeee" stroke="none" font-family="Arial" font-size="24px" font-style="normal" font-weight="normal" text-decoration="none" x="0" y="240">UNREGISTERED</text><text fill="#eeeeee" stroke="none" font-family="Arial" font-size="24px" font-style="normal" font-weight="normal" text-decoration="none" x="0" y="270">UNREGISTERED</text><text fill="#eeeeee" stroke="none" font-family="Arial" font-size="24px" font-style="normal" font-weight="normal" text-decoration="none" x="0" y="300">UNREGISTERED</text><text fill="#eeeeee" stroke="none" font-family="Arial" font-size="24px" font-style="normal" font-weight="normal" text-decoration="none" x="0" y="330">UNREGISTERED</text><text fill="#eeeeee" stroke="none" font-family="Arial" font-size="24px" font-style="normal" font-weight="normal" text-decoration="none" x="0" y="360">UNREGISTERED</text><text fill="#eeeeee" stroke="none" font-family="Arial" font-size="24px" font-style="normal" font-weight="normal" text-decoration="none" x="0" y="390">UNREGISTERED</text><text fill="#eeeeee" stroke="none" font-family="Arial" font-size="24px" font-style="normal" font-weight="normal" text-decoration="none" x="0" y="420">UNREGISTERED</text><text fill="#eeeeee" stroke="none" font-family="Arial" font-size="24px" font-style="normal" font-weight="normal" text-decoration="none" x="0" y="450">UNREGISTERED</text><text fill="#eeeeee" stroke="none" font-family="Arial" font-size="24px" font-style="normal" font-weight="normal" text-decoration="none" x="0" y="480">UNREGISTERED</text><text fill="#eeeeee" stroke="none" font-family="Arial" font-size="24px" font-style="normal" font-weight="normal" text-decoration="none" x="0" y="510">UNREGISTERED</text><text fill="#eeeeee" stroke="none" font-family="Arial" font-size="24px" font-style="normal" font-weight="normal" text-decoration="none" x="0" y="540">UNREGISTERED</text><text fill="#eeeeee" stroke="none" font-family="Arial" font-size="24px" font-style="normal" font-weight="normal" text-decoration="none" x="0" y="570">UNREGISTERED</text><text fill="#eeeeee" stroke="none" font-family="Arial" font-size="24px" font-style="normal" font-weight="normal" text-decoration="none" x="0" y="600">UNREGISTERED</text><text fill="#eeeeee" stroke="none" font-family="Arial" font-size="24px" font-style="normal" font-weight="normal" text-decoration="none" x="0" y="630">UNREGISTERED</text><text fill="#eeeeee" stroke="none" font-family="Arial" font-size="24px" font-style="normal" font-weight="normal" text-decoration="none" x="0" y="660">UNREGISTERED</text><text fill="#eeeeee" stroke="none" font-family="Arial" font-size="24px" font-style="normal" font-weight="normal" text-decoration="none" x="0" y="690">UNREGISTERED</text><text fill="#eeeeee" stroke="none" font-family="Arial" font-size="24px" font-style="normal" font-weight="normal" text-decoration="none" x="0" y="720">UNREGISTERED</text><text fill="#eeeeee" stroke="none" font-family="Arial" font-size="24px" font-style="normal" font-weight="normal" text-decoration="none" x="200" y="0">UNREGISTERED</text><text fill="#eeeeee" stroke="none" font-family="Arial" font-size="24px" font-style="normal" font-weight="normal" text-decoration="none" x="200" y="30">UNREGISTERED</text><text fill="#eeeeee" stroke="none" font-family="Arial" font-size="24px" font-style="normal" font-weight="normal" text-decoration="none" x="200" y="60">UNREGISTERED</text><text fill="#eeeeee" stroke="none" font-family="Arial" font-size="24px" font-style="normal" font-weight="normal" text-decoration="none" x="200" y="90">UNREGISTERED</text><text fill="#eeeeee" stroke="none" font-family="Arial" font-size="24px" font-style="normal" font-weight="normal" text-decoration="none" x="200" y="120">UNREGISTERED</text><text fill="#eeeeee" stroke="none" font-family="Arial" font-size="24px" font-style="normal" font-weight="normal" text-decoration="none" x="200" y="150">UNREGISTERED</text><text fill="#eeeeee" stroke="none" font-family="Arial" font-size="24px" font-style="normal" font-weight="normal" text-decoration="none" x="200" y="180">UNREGISTERED</text><text fill="#eeeeee" stroke="none" font-family="Arial" font-size="24px" font-style="normal" font-weight="normal" text-decoration="none" x="200" y="210">UNREGISTERED</text><text fill="#eeeeee" stroke="none" font-family="Arial" font-size="24px" font-style="normal" font-weight="normal" text-decoration="none" x="200" y="240">UNREGISTERED</text><text fill="#eeeeee" stroke="none" font-family="Arial" font-size="24px" font-style="normal" font-weight="normal" text-decoration="none" x="200" y="270">UNREGISTERED</text><text fill="#eeeeee" stroke="none" font-family="Arial" font-size="24px" font-style="normal" font-weight="normal" text-decoration="none" x="200" y="300">UNREGISTERED</text><text fill="#eeeeee" stroke="none" font-family="Arial" font-size="24px" font-style="normal" font-weight="normal" text-decoration="none" x="200" y="330">UNREGISTERED</text><text fill="#eeeeee" stroke="none" font-family="Arial" font-size="24px" font-style="normal" font-weight="normal" text-decoration="none" x="200" y="360">UNREGISTERED</text><text fill="#eeeeee" stroke="none" font-family="Arial" font-size="24px" font-style="normal" font-weight="normal" text-decoration="none" x="200" y="390">UNREGISTERED</text><text fill="#eeeeee" stroke="none" font-family="Arial" font-size="24px" font-style="normal" font-weight="normal" text-decoration="none" x="200" y="420">UNREGISTERED</text><text fill="#eeeeee" stroke="none" font-family="Arial" font-size="24px" font-style="normal" font-weight="normal" text-decoration="none" x="200" y="450">UNREGISTERED</text><text fill="#eeeeee" stroke="none" font-family="Arial" font-size="24px" font-style="normal" font-weight="normal" text-decoration="none" x="200" y="480">UNREGISTERED</text><text fill="#eeeeee" stroke="none" font-family="Arial" font-size="24px" font-style="normal" font-weight="normal" text-decoration="none" x="200" y="510">UNREGISTERED</text><text fill="#eeeeee" stroke="none" font-family="Arial" font-size="24px" font-style="normal" font-weight="normal" text-decoration="none" x="200" y="540">UNREGISTERED</text><text fill="#eeeeee" stroke="none" font-family="Arial" font-size="24px" font-style="normal" font-weight="normal" text-decoration="none" x="200" y="570">UNREGISTERED</text><text fill="#eeeeee" stroke="none" font-family="Arial" font-size="24px" font-style="normal" font-weight="normal" text-decoration="none" x="200" y="600">UNREGISTERED</text><text fill="#eeeeee" stroke="none" font-family="Arial" font-size="24px" font-style="normal" font-weight="normal" text-decoration="none" x="200" y="630">UNREGISTERED</text><text fill="#eeeeee" stroke="none" font-family="Arial" font-size="24px" font-style="normal" font-weight="normal" text-decoration="none" x="200" y="660">UNREGISTERED</text><text fill="#eeeeee" stroke="none" font-family="Arial" font-size="24px" font-style="normal" font-weight="normal" text-decoration="none" x="200" y="690">UNREGISTERED</text><text fill="#eeeeee" stroke="none" font-family="Arial" font-size="24px" font-style="normal" font-weight="normal" text-decoration="none" x="200" y="720">UNREGISTERED</text><text fill="#eeeeee" stroke="none" font-family="Arial" font-size="24px" font-style="normal" font-weight="normal" text-decoration="none" x="400" y="0">UNREGISTERED</text><text fill="#eeeeee" stroke="none" font-family="Arial" font-size="24px" font-style="normal" font-weight="normal" text-decoration="none" x="400" y="30">UNREGISTERED</text><text fill="#eeeeee" stroke="none" font-family="Arial" font-size="24px" font-style="normal" font-weight="normal" text-decoration="none" x="400" y="60">UNREGISTERED</text><text fill="#eeeeee" stroke="none" font-family="Arial" font-size="24px" font-style="normal" font-weight="normal" text-decoration="none" x="400" y="90">UNREGISTERED</text><text fill="#eeeeee" stroke="none" font-family="Arial" font-size="24px" font-style="normal" font-weight="normal" text-decoration="none" x="400" y="120">UNREGISTERED</text><text fill="#eeeeee" stroke="none" font-family="Arial" font-size="24px" font-style="normal" font-weight="normal" text-decoration="none" x="400" y="150">UNREGISTERED</text><text fill="#eeeeee" stroke="none" font-family="Arial" font-size="24px" font-style="normal" font-weight="normal" text-decoration="none" x="400" y="180">UNREGISTERED</text><text fill="#eeeeee" stroke="none" font-family="Arial" font-size="24px" font-style="normal" font-weight="normal" text-decoration="none" x="400" y="210">UNREGISTERED</text><text fill="#eeeeee" stroke="none" font-family="Arial" font-size="24px" font-style="normal" font-weight="normal" text-decoration="none" x="400" y="240">UNREGISTERED</text><text fill="#eeeeee" stroke="none" font-family="Arial" font-size="24px" font-style="normal" font-weight="normal" text-decoration="none" x="400" y="270">UNREGISTERED</text><text fill="#eeeeee" stroke="none" font-family="Arial" font-size="24px" font-style="normal" font-weight="normal" text-decoration="none" x="400" y="300">UNREGISTERED</text><text fill="#eeeeee" stroke="none" font-family="Arial" font-size="24px" font-style="normal" font-weight="normal" text-decoration="none" x="400" y="330">UNREGISTERED</text><text fill="#eeeeee" stroke="none" font-family="Arial" font-size="24px" font-style="normal" font-weight="normal" text-decoration="none" x="400" y="360">UNREGISTERED</text><text fill="#eeeeee" stroke="none" font-family="Arial" font-size="24px" font-style="normal" font-weight="normal" text-decoration="none" x="400" y="390">UNREGISTERED</text><text fill="#eeeeee" stroke="none" font-family="Arial" font-size="24px" font-style="normal" font-weight="normal" text-decoration="none" x="400" y="420">UNREGISTERED</text><text fill="#eeeeee" stroke="none" font-family="Arial" font-size="24px" font-style="normal" font-weight="normal" text-decoration="none" x="400" y="450">UNREGISTERED</text><text fill="#eeeeee" stroke="none" font-family="Arial" font-size="24px" font-style="normal" font-weight="normal" text-decoration="none" x="400" y="480">UNREGISTERED</text><text fill="#eeeeee" stroke="none" font-family="Arial" font-size="24px" font-style="normal" font-weight="normal" text-decoration="none" x="400" y="510">UNREGISTERED</text><text fill="#eeeeee" stroke="none" font-family="Arial" font-size="24px" font-style="normal" font-weight="normal" text-decoration="none" x="400" y="540">UNREGISTERED</text><text fill="#eeeeee" stroke="none" font-family="Arial" font-size="24px" font-style="normal" font-weight="normal" text-decoration="none" x="400" y="570">UNREGISTERED</text><text fill="#eeeeee" stroke="none" font-family="Arial" font-size="24px" font-style="normal" font-weight="normal" text-decoration="none" x="400" y="600">UNREGISTERED</text><text fill="#eeeeee" stroke="none" font-family="Arial" font-size="24px" font-style="normal" font-weight="normal" text-decoration="none" x="400" y="630">UNREGISTERED</text><text fill="#eeeeee" stroke="none" font-family="Arial" font-size="24px" font-style="normal" font-weight="normal" text-decoration="none" x="400" y="660">UNREGISTERED</text><text fill="#eeeeee" stroke="none" font-family="Arial" font-size="24px" font-style="normal" font-weight="normal" text-decoration="none" x="400" y="690">UNREGISTERED</text><text fill="#eeeeee" stroke="none" font-family="Arial" font-size="24px" font-style="normal" font-weight="normal" text-decoration="none" x="400" y="720">UNREGISTERED</text><g transform="translate(10,-22) scale(1,1)"><path fill="#ffffff" stroke="none" d="M 56.40935031960227 313.68 C 56.40935031960227 308.886167936 60.295192644547726 305 65.088623046875 305 C 69.88205344920227 305 73.76789577414773 308.886167936 73.76789577414773 313.68 C 73.76789577414773 318.473832064 69.88205344920227 322.36 65.088623046875 322.36 C 60.295192644547726 322.36 56.40935031960227 318.473832064 56.40935031960227 313.68 Z"/></g><g transform="translate(10,-22) scale(1,1)"><path fill="none" stroke="#000000" d="M 56.40935031960227 313.68 C 56.40935031960227 308.886167936 60.295192644547726 305 65.088623046875 305 C 69.88205344920227 305 73.76789577414773 308.886167936 73.76789577414773 313.68 C 73.76789577414773 318.473832064 69.88205344920227 322.36 65.088623046875 322.36 C 60.295192644547726 322.36 56.40935031960227 318.473832064 56.40935031960227 313.68 Z" stroke-miterlimit="10"/></g><g transform="translate(10,-22) scale(1,1)"><path fill="none" stroke="#000000" d="M 65.088623046875 322.36 L 65.088623046875 339.64" stroke-miterlimit="10"/></g><g transform="translate(10,-22) scale(1,1)"><path fill="none" stroke="#000000" d="M 55.89880486505682 328.84 L 74.27844122869318 328.84" stroke-miterlimit="10"/></g><g transform="translate(10,-22) scale(1,1)"><path fill="none" stroke="#000000" d="M 65.088623046875 339.64 L 52.324986683238635 357" stroke-miterlimit="10"/></g><g transform="translate(10,-22) scale(1,1)"><path fill="none" stroke="#000000" d="M 65.088623046875 339.64 L 77.85225941051137 357" stroke-miterlimit="10"/></g><g transform="translate(10,-22) scale(1,1)"><g><path fill="none" stroke="none"/><text fill="#000000" stroke="none" font-family="Arial" font-size="13px" font-style="normal" font-weight="bold" text-decoration="none" x="47.38818359375" y="377.5">Tester</text></g></g><g transform="translate(10,-22) scale(1,1)"><path fill="#C0C0C0" stroke="none" d="M 31 160 C 31 150.6111584 53.6096176 143 81.5 143 C 109.3903824 143 132 150.6111584 132 160 C 132 169.3888416 109.3903824 177 81.5 177 C 53.6096176 177 31 169.3888416 31 160 Z" opacity="0.2"/></g><g transform="translate(10,-22) scale(1,1)"><path fill="#ffffff" stroke="none" d="M 24 153 C 24 143.6111584 46.6096176 136 74.5 136 C 102.3903824 136 125 143.6111584 125 153 C 125 162.3888416 102.3903824 170 74.5 170 C 46.6096176 170 24 162.3888416 24 153 Z"/></g><g transform="translate(10,-22) scale(1,1)"><path fill="none" stroke="#000000" d="M 24 153 C 24 143.6111584 46.6096176 136 74.5 136 C 102.3903824 136 125 143.6111584 125 153 C 125 162.3888416 102.3903824 170 74.5 170 C 46.6096176 170 24 162.3888416 24 153 Z" stroke-miterlimit="10"/></g><g transform="translate(10,-22) scale(1,1)"><g><path fill="none" stroke="none"/><text fill="#000000" stroke="none" font-family="Arial" font-size="13px" font-style="normal" font-weight="bold" text-decoration="none" x="58.60546875" y="160">Move</text></g></g><g transform="translate(10,-22) scale(1,1)"><path fill="#C0C0C0" stroke="none" d="M 183 96 C 183 86.6111584 205.6096176 79 233.5 79 C 261.3903824 79 284 86.6111584 284 96 C 284 105.3888416 261.3903824 113 233.5 113 C 205.6096176 113 183 105.3888416 183 96 Z" opacity="0.2"/></g><g transform="translate(10,-22) scale(1,1)"><path fill="#ffffff" stroke="none" d="M 176 89 C 176 79.6111584 198.6096176 72 226.5 72 C 254.3903824 72 277 79.6111584 277 89 C 277 98.3888416 254.3903824 106 226.5 106 C 198.6096176 106 176 98.3888416 176 89 Z"/></g><g transform="translate(10,-22) scale(1,1)"><path fill="none" stroke="#000000" d="M 176 89 C 176 79.6111584 198.6096176 72 226.5 72 C 254.3903824 72 277 79.6111584 277 89 C 277 98.3888416 254.3903824 106 226.5 106 C 198.6096176 106 176 98.3888416 176 89 Z" stroke-miterlimit="10"/></g><g transform="translate(10,-22) scale(1,1)"><g><path fill="none" stroke="none"/><text fill="#000000" stroke="none" font-family="Arial" font-size="13px" font-style="normal" font-weight="bold" text-decoration="none" x="213.1318359375" y="96">Hide</text></g></g><g transform="translate(10,-22) scale(1,1)"><path fill="#C0C0C0" stroke="none" d="M 287 384 C 287 374.6111584 311.1766208 367 341 367 C 370.8233792 367 395 374.6111584 395 384 C 395 393.3888416 370.8233792 401 341 401 C 311.1766208 401 287 393.3888416 287 384 Z" opacity="0.2"/></g><g transform="translate(10,-22) scale(1,1)"><path fill="#ffffff" stroke="none" d="M 280 377 C 280 367.6111584 304.1766208 360 334 360 C 363.8233792 360 388 367.6111584 388 377 C 388 386.3888416 363.8233792 394 334 394 C 304.1766208 394 280 386.3888416 280 377 Z"/></g><g transform="translate(10,-22) scale(1,1)"><path fill="none" stroke="#000000" d="M 280 377 C 280 367.6111584 304.1766208 360 334 360 C 363.8233792 360 388 367.6111584 388 377 C 388 386.3888416 363.8233792 394 334 394 C 304.1766208 394 280 386.3888416 280 377 Z" stroke-miterlimit="10"/></g><g transform="translate(10,-22) scale(1,1)"><g><path fill="none" stroke="none"/><text fill="#000000" stroke="none" font-family="Arial" font-size="13px" font-style="normal" font-weight="bold" text-decoration="none" x="303.293212890625" y="384">Craft robot</text></g></g><g transform="translate(10,-22) scale(1,1)"><path fill="#C0C0C0" stroke="none" d="M 287 336 C 287 326.6111584 310.2811904 319 339 319 C 367.7188096 319 391 326.6111584 391 336 C 391 345.3888416 367.7188096 353 339 353 C 310.2811904 353 287 345.3888416 287 336 Z" opacity="0.2"/></g><g transform="translate(10,-22) scale(1,1)"><path fill="#ffffff" stroke="none" d="M 280 329 C 280 319.6111584 303.2811904 312 332 312 C 360.7188096 312 384 319.6111584 384 329 C 384 338.3888416 360.7188096 346 332 346 C 303.2811904 346 280 338.3888416 280 329 Z"/></g><g transform="translate(10,-22) scale(1,1)"><path fill="none" stroke="#000000" d="M 280 329 C 280 319.6111584 303.2811904 312 332 312 C 360.7188096 312 384 319.6111584 384 329 C 384 338.3888416 360.7188096 346 332 346 C 303.2811904 346 280 338.3888416 280 329 Z" stroke-miterlimit="10"/></g><g transform="translate(10,-22) scale(1,1)"><g><path fill="none" stroke="none"/><text fill="#000000" stroke="none" font-family="Arial" font-size="13px" font-style="normal" font-weight="bold" text-decoration="none" x="301.28369140625" y="336">Place gate</text></g></g><g transform="translate(10,-22) scale(1,1)"><path fill="#C0C0C0" stroke="none" d="M 287 160 C 287 150.6111584 309.6096176 143 337.5 143 C 365.3903824 143 388 150.6111584 388 160 C 388 169.3888416 365.3903824 177 337.5 177 C 309.6096176 177 287 169.3888416 287 160 Z" opacity="0.2"/></g><g transform="translate(10,-22) scale(1,1)"><path fill="#ffffff" stroke="none" d="M 280 153 C 280 143.6111584 302.6096176 136 330.5 136 C 358.3903824 136 381 143.6111584 381 153 C 381 162.3888416 358.3903824 170 330.5 170 C 302.6096176 170 280 162.3888416 280 153 Z"/></g><g transform="translate(10,-22) scale(1,1)"><path fill="none" stroke="#000000" d="M 280 153 C 280 143.6111584 302.6096176 136 330.5 136 C 358.3903824 136 381 143.6111584 381 153 C 381 162.3888416 358.3903824 170 330.5 170 C 302.6096176 170 280 162.3888416 280 153 Z" stroke-miterlimit="10"/></g><g transform="translate(10,-22) scale(1,1)"><g><path fill="none" stroke="none"/><text fill="#000000" stroke="none" font-family="Arial" font-size="13px" font-style="normal" font-weight="bold" text-decoration="none" x="319.30908203125" y="160">Drill</text></g></g><g transform="translate(10,-22) scale(1,1)"><path fill="#C0C0C0" stroke="none" d="M 287 224 C 287 214.6111584 309.6096176 207 337.5 207 C 365.3903824 207 388 214.6111584 388 224 C 388 233.3888416 365.3903824 241 337.5 241 C 309.6096176 241 287 233.3888416 287 224 Z" opacity="0.2"/></g><g transform="translate(10,-22) scale(1,1)"><path fill="#ffffff" stroke="none" d="M 280 217 C 280 207.6111584 302.6096176 200 330.5 200 C 358.3903824 200 381 207.6111584 381 217 C 381 226.3888416 358.3903824 234 330.5 234 C 302.6096176 234 280 226.3888416 280 217 Z"/></g><g transform="translate(10,-22) scale(1,1)"><path fill="none" stroke="#000000" d="M 280 217 C 280 207.6111584 302.6096176 200 330.5 200 C 358.3903824 200 381 207.6111584 381 217 C 381 226.3888416 358.3903824 234 330.5 234 C 302.6096176 234 280 226.3888416 280 217 Z" stroke-miterlimit="10"/></g><g transform="translate(10,-22) scale(1,1)"><g><path fill="none" stroke="none"/><text fill="#000000" stroke="none" font-family="Arial" font-size="13px" font-style="normal" font-weight="bold" text-decoration="none" x="316.411376953125" y="224">Mine</text></g></g><g transform="translate(10,-22) scale(1,1)"><path fill="#C0C0C0" stroke="none" d="M 287 432 C 287 422.6111584 309.6096176 415 337.5 415 C 365.3903824 415 388 422.6111584 388 432 C 388 441.3888416 365.3903824 449 337.5 449 C 309.6096176 449 287 441.3888416 287 432 Z" opacity="0.2"/></g><g transform="translate(10,-22) scale(1,1)"><path fill="#ffffff" stroke="none" d="M 280 425 C 280 415.6111584 302.6096176 408 330.5 408 C 358.3903824 408 381 415.6111584 381 425 C 381 434.3888416 358.3903824 442 330.5 442 C 302.6096176 442 280 434.3888416 280 425 Z"/></g><g transform="translate(10,-22) scale(1,1)"><path fill="none" stroke="#000000" d="M 280 425 C 280 415.6111584 302.6096176 408 330.5 408 C 358.3903824 408 381 415.6111584 381 425 C 381 434.3888416 358.3903824 442 330.5 442 C 302.6096176 442 280 434.3888416 280 425 Z" stroke-miterlimit="10"/></g><g transform="translate(10,-22) scale(1,1)"><g><path fill="none" stroke="none"/><text fill="#000000" stroke="none" font-family="Arial" font-size="13px" font-style="normal" font-weight="bold" text-decoration="none" x="301.957763671875" y="432">Craft gate</text></g></g><g transform="translate(10,-22) scale(1,1)"><path fill="none" stroke="#000000" d="M 126 217 L 224 217 L 224 154 L 125 154" stroke-miterlimit="10"/></g><g transform="translate(10,-22) scale(1,1)"><path fill="none" stroke="#000000" d="M 126 217 L 224 217 L 224 106" stroke-miterlimit="10"/></g><g transform="translate(10,-22) scale(1,1)"><path fill="none" stroke="#000000" d="M 126 217 L 224 217 L 224 153 L 280 153" stroke-miterlimit="10"/></g><g transform="translate(10,-22) scale(1,1)"><path fill="none" stroke="#000000" d="M 126 217 L 224 217 L 224 329 L 280 329" stroke-miterlimit="10"/></g><g transform="translate(10,-22) scale(1,1)"><path fill="none" stroke="#000000" d="M 126 217 L 224 217 L 224 377 L 280 377" stroke-miterlimit="10"/></g><g transform="translate(10,-22) scale(1,1)"><path fill="none" stroke="#000000" d="M 126 217 L 224 217 L 224 425 L 280 425" stroke-miterlimit="10"/></g><g transform="translate(10,-22) scale(1,1)"><path fill="#C0C0C0" stroke="none" d="M 287 480 C 287 470.6111584 314.0867696 463 347.5 463 C 380.9132304 463 408 470.6111584 408 480 C 408 489.3888416 380.9132304 497 347.5 497 C 314.0867696 497 287 489.3888416 287 480 Z" opacity="0.2"/></g><g transform="translate(10,-22) scale(1,1)"><path fill="#ffffff" stroke="none" d="M 280 473 C 280 463.6111584 307.0867696 456 340.5 456 C 373.9132304 456 401 463.6111584 401 473 C 401 482.3888416 373.9132304 490 340.5 490 C 307.0867696 490 280 482.3888416 280 473 Z"/></g><g transform="translate(10,-22) scale(1,1)"><path fill="none" stroke="#000000" d="M 280 473 C 280 463.6111584 307.0867696 456 340.5 456 C 373.9132304 456 401 463.6111584 401 473 C 401 482.3888416 373.9132304 490 340.5 490 C 307.0867696 490 280 482.3888416 280 473 Z" stroke-miterlimit="10"/></g><g transform="translate(10,-22) scale(1,1)"><g><path fill="none" stroke="none"/><text fill="#000000" stroke="none" font-family="Arial" font-size="13px" font-style="normal" font-weight="bold" text-decoration="none" x="305.457763671875" y="480">Craft station</text></g></g><g transform="translate(10,-22) scale(1,1)"><path fill="none" stroke="#000000" d="M 126 217 L 280 217" stroke-miterlimit="10"/></g><g transform="translate(10,-22) scale(1,1)"><path fill="none" stroke="#000000" d="M 126 217 L 224 217 L 224 473 L 280 473" stroke-miterlimit="10"/></g><g transform="translate(10,-22) scale(1,1)"><path fill="#C0C0C0" stroke="none" d="M 15 56 C 15 46.6111584 37.6096176 39 65.5 39 C 93.3903824 39 116 46.6111584 116 56 C 116 65.3888416 93.3903824 73 65.5 73 C 37.6096176 73 15 65.3888416 15 56 Z" opacity="0.2"/></g><g transform="translate(10,-22) scale(1,1)"><path fill="#ffffff" stroke="none" d="M 8 49 C 8 39.6111584 30.6096176 32 58.5 32 C 86.3903824 32 109 39.6111584 109 49 C 109 58.3888416 86.3903824 66 58.5 66 C 30.6096176 66 8 58.3888416 8 49 Z"/></g><g transform="translate(10,-22) scale(1,1)"><path fill="none" stroke="#000000" d="M 8 49 C 8 39.6111584 30.6096176 32 58.5 32 C 86.3903824 32 109 39.6111584 109 49 C 109 58.3888416 86.3903824 66 58.5 66 C 30.6096176 66 8 58.3888416 8 49 Z" stroke-miterlimit="10"/></g><g transform="translate(10,-22) scale(1,1)"><g><path fill="none" stroke="none"/><text fill="#000000" stroke="none" font-family="Arial" font-size="13px" font-style="normal" font-weight="bold" text-decoration="none" x="32.484130859375" y="56">Use gate</text></g></g><g transform="translate(10,-22) scale(1,1)"><path fill="none" stroke="#000000" d="M 71 135 L 61 67" stroke-miterlimit="10"/></g><g transform="translate(10,-22) scale(1,1)"><path fill="#C0C0C0" stroke="none" d="M 7 640 C 7 630.6111584 30.057332799999998 623 58.5 623 C 86.9426672 623 110 630.6111584 110 640 C 110 649.3888416 86.9426672 657 58.5 657 C 30.057332799999998 657 7 649.3888416 7 640 Z" opacity="0.2"/></g><g transform="translate(10,-22) scale(1,1)"><path fill="#ffffff" stroke="none" d="M 0 633 C 0 623.6111584 23.057332799999998 616 51.5 616 C 79.9426672 616 103 623.6111584 103 633 C 103 642.3888416 79.9426672 650 51.5 650 C 23.057332799999998 650 0 642.3888416 0 633 Z"/></g><g transform="translate(10,-22) scale(1,1)"><path fill="none" stroke="#000000" d="M 0 633 C 0 623.6111584 23.057332799999998 616 51.5 616 C 79.9426672 616 103 623.6111584 103 633 C 103 642.3888416 79.9426672 650 51.5 650 C 23.057332799999998 650 0 642.3888416 0 633 Z" stroke-miterlimit="10"/></g><g transform="translate(10,-22) scale(1,1)"><g><path fill="none" stroke="none"/><text fill="#000000" stroke="none" font-family="Arial" font-size="13px" font-style="normal" font-weight="bold" text-decoration="none" x="21.87548828125" y="640">Solar flare</text></g></g><g transform="translate(10,-22) scale(1,1)"><path fill="#C0C0C0" stroke="none" d="M 71 704 C 71 694.6111584 111.07051039999999 687 160.5 687 C 209.9294896 687 250 694.6111584 250 704 C 250 713.3888416 209.9294896 721 160.5 721 C 111.07051039999999 721 71 713.3888416 71 704 Z" opacity="0.2"/></g><g transform="translate(10,-22) scale(1,1)"><path fill="#ffffff" stroke="none" d="M 64 697 C 64 687.6111584 104.07051039999999 680 153.5 680 C 202.9294896 680 243 687.6111584 243 697 C 243 706.3888416 202.9294896 714 153.5 714 C 104.07051039999999 714 64 706.3888416 64 697 Z"/></g><g transform="translate(10,-22) scale(1,1)"><path fill="none" stroke="#000000" d="M 64 697 C 64 687.6111584 104.07051039999999 680 153.5 680 C 202.9294896 680 243 687.6111584 243 697 C 243 706.3888416 202.9294896 714 153.5 714 C 104.07051039999999 714 64 706.3888416 64 697 Z" stroke-miterlimit="10"/></g><g transform="translate(10,-22) scale(1,1)"><g><path fill="none" stroke="none"/><text fill="#000000" stroke="none" font-family="Arial" font-size="13px" font-style="normal" font-weight="bold" text-decoration="none" x="98.945068359375" y="704">Move asteroid field</text></g></g><g transform="translate(10,-22) scale(1,1)"><path fill="#C0C0C0" stroke="none" d="M 223 624 C 223 614.6111584 255.459352 607 295.5 607 C 335.54064800000003 607 368 614.6111584 368 624 C 368 633.3888416 335.54064800000003 641 295.5 641 C 255.459352 641 223 633.3888416 223 624 Z" opacity="0.2"/></g><g transform="translate(10,-22) scale(1,1)"><path fill="#ffffff" stroke="none" d="M 216 617 C 216 607.6111584 248.459352 600 288.5 600 C 328.54064800000003 600 361 607.6111584 361 617 C 361 626.3888416 328.54064800000003 634 288.5 634 C 248.459352 634 216 626.3888416 216 617 Z"/></g><g transform="translate(10,-22) scale(1,1)"><path fill="none" stroke="#000000" d="M 216 617 C 216 607.6111584 248.459352 600 288.5 600 C 328.54064800000003 600 361 607.6111584 361 617 C 361 626.3888416 328.54064800000003 634 288.5 634 C 248.459352 634 216 626.3888416 216 617 Z" stroke-miterlimit="10"/></g><g transform="translate(10,-22) scale(1,1)"><g><path fill="none" stroke="none"/><text fill="#000000" stroke="none" font-family="Arial" font-size="13px" font-style="normal" font-weight="bold" text-decoration="none" x="246.23095703125" y="624">Controll robots</text></g></g><g transform="translate(10,-22) scale(1,1)"><path fill="#C0C0C0" stroke="none" d="M 287 528 C 287 518.6111584 319.0116368 511 358.5 511 C 397.9883632 511 430 518.6111584 430 528 C 430 537.3888416 397.9883632 545 358.5 545 C 319.0116368 545 287 537.3888416 287 528 Z" opacity="0.2"/></g><g transform="translate(10,-22) scale(1,1)"><path fill="#ffffff" stroke="none" d="M 280 521 C 280 511.6111584 312.0116368 504 351.5 504 C 390.9883632 504 423 511.6111584 423 521 C 423 530.3888416 390.9883632 538 351.5 538 C 312.0116368 538 280 530.3888416 280 521 Z"/></g><g transform="translate(10,-22) scale(1,1)"><path fill="none" stroke="#000000" d="M 280 521 C 280 511.6111584 312.0116368 504 351.5 504 C 390.9883632 504 423 511.6111584 423 521 C 423 530.3888416 390.9883632 538 351.5 538 C 312.0116368 538 280 530.3888416 280 521 Z" stroke-miterlimit="10"/></g><g transform="translate(10,-22) scale(1,1)"><g><path fill="none" stroke="none"/><text fill="#000000" stroke="none" font-family="Arial" font-size="13px" font-style="normal" font-weight="bold" text-decoration="none" x="308.1455078125" y="528">Place resource</text></g></g><g transform="translate(10,-22) scale(1,1)"><path fill="#C0C0C0" stroke="none" d="M 415 584 C 415 574.6111584 441.4151968 567 474 567 C 506.5848032 567 533 574.6111584 533 584 C 533 593.3888416 506.5848032 601 474 601 C 441.4151968 601 415 593.3888416 415 584 Z" opacity="0.2"/></g><g transform="translate(10,-22) scale(1,1)"><path fill="#ffffff" stroke="none" d="M 408 577 C 408 567.6111584 434.4151968 560 467 560 C 499.5848032 560 526 567.6111584 526 577 C 526 586.3888416 499.5848032 594 467 594 C 434.4151968 594 408 586.3888416 408 577 Z"/></g><g transform="translate(10,-22) scale(1,1)"><path fill="none" stroke="#000000" d="M 408 577 C 408 567.6111584 434.4151968 560 467 560 C 499.5848032 560 526 567.6111584 526 577 C 526 586.3888416 499.5848032 594 467 594 C 434.4151968 594 408 586.3888416 408 577 Z" stroke-miterlimit="10"/></g><g transform="translate(10,-22) scale(1,1)"><g><path fill="none" stroke="none"/><text fill="#000000" stroke="none" font-family="Arial" font-size="13px" font-style="normal" font-weight="bold" text-decoration="none" x="431.95458984375" y="584">Move Robot</text></g></g><g transform="translate(10,-22) scale(1,1)"><path fill="#C0C0C0" stroke="none" d="M 439 664 C 439 654.6111584 462.505048 647 491.5 647 C 520.494952 647 544 654.6111584 544 664 C 544 673.3888416 520.494952 681 491.5 681 C 462.505048 681 439 673.3888416 439 664 Z" opacity="0.2"/></g><g transform="translate(10,-22) scale(1,1)"><path fill="#ffffff" stroke="none" d="M 432 657 C 432 647.6111584 455.505048 640 484.5 640 C 513.494952 640 537 647.6111584 537 657 C 537 666.3888416 513.494952 674 484.5 674 C 455.505048 674 432 666.3888416 432 657 Z"/></g><g transform="translate(10,-22) scale(1,1)"><path fill="none" stroke="#000000" d="M 432 657 C 432 647.6111584 455.505048 640 484.5 640 C 513.494952 640 537 647.6111584 537 657 C 537 666.3888416 513.494952 674 484.5 674 C 455.505048 674 432 666.3888416 432 657 Z" stroke-miterlimit="10"/></g><g transform="translate(10,-22) scale(1,1)"><g><path fill="none" stroke="none"/><text fill="#000000" stroke="none" font-family="Arial" font-size="13px" font-style="normal" font-weight="bold" text-decoration="none" x="455.2373046875" y="664">Robot drill</text></g></g><g transform="translate(10,-22) scale(1,1)"><path fill="#C0C0C0" stroke="none" d="M 303 744 C 303 734.6111584 327.8481936 727 358.5 727 C 389.1518064 727 414 734.6111584 414 744 C 414 753.3888416 389.1518064 761 358.5 761 C 327.8481936 761 303 753.3888416 303 744 Z" opacity="0.2"/></g><g transform="translate(10,-22) scale(1,1)"><path fill="#ffffff" stroke="none" d="M 296 737 C 296 727.6111584 320.8481936 720 351.5 720 C 382.1518064 720 407 727.6111584 407 737 C 407 746.3888416 382.1518064 754 351.5 754 C 320.8481936 754 296 746.3888416 296 737 Z"/></g><g transform="translate(10,-22) scale(1,1)"><path fill="none" stroke="#000000" d="M 296 737 C 296 727.6111584 320.8481936 720 351.5 720 C 382.1518064 720 407 727.6111584 407 737 C 407 746.3888416 382.1518064 754 351.5 754 C 320.8481936 754 296 746.3888416 296 737 Z" stroke-miterlimit="10"/></g><g transform="translate(10,-22) scale(1,1)"><g><path fill="none" stroke="none"/><text fill="#000000" stroke="none" font-family="Arial" font-size="13px" font-style="normal" font-weight="bold" text-decoration="none" x="318.98095703125" y="744">Robot Hide</text></g></g><g transform="translate(10,-22) scale(1,1)"><path fill="#C0C0C0" stroke="none" d="M 23 224 C 23 214.6111584 47.624336 207 78 207 C 108.375664 207 133 214.6111584 133 224 C 133 233.3888416 108.375664 241 78 241 C 47.624336 241 23 233.3888416 23 224 Z" opacity="0.2"/></g><g transform="translate(10,-22) scale(1,1)"><path fill="#ffffff" stroke="none" d="M 16 217 C 16 207.6111584 40.624336 200 71 200 C 101.375664 200 126 207.6111584 126 217 C 126 226.3888416 101.375664 234 71 234 C 40.624336 234 16 226.3888416 16 217 Z"/></g><g transform="translate(10,-22) scale(1,1)"><path fill="none" stroke="#000000" d="M 16 217 C 16 207.6111584 40.624336 200 71 200 C 101.375664 200 126 207.6111584 126 217 C 126 226.3888416 101.375664 234 71 234 C 40.624336 234 16 226.3888416 16 217 Z" stroke-miterlimit="10"/></g><g transform="translate(10,-22) scale(1,1)"><g><path fill="none" stroke="none"/><text fill="#000000" stroke="none" font-family="Arial" font-size="13px" font-style="normal" font-weight="bold" text-decoration="none" x="38.84912109375" y="224">Player task</text></g></g><g transform="translate(10,-22) scale(1,1)"><path fill="none" stroke="#000000" d="M 67 303 L 70 235" stroke-miterlimit="10"/></g><g transform="translate(10,-22) scale(1,1)"><path fill="#C0C0C0" stroke="none" d="M 15 504 C 15 494.6111584 46.787779199999996 487 86 487 C 125.21222080000001 487 157 494.6111584 157 504 C 157 513.3888416 125.21222080000001 521 86 521 C 46.787779199999996 521 15 513.3888416 15 504 Z" opacity="0.2"/></g><g transform="translate(10,-22) scale(1,1)"><path fill="#ffffff" stroke="none" d="M 8 497 C 8 487.6111584 39.787779199999996 480 79 480 C 118.21222080000001 480 150 487.6111584 150 497 C 150 506.3888416 118.21222080000001 514 79 514 C 39.787779199999996 514 8 506.3888416 8 497 Z"/></g><g transform="translate(10,-22) scale(1,1)"><path fill="none" stroke="#000000" d="M 8 497 C 8 487.6111584 39.787779199999996 480 79 480 C 118.21222080000001 480 150 487.6111584 150 497 C 150 506.3888416 118.21222080000001 514 79 514 C 39.787779199999996 514 8 506.3888416 8 497 Z" stroke-miterlimit="10"/></g><g transform="translate(10,-22) scale(1,1)"><g><path fill="none" stroke="none"/><text fill="#000000" stroke="none" font-family="Arial" font-size="13px" font-style="normal" font-weight="bold" text-decoration="none" x="37.095947265625" y="504">Controller task</text></g></g><g transform="translate(10,-22) scale(1,1)"><path fill="none" stroke="#000000" d="M 69 384 L 77 479" stroke-miterlimit="10"/></g><g transform="translate(10,-22) scale(1,1)"><path fill="none" stroke="#000000" d="M 75 515 L 55 615" stroke-miterlimit="10"/></g><g transform="translate(10,-22) scale(1,1)"><path fill="none" stroke="#000000" d="M 110 515 L 257 599" stroke-miterlimit="10"/></g><g transform="translate(10,-22) scale(1,1)"><path fill="none" stroke="#000000" d="M 362 600 L 407 590" stroke-miterlimit="10"/></g><g transform="translate(10,-22) scale(1,1)"><path fill="none" stroke="#000000" d="M 362 632 L 431 646" stroke-miterlimit="10"/></g><g transform="translate(10,-22) scale(1,1)"><path fill="none" stroke="#000000" d="M 297 635 L 342 719" stroke-miterlimit="10"/></g><g transform="translate(10,-22) scale(1,1)"><path fill="none" stroke="#000000" d="M 280 521 L 224 521 L 224 217 L 126 217" stroke-miterlimit="10"/></g><g transform="translate(10,-22) scale(1,1)"><path fill="none" stroke="#000000" d="M 86 515 L 146 679" stroke-miterlimit="10"/></g><g transform="translate(10,-22) scale(1,1)"><path fill="#C0C0C0" stroke="none" d="M 287 280 C 287 270.6111584 315.4299152 263 350.5 263 C 385.5700848 263 414 270.6111584 414 280 C 414 289.3888416 385.5700848 297 350.5 297 C 315.4299152 297 287 289.3888416 287 280 Z" opacity="0.2"/></g><g transform="translate(10,-22) scale(1,1)"><path fill="#ffffff" stroke="none" d="M 280 273 C 280 263.6111584 308.4299152 256 343.5 256 C 378.5700848 256 407 263.6111584 407 273 C 407 282.3888416 378.5700848 290 343.5 290 C 308.4299152 290 280 282.3888416 280 273 Z"/></g><g transform="translate(10,-22) scale(1,1)"><path fill="none" stroke="#000000" d="M 280 273 C 280 263.6111584 308.4299152 256 343.5 256 C 378.5700848 256 407 263.6111584 407 273 C 407 282.3888416 378.5700848 290 343.5 290 C 308.4299152 290 280 282.3888416 280 273 Z" stroke-miterlimit="10"/></g><g transform="translate(10,-22) scale(1,1)"><g><path fill="none" stroke="none"/><text fill="#000000" stroke="none" font-family="Arial" font-size="13px" font-style="normal" font-weight="bold" text-decoration="none" x="306.655029296875" y="280">Direct robots</text></g></g><g transform="translate(10,-22) scale(1,1)"><path fill="none" stroke="#000000" d="M 126 217 L 224 217 L 224 273 L 280 273" stroke-miterlimit="10"/></g></g></svg>