<?xml version="1.0" encoding="utf-8"?>
<svg version="1.1" xmlns="http://www.w3.org/2000/svg" xmlns:xlink="http://www.w3.org/1999/xlink" width="436" height="284">
  <defs />
  <g>
    <g transform="translate(2,2) scale(1,1)">
      <path fill="none" stroke="#000000" d="M 8 8 L 424 8 L 424 272 L 8 272 L 8 8" stroke-miterlimit="10" />
    </g>
    <g transform="translate(2,2) scale(1,1)">
      <path fill="#ffffff" stroke="none" d="M 8 8 L 8 30 L 202.49609375 30 L 213.49609375 19 L 213.49609375 8 L 8 8" />
    </g>
    <g transform="translate(2,2) scale(1,1)">
      <path fill="none" stroke="#000000" d="M 8 8 L 8 30 L 202.49609375 30 L 213.49609375 19 L 213.49609375 8 L 8 8 L 8 8" stroke-miterlimit="10" />
    </g>
    <g transform="translate(2,2) scale(1,1)">
      <g>
        <path fill="none" stroke="none" />
        <text fill="#000000" stroke="none" font-family="Arial" font-size="13px" font-style="normal" font-weight="normal" text-decoration="none" x="32.72998046875" y="25.5">Tester changes sun distance</text>
      </g>
    </g>
    <g transform="translate(2,2) scale(1,1)">
      <g>
        <path fill="none" stroke="none" />
        <text fill="#000000" stroke="none" font-family="Arial" font-size="13px" font-style="normal" font-weight="bold" text-decoration="none" x="13" y="25.5">sd</text>
      </g>
    </g>
    <g transform="translate(2,2) scale(1,1)">
      <rect fill="#C0C0C0" stroke="none" x="47" y="47" width="115.20263671875" height="39" opacity="0.2" />
    </g>
    <g transform="translate(2,2) scale(1,1)">
      <rect fill="#ffffff" stroke="none" x="40" y="40" width="115.20263671875" height="39" />
    </g>
    <g transform="translate(2,2) scale(1,1)">
      <path fill="none" stroke="#000000" d="M 40 40 L 155.20263671875 40 L 155.20263671875 79 L 40 79 L 40 40 Z Z" stroke-miterlimit="10" />
    </g>
    <g transform="translate(2,2) scale(1,1)">
      <rect fill="#ffffff" stroke="none" x="40" y="40" width="115.20263671875" height="39" />
    </g>
    <g transform="translate(2,2) scale(1,1)">
      <path fill="none" stroke="#000000" d="M 40 40 L 155.20263671875 40 L 155.20263671875 79 L 40 79 L 40 40 Z Z" stroke-miterlimit="10" />
    </g>
    <g transform="translate(2,2) scale(1,1)">
      <g>
        <path fill="none" stroke="none" />
        <text fill="#000000" stroke="none" font-family="Arial" font-size="13px" font-style="normal" font-weight="bold" text-decoration="none" x="73.0390625" y="59.5">T: Tester</text>
      </g>
    </g>
    <g transform="translate(2,2) scale(1,1)">
      <g>
        <path fill="none" stroke="none" />
        <text fill="#000000" stroke="none" font-family="Arial" font-size="13px" font-style="normal" font-weight="normal" text-decoration="none" x="44.5" y="74.5">(from Interaction1)</text>
      </g>
    </g>
    <g transform="translate(2,2) scale(1,1)">
      <rect fill="#C0C0C0" stroke="none" x="271" y="183" width="127.47265625" height="39" opacity="0.2" />
    </g>
    <g transform="translate(2,2) scale(1,1)">
      <rect fill="#ffffff" stroke="none" x="264" y="176" width="127.47265625" height="39" />
    </g>
    <g transform="translate(2,2) scale(1,1)">
      <path fill="none" stroke="#000000" d="M 264 176 L 391.47265625 176 L 391.47265625 215 L 264 215 L 264 176 Z Z" stroke-miterlimit="10" />
    </g>
    <g transform="translate(2,2) scale(1,1)">
      <rect fill="#ffffff" stroke="none" x="264" y="176" width="127.47265625" height="39" />
    </g>
    <g transform="translate(2,2) scale(1,1)">
      <path fill="none" stroke="#000000" d="M 264 176 L 391.47265625 176 L 391.47265625 215 L 264 215 L 264 176 Z Z" stroke-miterlimit="10" />
    </g>
    <g transform="translate(2,2) scale(1,1)">
      <g>
        <path fill="none" stroke="none" />
        <text fill="#000000" stroke="none" font-family="Arial" font-size="13px" font-style="normal" font-weight="bold" text-decoration="none" x="270.299560546875" y="195.5">GM: GameManager</text>
      </g>
    </g>
    <g transform="translate(2,2) scale(1,1)">
      <g>
        <path fill="none" stroke="none" />
        <text fill="#000000" stroke="none" font-family="Arial" font-size="13px" font-style="normal" font-weight="normal" text-decoration="none" x="274.635009765625" y="210.5">(from Interaction1)</text>
      </g>
    </g>
    <g transform="translate(2,2) scale(1,1)">
      <path fill="none" stroke="#000000" d="M 133 80 L 293 175" stroke-miterlimit="10" />
    </g>
    <g transform="translate(2,2) scale(1,1)">
      <path fill="none" stroke="#000000" d="M 233 120 L 199 100" stroke-miterlimit="10" />
    </g>
    <g transform="translate(2,2) scale(1,1)">
      <path fill="#000000" stroke="none" d="M 221 118 L 233 120 L 225 110" />
    </g>
    <g transform="translate(2,2) scale(1,1)">
      <g>
        <path fill="none" stroke="none" />
        <text fill="#000000" stroke="none" font-family="Arial" font-size="13px" font-style="normal" font-weight="normal" text-decoration="none" x="214.4091796875" y="89.5">1 : ChangeAFDistance(int)</text>
      </g>
    </g>
    <g transform="translate(2,2) scale(1,1)">
      <path fill="none" stroke="#000000" d="M 152 117 L 186 137" stroke-miterlimit="10" stroke-dasharray="3" />
    </g>
    <g transform="translate(2,2) scale(1,1)">
      <path fill="none" stroke="#000000" d="M 163 118 L 152 117 L 159 126" stroke-miterlimit="10" />
    </g>
    <g transform="translate(2,2) scale(1,1)">
      <g>
        <path fill="none" stroke="none" />
        <text fill="#000000" stroke="none" font-family="Arial" font-size="13px" font-style="normal" font-weight="normal" text-decoration="none" x="104.552734375" y="147.5">2 : m</text>
      </g>
    </g>
  </g>
</svg>