<?xml version="1.0" encoding="utf-8"?>
<svg version="1.1" xmlns="http://www.w3.org/2000/svg" xmlns:xlink="http://www.w3.org/1999/xlink" width="791" height="611">
  <defs />
  <g>
    <g transform="translate(-70,2) scale(1,1)">
      <path fill="none" stroke="#000000" d="M 104 8 L 851 8 L 851 599 L 104 599 L 104 8" stroke-miterlimit="10" />
    </g>
    <g transform="translate(-70,2) scale(1,1)">
      <path fill="#ffffff" stroke="none" d="M 104 8 L 104 30 L 248.63525390625 30 L 259.63525390625 19 L 259.63525390625 8 L 104 8" />
    </g>
    <g transform="translate(-70,2) scale(1,1)">
      <path fill="none" stroke="#000000" d="M 104 8 L 104 30 L 248.63525390625 30 L 259.63525390625 19 L 259.63525390625 8 L 104 8 L 104 8" stroke-miterlimit="10" />
    </g>
    <g transform="translate(-70,2) scale(1,1)">
      <g>
        <path fill="none" stroke="none" />
        <text fill="#000000" stroke="none" font-family="Arial" font-size="13px" font-style="normal" font-weight="normal" text-decoration="none" x="128.72998046875" y="25.5">SequenceDiagram1</text>
      </g>
    </g>
    <g transform="translate(-70,2) scale(1,1)">
      <g>
        <path fill="none" stroke="none" />
        <text fill="#000000" stroke="none" font-family="Arial" font-size="13px" font-style="normal" font-weight="bold" text-decoration="none" x="109" y="25.5">sd</text>
      </g>
    </g>
    <g transform="translate(-70,2) scale(1,1)">
      <rect fill="#C0C0C0" stroke="none" x="239" y="47" width="185.6259765625" height="39" opacity="0.2" />
    </g>
    <g transform="translate(-70,2) scale(1,1)">
      <rect fill="#ffffff" stroke="none" x="232" y="40" width="185.6259765625" height="39" />
    </g>
    <g transform="translate(-70,2) scale(1,1)">
      <path fill="none" stroke="#000000" d="M 232 40 L 417.6259765625 40 L 417.6259765625 79 L 232 79 L 232 40 Z Z" stroke-miterlimit="10" />
    </g>
    <g transform="translate(-70,2) scale(1,1)">
      <g>
        <path fill="none" stroke="none" />
        <text fill="#000000" stroke="none" font-family="Arial" font-size="13px" font-style="normal" font-weight="bold" text-decoration="none" x="247.13037109375" y="59.5">Lifeline1: TeleportGateItem</text>
      </g>
    </g>
    <g transform="translate(-70,2) scale(1,1)">
      <path fill="none" stroke="#000000" d="M 325.5 80 L 325.5 406" stroke-miterlimit="10" stroke-dasharray="3" />
    </g>
    <g transform="translate(-70,2) scale(1,1)">
      <path fill="#000000" stroke="none" d="M 80 117.5 C 80 113.6340064 83.1340064 110.5 87 110.5 C 90.8659936 110.5 94 113.6340064 94 117.5 C 94 121.3659936 90.8659936 124.5 87 124.5 C 83.1340064 124.5 80 121.3659936 80 117.5 Z" />
    </g>
    <g transform="translate(-70,2) scale(1,1)">
      <rect fill="#C0C0C0" stroke="none" x="495" y="47" width="146.1435546875" height="39" opacity="0.2" />
    </g>
    <g transform="translate(-70,2) scale(1,1)">
      <rect fill="#ffffff" stroke="none" x="488" y="40" width="146.1435546875" height="39" />
    </g>
    <g transform="translate(-70,2) scale(1,1)">
      <path fill="none" stroke="#000000" d="M 488 40 L 634.1435546875 40 L 634.1435546875 79 L 488 79 L 488 40 Z Z" stroke-miterlimit="10" />
    </g>
    <g transform="translate(-70,2) scale(1,1)">
      <g>
        <path fill="none" stroke="none" />
        <text fill="#000000" stroke="none" font-family="Arial" font-size="13px" font-style="normal" font-weight="bold" text-decoration="none" x="501.806884765625" y="59.5">Lifeline2: SpaceShip</text>
      </g>
    </g>
    <g transform="translate(-70,2) scale(1,1)">
      <path fill="none" stroke="#000000" d="M 562.5 80 L 562.5 186" stroke-miterlimit="10" stroke-dasharray="3" />
    </g>
    <g transform="translate(-70,2) scale(1,1)">
      <rect fill="#C0C0C0" stroke="none" x="599" y="219" width="158.89599609375" height="39" opacity="0.2" />
    </g>
    <g transform="translate(-70,2) scale(1,1)">
      <rect fill="#ffffff" stroke="none" x="592" y="212" width="158.89599609375" height="39" />
    </g>
    <g transform="translate(-70,2) scale(1,1)">
      <path fill="none" stroke="#000000" d="M 592 212 L 750.89599609375 212 L 750.89599609375 251 L 592 251 L 592 212 Z Z" stroke-miterlimit="10" />
    </g>
    <g transform="translate(-70,2) scale(1,1)">
      <g>
        <path fill="none" stroke="none" />
        <text fill="#000000" stroke="none" font-family="Arial" font-size="13px" font-style="normal" font-weight="bold" text-decoration="none" x="606.40673828125" y="231.5">Lifeline3: TeleportGate</text>
      </g>
    </g>
    <g transform="translate(-70,2) scale(1,1)">
      <path fill="none" stroke="#000000" d="M 672.5 252 L 672.5 467" stroke-miterlimit="10" stroke-dasharray="3" />
    </g>
    <g transform="translate(-70,2) scale(1,1)">
      <path fill="none" stroke="#000000" d="M 94 118 L 318 118" stroke-miterlimit="10" />
    </g>
    <g transform="translate(-70,2) scale(1,1)">
      <path fill="#000000" stroke="none" d="M 307.83732514237585 122.20951775601598 L 318 118 L 307.83732514237585 113.79048224398402" />
    </g>
    <g transform="translate(-70,2) scale(1,1)">
      <path fill="none" stroke="#000000" d="M 307.83732514237585 122.20951775601598 L 318 118 L 307.83732514237585 113.79048224398402 L 307.83732514237585 122.20951775601598" stroke-miterlimit="10" />
    </g>
    <g transform="translate(-70,2) scale(1,1)">
      <g>
        <path fill="none" stroke="none" />
        <text fill="#000000" stroke="none" font-family="Arial" font-size="13px" font-style="normal" font-weight="normal" text-decoration="none" x="131.5" y="114.5">1 : Activate(s: SpaceShip)</text>
      </g>
    </g>
    <g transform="translate(-70,2) scale(1,1)">
      <rect fill="#ffffff" stroke="none" x="318" y="118" width="13" height="274" />
    </g>
    <g transform="translate(-70,2) scale(1,1)">
      <path fill="none" stroke="#000000" d="M 318 118 L 331 118 L 331 392 L 318 392 L 318 118 Z Z" stroke-miterlimit="10" />
    </g>
    <g transform="translate(-70,2) scale(1,1)">
      <path fill="none" stroke="#000000" d="M 331 136 L 555 136" stroke-miterlimit="10" />
    </g>
    <g transform="translate(-70,2) scale(1,1)">
      <path fill="#000000" stroke="none" d="M 544.8373251423759 140.209517756016 L 555 136 L 544.8373251423758 131.790482243984" />
    </g>
    <g transform="translate(-70,2) scale(1,1)">
      <path fill="none" stroke="#000000" d="M 544.8373251423759 140.209517756016 L 555 136 L 544.8373251423758 131.790482243984 L 544.8373251423759 140.209517756016" stroke-miterlimit="10" />
    </g>
    <g transform="translate(-70,2) scale(1,1)">
      <g>
        <path fill="none" stroke="none" />
        <text fill="#000000" stroke="none" font-family="Arial" font-size="13px" font-style="normal" font-weight="normal" text-decoration="none" x="377.5" y="132.5">2 : GetCurrentAsteroid</text>
      </g>
    </g>
    <g transform="translate(-70,2) scale(1,1)">
      <rect fill="#ffffff" stroke="none" x="555" y="136" width="13" height="28" />
    </g>
    <g transform="translate(-70,2) scale(1,1)">
      <path fill="none" stroke="#000000" d="M 555 136 L 568 136 L 568 164 L 555 164 L 555 136 Z Z" stroke-miterlimit="10" />
    </g>
    <g transform="translate(-70,2) scale(1,1)">
      <path fill="none" stroke="#000000" d="M 555 156 L 331 156" stroke-miterlimit="10" stroke-dasharray="3" />
    </g>
    <g transform="translate(-70,2) scale(1,1)">
      <path fill="none" stroke="#000000" d="M 341.16267485762415 151.790482243984 L 331 156 L 341.16267485762415 160.209517756016" stroke-miterlimit="10" />
    </g>
    <g transform="translate(-70,2) scale(1,1)">
      <g>
        <path fill="none" stroke="none" />
        <text fill="#000000" stroke="none" font-family="Arial" font-size="13px" font-style="normal" font-weight="normal" text-decoration="none" x="405.897216796875" y="172.5">3 : a = result</text>
      </g>
    </g>
    <g transform="translate(-70,2) scale(1,1)">
      <path fill="none" stroke="#000000" d="M 331 232 L 592 232" stroke-miterlimit="10" stroke-dasharray="3" />
    </g>
    <g transform="translate(-70,2) scale(1,1)">
      <path fill="none" stroke="#000000" d="M 581.8373251423759 236.209517756016 L 592 232 L 581.8373251423758 227.790482243984" stroke-miterlimit="10" />
    </g>
    <g transform="translate(-70,2) scale(1,1)">
      <g>
        <path fill="none" stroke="none" />
        <text fill="#000000" stroke="none" font-family="Arial" font-size="13px" font-style="normal" font-weight="normal" text-decoration="none" x="393.5" y="228.5">4 : Building(a: Asteroid)</text>
      </g>
    </g>
    <g transform="translate(-70,2) scale(1,1)">
      <g>
        <path fill="none" stroke="none" />
        <text fill="#000000" stroke="none" font-family="Arial" font-size="13px" font-style="normal" font-weight="normal" text-decoration="none" x="435.5" y="213.5">«create»</text>
      </g>
    </g>
  </g>
</svg>