<?xml version="1.0" encoding="utf-8"?>
<svg version="1.1" xmlns="http://www.w3.org/2000/svg" xmlns:xlink="http://www.w3.org/1999/xlink" width="991" height="675">
  <defs />
  <g>
    <g transform="translate(-43,-14) scale(1,1)">
      <path fill="none" stroke="#000000" d="M 176 24 L 1024 24 L 1024 608 L 176 608 L 176 24" stroke-miterlimit="10" />
    </g>
    <g transform="translate(-43,-14) scale(1,1)">
      <path fill="#ffffff" stroke="none" d="M 176 24 L 176 46 L 350.97705078125 46 L 361.97705078125 35 L 361.97705078125 24 L 176 24" />
    </g>
    <g transform="translate(-43,-14) scale(1,1)">
      <path fill="none" stroke="#000000" d="M 176 24 L 176 46 L 350.97705078125 46 L 361.97705078125 35 L 361.97705078125 24 L 176 24 L 176 24" stroke-miterlimit="10" />
    </g>
    <g transform="translate(-43,-14) scale(1,1)">
      <g>
        <path fill="none" stroke="none" />
        <text fill="#000000" stroke="none" font-family="Arial" font-size="13px" font-style="normal" font-weight="normal" text-decoration="none" x="246.97900390625" y="41.5">Vessel exitHiding</text>
      </g>
    </g>
    <g transform="translate(-43,-14) scale(1,1)">
      <g>
        <path fill="none" stroke="none" />
        <text fill="#000000" stroke="none" font-family="Arial" font-size="13px" font-style="normal" font-weight="bold" text-decoration="none" x="181" y="41.5">interaction</text>
      </g>
    </g>
    <g transform="translate(-43,-14) scale(1,1)">
      <path fill="#ffffff" stroke="none" d="M 100.8631454190341 47.3 C 100.8631454190341 43.82060576 103.74154714121592 41 107.292236328125 41 C 110.84292551503408 41 113.7213272372159 43.82060576 113.7213272372159 47.3 C 113.7213272372159 50.779394239999995 110.84292551503408 53.6 107.292236328125 53.6 C 103.74154714121592 53.6 100.8631454190341 50.779394239999995 100.8631454190341 47.3 Z" />
    </g>
    <g transform="translate(-43,-14) scale(1,1)">
      <path fill="none" stroke="#000000" d="M 100.8631454190341 47.3 C 100.8631454190341 43.82060576 103.74154714121592 41 107.292236328125 41 C 110.84292551503408 41 113.7213272372159 43.82060576 113.7213272372159 47.3 C 113.7213272372159 50.779394239999995 110.84292551503408 53.6 107.292236328125 53.6 C 103.74154714121592 53.6 100.8631454190341 50.779394239999995 100.8631454190341 47.3 Z" stroke-miterlimit="10" />
    </g>
    <g transform="translate(-43,-14) scale(1,1)">
      <path fill="none" stroke="#000000" d="M 107.292236328125 53.6 L 107.292236328125 66.4" stroke-miterlimit="10" />
    </g>
    <g transform="translate(-43,-14) scale(1,1)">
      <path fill="none" stroke="#000000" d="M 100.48496360085227 58.4 L 114.09950905539773 58.4" stroke-miterlimit="10" />
    </g>
    <g transform="translate(-43,-14) scale(1,1)">
      <path fill="none" stroke="#000000" d="M 107.292236328125 66.4 L 97.83769087357955 79" stroke-miterlimit="10" />
    </g>
    <g transform="translate(-43,-14) scale(1,1)">
      <path fill="none" stroke="#000000" d="M 107.292236328125 66.4 L 116.74678178267045 79" stroke-miterlimit="10" />
    </g>
    <g transform="translate(-43,-14) scale(1,1)">
      <g>
        <path fill="none" stroke="none" />
        <text fill="#000000" stroke="none" font-family="Arial" font-size="13px" font-style="normal" font-weight="bold" text-decoration="none" x="65.74365234375" y="99.5">Lifeline1: User</text>
      </g>
    </g>
    <g transform="translate(-43,-14) scale(1,1)">
      <path fill="none" stroke="#000000" d="M 108.5 105 L 108.5 663" stroke-miterlimit="10" stroke-dasharray="3" />
    </g>
    <g transform="translate(-43,-14) scale(1,1)">
      <rect fill="#C0C0C0" stroke="none" x="367" y="47" width="120.16259765625" height="39" opacity="0.2" />
    </g>
    <g transform="translate(-43,-14) scale(1,1)">
      <rect fill="#ffffff" stroke="none" x="360" y="40" width="120.16259765625" height="39" />
    </g>
    <g transform="translate(-43,-14) scale(1,1)">
      <path fill="none" stroke="#000000" d="M 360 40 L 480.16259765625 40 L 480.16259765625 79 L 360 79 L 360 40 Z Z" stroke-miterlimit="10" />
    </g>
    <g transform="translate(-43,-14) scale(1,1)">
      <g>
        <path fill="none" stroke="none" />
        <text fill="#000000" stroke="none" font-family="Arial" font-size="13px" font-style="normal" font-weight="bold" text-decoration="none" x="394.068603515625" y="59.5">v: Vessel</text>
      </g>
    </g>
    <g transform="translate(-43,-14) scale(1,1)">
      <path fill="none" stroke="#000000" d="M 421.5 80 L 421.5 679" stroke-miterlimit="10" stroke-dasharray="3" />
    </g>
    <g transform="translate(-43,-14) scale(1,1)">
      <rect fill="#C0C0C0" stroke="none" x="519" y="47" width="185.47998046875" height="39" opacity="0.2" />
    </g>
    <g transform="translate(-43,-14) scale(1,1)">
      <rect fill="#ffffff" stroke="none" x="512" y="40" width="185.47998046875" height="39" />
    </g>
    <g transform="translate(-43,-14) scale(1,1)">
      <path fill="none" stroke="#000000" d="M 512 40 L 697.47998046875 40 L 697.47998046875 79 L 512 79 L 512 40 Z Z" stroke-miterlimit="10" />
    </g>
    <g transform="translate(-43,-14) scale(1,1)">
      <g>
        <path fill="none" stroke="none" />
        <text fill="#000000" stroke="none" font-family="Arial" font-size="13px" font-style="normal" font-weight="bold" text-decoration="none" x="533.208251953125" y="59.5">currentAsteroid: Asteroid</text>
      </g>
    </g>
    <g transform="translate(-43,-14) scale(1,1)">
      <path fill="none" stroke="#000000" d="M 605.5 80 L 605.5 671" stroke-miterlimit="10" stroke-dasharray="3" />
    </g>
    <g transform="translate(-43,-14) scale(1,1)">
      <path fill="none" stroke="#000000" d="M 108 120 L 414 120" stroke-miterlimit="10" />
    </g>
    <g transform="translate(-43,-14) scale(1,1)">
      <path fill="#000000" stroke="none" d="M 403.83732514237585 124.20951775601598 L 414 120 L 403.83732514237585 115.79048224398402" />
    </g>
    <g transform="translate(-43,-14) scale(1,1)">
      <path fill="none" stroke="#000000" d="M 403.83732514237585 124.20951775601598 L 414 120 L 403.83732514237585 115.79048224398402 L 403.83732514237585 124.20951775601598" stroke-miterlimit="10" />
    </g>
    <g transform="translate(-43,-14) scale(1,1)">
      <g>
        <path fill="none" stroke="none" />
        <text fill="#000000" stroke="none" font-family="Arial" font-size="13px" font-style="normal" font-weight="normal" text-decoration="none" x="221.71728515625" y="116.5">1 : Message1</text>
      </g>
    </g>
    <g transform="translate(-43,-14) scale(1,1)">
      <rect fill="#ffffff" stroke="none" x="414" y="120" width="13" height="440" />
    </g>
    <g transform="translate(-43,-14) scale(1,1)">
      <path fill="none" stroke="#000000" d="M 414 120 L 427 120 L 427 560 L 414 560 L 414 120 Z Z" stroke-miterlimit="10" />
    </g>
    <g transform="translate(-43,-14) scale(1,1)">
      <path fill="none" stroke="#000000" d="M 427 136 L 598 136" stroke-miterlimit="10" />
    </g>
    <g transform="translate(-43,-14) scale(1,1)">
      <path fill="#000000" stroke="none" d="M 587.8373251423759 140.209517756016 L 598 136 L 587.8373251423758 131.790482243984" />
    </g>
    <g transform="translate(-43,-14) scale(1,1)">
      <path fill="none" stroke="#000000" d="M 587.8373251423759 140.209517756016 L 598 136 L 587.8373251423758 131.790482243984 L 587.8373251423759 140.209517756016" stroke-miterlimit="10" />
    </g>
    <g transform="translate(-43,-14) scale(1,1)">
      <g>
        <path fill="none" stroke="none" />
        <text fill="#000000" stroke="none" font-family="Arial" font-size="13px" font-style="normal" font-weight="normal" text-decoration="none" x="465.5" y="132.5">2 : Message2(v)</text>
      </g>
    </g>
    <g transform="translate(-43,-14) scale(1,1)">
      <rect fill="#ffffff" stroke="none" x="598" y="136" width="13" height="384" />
    </g>
    <g transform="translate(-43,-14) scale(1,1)">
      <path fill="none" stroke="#000000" d="M 598 136 L 611 136 L 611 520 L 598 520 L 598 136 Z Z" stroke-miterlimit="10" />
    </g>
    <g transform="translate(-43,-14) scale(1,1)">
      <path fill="none" stroke="#000000" d="M 427 264 L 457 264 L 457 284 L 434 284" stroke-miterlimit="10" />
    </g>
    <g transform="translate(-43,-14) scale(1,1)">
      <path fill="#000000" stroke="none" d="M 444.16267485762415 279.790482243984 L 434 284 L 444.16267485762415 288.209517756016" />
    </g>
    <g transform="translate(-43,-14) scale(1,1)">
      <path fill="none" stroke="#000000" d="M 444.16267485762415 279.790482243984 L 434 284 L 444.16267485762415 288.209517756016 L 444.16267485762415 279.790482243984" stroke-miterlimit="10" />
    </g>
    <g transform="translate(-43,-14) scale(1,1)">
      <g>
        <path fill="none" stroke="none" />
        <text fill="#000000" stroke="none" font-family="Arial" font-size="13px" font-style="normal" font-weight="normal" text-decoration="none" x="460.029541015625" y="284.5">3 : isHidden = false</text>
      </g>
    </g>
    <g transform="translate(-43,-14) scale(1,1)">
      <rect fill="#ffffff" stroke="none" x="421" y="284" width="13" height="28" />
    </g>
    <g transform="translate(-43,-14) scale(1,1)">
      <path fill="none" stroke="#000000" d="M 421 284 L 434 284 L 434 312 L 421 312 L 421 284 Z Z" stroke-miterlimit="10" />
    </g>
    <g transform="translate(-43,-14) scale(1,1)">
      <path fill="none" stroke="#000000" d="M 611 328 L 641 328 L 641 348 L 618 348" stroke-miterlimit="10" />
    </g>
    <g transform="translate(-43,-14) scale(1,1)">
      <path fill="none" stroke="#000000" d="M 628.1626748576241 343.790482243984 L 618 348 L 628.1626748576241 352.209517756016" stroke-miterlimit="10" />
    </g>
    <g transform="translate(-43,-14) scale(1,1)">
      <g>
        <path fill="none" stroke="none" />
        <text fill="#000000" stroke="none" font-family="Arial" font-size="13px" font-style="normal" font-weight="normal" text-decoration="none" x="637.5" y="348.5">4 : hidingVessel = null</text>
      </g>
    </g>
    <g transform="translate(-43,-14) scale(1,1)">
      <rect fill="#ffffff" stroke="none" x="605" y="348" width="13" height="28" />
    </g>
    <g transform="translate(-43,-14) scale(1,1)">
      <path fill="none" stroke="#000000" d="M 605 348 L 618 348 L 618 376 L 605 376 L 605 348 Z Z" stroke-miterlimit="10" />
    </g>
    <g transform="translate(-43,-14) scale(1,1)">
      <path fill="none" stroke="#000000" d="M 427 376 L 457 376 L 457 396 L 434 396" stroke-miterlimit="10" />
    </g>
    <g transform="translate(-43,-14) scale(1,1)">
      <path fill="#000000" stroke="none" d="M 444.16267485762415 391.790482243984 L 434 396 L 444.16267485762415 400.209517756016" />
    </g>
    <g transform="translate(-43,-14) scale(1,1)">
      <path fill="none" stroke="#000000" d="M 444.16267485762415 391.790482243984 L 434 396 L 444.16267485762415 400.209517756016 L 444.16267485762415 391.790482243984" stroke-miterlimit="10" />
    </g>
    <g transform="translate(-43,-14) scale(1,1)">
      <g>
        <path fill="none" stroke="none" />
        <text fill="#000000" stroke="none" font-family="Arial" font-size="13px" font-style="normal" font-weight="normal" text-decoration="none" x="460.5" y="391.5">5 : isHidden = false</text>
      </g>
    </g>
    <g transform="translate(-43,-14) scale(1,1)">
      <rect fill="#ffffff" stroke="none" x="421" y="396" width="13" height="28" />
    </g>
    <g transform="translate(-43,-14) scale(1,1)">
      <path fill="none" stroke="#000000" d="M 421 396 L 434 396 L 434 424 L 421 424 L 421 396 Z Z" stroke-miterlimit="10" />
    </g>
    <g transform="translate(-43,-14) scale(1,1)">
      <path fill="none" stroke="#000000" d="M 598 512 L 427 512" stroke-miterlimit="10" stroke-dasharray="3" />
    </g>
    <g transform="translate(-43,-14) scale(1,1)">
      <path fill="none" stroke="#000000" d="M 437.16267485762415 507.790482243984 L 427 512 L 437.16267485762415 516.209517756016" stroke-miterlimit="10" />
    </g>
    <g transform="translate(-43,-14) scale(1,1)">
      <g>
        <path fill="none" stroke="none" />
        <text fill="#000000" stroke="none" font-family="Arial" font-size="13px" font-style="normal" font-weight="normal" text-decoration="none" x="501.489501953125" y="528.5">6 : </text>
      </g>
    </g>
    <g transform="translate(-43,-14) scale(1,1)">
      <path fill="none" stroke="#000000" d="M 414 552 L 108 552" stroke-miterlimit="10" stroke-dasharray="3" />
    </g>
    <g transform="translate(-43,-14) scale(1,1)">
      <path fill="none" stroke="#000000" d="M 118.16267485762415 547.790482243984 L 108 552 L 118.16267485762415 556.209517756016" stroke-miterlimit="10" />
    </g>
    <g transform="translate(-43,-14) scale(1,1)">
      <g>
        <path fill="none" stroke="none" />
        <text fill="#000000" stroke="none" font-family="Arial" font-size="13px" font-style="normal" font-weight="normal" text-decoration="none" x="250.489501953125" y="568.5">7 : </text>
      </g>
    </g>
    <g transform="translate(-43,-14) scale(1,1)">
      <path fill="none" stroke="#000000" d="M 216 168 L 936 168 L 936 480 L 216 480 L 216 168" stroke-miterlimit="10" />
    </g>
    <g transform="translate(-43,-14) scale(1,1)">
      <path fill="#ffffff" stroke="none" d="M 216 168 L 216 190 L 284.7490234375 190 L 295.7490234375 179 L 295.7490234375 168 L 216 168" />
    </g>
    <g transform="translate(-43,-14) scale(1,1)">
      <path fill="none" stroke="#000000" d="M 216 168 L 216 190 L 284.7490234375 190 L 295.7490234375 179 L 295.7490234375 168 L 216 168 L 216 168" stroke-miterlimit="10" />
    </g>
    <g transform="translate(-43,-14) scale(1,1)">
      <g>
        <path fill="none" stroke="none" />
        <text fill="#000000" stroke="none" font-family="Arial" font-size="13px" font-style="normal" font-weight="normal" text-decoration="none" x="240.72998046875" y="185.5">Motion</text>
      </g>
    </g>
    <g transform="translate(-43,-14) scale(1,1)">
      <g>
        <path fill="none" stroke="none" />
        <text fill="#000000" stroke="none" font-family="Arial" font-size="13px" font-style="normal" font-weight="bold" text-decoration="none" x="221" y="185.5">alt</text>
      </g>
    </g>
    <g transform="translate(-43,-14) scale(1,1)">
      <g>
        <path fill="none" stroke="none" />
        <text fill="#000000" stroke="none" font-family="Arial" font-size="13px" font-style="normal" font-weight="normal" text-decoration="none" x="235.5" y="218.5">[isHidden  is true]</text>
      </g>
    </g>
    <g transform="translate(-43,-14) scale(1,1)">
      <path fill="none" stroke="#000000" d="M 264 232 L 776 232 L 776 440 L 264 440 L 264 232" stroke-miterlimit="10" />
    </g>
    <g transform="translate(-43,-14) scale(1,1)">
      <path fill="#ffffff" stroke="none" d="M 264 232 L 264 254 L 368.892578125 254 L 379.892578125 243 L 379.892578125 232 L 264 232" />
    </g>
    <g transform="translate(-43,-14) scale(1,1)">
      <path fill="none" stroke="#000000" d="M 264 232 L 264 254 L 368.892578125 254 L 379.892578125 243 L 379.892578125 232 L 264 232 L 264 232" stroke-miterlimit="10" />
    </g>
    <g transform="translate(-43,-14) scale(1,1)">
      <g>
        <path fill="none" stroke="none" />
        <text fill="#000000" stroke="none" font-family="Arial" font-size="13px" font-style="normal" font-weight="normal" text-decoration="none" x="293.07177734375" y="249.5">IsSpaceship</text>
      </g>
    </g>
    <g transform="translate(-43,-14) scale(1,1)">
      <g>
        <path fill="none" stroke="none" />
        <text fill="#000000" stroke="none" font-family="Arial" font-size="13px" font-style="normal" font-weight="bold" text-decoration="none" x="269" y="249.5">opt</text>
      </g>
    </g>
    <g transform="translate(-43,-14) scale(1,1)">
      <g>
        <path fill="none" stroke="none" />
        <text fill="#000000" stroke="none" font-family="Arial" font-size="13px" font-style="normal" font-weight="normal" text-decoration="none" x="283.5" y="282.5">[hidingSpace is 0]</text>
      </g>
    </g>
    <g transform="translate(-43,-14) scale(1,1)">
      <path fill="none" stroke="#000000" d="M 264 313 L 776 313" stroke-miterlimit="10" stroke-dasharray="10,3" />
    </g>
    <g transform="translate(-43,-14) scale(1,1)">
      <g>
        <path fill="none" stroke="none" />
        <text fill="#000000" stroke="none" font-family="Arial" font-size="13px" font-style="normal" font-weight="normal" text-decoration="none" x="283.5" y="340.5">[hidingSpace is 1]</text>
      </g>
    </g>
  </g>
</svg>