<?xml version="1.0" encoding="utf-8"?>
<svg version="1.1" xmlns="http://www.w3.org/2000/svg" xmlns:xlink="http://www.w3.org/1999/xlink" width="1012" height="439">
  <defs />
  <g>
    <g transform="translate(-30,5) scale(1,1)">
      <path fill="none" stroke="#000000" d="M 104 5 L 1032 5 L 1032 424 L 104 424 L 104 5" stroke-miterlimit="10" />
    </g>
    <g transform="translate(-30,5) scale(1,1)">
      <path fill="#ffffff" stroke="none" d="M 104 5 L 104 27 L 286.20068359375 27 L 297.20068359375 16 L 297.20068359375 5 L 104 5" />
    </g>
    <g transform="translate(-30,5) scale(1,1)">
      <path fill="none" stroke="#000000" d="M 104 5 L 104 27 L 286.20068359375 27 L 297.20068359375 16 L 297.20068359375 5 L 104 5 L 104 5" stroke-miterlimit="10" />
    </g>
    <g transform="translate(-30,5) scale(1,1)">
      <g>
        <path fill="none" stroke="none" />
        <text fill="#000000" stroke="none" font-family="Arial" font-size="13px" font-style="normal" font-weight="normal" text-decoration="none" x="174.97900390625" y="22.5">Near Sun Asteroid</text>
      </g>
    </g>
    <g transform="translate(-30,5) scale(1,1)">
      <g>
        <path fill="none" stroke="none" />
        <text fill="#000000" stroke="none" font-family="Arial" font-size="13px" font-style="normal" font-weight="bold" text-decoration="none" x="109" y="22.5">interaction</text>
      </g>
    </g>
    <g transform="translate(-30,5) scale(1,1)">
      <path fill="#000000" stroke="none" d="M 40 103.5 C 40 99.6340064 43.1340064 96.5 47 96.5 C 50.8659936 96.5 54 99.6340064 54 103.5 C 54 107.3659936 50.8659936 110.5 47 110.5 C 43.1340064 110.5 40 107.3659936 40 103.5 Z" />
    </g>
    <g transform="translate(-30,5) scale(1,1)">
      <rect fill="#C0C0C0" stroke="none" x="271" y="47" width="132.4072265625" height="39" opacity="0.2" />
    </g>
    <g transform="translate(-30,5) scale(1,1)">
      <rect fill="#ffffff" stroke="none" x="264" y="40" width="132.4072265625" height="39" />
    </g>
    <g transform="translate(-30,5) scale(1,1)">
      <path fill="none" stroke="#000000" d="M 264 40 L 396.4072265625 40 L 396.4072265625 79 L 264 79 L 264 40 Z Z" stroke-miterlimit="10" />
    </g>
    <g transform="translate(-30,5) scale(1,1)">
      <g>
        <path fill="none" stroke="none" />
        <text fill="#000000" stroke="none" font-family="Arial" font-size="13px" font-style="normal" font-weight="bold" text-decoration="none" x="279.622314453125" y="59.5">asteroid: Asteroid</text>
      </g>
    </g>
    <g transform="translate(-30,5) scale(1,1)">
      <path fill="none" stroke="#000000" d="M 331.5 80 L 331.5 416" stroke-miterlimit="10" stroke-dasharray="3" />
    </g>
    <g transform="translate(-30,5) scale(1,1)">
      <rect fill="#C0C0C0" stroke="none" x="487" y="47" width="141.10986328125" height="39" opacity="0.2" />
    </g>
    <g transform="translate(-30,5) scale(1,1)">
      <rect fill="#ffffff" stroke="none" x="480" y="40" width="141.10986328125" height="39" />
    </g>
    <g transform="translate(-30,5) scale(1,1)">
      <path fill="none" stroke="#000000" d="M 480 40 L 621.10986328125 40 L 621.10986328125 79 L 480 79 L 480 40 Z Z" stroke-miterlimit="10" />
    </g>
    <g transform="translate(-30,5) scale(1,1)">
      <g>
        <path fill="none" stroke="none" />
        <text fill="#000000" stroke="none" font-family="Arial" font-size="13px" font-style="normal" font-weight="bold" text-decoration="none" x="493.83544921875" y="59.5">resource: Resource</text>
      </g>
    </g>
    <g transform="translate(-30,5) scale(1,1)">
      <path fill="none" stroke="#000000" d="M 551.5 80 L 551.5 302" stroke-miterlimit="10" stroke-dasharray="3" />
    </g>
    <g transform="translate(-30,5) scale(1,1)">
      <rect fill="#C0C0C0" stroke="none" x="767" y="47" width="168.30322265625" height="39" opacity="0.2" />
    </g>
    <g transform="translate(-30,5) scale(1,1)">
      <rect fill="#ffffff" stroke="none" x="760" y="40" width="168.30322265625" height="39" />
    </g>
    <g transform="translate(-30,5) scale(1,1)">
      <path fill="none" stroke="#000000" d="M 760 40 L 928.30322265625 40 L 928.30322265625 79 L 760 79 L 760 40 Z Z" stroke-miterlimit="10" />
    </g>
    <g transform="translate(-30,5) scale(1,1)">
      <g>
        <path fill="none" stroke="none" />
        <text fill="#000000" stroke="none" font-family="Arial" font-size="13px" font-style="normal" font-weight="bold" text-decoration="none" x="786.343505859375" y="59.5">type: ResourceType</text>
      </g>
    </g>
    <g transform="translate(-30,5) scale(1,1)">
      <path fill="none" stroke="#000000" d="M 845.5 80 L 845.5 250" stroke-miterlimit="10" stroke-dasharray="3" />
    </g>
    <g transform="translate(-30,5) scale(1,1)">
      <path fill="#000000" stroke="none" d="M 40 383.5 C 40 379.6340064 43.1340064 376.5 47 376.5 C 50.8659936 376.5 54 379.6340064 54 383.5 C 54 387.3659936 50.8659936 390.5 47 390.5 C 43.1340064 390.5 40 387.3659936 40 383.5 Z" />
    </g>
    <g transform="translate(-30,5) scale(1,1)">
      <path fill="none" stroke="#000000" d="M 54 104 L 324 104" stroke-miterlimit="10" />
    </g>
    <g transform="translate(-30,5) scale(1,1)">
      <path fill="#000000" stroke="none" d="M 313.83732514237585 108.20951775601598 L 324 104 L 313.83732514237585 99.79048224398402" />
    </g>
    <g transform="translate(-30,5) scale(1,1)">
      <path fill="none" stroke="#000000" d="M 313.83732514237585 108.20951775601598 L 324 104 L 313.83732514237585 99.79048224398402 L 313.83732514237585 108.20951775601598" stroke-miterlimit="10" />
    </g>
    <g transform="translate(-30,5) scale(1,1)">
      <g>
        <path fill="none" stroke="none" />
        <text fill="#000000" stroke="none" font-family="Arial" font-size="13px" font-style="normal" font-weight="normal" text-decoration="none" x="150.200439453125" y="94.5">1 : Update()</text>
      </g>
    </g>
    <g transform="translate(-30,5) scale(1,1)">
      <rect fill="#ffffff" stroke="none" x="324" y="104" width="13" height="288" />
    </g>
    <g transform="translate(-30,5) scale(1,1)">
      <path fill="none" stroke="#000000" d="M 324 104 L 337 104 L 337 392 L 324 392 L 324 104 Z Z" stroke-miterlimit="10" />
    </g>
    <g transform="translate(-30,5) scale(1,1)">
      <path fill="none" stroke="#000000" d="M 337 160 L 544 160" stroke-miterlimit="10" />
    </g>
    <g transform="translate(-30,5) scale(1,1)">
      <path fill="#000000" stroke="none" d="M 533.8373251423759 164.209517756016 L 544 160 L 533.8373251423758 155.790482243984" />
    </g>
    <g transform="translate(-30,5) scale(1,1)">
      <path fill="none" stroke="#000000" d="M 533.8373251423759 164.209517756016 L 544 160 L 533.8373251423758 155.790482243984 L 533.8373251423759 164.209517756016" stroke-miterlimit="10" />
    </g>
    <g transform="translate(-30,5) scale(1,1)">
      <g>
        <path fill="none" stroke="none" />
        <text fill="#000000" stroke="none" font-family="Arial" font-size="13px" font-style="normal" font-weight="normal" text-decoration="none" x="377.447265625" y="156.5">2 : NearSun(asteroid)</text>
      </g>
    </g>
    <g transform="translate(-30,5) scale(1,1)">
      <rect fill="#ffffff" stroke="none" x="544" y="160" width="13" height="120" />
    </g>
    <g transform="translate(-30,5) scale(1,1)">
      <path fill="none" stroke="#000000" d="M 544 160 L 557 160 L 557 280 L 544 280 L 544 160 Z Z" stroke-miterlimit="10" />
    </g>
    <g transform="translate(-30,5) scale(1,1)">
      <path fill="none" stroke="#000000" d="M 557 200 L 838 200" stroke-miterlimit="10" />
    </g>
    <g transform="translate(-30,5) scale(1,1)">
      <path fill="#000000" stroke="none" d="M 827.8373251423759 204.209517756016 L 838 200 L 827.8373251423758 195.790482243984" />
    </g>
    <g transform="translate(-30,5) scale(1,1)">
      <path fill="none" stroke="#000000" d="M 827.8373251423759 204.209517756016 L 838 200 L 827.8373251423758 195.790482243984 L 827.8373251423759 204.209517756016" stroke-miterlimit="10" />
    </g>
    <g transform="translate(-30,5) scale(1,1)">
      <g>
        <path fill="none" stroke="none" />
        <text fill="#000000" stroke="none" font-family="Arial" font-size="13px" font-style="normal" font-weight="normal" text-decoration="none" x="605.753173828125" y="196.5">3 : NearSun(asteroid, resource)</text>
      </g>
    </g>
    <g transform="translate(-30,5) scale(1,1)">
      <rect fill="#ffffff" stroke="none" x="838" y="200" width="13" height="28" />
    </g>
    <g transform="translate(-30,5) scale(1,1)">
      <path fill="none" stroke="#000000" d="M 838 200 L 851 200 L 851 228 L 838 228 L 838 200 Z Z" stroke-miterlimit="10" />
    </g>
    <g transform="translate(-30,5) scale(1,1)">
      <path fill="none" stroke="#000000" d="M 838 220 L 557 220" stroke-miterlimit="10" stroke-dasharray="3" />
    </g>
    <g transform="translate(-30,5) scale(1,1)">
      <path fill="none" stroke="#000000" d="M 567.1626748576241 215.790482243984 L 557 220 L 567.1626748576241 224.209517756016" stroke-miterlimit="10" />
    </g>
    <g transform="translate(-30,5) scale(1,1)">
      <g>
        <path fill="none" stroke="none" />
        <text fill="#000000" stroke="none" font-family="Arial" font-size="13px" font-style="normal" font-weight="normal" text-decoration="none" x="656.5" y="236.5">4 : Message4</text>
      </g>
    </g>
    <g transform="translate(-30,5) scale(1,1)">
      <path fill="none" stroke="#000000" d="M 544 272 L 337 272" stroke-miterlimit="10" stroke-dasharray="3" />
    </g>
    <g transform="translate(-30,5) scale(1,1)">
      <path fill="none" stroke="#000000" d="M 347.16267485762415 267.790482243984 L 337 272 L 347.16267485762415 276.209517756016" stroke-miterlimit="10" />
    </g>
    <g transform="translate(-30,5) scale(1,1)">
      <g>
        <path fill="none" stroke="none" />
        <text fill="#000000" stroke="none" font-family="Arial" font-size="13px" font-style="normal" font-weight="normal" text-decoration="none" x="399.5" y="288.5">5 : Message5</text>
      </g>
    </g>
    <g transform="translate(-30,5) scale(1,1)">
      <path fill="none" stroke="#000000" d="M 324 384 L 54 384" stroke-miterlimit="10" stroke-dasharray="3" />
    </g>
    <g transform="translate(-30,5) scale(1,1)">
      <path fill="none" stroke="#000000" d="M 64.16267485762415 379.790482243984 L 54 384 L 64.16267485762415 388.209517756016" stroke-miterlimit="10" />
    </g>
    <g transform="translate(-30,5) scale(1,1)">
      <g>
        <path fill="none" stroke="none" />
        <text fill="#000000" stroke="none" font-family="Arial" font-size="13px" font-style="normal" font-weight="normal" text-decoration="none" x="148.5" y="400.5">6 : Message6</text>
      </g>
    </g>
    <g transform="translate(-30,5) scale(1,1)">
      <path fill="none" stroke="#000000" d="M 128 136 L 992 136 L 992 360 L 128 360 L 128 136" stroke-miterlimit="10" />
    </g>
    <g transform="translate(-30,5) scale(1,1)">
      <path fill="#ffffff" stroke="none" d="M 128 136 L 128 158 L 280.58251953125 158 L 291.58251953125 147 L 291.58251953125 136 L 128 136" />
    </g>
    <g transform="translate(-30,5) scale(1,1)">
      <path fill="none" stroke="#000000" d="M 128 136 L 128 158 L 280.58251953125 158 L 291.58251953125 147 L 291.58251953125 136 L 128 136 L 128 136" stroke-miterlimit="10" />
    </g>
    <g transform="translate(-30,5) scale(1,1)">
      <g>
        <path fill="none" stroke="none" />
        <text fill="#000000" stroke="none" font-family="Arial" font-size="13px" font-style="normal" font-weight="normal" text-decoration="none" x="159.9599609375" y="153.5">Check Sun distance</text>
      </g>
    </g>
    <g transform="translate(-30,5) scale(1,1)">
      <g>
        <path fill="none" stroke="none" />
        <text fill="#000000" stroke="none" font-family="Arial" font-size="13px" font-style="normal" font-weight="bold" text-decoration="none" x="133" y="153.5">seq</text>
      </g>
    </g>
    <g transform="translate(-30,5) scale(1,1)">
      <g>
        <path fill="none" stroke="none" />
        <text fill="#000000" stroke="none" font-family="Arial" font-size="13px" font-style="normal" font-weight="normal" text-decoration="none" x="147.5" y="186.5">[if near sun]</text>
      </g>
    </g>
  </g>
</svg>