<?xml version="1.0" encoding="utf-8"?>
<svg version="1.1" xmlns="http://www.w3.org/2000/svg" xmlns:xlink="http://www.w3.org/1999/xlink" width="1492" height="740">
  <defs />
  <g>
    <g transform="translate(-14,2) scale(1,1)">
      <path fill="none" stroke="#000000" d="M 128 8 L 1496 8 L 1496 728 L 128 728 L 128 8" stroke-miterlimit="10" />
    </g>
    <g transform="translate(-14,2) scale(1,1)">
      <path fill="#ffffff" stroke="none" d="M 128 8 L 128 30 L 350.6796875 30 L 361.6796875 19 L 361.6796875 8 L 128 8" />
    </g>
    <g transform="translate(-14,2) scale(1,1)">
      <path fill="none" stroke="#000000" d="M 128 8 L 128 30 L 350.6796875 30 L 361.6796875 19 L 361.6796875 8 L 128 8 L 128 8" stroke-miterlimit="10" />
    </g>
    <g transform="translate(-14,2) scale(1,1)">
      <g>
        <path fill="none" stroke="none" />
        <text fill="#000000" stroke="none" font-family="Arial" font-size="13px" font-style="normal" font-weight="normal" text-decoration="none" x="198.97900390625" y="25.5">SpaceShip mine succeed</text>
      </g>
    </g>
    <g transform="translate(-14,2) scale(1,1)">
      <g>
        <path fill="none" stroke="none" />
        <text fill="#000000" stroke="none" font-family="Arial" font-size="13px" font-style="normal" font-weight="bold" text-decoration="none" x="133" y="25.5">interaction</text>
      </g>
    </g>
    <g transform="translate(-14,2) scale(1,1)">
      <path fill="#ffffff" stroke="none" d="M 71.8631454190341 47.3 C 71.8631454190341 43.82060576 74.74154714121592 41 78.292236328125 41 C 81.84292551503408 41 84.7213272372159 43.82060576 84.7213272372159 47.3 C 84.7213272372159 50.779394239999995 81.84292551503408 53.6 78.292236328125 53.6 C 74.74154714121592 53.6 71.8631454190341 50.779394239999995 71.8631454190341 47.3 Z" />
    </g>
    <g transform="translate(-14,2) scale(1,1)">
      <path fill="none" stroke="#000000" d="M 71.8631454190341 47.3 C 71.8631454190341 43.82060576 74.74154714121592 41 78.292236328125 41 C 81.84292551503408 41 84.7213272372159 43.82060576 84.7213272372159 47.3 C 84.7213272372159 50.779394239999995 81.84292551503408 53.6 78.292236328125 53.6 C 74.74154714121592 53.6 71.8631454190341 50.779394239999995 71.8631454190341 47.3 Z" stroke-miterlimit="10" />
    </g>
    <g transform="translate(-14,2) scale(1,1)">
      <path fill="none" stroke="#000000" d="M 78.292236328125 53.6 L 78.292236328125 66.4" stroke-miterlimit="10" />
    </g>
    <g transform="translate(-14,2) scale(1,1)">
      <path fill="none" stroke="#000000" d="M 71.48496360085227 58.4 L 85.09950905539773 58.4" stroke-miterlimit="10" />
    </g>
    <g transform="translate(-14,2) scale(1,1)">
      <path fill="none" stroke="#000000" d="M 78.292236328125 66.4 L 68.83769087357955 79" stroke-miterlimit="10" />
    </g>
    <g transform="translate(-14,2) scale(1,1)">
      <path fill="none" stroke="#000000" d="M 78.292236328125 66.4 L 87.74678178267045 79" stroke-miterlimit="10" />
    </g>
    <g transform="translate(-14,2) scale(1,1)">
      <g>
        <path fill="none" stroke="none" />
        <text fill="#000000" stroke="none" font-family="Arial" font-size="13px" font-style="normal" font-weight="bold" text-decoration="none" x="36.74365234375" y="99.5">Lifeline1: User</text>
      </g>
    </g>
    <g transform="translate(-14,2) scale(1,1)">
      <path fill="none" stroke="#000000" d="M 79.5 105 L 79.5 646" stroke-miterlimit="10" stroke-dasharray="3" />
    </g>
    <g transform="translate(-14,2) scale(1,1)">
      <rect fill="#C0C0C0" stroke="none" x="303" y="47" width="146.1435546875" height="39" opacity="0.2" />
    </g>
    <g transform="translate(-14,2) scale(1,1)">
      <rect fill="#ffffff" stroke="none" x="296" y="40" width="146.1435546875" height="39" />
    </g>
    <g transform="translate(-14,2) scale(1,1)">
      <path fill="none" stroke="#000000" d="M 296 40 L 442.1435546875 40 L 442.1435546875 79 L 296 79 L 296 40 Z Z" stroke-miterlimit="10" />
    </g>
    <g transform="translate(-14,2) scale(1,1)">
      <g>
        <path fill="none" stroke="none" />
        <text fill="#000000" stroke="none" font-family="Arial" font-size="13px" font-style="normal" font-weight="bold" text-decoration="none" x="330.77001953125" y="59.5">s: SpaceShip</text>
      </g>
    </g>
    <g transform="translate(-14,2) scale(1,1)">
      <path fill="none" stroke="#000000" d="M 370.5 80 L 370.5 662" stroke-miterlimit="10" stroke-dasharray="3" />
    </g>
    <g transform="translate(-14,2) scale(1,1)">
      <rect fill="#C0C0C0" stroke="none" x="536" y="47" width="249.5849609375" height="39" opacity="0.2" />
    </g>
    <g transform="translate(-14,2) scale(1,1)">
      <rect fill="#ffffff" stroke="none" x="529" y="40" width="249.5849609375" height="39" />
    </g>
    <g transform="translate(-14,2) scale(1,1)">
      <path fill="none" stroke="#000000" d="M 529 40 L 778.5849609375 40 L 778.5849609375 79 L 529 79 L 529 40 Z Z" stroke-miterlimit="10" />
    </g>
    <g transform="translate(-14,2) scale(1,1)">
      <g>
        <path fill="none" stroke="none" />
        <text fill="#000000" stroke="none" font-family="Arial" font-size="13px" font-style="normal" font-weight="bold" text-decoration="none" x="582.2607421875" y="59.5">currentAsteroid: Asteroid</text>
      </g>
    </g>
    <g transform="translate(-14,2) scale(1,1)">
      <path fill="none" stroke="#000000" d="M 654.5 80 L 654.5 518" stroke-miterlimit="10" stroke-dasharray="3" />
    </g>
    <g transform="translate(-14,2) scale(1,1)">
      <rect fill="#C0C0C0" stroke="none" x="823" y="47" width="184" height="39" opacity="0.2" />
    </g>
    <g transform="translate(-14,2) scale(1,1)">
      <rect fill="#ffffff" stroke="none" x="816" y="40" width="184" height="39" />
    </g>
    <g transform="translate(-14,2) scale(1,1)">
      <path fill="none" stroke="#000000" d="M 816 40 L 1000 40 L 1000 79 L 816 79 L 816 40 Z Z" stroke-miterlimit="10" />
    </g>
    <g transform="translate(-14,2) scale(1,1)">
      <g>
        <path fill="none" stroke="none" />
        <text fill="#000000" stroke="none" font-family="Arial" font-size="13px" font-style="normal" font-weight="bold" text-decoration="none" x="851.280517578125" y="59.5">rescoure: Resource</text>
      </g>
    </g>
    <g transform="translate(-14,2) scale(1,1)">
      <path fill="none" stroke="#000000" d="M 909.5 80 L 909.5 366" stroke-miterlimit="10" stroke-dasharray="3" />
    </g>
    <g transform="translate(-14,2) scale(1,1)">
      <rect fill="#C0C0C0" stroke="none" x="1279" y="47" width="152.427734375" height="39" opacity="0.2" />
    </g>
    <g transform="translate(-14,2) scale(1,1)">
      <rect fill="#ffffff" stroke="none" x="1272" y="40" width="152.427734375" height="39" />
    </g>
    <g transform="translate(-14,2) scale(1,1)">
      <path fill="none" stroke="#000000" d="M 1272 40 L 1424.427734375 40 L 1424.427734375 79 L 1272 79 L 1272 40 Z Z" stroke-miterlimit="10" />
    </g>
    <g transform="translate(-14,2) scale(1,1)">
      <g>
        <path fill="none" stroke="none" />
        <text fill="#000000" stroke="none" font-family="Arial" font-size="13px" font-style="normal" font-weight="bold" text-decoration="none" x="1291.4912109375" y="59.5">inventory: Inventory</text>
      </g>
    </g>
    <g transform="translate(-14,2) scale(1,1)">
      <path fill="none" stroke="#000000" d="M 1349.5 80 L 1349.5 639" stroke-miterlimit="10" stroke-dasharray="3" />
    </g>
    <g transform="translate(-14,2) scale(1,1)">
      <rect fill="#C0C0C0" stroke="none" x="1087" y="47" width="168.30322265625" height="39" opacity="0.2" />
    </g>
    <g transform="translate(-14,2) scale(1,1)">
      <rect fill="#ffffff" stroke="none" x="1080" y="40" width="168.30322265625" height="39" />
    </g>
    <g transform="translate(-14,2) scale(1,1)">
      <path fill="none" stroke="#000000" d="M 1080 40 L 1248.30322265625 40 L 1248.30322265625 79 L 1080 79 L 1080 40 Z Z" stroke-miterlimit="10" />
    </g>
    <g transform="translate(-14,2) scale(1,1)">
      <g>
        <path fill="none" stroke="none" />
        <text fill="#000000" stroke="none" font-family="Arial" font-size="13px" font-style="normal" font-weight="bold" text-decoration="none" x="1106.343505859375" y="59.5">type: ResourceType</text>
      </g>
    </g>
    <g transform="translate(-14,2) scale(1,1)">
      <path fill="none" stroke="#000000" d="M 1165.5 80 L 1165.5 342" stroke-miterlimit="10" stroke-dasharray="3" />
    </g>
    <g transform="translate(-14,2) scale(1,1)">
      <path fill="none" stroke="#000000" d="M 79 105 L 363 105" stroke-miterlimit="10" />
    </g>
    <g transform="translate(-14,2) scale(1,1)">
      <path fill="#000000" stroke="none" d="M 352.83732514237585 109.20951775601598 L 363 105 L 352.83732514237585 100.79048224398402" />
    </g>
    <g transform="translate(-14,2) scale(1,1)">
      <path fill="none" stroke="#000000" d="M 352.83732514237585 109.20951775601598 L 363 105 L 352.83732514237585 100.79048224398402 L 352.83732514237585 109.20951775601598" stroke-miterlimit="10" />
    </g>
    <g transform="translate(-14,2) scale(1,1)">
      <g>
        <path fill="none" stroke="none" />
        <text fill="#000000" stroke="none" font-family="Arial" font-size="13px" font-style="normal" font-weight="normal" text-decoration="none" x="193.07177734375" y="101.5">1 : Mine()</text>
      </g>
    </g>
    <g transform="translate(-14,2) scale(1,1)">
      <rect fill="#ffffff" stroke="none" x="363" y="105" width="13" height="535" />
    </g>
    <g transform="translate(-14,2) scale(1,1)">
      <path fill="none" stroke="#000000" d="M 363 105 L 376 105 L 376 640 L 363 640 L 363 105 Z Z" stroke-miterlimit="10" />
    </g>
    <g transform="translate(-14,2) scale(1,1)">
      <path fill="none" stroke="#000000" d="M 376 200 L 647 200" stroke-miterlimit="10" />
    </g>
    <g transform="translate(-14,2) scale(1,1)">
      <path fill="#000000" stroke="none" d="M 636.8373251423759 204.209517756016 L 647 200 L 636.8373251423758 195.790482243984" />
    </g>
    <g transform="translate(-14,2) scale(1,1)">
      <path fill="none" stroke="#000000" d="M 636.8373251423759 204.209517756016 L 647 200 L 636.8373251423758 195.790482243984 L 636.8373251423759 204.209517756016" stroke-miterlimit="10" />
    </g>
    <g transform="translate(-14,2) scale(1,1)">
      <g>
        <path fill="none" stroke="none" />
        <text fill="#000000" stroke="none" font-family="Arial" font-size="13px" font-style="normal" font-weight="normal" text-decoration="none" x="483.07177734375" y="196.5">2 : Mine()</text>
      </g>
    </g>
    <g transform="translate(-14,2) scale(1,1)">
      <rect fill="#ffffff" stroke="none" x="647" y="200" width="13" height="256" />
    </g>
    <g transform="translate(-14,2) scale(1,1)">
      <path fill="none" stroke="#000000" d="M 647 200 L 660 200 L 660 456 L 647 456 L 647 200 Z Z" stroke-miterlimit="10" />
    </g>
    <g transform="translate(-14,2) scale(1,1)">
      <path fill="none" stroke="#000000" d="M 660 264 L 902 264" stroke-miterlimit="10" />
    </g>
    <g transform="translate(-14,2) scale(1,1)">
      <path fill="#000000" stroke="none" d="M 891.8373251423759 268.209517756016 L 902 264 L 891.8373251423758 259.790482243984" />
    </g>
    <g transform="translate(-14,2) scale(1,1)">
      <path fill="none" stroke="#000000" d="M 891.8373251423759 268.209517756016 L 902 264 L 891.8373251423758 259.790482243984 L 891.8373251423759 268.209517756016" stroke-miterlimit="10" />
    </g>
    <g transform="translate(-14,2) scale(1,1)">
      <g>
        <path fill="none" stroke="none" />
        <text fill="#000000" stroke="none" font-family="Arial" font-size="13px" font-style="normal" font-weight="normal" text-decoration="none" x="753.07177734375" y="260.5">3 : Mine()</text>
      </g>
    </g>
    <g transform="translate(-14,2) scale(1,1)">
      <rect fill="#ffffff" stroke="none" x="902" y="264" width="13" height="64" />
    </g>
    <g transform="translate(-14,2) scale(1,1)">
      <path fill="none" stroke="#000000" d="M 902 264 L 915 264 L 915 328 L 902 328 L 902 264 Z Z" stroke-miterlimit="10" />
    </g>
    <g transform="translate(-14,2) scale(1,1)">
      <path fill="none" stroke="#000000" d="M 915 280 L 1158 280" stroke-miterlimit="10" />
    </g>
    <g transform="translate(-14,2) scale(1,1)">
      <path fill="#000000" stroke="none" d="M 1147.837325142376 284.209517756016 L 1158 280 L 1147.837325142376 275.790482243984" />
    </g>
    <g transform="translate(-14,2) scale(1,1)">
      <path fill="none" stroke="#000000" d="M 1147.837325142376 284.209517756016 L 1158 280 L 1147.837325142376 275.790482243984 L 1147.837325142376 284.209517756016" stroke-miterlimit="10" />
    </g>
    <g transform="translate(-14,2) scale(1,1)">
      <g>
        <path fill="none" stroke="none" />
        <text fill="#000000" stroke="none" font-family="Arial" font-size="13px" font-style="normal" font-weight="normal" text-decoration="none" x="1008.07177734375" y="276.5">4 : Mine()</text>
      </g>
    </g>
    <g transform="translate(-14,2) scale(1,1)">
      <rect fill="#ffffff" stroke="none" x="1158" y="280" width="13" height="28" />
    </g>
    <g transform="translate(-14,2) scale(1,1)">
      <path fill="none" stroke="#000000" d="M 1158 280 L 1171 280 L 1171 308 L 1158 308 L 1158 280 Z Z" stroke-miterlimit="10" />
    </g>
    <g transform="translate(-14,2) scale(1,1)">
      <path fill="none" stroke="#000000" d="M 1158 304 L 915 304" stroke-miterlimit="10" stroke-dasharray="3" />
    </g>
    <g transform="translate(-14,2) scale(1,1)">
      <path fill="none" stroke="#000000" d="M 925.1626748576241 299.790482243984 L 915 304 L 925.1626748576241 308.209517756016" stroke-miterlimit="10" />
    </g>
    <g transform="translate(-14,2) scale(1,1)">
      <g>
        <path fill="none" stroke="none" />
        <text fill="#000000" stroke="none" font-family="Arial" font-size="13px" font-style="normal" font-weight="normal" text-decoration="none" x="939.5" y="320.5">5 : result_type = result_item_type</text>
      </g>
    </g>
    <g transform="translate(-14,2) scale(1,1)">
      <path fill="none" stroke="#000000" d="M 902 320 L 660 320" stroke-miterlimit="10" stroke-dasharray="3" />
    </g>
    <g transform="translate(-14,2) scale(1,1)">
      <path fill="none" stroke="#000000" d="M 670.1626748576241 315.790482243984 L 660 320 L 670.1626748576241 324.209517756016" stroke-miterlimit="10" />
    </g>
    <g transform="translate(-14,2) scale(1,1)">
      <g>
        <path fill="none" stroke="none" />
        <text fill="#000000" stroke="none" font-family="Arial" font-size="13px" font-style="normal" font-weight="normal" text-decoration="none" x="727.80224609375" y="336.5">6 : ri = result_item</text>
      </g>
    </g>
    <g transform="translate(-14,2) scale(1,1)">
      <path fill="none" stroke="#000000" d="M 660 344 L 690 344 L 690 364 L 667 364" stroke-miterlimit="10" />
    </g>
    <g transform="translate(-14,2) scale(1,1)">
      <path fill="#000000" stroke="none" d="M 677.1626748576241 359.790482243984 L 667 364 L 677.1626748576241 368.209517756016" />
    </g>
    <g transform="translate(-14,2) scale(1,1)">
      <path fill="none" stroke="#000000" d="M 677.1626748576241 359.790482243984 L 667 364 L 677.1626748576241 368.209517756016 L 677.1626748576241 359.790482243984" stroke-miterlimit="10" />
    </g>
    <g transform="translate(-14,2) scale(1,1)">
      <g>
        <path fill="none" stroke="none" />
        <text fill="#000000" stroke="none" font-family="Arial" font-size="13px" font-style="normal" font-weight="normal" text-decoration="none" x="697.15576171875" y="372.5">7 : ammount - = 1</text>
      </g>
    </g>
    <g transform="translate(-14,2) scale(1,1)">
      <rect fill="#ffffff" stroke="none" x="654" y="364" width="13" height="28" />
    </g>
    <g transform="translate(-14,2) scale(1,1)">
      <path fill="none" stroke="#000000" d="M 654 364 L 667 364 L 667 392 L 654 392 L 654 364 Z Z" stroke-miterlimit="10" />
    </g>
    <g transform="translate(-14,2) scale(1,1)">
      <path fill="none" stroke="#000000" d="M 647 448 L 376 448" stroke-miterlimit="10" stroke-dasharray="3" />
    </g>
    <g transform="translate(-14,2) scale(1,1)">
      <path fill="none" stroke="#000000" d="M 386.16267485762415 443.790482243984 L 376 448 L 386.16267485762415 452.209517756016" stroke-miterlimit="10" />
    </g>
    <g transform="translate(-14,2) scale(1,1)">
      <g>
        <path fill="none" stroke="none" />
        <text fill="#000000" stroke="none" font-family="Arial" font-size="13px" font-style="normal" font-weight="normal" text-decoration="none" x="488.92041015625" y="464.5">8 : i = ri</text>
      </g>
    </g>
    <g transform="translate(-14,2) scale(1,1)">
      <path fill="none" stroke="#000000" d="M 376 536 L 1342 536" stroke-miterlimit="10" />
    </g>
    <g transform="translate(-14,2) scale(1,1)">
      <path fill="none" stroke="#000000" d="M 1331.837325142376 540.209517756016 L 1342 536 L 1331.837325142376 531.790482243984" stroke-miterlimit="10" />
    </g>
    <g transform="translate(-14,2) scale(1,1)">
      <g>
        <path fill="none" stroke="none" />
        <text fill="#000000" stroke="none" font-family="Arial" font-size="13px" font-style="normal" font-weight="normal" text-decoration="none" x="815.588623046875" y="532.5">9 : InsertItem(i)</text>
      </g>
    </g>
    <g transform="translate(-14,2) scale(1,1)">
      <rect fill="#ffffff" stroke="none" x="1342" y="536" width="13" height="28" />
    </g>
    <g transform="translate(-14,2) scale(1,1)">
      <path fill="none" stroke="#000000" d="M 1342 536 L 1355 536 L 1355 564 L 1342 564 L 1342 536 Z Z" stroke-miterlimit="10" />
    </g>
    <g transform="translate(-14,2) scale(1,1)">
      <path fill="none" stroke="#000000" d="M 1342 560 L 376 560" stroke-miterlimit="10" stroke-dasharray="3" />
    </g>
    <g transform="translate(-14,2) scale(1,1)">
      <path fill="none" stroke="#000000" d="M 386.16267485762415 555.790482243984 L 376 560 L 386.16267485762415 564.209517756016" stroke-miterlimit="10" />
    </g>
    <g transform="translate(-14,2) scale(1,1)">
      <g>
        <path fill="none" stroke="none" />
        <text fill="#000000" stroke="none" font-family="Arial" font-size="13px" font-style="normal" font-weight="normal" text-decoration="none" x="844.87451171875" y="576.5">10 : </text>
      </g>
    </g>
    <g transform="translate(-14,2) scale(1,1)">
      <path fill="none" stroke="#000000" d="M 363 632 L 79 632" stroke-miterlimit="10" stroke-dasharray="3" />
    </g>
    <g transform="translate(-14,2) scale(1,1)">
      <path fill="none" stroke="#000000" d="M 89.16267485762415 627.790482243984 L 79 632 L 89.16267485762415 636.209517756016" stroke-miterlimit="10" />
    </g>
    <g transform="translate(-14,2) scale(1,1)">
      <g>
        <path fill="none" stroke="none" />
        <text fill="#000000" stroke="none" font-family="Arial" font-size="13px" font-style="normal" font-weight="normal" text-decoration="none" x="207.35693359375" y="648.5">11 : </text>
      </g>
    </g>
    <g transform="translate(-14,2) scale(1,1)">
      <path fill="none" stroke="#000000" d="M 168 120 L 1392 120 L 1392 600 L 168 600 L 168 120" stroke-miterlimit="10" />
    </g>
    <g transform="translate(-14,2) scale(1,1)">
      <path fill="#ffffff" stroke="none" d="M 168 120 L 168 142 L 296.00439453125 142 L 307.00439453125 131 L 307.00439453125 120 L 168 120" />
    </g>
    <g transform="translate(-14,2) scale(1,1)">
      <path fill="none" stroke="#000000" d="M 168 120 L 168 142 L 296.00439453125 142 L 307.00439453125 131 L 307.00439453125 120 L 168 120 L 168 120" stroke-miterlimit="10" />
    </g>
    <g transform="translate(-14,2) scale(1,1)">
      <g>
        <path fill="none" stroke="none" />
        <text fill="#000000" stroke="none" font-family="Arial" font-size="13px" font-style="normal" font-weight="normal" text-decoration="none" x="199.9599609375" y="137.5">Inventory check</text>
      </g>
    </g>
    <g transform="translate(-14,2) scale(1,1)">
      <g>
        <path fill="none" stroke="none" />
        <text fill="#000000" stroke="none" font-family="Arial" font-size="13px" font-style="normal" font-weight="bold" text-decoration="none" x="173" y="137.5">seq</text>
      </g>
    </g>
    <g transform="translate(-14,2) scale(1,1)">
      <g>
        <path fill="none" stroke="none" />
        <text fill="#000000" stroke="none" font-family="Arial" font-size="13px" font-style="normal" font-weight="normal" text-decoration="none" x="187.5" y="170.5">[inventory is not full]</text>
      </g>
    </g>
    <g transform="translate(-14,2) scale(1,1)">
      <path fill="none" stroke="#000000" d="M 392 216 L 1215 216 L 1215 423 L 392 423 L 392 216" stroke-miterlimit="10" />
    </g>
    <g transform="translate(-14,2) scale(1,1)">
      <path fill="#ffffff" stroke="none" d="M 392 216 L 392 238 L 522.89892578125 238 L 533.89892578125 227 L 533.89892578125 216 L 392 216" />
    </g>
    <g transform="translate(-14,2) scale(1,1)">
      <path fill="none" stroke="#000000" d="M 392 216 L 392 238 L 522.89892578125 238 L 533.89892578125 227 L 533.89892578125 216 L 392 216 L 392 216" stroke-miterlimit="10" />
    </g>
    <g transform="translate(-14,2) scale(1,1)">
      <g>
        <path fill="none" stroke="none" />
        <text fill="#000000" stroke="none" font-family="Arial" font-size="13px" font-style="normal" font-weight="normal" text-decoration="none" x="423.9599609375" y="233.5">Explosion check</text>
      </g>
    </g>
    <g transform="translate(-14,2) scale(1,1)">
      <g>
        <path fill="none" stroke="none" />
        <text fill="#000000" stroke="none" font-family="Arial" font-size="13px" font-style="normal" font-weight="bold" text-decoration="none" x="397" y="233.5">seq</text>
      </g>
    </g>
    <g transform="translate(-14,2) scale(1,1)">
      <g>
        <path fill="none" stroke="none" />
        <text fill="#000000" stroke="none" font-family="Arial" font-size="13px" font-style="normal" font-weight="normal" text-decoration="none" x="411.5" y="266.5">[not exploded &amp;&amp; not empty]</text>
      </g>
    </g>
  </g>
</svg>