<?xml version="1.0" encoding="utf-8"?>
<svg version="1.1" xmlns="http://www.w3.org/2000/svg" xmlns:xlink="http://www.w3.org/1999/xlink" width="834" height="255">
  <defs />
  <g>
    <g transform="translate(-38,5) scale(1,1)">
      <path fill="none" stroke="#000000" d="M 96 5 L 862 5 L 862 240 L 96 240 L 96 5" stroke-miterlimit="10" />
    </g>
    <g transform="translate(-38,5) scale(1,1)">
      <path fill="#ffffff" stroke="none" d="M 96 5 L 96 27 L 336.0087890625 27 L 347.0087890625 16 L 347.0087890625 5 L 96 5" />
    </g>
    <g transform="translate(-38,5) scale(1,1)">
      <path fill="none" stroke="#000000" d="M 96 5 L 96 27 L 336.0087890625 27 L 347.0087890625 16 L 347.0087890625 5 L 96 5 L 96 5" stroke-miterlimit="10" />
    </g>
    <g transform="translate(-38,5) scale(1,1)">
      <g>
        <path fill="none" stroke="none" />
        <text fill="#000000" stroke="none" font-family="Arial" font-size="13px" font-style="normal" font-weight="normal" text-decoration="none" x="166.97900390625" y="22.5">Explosive resource near sun</text>
      </g>
    </g>
    <g transform="translate(-38,5) scale(1,1)">
      <g>
        <path fill="none" stroke="none" />
        <text fill="#000000" stroke="none" font-family="Arial" font-size="13px" font-style="normal" font-weight="bold" text-decoration="none" x="101" y="22.5">interaction</text>
      </g>
    </g>
    <g transform="translate(-38,5) scale(1,1)">
      <path fill="#000000" stroke="none" d="M 48 120.5 C 48 116.6340064 51.1340064 113.5 55 113.5 C 58.8659936 113.5 62 116.6340064 62 120.5 C 62 124.3659936 58.8659936 127.5 55 127.5 C 51.1340064 127.5 48 124.3659936 48 120.5 Z" />
    </g>
    <g transform="translate(-38,5) scale(1,1)">
      <rect fill="#C0C0C0" stroke="none" x="239" y="47" width="201.75537109375" height="39" opacity="0.2" />
    </g>
    <g transform="translate(-38,5) scale(1,1)">
      <rect fill="#ffffff" stroke="none" x="232" y="40" width="201.75537109375" height="39" />
    </g>
    <g transform="translate(-38,5) scale(1,1)">
      <path fill="none" stroke="#000000" d="M 232 40 L 433.75537109375 40 L 433.75537109375 79 L 232 79 L 232 40 Z Z" stroke-miterlimit="10" />
    </g>
    <g transform="translate(-38,5) scale(1,1)">
      <g>
        <path fill="none" stroke="none" />
        <text fill="#000000" stroke="none" font-family="Arial" font-size="13px" font-style="normal" font-weight="bold" text-decoration="none" x="248.685546875" y="59.5">Lifeline1: ExplodingResource</text>
      </g>
    </g>
    <g transform="translate(-38,5) scale(1,1)">
      <path fill="none" stroke="#000000" d="M 333.5 80 L 333.5 206" stroke-miterlimit="10" stroke-dasharray="3" />
    </g>
    <g transform="translate(-38,5) scale(1,1)">
      <rect fill="#C0C0C0" stroke="none" x="527" y="47" width="132.4072265625" height="39" opacity="0.2" />
    </g>
    <g transform="translate(-38,5) scale(1,1)">
      <rect fill="#ffffff" stroke="none" x="520" y="40" width="132.4072265625" height="39" />
    </g>
    <g transform="translate(-38,5) scale(1,1)">
      <path fill="none" stroke="#000000" d="M 520 40 L 652.4072265625 40 L 652.4072265625 79 L 520 79 L 520 40 Z Z" stroke-miterlimit="10" />
    </g>
    <g transform="translate(-38,5) scale(1,1)">
      <g>
        <path fill="none" stroke="none" />
        <text fill="#000000" stroke="none" font-family="Arial" font-size="13px" font-style="normal" font-weight="bold" text-decoration="none" x="535.622314453125" y="59.5">asteroid: Asteroid</text>
      </g>
    </g>
    <g transform="translate(-38,5) scale(1,1)">
      <path fill="none" stroke="#000000" d="M 587.5 80 L 587.5 186" stroke-miterlimit="10" stroke-dasharray="3" />
    </g>
    <g transform="translate(-38,5) scale(1,1)">
      <path fill="#000000" stroke="none" d="M 48 175.5 C 48 171.6340064 51.1340064 168.5 55 168.5 C 58.8659936 168.5 62 171.6340064 62 175.5 C 62 179.3659936 58.8659936 182.5 55 182.5 C 51.1340064 182.5 48 179.3659936 48 175.5 Z" />
    </g>
    <g transform="translate(-38,5) scale(1,1)">
      <path fill="none" stroke="#000000" d="M 62 121 L 326 121" stroke-miterlimit="10" />
    </g>
    <g transform="translate(-38,5) scale(1,1)">
      <path fill="#000000" stroke="none" d="M 315.83732514237585 125.20951775601598 L 326 121 L 315.83732514237585 116.79048224398402" />
    </g>
    <g transform="translate(-38,5) scale(1,1)">
      <path fill="none" stroke="#000000" d="M 315.83732514237585 125.20951775601598 L 326 121 L 315.83732514237585 116.79048224398402 L 315.83732514237585 125.20951775601598" stroke-miterlimit="10" />
    </g>
    <g transform="translate(-38,5) scale(1,1)">
      <g>
        <path fill="none" stroke="none" />
        <text fill="#000000" stroke="none" font-family="Arial" font-size="13px" font-style="normal" font-weight="normal" text-decoration="none" x="102.753173828125" y="117.5">1 : NearSun(asteroid, resource)</text>
      </g>
    </g>
    <g transform="translate(-38,5) scale(1,1)">
      <rect fill="#ffffff" stroke="none" x="326" y="121" width="13" height="63" />
    </g>
    <g transform="translate(-38,5) scale(1,1)">
      <path fill="none" stroke="#000000" d="M 326 121 L 339 121 L 339 184 L 326 184 L 326 121 Z Z" stroke-miterlimit="10" />
    </g>
    <g transform="translate(-38,5) scale(1,1)">
      <path fill="none" stroke="#000000" d="M 339 136 L 580 136" stroke-miterlimit="10" />
    </g>
    <g transform="translate(-38,5) scale(1,1)">
      <path fill="#000000" stroke="none" d="M 569.8373251423759 140.209517756016 L 580 136 L 569.8373251423758 131.790482243984" />
    </g>
    <g transform="translate(-38,5) scale(1,1)">
      <path fill="none" stroke="#000000" d="M 569.8373251423759 140.209517756016 L 580 136 L 569.8373251423758 131.790482243984 L 569.8373251423759 140.209517756016" stroke-miterlimit="10" />
    </g>
    <g transform="translate(-38,5) scale(1,1)">
      <g>
        <path fill="none" stroke="none" />
        <text fill="#000000" stroke="none" font-family="Arial" font-size="13px" font-style="normal" font-weight="normal" text-decoration="none" x="421.6708984375" y="132.5">2 : Explode()</text>
      </g>
    </g>
    <g transform="translate(-38,5) scale(1,1)">
      <rect fill="#ffffff" stroke="none" x="580" y="136" width="13" height="28" />
    </g>
    <g transform="translate(-38,5) scale(1,1)">
      <path fill="none" stroke="#000000" d="M 580 136 L 593 136 L 593 164 L 580 164 L 580 136 Z Z" stroke-miterlimit="10" />
    </g>
    <g transform="translate(-38,5) scale(1,1)">
      <path fill="none" stroke="#000000" d="M 580 156 L 339 156" stroke-miterlimit="10" stroke-dasharray="3" />
    </g>
    <g transform="translate(-38,5) scale(1,1)">
      <path fill="none" stroke="#000000" d="M 349.16267485762415 151.790482243984 L 339 156 L 349.16267485762415 160.209517756016" stroke-miterlimit="10" />
    </g>
    <g transform="translate(-38,5) scale(1,1)">
      <g>
        <path fill="none" stroke="none" />
        <text fill="#000000" stroke="none" font-family="Arial" font-size="13px" font-style="normal" font-weight="normal" text-decoration="none" x="448.489501953125" y="172.5">3 : </text>
      </g>
    </g>
    <g transform="translate(-38,5) scale(1,1)">
      <path fill="none" stroke="#000000" d="M 326 176 L 62 176" stroke-miterlimit="10" />
    </g>
    <g transform="translate(-38,5) scale(1,1)">
      <path fill="#000000" stroke="none" d="M 72.16267485762415 171.790482243984 L 62 176 L 72.16267485762415 180.209517756016" />
    </g>
    <g transform="translate(-38,5) scale(1,1)">
      <path fill="none" stroke="#000000" d="M 72.16267485762415 171.790482243984 L 62 176 L 72.16267485762415 180.209517756016 L 72.16267485762415 171.790482243984" stroke-miterlimit="10" />
    </g>
    <g transform="translate(-38,5) scale(1,1)">
      <g>
        <path fill="none" stroke="none" />
        <text fill="#000000" stroke="none" font-family="Arial" font-size="13px" font-style="normal" font-weight="normal" text-decoration="none" x="183.489501953125" y="192.5">4 : </text>
      </g>
    </g>
  </g>
</svg>