<?xml version="1.0" encoding="utf-8"?>
<svg version="1.1" xmlns="http://www.w3.org/2000/svg" xmlns:xlink="http://www.w3.org/1999/xlink" width="991" height="675">
  <defs />
  <g>
    <g transform="translate(-43,-14) scale(1,1)">
      <path fill="none" stroke="#000000" d="M 176 24 L 1024 24 L 1024 608 L 176 608 L 176 24" stroke-miterlimit="10" />
    </g>
    <g transform="translate(-43,-14) scale(1,1)">
      <path fill="#ffffff" stroke="none" d="M 176 24 L 176 46 L 350.97705078125 46 L 361.97705078125 35 L 361.97705078125 24 L 176 24" />
    </g>
    <g transform="translate(-43,-14) scale(1,1)">
      <path fill="none" stroke="#000000" d="M 176 24 L 176 46 L 350.97705078125 46 L 361.97705078125 35 L 361.97705078125 24 L 176 24 L 176 24" stroke-miterlimit="10" />
    </g>
    <g transform="translate(-43,-14) scale(1,1)">
      <g>
        <path fill="none" stroke="none" />
        <text fill="#000000" stroke="none" font-family="Arial" font-size="13px" font-style="normal" font-weight="normal" text-decoration="none" x="246.97900390625" y="41.5">Vessel exitHiding</text>
      </g>
    </g>
    <g transform="translate(-43,-14) scale(1,1)">
      <g>
        <path fill="none" stroke="none" />
        <text fill="#000000" stroke="none" font-family="Arial" font-size="13px" font-style="normal" font-weight="bold" text-decoration="none" x="181" y="41.5">interaction</text>
      </g>
    </g>
    <g transform="translate(-43,-14) scale(1,1)">
      <path fill="#ffffff" stroke="none" d="M 100.8631454190341 47.3 C 100.8631454190341 43.82060576 103.74154714121592 41 107.292236328125 41 C 110.84292551503408 41 113.7213272372159 43.82060576 113.7213272372159 47.3 C 113.7213272372159 50.779394239999995 110.84292551503408 53.6 107.292236328125 53.6 C 103.74154714121592 53.6 100.8631454190341 50.779394239999995 100.8631454190341 47.3 Z" />
    </g>
    <g transform="translate(-43,-14) scale(1,1)">
      <path fill="none" stroke="#000000" d="M 100.8631454190341 47.3 C 100.8631454190341 43.82060576 103.74154714121592 41 107.292236328125 41 C 110.84292551503408 41 113.7213272372159 43.82060576 113.7213272372159 47.3 C 113.7213272372159 50.779394239999995 110.84292551503408 53.6 107.292236328125 53.6 C 103.74154714121592 53.6 100.8631454190341 50.779394239999995 100.8631454190341 47.3 Z" stroke-miterlimit="10" />
    </g>
    <g transform="translate(-43,-14) scale(1,1)">
      <path fill="none" stroke="#000000" d="M 107.292236328125 53.6 L 107.292236328125 66.4" stroke-miterlimit="10" />
    </g>
    <g transform="translate(-43,-14) scale(1,1)">
      <path fill="none" stroke="#000000" d="M 100.48496360085227 58.4 L 114.09950905539773 58.4" stroke-miterlimit="10" />
    </g>
    <g transform="translate(-43,-14) scale(1,1)">
      <path fill="none" stroke="#000000" d="M 107.292236328125 66.4 L 97.83769087357955 79" stroke-miterlimit="10" />
    </g>
    <g transform="translate(-43,-14) scale(1,1)">
      <path fill="none" stroke="#000000" d="M 107.292236328125 66.4 L 116.74678178267045 79" stroke-miterlimit="10" />
    </g>
    <g transform="translate(-43,-14) scale(1,1)">
      <g>
        <path fill="none" stroke="none" />
        <text fill="#000000" stroke="none" font-family="Arial" font-size="13px" font-style="normal" font-weight="bold" text-decoration="none" x="65.74365234375" y="99.5">Lifeline1: User</text>
      </g>
    </g>
    <g transform="translate(-43,-14) scale(1,1)">
      <path fill="none" stroke="#000000" d="M 108.5 105 L 108.5 663" stroke-miterlimit="10" stroke-dasharray="3" />
    </g>
    <g transform="translate(-43,-14) scale(1,1)">
      <rect fill="#C0C0C0" stroke="none" x="367" y="47" width="120.16259765625" height="39" opacity="0.2" />
    </g>
    <g transform="translate(-43,-14) scale(1,1)">
      <rect fill="#ffffff" stroke="none" x="360" y="40" width="120.16259765625" height="39" />
    </g>
    <g transform="translate(-43,-14) scale(1,1)">
      <path fill="none" stroke="#000000" d="M 360 40 L 480.16259765625 40 L 480.16259765625 79 L 360 79 L 360 40 Z Z" stroke-miterlimit="10" />
    </g>
    <g transform="translate(-43,-14) scale(1,1)">
      <g>
        <path fill="none" stroke="none" />
        <text fill="#000000" stroke="none" font-family="Arial" font-size="13px" font-style="normal" font-weight="bold" text-decoration="none" x="394.068603515625" y="59.5">v: Vessel</text>
      </g>
    </g>
    <g transform="translate(-43,-14) scale(1,1)">
      <path fill="none" stroke="#000000" d="M 421.5 80 L 421.5 679" stroke-miterlimit="10" stroke-dasharray="3" />
    </g>
    <g transform="translate(-43,-14) scale(1,1)">
      <rect fill="#C0C0C0" stroke="none" x="519" y="47" width="185.47998046875" height="39" opacity="0.2" />
    </g>
    <g transform="translate(-43,-14) scale(1,1)">
      <rect fill="#ffffff" stroke="none" x="512" y="40" width="185.47998046875" height="39" />
    </g>
    <g transform="translate(-43,-14) scale(1,1)">
      <path fill="none" stroke="#000000" d="M 512 40 L 697.47998046875 40 L 697.47998046875 79 L 512 79 L 512 40 Z Z" stroke-miterlimit="10" />
    </g>
    <g transform="translate(-43,-14) scale(1,1)">
      <g>
        <path fill="none" stroke="none" />
        <text fill="#000000" stroke="none" font-family="Arial" font-size="13px" font-style="normal" font-weight="bold" text-decoration="none" x="533.208251953125" y="59.5">currentAsteroid: Asteroid</text>
      </g>
    </g>
    <g transform="translate(-43,-14) scale(1,1)">
      <path fill="none" stroke="#000000" d="M 605.5 80 L 605.5 671" stroke-miterlimit="10" stroke-dasharray="3" />
    </g>
    <g transform="translate(-43,-14) scale(1,1)">
      <path fill="none" stroke="#000000" d="M 108 120 L 414 120" stroke-miterlimit="10" />
    </g>
    <g transform="translate(-43,-14) scale(1,1)">
      <path fill="#000000" stroke="none" d="M 403.83732514237585 124.20951775601598 L 414 120 L 403.83732514237585 115.79048224398402" />
    </g>
    <g transform="translate(-43,-14) scale(1,1)">
      <path fill="none" stroke="#000000" d="M 403.83732514237585 124.20951775601598 L 414 120 L 403.83732514237585 115.79048224398402 L 403.83732514237585 124.20951775601598" stroke-miterlimit="10" />
    </g>
    <g transform="translate(-43,-14) scale(1,1)">
      <g>
        <path fill="none" stroke="none" />
        <text fill="#000000" stroke="none" font-family="Arial" font-size="13px" font-style="normal" font-weight="normal" text-decoration="none" x="218.114990234375" y="116.5">1 : ExitHiding()</text>
      </g>
    </g>
    <g transform="translate(-43,-14) scale(1,1)">
      <rect fill="#ffffff" stroke="none" x="414" y="120" width="13" height="440" />
    </g>
    <g transform="translate(-43,-14) scale(1,1)">
      <path fill="none" stroke="#000000" d="M 414 120 L 427 120 L 427 560 L 414 560 L 414 120 Z Z" stroke-miterlimit="10" />
    </g>
    <g transform="translate(-43,-14) scale(1,1)">
      <path fill="none" stroke="#000000" d="M 427 224 L 598 224" stroke-miterlimit="10" />
    </g>
    <g transform="translate(-43,-14) scale(1,1)">
      <path fill="#000000" stroke="none" d="M 587.8373251423759 228.209517756016 L 598 224 L 587.8373251423758 219.790482243984" />
    </g>
    <g transform="translate(-43,-14) scale(1,1)">
      <path fill="none" stroke="#000000" d="M 587.8373251423759 228.209517756016 L 598 224 L 587.8373251423758 219.790482243984 L 587.8373251423759 228.209517756016" stroke-miterlimit="10" />
    </g>
    <g transform="translate(-43,-14) scale(1,1)">
      <g>
        <path fill="none" stroke="none" />
        <text fill="#000000" stroke="none" font-family="Arial" font-size="13px" font-style="normal" font-weight="normal" text-decoration="none" x="484.654052734375" y="220.5">2 : Exit(v)</text>
      </g>
    </g>
    <g transform="translate(-43,-14) scale(1,1)">
      <rect fill="#ffffff" stroke="none" x="598" y="224" width="13" height="288" />
    </g>
    <g transform="translate(-43,-14) scale(1,1)">
      <path fill="none" stroke="#000000" d="M 598 224 L 611 224 L 611 512 L 598 512 L 598 224 Z Z" stroke-miterlimit="10" />
    </g>
    <g transform="translate(-43,-14) scale(1,1)">
      <path fill="none" stroke="#000000" d="M 427 288 L 457 288 L 457 308 L 434 308" stroke-miterlimit="10" />
    </g>
    <g transform="translate(-43,-14) scale(1,1)">
      <path fill="#000000" stroke="none" d="M 444.16267485762415 303.790482243984 L 434 308 L 444.16267485762415 312.209517756016" />
    </g>
    <g transform="translate(-43,-14) scale(1,1)">
      <path fill="none" stroke="#000000" d="M 444.16267485762415 303.790482243984 L 434 308 L 444.16267485762415 312.209517756016 L 444.16267485762415 303.790482243984" stroke-miterlimit="10" />
    </g>
    <g transform="translate(-43,-14) scale(1,1)">
      <g>
        <path fill="none" stroke="none" />
        <text fill="#000000" stroke="none" font-family="Arial" font-size="13px" font-style="normal" font-weight="normal" text-decoration="none" x="460.029541015625" y="308.5">3 : isHidden = false</text>
      </g>
    </g>
    <g transform="translate(-43,-14) scale(1,1)">
      <rect fill="#ffffff" stroke="none" x="421" y="308" width="13" height="28" />
    </g>
    <g transform="translate(-43,-14) scale(1,1)">
      <path fill="none" stroke="#000000" d="M 421 308 L 434 308 L 434 336 L 421 336 L 421 308 Z Z" stroke-miterlimit="10" />
    </g>
    <g transform="translate(-43,-14) scale(1,1)">
      <path fill="none" stroke="#000000" d="M 611 352 L 641 352 L 641 372 L 618 372" stroke-miterlimit="10" />
    </g>
    <g transform="translate(-43,-14) scale(1,1)">
      <path fill="none" stroke="#000000" d="M 628.1626748576241 367.790482243984 L 618 372 L 628.1626748576241 376.209517756016" stroke-miterlimit="10" />
    </g>
    <g transform="translate(-43,-14) scale(1,1)">
      <g>
        <path fill="none" stroke="none" />
        <text fill="#000000" stroke="none" font-family="Arial" font-size="13px" font-style="normal" font-weight="normal" text-decoration="none" x="637.5" y="372.5">4 : hidingVessel = null</text>
      </g>
    </g>
    <g transform="translate(-43,-14) scale(1,1)">
      <rect fill="#ffffff" stroke="none" x="605" y="372" width="13" height="28" />
    </g>
    <g transform="translate(-43,-14) scale(1,1)">
      <path fill="none" stroke="#000000" d="M 605 372 L 618 372 L 618 400 L 605 400 L 605 372 Z Z" stroke-miterlimit="10" />
    </g>
    <g transform="translate(-43,-14) scale(1,1)">
      <path fill="none" stroke="#000000" d="M 427 400 L 457 400 L 457 420 L 434 420" stroke-miterlimit="10" />
    </g>
    <g transform="translate(-43,-14) scale(1,1)">
      <path fill="#000000" stroke="none" d="M 444.16267485762415 415.790482243984 L 434 420 L 444.16267485762415 424.209517756016" />
    </g>
    <g transform="translate(-43,-14) scale(1,1)">
      <path fill="none" stroke="#000000" d="M 444.16267485762415 415.790482243984 L 434 420 L 444.16267485762415 424.209517756016 L 444.16267485762415 415.790482243984" stroke-miterlimit="10" />
    </g>
    <g transform="translate(-43,-14) scale(1,1)">
      <g>
        <path fill="none" stroke="none" />
        <text fill="#000000" stroke="none" font-family="Arial" font-size="13px" font-style="normal" font-weight="normal" text-decoration="none" x="460.5" y="415.5">5 : isHidden = false</text>
      </g>
    </g>
    <g transform="translate(-43,-14) scale(1,1)">
      <rect fill="#ffffff" stroke="none" x="421" y="420" width="13" height="28" />
    </g>
    <g transform="translate(-43,-14) scale(1,1)">
      <path fill="none" stroke="#000000" d="M 421 420 L 434 420 L 434 448 L 421 448 L 421 420 Z Z" stroke-miterlimit="10" />
    </g>
    <g transform="translate(-43,-14) scale(1,1)">
      <path fill="none" stroke="#000000" d="M 598 504 L 427 504" stroke-miterlimit="10" stroke-dasharray="3" />
    </g>
    <g transform="translate(-43,-14) scale(1,1)">
      <path fill="none" stroke="#000000" d="M 437.16267485762415 499.790482243984 L 427 504 L 437.16267485762415 508.209517756016" stroke-miterlimit="10" />
    </g>
    <g transform="translate(-43,-14) scale(1,1)">
      <g>
        <path fill="none" stroke="none" />
        <text fill="#000000" stroke="none" font-family="Arial" font-size="13px" font-style="normal" font-weight="normal" text-decoration="none" x="501.489501953125" y="520.5">6 : </text>
      </g>
    </g>
    <g transform="translate(-43,-14) scale(1,1)">
      <path fill="none" stroke="#000000" d="M 414 552 L 108 552" stroke-miterlimit="10" stroke-dasharray="3" />
    </g>
    <g transform="translate(-43,-14) scale(1,1)">
      <path fill="none" stroke="#000000" d="M 118.16267485762415 547.790482243984 L 108 552 L 118.16267485762415 556.209517756016" stroke-miterlimit="10" />
    </g>
    <g transform="translate(-43,-14) scale(1,1)">
      <g>
        <path fill="none" stroke="none" />
        <text fill="#000000" stroke="none" font-family="Arial" font-size="13px" font-style="normal" font-weight="normal" text-decoration="none" x="250.489501953125" y="568.5">7 : </text>
      </g>
    </g>
    <g transform="translate(-43,-14) scale(1,1)">
      <path fill="none" stroke="#000000" d="M 216 168 L 936 168 L 936 536 L 216 536 L 216 168" stroke-miterlimit="10" />
    </g>
    <g transform="translate(-43,-14) scale(1,1)">
      <path fill="#ffffff" stroke="none" d="M 216 168 L 216 190 L 284.7490234375 190 L 295.7490234375 179 L 295.7490234375 168 L 216 168" />
    </g>
    <g transform="translate(-43,-14) scale(1,1)">
      <path fill="none" stroke="#000000" d="M 216 168 L 216 190 L 284.7490234375 190 L 295.7490234375 179 L 295.7490234375 168 L 216 168 L 216 168" stroke-miterlimit="10" />
    </g>
    <g transform="translate(-43,-14) scale(1,1)">
      <g>
        <path fill="none" stroke="none" />
        <text fill="#000000" stroke="none" font-family="Arial" font-size="13px" font-style="normal" font-weight="normal" text-decoration="none" x="240.72998046875" y="185.5">Motion</text>
      </g>
    </g>
    <g transform="translate(-43,-14) scale(1,1)">
      <g>
        <path fill="none" stroke="none" />
        <text fill="#000000" stroke="none" font-family="Arial" font-size="13px" font-style="normal" font-weight="bold" text-decoration="none" x="221" y="185.5">alt</text>
      </g>
    </g>
    <g transform="translate(-43,-14) scale(1,1)">
      <g>
        <path fill="none" stroke="none" />
        <text fill="#000000" stroke="none" font-family="Arial" font-size="13px" font-style="normal" font-weight="normal" text-decoration="none" x="235.5" y="218.5">[isHidden  is true]</text>
      </g>
    </g>
    <g transform="translate(-43,-14) scale(1,1)">
      <path fill="none" stroke="#000000" d="M 264 256 L 776 256 L 776 472 L 264 472 L 264 256" stroke-miterlimit="10" />
    </g>
    <g transform="translate(-43,-14) scale(1,1)">
      <path fill="#ffffff" stroke="none" d="M 264 256 L 264 278 L 368.892578125 278 L 379.892578125 267 L 379.892578125 256 L 264 256" />
    </g>
    <g transform="translate(-43,-14) scale(1,1)">
      <path fill="none" stroke="#000000" d="M 264 256 L 264 278 L 368.892578125 278 L 379.892578125 267 L 379.892578125 256 L 264 256 L 264 256" stroke-miterlimit="10" />
    </g>
    <g transform="translate(-43,-14) scale(1,1)">
      <g>
        <path fill="none" stroke="none" />
        <text fill="#000000" stroke="none" font-family="Arial" font-size="13px" font-style="normal" font-weight="normal" text-decoration="none" x="293.07177734375" y="273.5">IsSpaceship</text>
      </g>
    </g>
    <g transform="translate(-43,-14) scale(1,1)">
      <g>
        <path fill="none" stroke="none" />
        <text fill="#000000" stroke="none" font-family="Arial" font-size="13px" font-style="normal" font-weight="bold" text-decoration="none" x="269" y="273.5">opt</text>
      </g>
    </g>
    <g transform="translate(-43,-14) scale(1,1)">
      <g>
        <path fill="none" stroke="none" />
        <text fill="#000000" stroke="none" font-family="Arial" font-size="13px" font-style="normal" font-weight="normal" text-decoration="none" x="283.5" y="306.5">[hidingSpace is 0]</text>
      </g>
    </g>
    <g transform="translate(-43,-14) scale(1,1)">
      <path fill="none" stroke="#000000" d="M 264 345 L 776 345" stroke-miterlimit="10" stroke-dasharray="10,3" />
    </g>
    <g transform="translate(-43,-14) scale(1,1)">
      <g>
        <path fill="none" stroke="none" />
        <text fill="#000000" stroke="none" font-family="Arial" font-size="13px" font-style="normal" font-weight="normal" text-decoration="none" x="283.5" y="372.5">[hidingSpace is 1]</text>
      </g>
    </g>
  </g>
</svg>