<?xml version="1.0" encoding="utf-8"?>
<svg version="1.1" xmlns="http://www.w3.org/2000/svg" xmlns:xlink="http://www.w3.org/1999/xlink" width="719" height="277">
  <defs />
  <g>
    <g transform="translate(-270,-374) scale(1,1)">
      <path fill="#C0C0C0" stroke="none" d="M 287 440.5 C 287 435.2532944 291.2532944 431 296.5 431 C 301.7467056 431 306 435.2532944 306 440.5 C 306 445.7467056 301.7467056 450 296.5 450 C 291.2532944 450 287 445.7467056 287 440.5 Z" opacity="0.2" />
    </g>
    <g transform="translate(-270,-374) scale(1,1)">
      <path fill="#000000" stroke="none" d="M 280 433.5 C 280 428.2532944 284.2532944 424 289.5 424 C 294.7467056 424 299 428.2532944 299 433.5 C 299 438.7467056 294.7467056 443 289.5 443 C 284.2532944 443 280 438.7467056 280 433.5 Z" />
    </g>
    <g transform="translate(-270,-374) scale(1,1)">
      <path fill="#C0C0C0" stroke="none" d="M 489 423 L 545.87548828125 423 Q 555.87548828125 423 555.87548828125 433 L 555.87548828125 452 Q 555.87548828125 462 545.87548828125 462 L 489 462 Q 479 462 479 452 L 479 433 Q 479 423 489 423 Z" opacity="0.2" />
    </g>
    <g transform="translate(-270,-374) scale(1,1)">
      <path fill="#ffffff" stroke="none" d="M 482 416 L 538.87548828125 416 Q 548.87548828125 416 548.87548828125 426 L 548.87548828125 445 Q 548.87548828125 455 538.87548828125 455 L 482 455 Q 472 455 472 445 L 472 426 Q 472 416 482 416 Z" />
    </g>
    <g transform="translate(-270,-374) scale(1,1)">
      <path fill="none" stroke="#000000" d="M 482 416 L 538.87548828125 416 Q 548.87548828125 416 548.87548828125 426 L 548.87548828125 445 Q 548.87548828125 455 538.87548828125 455 L 482 455 Q 472 455 472 445 L 472 426 Q 472 416 482 416 Z" stroke-miterlimit="10" />
    </g>
    <g transform="translate(-270,-374) scale(1,1)">
      <g>
        <path fill="none" stroke="none" />
        <text fill="#000000" stroke="none" font-family="Arial" font-size="13px" font-style="normal" font-weight="bold" text-decoration="none" x="478.997802734375" y="435.5">Not hidden</text>
      </g>
    </g>
    <g transform="translate(-270,-374) scale(1,1)">
      <path fill="none" stroke="#000000" d="M 300 433 L 471 435" stroke-miterlimit="10" />
    </g>
    <g transform="translate(-270,-374) scale(1,1)">
      <path fill="none" stroke="#000000" d="M 460.7887894100224 439.0903763014091 L 471 435 L 460.88725092737184 430.6719165680341" stroke-miterlimit="10" />
    </g>
    <g transform="translate(-270,-374) scale(1,1)">
      <path fill="#C0C0C0" stroke="none" d="M 937 431 L 976 431 Q 986 431 986 441 L 986 460 Q 986 470 976 470 L 937 470 Q 927 470 927 460 L 927 441 Q 927 431 937 431 Z" opacity="0.2" />
    </g>
    <g transform="translate(-270,-374) scale(1,1)">
      <path fill="#ffffff" stroke="none" d="M 930 424 L 969 424 Q 979 424 979 434 L 979 453 Q 979 463 969 463 L 930 463 Q 920 463 920 453 L 920 434 Q 920 424 930 424 Z" />
    </g>
    <g transform="translate(-270,-374) scale(1,1)">
      <path fill="none" stroke="#000000" d="M 930 424 L 969 424 Q 979 424 979 434 L 979 453 Q 979 463 969 463 L 930 463 Q 920 463 920 453 L 920 434 Q 920 424 930 424 Z" stroke-miterlimit="10" />
    </g>
    <g transform="translate(-270,-374) scale(1,1)">
      <g>
        <path fill="none" stroke="none" />
        <text fill="#000000" stroke="none" font-family="Arial" font-size="13px" font-style="normal" font-weight="bold" text-decoration="none" x="928.90185546875" y="443.5">Hidden</text>
      </g>
    </g>
    <g transform="translate(-270,-374) scale(1,1)">
      <path fill="#C0C0C0" stroke="none" d="M 623 635.5 C 623 628.59644 628.59644 623 635.5 623 C 642.40356 623 648 628.59644 648 635.5 C 648 642.40356 642.40356 648 635.5 648 C 628.59644 648 623 642.40356 623 635.5 Z" opacity="0.2" />
    </g>
    <g transform="translate(-270,-374) scale(1,1)">
      <path fill="none" stroke="#000000" d="M 616 628.5 C 616 621.59644 621.59644 616 628.5 616 C 635.40356 616 641 621.59644 641 628.5 C 641 635.40356 635.40356 641 628.5 641 C 621.59644 641 616 635.40356 616 628.5 Z" stroke-miterlimit="10" />
    </g>
    <g transform="translate(-270,-374) scale(1,1)">
      <path fill="#000000" stroke="none" d="M 621 628.5 C 621 624.357864 624.357864 621 628.5 621 C 632.642136 621 636 624.357864 636 628.5 C 636 632.642136 632.642136 636 628.5 636 C 624.357864 636 621 632.642136 621 628.5 Z" />
    </g>
    <g transform="translate(-270,-374) scale(1,1)">
      <path fill="none" stroke="#000000" d="M 523 456 L 620 615" stroke-miterlimit="10" />
    </g>
    <g transform="translate(-270,-374) scale(1,1)">
      <path fill="none" stroke="#000000" d="M 611.1137158671778 608.516640198882 L 620 615 L 618.3008759103739 604.1320205498882" stroke-miterlimit="10" />
    </g>
    <g transform="translate(-270,-374) scale(1,1)">
      <g>
        <path fill="none" stroke="none" />
        <text fill="#000000" stroke="none" font-family="Arial" font-size="13px" font-style="normal" font-weight="normal" text-decoration="none" x="551.5" y="603.5">explode</text>
      </g>
    </g>
    <g transform="translate(-270,-374) scale(1,1)">
      <path fill="none" stroke="#000000" d="M 550 450 L 720 512 L 919 452" stroke-miterlimit="10" />
    </g>
    <g transform="translate(-270,-374) scale(1,1)">
      <path fill="none" stroke="#000000" d="M 910.4851384068452 458.9639882286961 L 919 452 L 908.0548003260011 450.9033669272297" stroke-miterlimit="10" />
    </g>
    <g transform="translate(-270,-374) scale(1,1)">
      <g>
        <path fill="none" stroke="none" />
        <text fill="#000000" stroke="none" font-family="Arial" font-size="13px" font-style="normal" font-weight="normal" text-decoration="none" x="700.802490234375" y="483.5">hide [isHidden]</text>
      </g>
    </g>
    <g transform="translate(-270,-374) scale(1,1)">
      <path fill="none" stroke="#000000" d="M 919 435 L 720 384 L 550 425" stroke-miterlimit="10" />
    </g>
    <g transform="translate(-270,-374) scale(1,1)">
      <path fill="none" stroke="#000000" d="M 558.8924732030883 418.52513163590527 L 550 425 L 560.8663514309651 426.70950477588184" stroke-miterlimit="10" />
    </g>
  </g>
</svg>